<svg width="96" height="137" viewBox="0 0 96 137" fill="none" xmlns="http://www.w3.org/2000/svg">
<path d="M17.9637 62.2042C22.6243 58.4315 28.0839 56.5236 34.3869 56.5236C41.5776 56.5236 47.7475 59.0386 52.8964 64.0254C55.4708 66.4971 57.3795 69.229 58.6667 72.2645C59.9539 75.2999 60.5754 78.5955 60.5754 82.1079C60.5754 89.2195 58.0009 95.247 52.8964 100.19C47.7031 105.177 41.5333 107.692 34.3869 107.692C27.1518 107.692 20.982 105.177 15.8775 100.19C10.7729 95.2037 8.19849 89.1762 8.19849 82.1079V39.3517C8.19849 37.964 8.64236 36.8366 9.57449 35.9693C10.5066 35.0587 11.6607 34.6251 13.0367 34.6251C14.4127 34.6251 15.5668 35.0587 16.4989 35.9693C17.431 36.88 17.9193 38.0074 17.9193 39.3517V62.2042H17.9637ZM34.3869 98.1524C36.6507 98.1524 38.7812 97.7187 40.7787 96.8948C42.7761 96.0276 44.5072 94.9001 45.972 93.4258C47.4367 91.9514 48.6352 90.2602 49.4786 88.3522C50.3219 86.4009 50.7658 84.3628 50.7658 82.1513C50.7658 79.9398 50.3219 77.9017 49.4786 75.9503C48.6352 73.999 47.4367 72.3078 45.972 70.8768C44.5072 69.4025 42.7317 68.275 40.7787 67.4078C38.7812 66.5405 36.6507 66.1502 34.3869 66.1502C32.0788 66.1502 29.9482 66.5839 27.9508 67.4078C25.9534 68.275 24.2223 69.4025 22.7575 70.8768C21.2927 72.3078 20.1386 74.0424 19.2953 75.9503C18.4519 77.9017 18.0081 79.9831 18.0081 82.1513C18.0081 84.3628 18.4519 86.4009 19.2953 88.3522C20.1386 90.3036 21.2927 91.9948 22.7575 93.4258C24.2223 94.8568 25.9534 96.0276 27.9508 96.8948C29.9038 97.7187 32.0788 98.1524 34.3869 98.1524Z" fill="#FAF5F6"/>
<path fill-rule="evenodd" clip-rule="evenodd" d="M25.9193 49.5134V39.3517C25.9193 35.8321 24.5471 32.6479 22.0894 30.2469C19.5079 27.7249 16.2753 26.6251 13.0367 26.6251C9.82693 26.6251 6.62302 27.7055 4.05309 30.1799C1.32249 32.7599 0.198486 36.0965 0.198486 39.3517V82.1079C0.198486 91.3714 3.67134 99.4498 10.287 105.913C16.8967 112.37 25.0773 115.692 34.3869 115.692C43.6333 115.692 51.7792 112.354 58.4373 105.961L58.4496 105.949L58.4618 105.937C65.1108 99.4981 68.5753 91.4018 68.5753 82.1079C68.5753 77.6374 67.7807 73.2652 66.0318 69.1412C64.2937 65.0424 61.7408 61.4296 58.4494 58.2666C51.8176 51.8495 43.6591 48.5236 34.3869 48.5236C31.4524 48.5236 28.625 48.8537 25.9193 49.5134ZM31.0671 74.7765C29.9013 75.2911 29.0733 75.8705 28.4327 76.5152L28.3907 76.5576L28.348 76.5993C27.6995 77.2328 27.1039 78.082 26.6261 79.1537C26.2152 80.1146 26.0081 81.1079 26.0081 82.1513C26.0081 83.2374 26.2149 84.1977 26.6388 85.1785C27.0852 86.2114 27.6562 87.0275 28.348 87.7033C29.097 88.4351 29.9975 89.0564 31.0969 89.5392C32.0027 89.9154 33.1016 90.1524 34.3869 90.1524C35.5752 90.1524 36.6489 89.9348 37.6624 89.5261C38.8282 89.0115 39.6562 88.4321 40.2967 87.7874C41.1297 86.9489 41.7373 86.067 42.1483 85.1477C42.5632 84.1776 42.7658 83.2261 42.7658 82.1513C42.7658 81.0652 42.5589 80.1049 42.1351 79.1241C41.7269 78.1796 41.1428 77.343 40.3815 76.5993L40.3388 76.5576L40.2967 76.5152C39.6823 75.8968 38.8054 75.2887 37.5649 74.734C36.7122 74.3684 35.6959 74.1502 34.3869 74.1502C33.1449 74.1502 32.0711 74.3716 31.0671 74.7765Z" fill="#FAF5F6"/>
<path d="M85.8761 44.5119C84.5888 41.6066 82.769 39.0915 80.5496 36.9234C78.2859 34.7552 75.7114 33.064 72.7818 31.8498C69.8523 30.5923 66.7452 29.9852 63.4605 29.9852C57.8678 29.9852 52.9852 31.5463 48.8128 34.7118V12.77C48.7684 11.4257 48.2801 10.2983 47.348 9.38763C46.4159 8.477 45.2618 8 43.9302 8C42.5986 8 41.4445 8.477 40.5124 9.38763C39.5802 10.2983 39.092 11.4691 39.092 12.77V47.2438C42.643 47.3305 46.1495 48.4146 49.3898 50.0624C49.5674 49.4554 49.7449 48.8916 50.0112 48.2846C50.7658 46.55 51.8311 45.0323 53.1627 43.7314C54.4943 42.4305 56.0479 41.3898 57.8234 40.6526C59.5989 39.9154 61.4631 39.5252 63.5049 39.5252C65.5024 39.5252 67.3666 39.9154 69.1421 40.6526C70.9176 41.4331 72.4711 42.4305 73.8027 43.7314C75.1344 45.0323 76.1997 46.55 76.9542 48.2846C77.7532 50.0191 78.1083 51.8837 78.1083 53.7917V76.2105C78.1083 77.5548 78.5966 78.6822 79.5287 79.5929C80.4608 80.5035 81.6149 80.9805 82.9465 80.9805C84.2781 80.9805 85.4322 80.5035 86.3643 79.5929C87.2964 78.6822 87.7847 77.5114 87.8291 76.2105V53.7917C87.8291 50.5394 87.1633 47.4173 85.8761 44.5119Z" fill="#FAF5F6"/>
<path fill-rule="evenodd" clip-rule="evenodd" d="M34.9219 3.66517C37.3454 1.29757 40.5047 0 43.9302 0C47.3557 0 50.515 1.29757 52.9385 3.66517C55.3978 6.06781 56.6984 9.17374 56.8084 12.506L56.8128 12.6379V22.6078C58.9634 22.1904 61.1832 21.9852 63.4605 21.9852C67.7424 21.9852 71.9151 22.7796 75.891 24.4786C79.7267 26.0749 83.1217 28.3094 86.0832 31.1458L86.1118 31.1732L86.1401 31.2009C89.0186 34.013 91.4546 37.3537 93.1903 41.2713C94.9316 45.2014 95.8291 49.4278 95.8291 53.7917V76.347L95.8244 76.4833C95.7139 79.7218 94.4444 82.8831 91.9548 85.3153C89.5313 87.6829 86.372 88.9805 82.9465 88.9805C79.521 88.9805 76.3617 87.6829 73.9382 85.3153C71.4805 82.9143 70.1083 79.73 70.1083 76.2105V53.7917C70.1083 52.8827 69.9421 52.1831 69.688 51.6315L69.6524 51.5541L69.6183 51.4759C69.291 50.7234 68.8305 50.0578 68.2123 49.4539C67.6825 48.9363 66.9925 48.4558 66.0016 48.0113C65.1942 47.6858 64.392 47.5252 63.5049 47.5252C62.5345 47.5252 61.7115 47.7004 60.891 48.0411C60.0724 48.3809 59.3712 48.8501 58.7532 49.4539C58.135 50.0578 57.6745 50.7235 57.3471 51.4759L57.3422 51.4872L57.3373 51.4984C57.2821 51.6242 57.2191 51.792 57.0682 52.3081L54.3608 61.5654L45.7635 57.1933C43.2971 55.9391 40.9656 55.292 38.8967 55.2414L31.092 55.0508V12.77C31.092 9.3334 32.4358 6.09393 34.9219 3.66517Z" fill="#FAF5F6"/>
<path d="M82.9465 98.7876C86.0843 98.7876 88.628 96.3026 88.628 93.2371C88.628 90.1716 86.0843 87.6866 82.9465 87.6866C79.8086 87.6866 77.2649 90.1716 77.2649 93.2371C77.2649 96.3026 79.8086 98.7876 82.9465 98.7876Z" fill="#FAF5F6"/>
<path d="M12.6816 27.0121C15.8194 27.0121 18.3632 24.527 18.3632 21.4616C18.3632 18.3961 15.8194 15.9111 12.6816 15.9111C9.54377 15.9111 7.00005 18.3961 7.00005 21.4616C7.00005 24.527 9.54377 27.0121 12.6816 27.0121Z" fill="#FAF5F6"/>
<path fill-rule="evenodd" clip-rule="evenodd" d="M12.6816 16.9111C10.0739 16.9111 8.00005 18.9703 8.00005 21.4616C8.00005 23.9529 10.0739 26.0121 12.6816 26.0121C15.2893 26.0121 17.3632 23.9529 17.3632 21.4616C17.3632 18.9703 15.2893 16.9111 12.6816 16.9111ZM6.00005 21.4616C6.00005 17.8219 9.01361 14.9111 12.6816 14.9111C16.3496 14.9111 19.3632 17.8219 19.3632 21.4616C19.3632 25.1012 16.3496 28.0121 12.6816 28.0121C9.01361 28.0121 6.00005 25.1012 6.00005 21.4616Z" fill="#FAF5F6"/>
<path d="M16.1306 126.512C17.1515 125.689 18.3944 125.255 19.7704 125.255C21.3683 125.255 22.7443 125.819 23.8984 126.903C24.4754 127.466 24.8749 128.074 25.1856 128.724C25.4963 129.374 25.6295 130.112 25.6295 130.936C25.6295 132.54 25.0525 133.884 23.9428 134.968C22.7887 136.096 21.4127 136.616 19.8148 136.616C18.2168 136.616 16.8408 136.052 15.6868 134.968C14.5327 133.884 14 132.497 14 130.936V121.439C14 121.135 14.0888 120.875 14.3108 120.702C14.5327 120.528 14.7546 120.398 15.0653 120.398C15.3761 120.398 15.6424 120.485 15.8199 120.702C15.9975 120.919 16.1306 121.135 16.1306 121.439V126.512ZM19.8148 134.491C20.303 134.491 20.7913 134.405 21.2352 134.188C21.679 133.971 22.0785 133.754 22.3892 133.407C22.6999 133.06 22.9663 132.713 23.1882 132.28C23.4101 131.846 23.4545 131.369 23.4545 130.892C23.4545 130.415 23.3657 129.938 23.1882 129.505C23.0106 129.071 22.7443 128.681 22.3892 128.377C22.0341 128.074 21.679 127.813 21.2352 127.597C20.7913 127.38 20.303 127.293 19.8148 127.293C19.2821 127.293 18.8383 127.38 18.3944 127.597C17.9505 127.813 17.551 128.03 17.2403 128.377C16.9296 128.724 16.6633 129.071 16.4857 129.505C16.3082 129.938 16.2194 130.415 16.2194 130.892C16.2194 131.369 16.3082 131.846 16.4857 132.28C16.6633 132.713 16.9296 133.104 17.2403 133.407C17.551 133.711 17.9505 133.971 18.3944 134.188C18.8383 134.405 19.2821 134.491 19.8148 134.491Z" fill="#FAF5F6"/>
<path d="M36.1492 133.407C36.46 133.407 36.7263 133.494 36.9038 133.711C37.0814 133.928 37.2145 134.144 37.2145 134.448C37.2145 134.751 37.1258 135.012 36.9038 135.228C35.8385 136.139 34.5513 136.616 33.0865 136.616C31.4886 136.616 30.1126 136.052 28.9585 134.968C27.8045 133.884 27.2718 132.497 27.2718 130.936C27.2718 129.374 27.8488 128.03 28.9585 126.903C30.0682 125.775 31.4886 125.255 33.0865 125.255C34.6845 125.255 36.0605 125.819 37.2145 126.903C37.7916 127.466 38.1911 128.074 38.5018 128.724C38.8125 129.374 38.9456 130.112 38.9456 130.936C38.9456 131.239 38.8569 131.499 38.6349 131.673C38.413 131.846 38.1467 131.976 37.8803 131.976H29.6243C29.7575 132.366 29.935 132.67 30.157 133.017C30.3789 133.364 30.6452 133.581 30.9559 133.797C31.2667 134.014 31.6218 134.188 31.9769 134.318C32.332 134.448 32.7314 134.491 33.1309 134.491C33.5748 134.491 34.0187 134.405 34.3738 134.274C34.7289 134.144 35.1283 133.928 35.439 133.667C35.661 133.494 35.8829 133.407 36.1492 133.407ZM36.6375 129.851C36.5043 129.461 36.3268 129.158 36.1049 128.811C35.8829 128.464 35.6166 128.247 35.3059 128.03C34.9952 127.813 34.6401 127.64 34.285 127.51C33.9299 127.38 33.5304 127.336 33.1309 127.336C32.7314 127.336 32.332 127.38 31.9769 127.51C31.6218 127.64 31.2667 127.813 30.9559 128.03C30.6452 128.247 30.3789 128.507 30.157 128.811C29.935 129.114 29.7575 129.461 29.6687 129.851H36.6375Z" fill="#FAF5F6"/>
<path d="M42.7629 135.532C42.7629 135.836 42.6742 136.096 42.4522 136.269C42.2303 136.443 41.964 136.573 41.6976 136.573C41.3869 136.573 41.165 136.486 40.9431 136.269C40.7211 136.052 40.6324 135.792 40.6324 135.532V121.439C40.6324 121.135 40.7211 120.875 40.9431 120.702C41.165 120.528 41.4313 120.398 41.6976 120.398C41.964 120.398 42.2303 120.485 42.4522 120.702C42.6742 120.919 42.7629 121.179 42.7629 121.439V126.296C43.6951 125.602 44.7604 125.255 46.0032 125.255C46.7134 125.255 47.4236 125.385 48.0894 125.689C48.7552 125.992 49.3322 126.339 49.8205 126.816C50.3088 127.293 50.7082 127.857 51.019 128.507C51.3297 129.158 51.4628 129.851 51.4628 130.589V135.575C51.4628 135.879 51.3297 136.139 51.1521 136.313C50.9746 136.486 50.6639 136.616 50.3975 136.616C50.1312 136.616 49.8649 136.529 49.6429 136.313C49.421 136.096 49.3322 135.836 49.3322 135.575V130.545C49.3322 130.112 49.2435 129.721 49.0659 129.331C48.8884 128.941 48.6664 128.594 48.3557 128.334C48.045 128.074 47.7343 127.813 47.3348 127.64C46.9353 127.466 46.5358 127.38 46.092 127.38C45.6481 127.38 45.2042 127.466 44.8491 127.64C44.494 127.813 44.0946 128.03 43.8282 128.334C43.5619 128.637 43.2956 128.984 43.118 129.331C42.9405 129.678 42.7629 130.112 42.7629 130.545V135.532Z" fill="#FAF5F6"/>
<path d="M56.0347 123.217C56.0347 123.564 55.9015 123.867 55.6796 124.084C55.4577 124.301 55.1469 124.431 54.7918 124.431C54.4367 124.431 54.126 124.301 53.9041 124.084C53.6822 123.867 53.549 123.564 53.549 123.217C53.549 122.87 53.6822 122.566 53.9041 122.35C54.126 122.133 54.4367 122.003 54.7918 122.003C55.1469 122.003 55.4577 122.133 55.6796 122.35C55.9015 122.566 56.0347 122.87 56.0347 123.217ZM53.6822 135.532V126.296C53.6822 125.992 53.7709 125.732 53.9929 125.558C54.2148 125.385 54.4811 125.255 54.7475 125.255C55.0138 125.255 55.2801 125.342 55.502 125.558C55.724 125.775 55.8127 126.035 55.8127 126.296V135.532C55.8127 135.836 55.6796 136.096 55.502 136.269C55.3245 136.443 55.0138 136.573 54.7475 136.573C54.4811 136.573 54.2148 136.486 53.9929 136.269C53.7709 136.052 53.6822 135.836 53.6822 135.532Z" fill="#FAF5F6"/>
<path d="M60.2515 126.296C61.1836 125.602 62.2489 125.255 63.4917 125.255C64.2019 125.255 64.9121 125.385 65.5779 125.689C66.2437 125.992 66.8208 126.339 67.309 126.816C67.7973 127.293 68.1968 127.857 68.5075 128.507C68.8182 129.158 68.9514 129.851 68.9514 130.589V135.619C68.9514 135.922 68.8626 136.182 68.6406 136.356C68.4187 136.529 68.1524 136.659 67.8861 136.659C67.5754 136.659 67.309 136.573 67.1315 136.356C66.9539 136.139 66.8208 135.879 66.8208 135.619V130.545C66.8208 130.112 66.732 129.721 66.5545 129.331C66.3769 128.941 66.155 128.594 65.8443 128.334C65.5335 128.074 65.2228 127.813 64.8234 127.64C64.4239 127.466 64.0244 127.38 63.5805 127.38C63.1366 127.38 62.6928 127.466 62.3377 127.64C61.9826 127.813 61.5831 128.03 61.3168 128.334C61.0504 128.637 60.7841 128.984 60.6066 129.331C60.429 129.678 60.3402 130.112 60.3402 130.545V135.575C60.3402 135.879 60.2515 136.139 60.0295 136.313C59.8076 136.486 59.5413 136.616 59.275 136.616C58.9642 136.616 58.6979 136.529 58.5204 136.313C58.3428 136.096 58.2097 135.836 58.2097 135.575V126.339C58.2097 126.035 58.2984 125.819 58.5204 125.602C58.7423 125.385 59.0086 125.298 59.275 125.298C59.5857 125.298 59.8076 125.385 60.0295 125.602C60.2515 125.819 60.2515 125.992 60.2515 126.296Z" fill="#FAF5F6"/>
<path d="M76.4084 125.255C77.7844 125.255 79.0273 125.689 80.0482 126.512V121.439C80.0482 121.135 80.137 120.875 80.3589 120.702C80.5808 120.528 80.8028 120.398 81.1135 120.398C81.4242 120.398 81.6905 120.485 81.868 120.702C82.0456 120.919 82.1788 121.135 82.1788 121.439V130.936C82.1788 132.54 81.6017 133.884 80.492 134.968C79.338 136.096 77.962 136.616 76.364 136.616C74.7661 136.616 73.3901 136.052 72.236 134.968C71.082 133.884 70.5493 132.497 70.5493 130.936C70.5493 129.374 71.1264 128.03 72.236 126.903C73.3457 125.775 74.7661 125.255 76.4084 125.255ZM80.0482 130.936C80.0482 130.459 79.9594 129.982 79.7818 129.548C79.6043 129.114 79.338 128.724 78.9829 128.42C78.6278 128.117 78.2727 127.857 77.8288 127.64C77.3849 127.423 76.8967 127.336 76.4084 127.336C75.8758 127.336 75.4319 127.423 74.988 127.64C74.5442 127.857 74.1447 128.074 73.834 128.42C73.5233 128.767 73.2569 129.114 73.0794 129.548C72.9018 129.982 72.8131 130.459 72.8131 130.936C72.8131 131.413 72.9018 131.889 73.0794 132.323C73.2569 132.757 73.5233 133.147 73.834 133.451C74.1447 133.754 74.5442 134.014 74.988 134.231C75.4319 134.448 75.9202 134.535 76.4084 134.535C76.8967 134.535 77.3849 134.448 77.8288 134.231C78.2727 134.014 78.6722 133.797 78.9829 133.451C79.2936 133.104 79.5599 132.757 79.7818 132.323C80.0038 131.889 80.0482 131.413 80.0482 130.936Z" fill="#FAF5F6"/>
</svg>
