<svg width="274" height="67" viewBox="0 0 274 67" fill="none" xmlns="http://www.w3.org/2000/svg">
<path d="M14 27.3333L43.1532 3H259.373V41.3333L230.22 63H14V27.3333Z" fill="#FAF5F6"/>
<path d="M67.6153 34.9056V33.1181H74.3986V38.8472H72.3667L72.2444 37.1667C71.2361 38.2667 69.6319 39 67.3556 39C63.4139 39 61 37.0444 61 33.5C61 29.9556 63.4139 28 67.8139 28C72.0917 28 74.2306 29.6653 74.3986 32.3236H71.6028C71.45 31.5139 70.7167 30.3069 67.8139 30.3069C64.2389 30.3069 63.75 32.2778 63.75 33.5611C63.75 34.8597 64.2542 36.8764 67.8139 36.8764C70.4722 36.8764 71.5417 35.7153 71.6028 34.9056H67.6153Z" fill="#0E0E0E"/>
<path d="M87.5451 30.3375H78.9896V32.5069H87.5451V34.4931H78.9896V36.6625H87.5451V38.8472H76.2396V28.1528H87.5451V30.3375Z" fill="#0E0E0E"/>
<path d="M102.209 28.1528V30.4597H97.0144V38.8472H94.2644V30.4597H89.0699V28.1528H102.209Z" fill="#0E0E0E"/>
<path d="M114.627 28.1528V38.8472H111.877V28.1528H114.627Z" fill="#0E0E0E"/>
<path d="M127.64 28.1528H130.39V38.8472H126.647L119.359 30.8264V38.8472H116.609V28.1528H120.337L127.64 36.1889V28.1528Z" fill="#0E0E0E"/>
<path d="M153.204 28.1528V30.4597H148.01V38.8472H145.26V30.4597H140.065V28.1528H153.204Z" fill="#0E0E0E"/>
<path d="M160.935 39C156.229 39 154.212 37.0444 154.212 33.4847C154.212 29.9403 156.229 28 160.935 28C165.625 28 167.657 29.9556 167.657 33.4847C167.657 37.0292 165.625 39 160.935 39ZM160.935 36.6931C163.792 36.6931 164.907 35.6694 164.907 33.4847C164.907 31.3153 163.807 30.3069 160.935 30.3069C158.062 30.3069 156.962 31.3 156.962 33.4847C156.962 35.6847 158.078 36.6931 160.935 36.6931Z" fill="#0E0E0E"/>
<path d="M182.941 33.4847C182.941 37.1972 180.909 39 176.219 39C171.513 39 169.497 37.2125 169.497 33.4847V28.1528H172.247V33.4847C172.247 34.9819 172.659 36.6931 176.219 36.6931C179.779 36.6931 180.191 34.9667 180.191 33.4847V28.1528H182.941V33.4847Z" fill="#0E0E0E"/>
<path d="M184.61 33.4847C184.61 29.9403 186.626 28 191.332 28C195.594 28 197.733 29.6194 198.008 32.7056H195.213C194.953 30.9792 193.624 30.3069 191.332 30.3069C188.536 30.3069 187.36 31.3 187.36 33.4847C187.36 35.6847 188.551 36.6931 191.332 36.6931C193.608 36.6931 194.953 36.0056 195.213 34.2639H198.008C197.733 37.3653 195.594 39 191.332 39C186.626 39 184.61 37.0444 184.61 33.4847Z" fill="#0E0E0E"/>
<path d="M211.233 28.1528H213.983V38.8472H211.233V34.6611H202.525V38.8472H199.775V28.1528H202.525V32.3389H211.233V28.1528Z" fill="#0E0E0E"/>
</svg>
