<svg width="274" height="67" viewBox="0 0 274 67" fill="none" xmlns="http://www.w3.org/2000/svg">
<path d="M258.373 4V40.8306L229.889 62H15V27.8012L43.5157 4H258.373Z" stroke="#CFF80A" stroke-width="2"/>
<path d="M60.6722 28.1528H63.7583L58.2583 38.8472H54.5L49 28.1528H52.0861L56.3792 36.8153L60.6722 28.1528Z" fill="#CFF80A"/>
<path d="M67.4712 28.1528V38.8472H64.7212V28.1528H67.4712Z" fill="#CFF80A"/>
<path d="M80.3009 30.3375H71.7454V32.5069H80.3009V34.4931H71.7454V36.6625H80.3009V38.8472H68.9954V28.1528H80.3009V30.3375Z" fill="#CFF80A"/>
<path d="M100.53 28.1528H103.51L99.2929 38.8472H95.4887L92.3415 30.7958L89.179 38.8472H85.3901L81.1734 28.1528H84.1373L87.2998 36.5556L90.6457 28.1528H94.0221L97.3832 36.5708L100.53 28.1528Z" fill="#CFF80A"/>
<path d="M120.672 28.1528C123.101 28.1528 124.766 29.6958 124.766 32.0792C124.766 34.4625 123.101 35.9903 120.672 35.9903H115.019V38.8472H112.269V28.1528H120.672ZM119.908 33.6833C120.733 33.6833 122.016 33.6833 122.016 32.0792C122.016 30.4597 120.733 30.4597 119.908 30.4597H115.019V33.6833H119.908Z" fill="#CFF80A"/>
<path d="M132.542 39C127.836 39 125.82 37.0444 125.82 33.4847C125.82 29.9403 127.836 28 132.542 28C137.232 28 139.264 29.9556 139.264 33.4847C139.264 37.0292 137.232 39 132.542 39ZM132.542 36.6931C135.399 36.6931 136.514 35.6694 136.514 33.4847C136.514 31.3153 135.414 30.3069 132.542 30.3069C129.67 30.3069 128.57 31.3 128.57 33.4847C128.57 35.6847 129.685 36.6931 132.542 36.6931Z" fill="#CFF80A"/>
<path d="M153.068 32.0792C153.068 33.8208 152.182 35.1042 150.746 35.6694L152.717 38.8472H149.478L147.752 35.9903H143.321V38.8472H140.571V28.1528H148.974C151.403 28.1528 153.068 29.6958 153.068 32.0792ZM143.321 30.4597V33.6833H148.21C149.035 33.6833 150.318 33.6833 150.318 32.0792C150.318 30.4597 149.035 30.4597 148.21 30.4597H143.321Z" fill="#CFF80A"/>
<path d="M167.067 28.1528V30.4597H161.872V38.8472H159.122V30.4597H153.928V28.1528H167.067Z" fill="#CFF80A"/>
<path d="M179.582 30.4597H171.026V33.1792H178.665V35.5014H171.026V38.8472H168.276V28.1528H179.582V30.4597Z" fill="#CFF80A"/>
<path d="M187.028 39C182.322 39 180.305 37.0444 180.305 33.4847C180.305 29.9403 182.322 28 187.028 28C191.718 28 193.75 29.9556 193.75 33.4847C193.75 37.0292 191.718 39 187.028 39ZM187.028 36.6931C189.885 36.6931 191 35.6694 191 33.4847C191 31.3153 189.9 30.3069 187.028 30.3069C184.155 30.3069 183.055 31.3 183.055 33.4847C183.055 35.6847 184.171 36.6931 187.028 36.6931Z" fill="#CFF80A"/>
<path d="M197.807 36.5403H206.057V38.8472H195.057V28.1528H197.807V36.5403Z" fill="#CFF80A"/>
<path d="M210.182 28.1528V38.8472H207.432V28.1528H210.182Z" fill="#CFF80A"/>
<path d="M218.127 39C213.421 39 211.405 37.0444 211.405 33.4847C211.405 29.9403 213.421 28 218.127 28C222.817 28 224.849 29.9556 224.849 33.4847C224.849 37.0292 222.817 39 218.127 39ZM218.127 36.6931C220.984 36.6931 222.099 35.6694 222.099 33.4847C222.099 31.3153 220.999 30.3069 218.127 30.3069C215.255 30.3069 214.155 31.3 214.155 33.4847C214.155 35.6847 215.27 36.6931 218.127 36.6931Z" fill="#CFF80A"/>
</svg>
