<svg width="167" height="215" viewBox="0 0 167 215" fill="none" xmlns="http://www.w3.org/2000/svg">
<mask id="mask0_1_318" style="mask-type:luminance" maskUnits="userSpaceOnUse" x="0" y="0" width="167" height="215">
<path d="M166.845 0H0.155243V215H166.845V0Z" fill="white"/>
</mask>
<g mask="url(#mask0_1_318)">
<path d="M79.4759 124.218C79.5942 126.151 78.9234 127.789 77.7595 129.308C70.0467 139.349 62.3727 149.389 54.6792 159.43C46.5917 170.004 38.5234 180.558 30.4351 191.131C25.1683 197.995 19.9016 204.86 14.6348 211.725C11.8333 215.375 6.90195 216.066 3.29138 213.303C-0.18015 210.66 -0.870308 205.689 1.83224 202.059C4.88954 197.976 8.04574 193.932 11.1432 189.869C19.2107 179.374 27.2596 168.879 35.3278 158.365C44.1063 146.924 52.8646 135.463 61.623 124.021C62.8657 122.404 64.069 120.786 65.3518 119.188C67.2646 116.801 70.2632 115.539 74.2084 116.742C77.5624 117.788 79.4759 120.648 79.4759 124.218Z" fill="#FAF5F6"/>
<path d="M73.5577 33.0812C73.8737 22.6262 82.2573 15.209 91.9237 15.4654C102.181 15.7416 110.052 24.1648 109.44 34.4818C108.848 44.4241 100.366 51.802 90.5226 51.3089C81.5865 50.8546 73.4989 43.5363 73.5577 33.0812Z" fill="#FAF5F6"/>
<path d="M122.026 45.529C121.868 43.7536 122.519 42.136 123.643 40.696C131.455 30.4973 139.267 20.3184 147.079 10.1395C148.834 7.85124 150.59 5.56292 152.346 3.27467C155.127 -0.315611 159.94 -1.06517 163.55 1.5584C167.101 4.14263 167.949 9.11371 165.227 12.7236C159.96 19.7463 154.595 26.6901 149.268 33.6536C145.086 39.1178 140.885 44.5623 136.702 50.0269C135.164 52.0386 133.27 53.4196 130.666 53.6561C125.892 54.0904 121.75 50.2039 122.026 45.529Z" fill="#FAF5F6"/>
<path d="M113.05 81.7476C115.674 82.8326 118.081 83.8381 120.487 84.8443C121.158 85.1209 121.829 85.3968 122.46 85.7322C126.346 87.7833 127.806 92.0052 126.149 96.1282C125.044 98.8702 120.941 102.085 116.305 100.389C113.603 99.4026 110.979 98.2388 108.316 97.1344C104.805 95.6745 101.293 94.2735 97.8218 92.7154C96.5985 92.1629 95.3752 91.4333 94.4284 90.4859C91.9631 88.0399 91.4299 83.6804 93.7383 80.5636C96.2832 77.1509 98.8667 73.7775 101.451 70.3848C103.01 68.3531 104.568 66.3407 106.127 64.329C108.178 61.7053 110.92 60.679 114.135 61.3304C117.43 62.0206 119.56 64.1118 120.31 67.4458C120.843 69.8129 120.35 72.0023 118.909 73.9552C117.233 76.2242 115.496 78.433 113.781 80.6819C113.583 80.9585 113.406 81.2344 113.05 81.7476Z" fill="#FAF5F6"/>
<path d="M86.1036 96.1079C87.3463 96.4627 88.6686 96.6798 89.8518 97.1729C100.011 101.375 110.17 105.616 120.309 109.857C122.026 110.567 123.624 111.416 124.768 112.955C126.721 115.539 126.859 119.464 125.024 122.187C123.19 124.929 119.738 126.408 116.621 125.461C113.997 124.672 111.472 123.567 108.927 122.522C100.465 119.03 92.0219 115.459 83.5394 111.968C80.0872 110.548 78.0354 107.983 78.0555 104.334C78.0949 99.5601 81.6653 96.3251 86.1036 96.1079Z" fill="#FAF5F6"/>
<path d="M82.8686 75.5523C81.7442 75.237 80.5609 75.0592 79.4953 74.6056C68.9223 70.2267 58.3686 65.7684 47.7749 61.4089C42.7052 59.3176 41.2855 53.0841 44.4811 48.9418C46.5716 46.2192 50.4975 45.1934 54.0679 46.6534C59.0387 48.6852 63.9708 50.7757 68.9416 52.8476C74.3861 55.1158 79.8113 57.4042 85.2558 59.6136C87.6817 60.5998 89.5759 62.1191 90.5032 64.6045C92.4956 69.9107 88.6292 75.3753 82.8686 75.5523Z" fill="#FAF5F6"/>
<path d="M114.944 150.474C113.919 150.218 112.656 150.06 111.532 149.587C104.213 146.568 96.8945 143.511 89.596 140.433C88.6292 140.019 87.643 139.605 86.8146 139.013C83.323 136.528 83.0664 131.892 84.5657 128.933C86.3014 125.52 90.2467 123.765 93.916 125.067C97.9795 126.527 101.945 128.262 105.949 129.899C110.072 131.596 114.175 133.293 118.278 135.028C121.592 136.429 123.309 139.566 123.21 142.643C123.071 146.45 120.764 148.995 117.864 149.922C117.016 150.198 116.088 150.277 114.944 150.474Z" fill="#FAF5F6"/>
<path d="M58.5657 111.258C53.2194 111.751 48.3081 105.321 51.7402 99.4217C52.7657 97.6859 54.1274 96.1279 55.35 94.5103C58.3679 90.545 61.3865 86.5797 64.4438 82.6545C67.0482 79.3005 71.5653 78.4721 74.9975 80.6228C79.0416 83.1476 80.0672 88.4345 77.2069 92.2808C74.465 95.9695 71.6442 99.58 68.8434 103.209C67.5606 104.866 66.2785 106.524 65.0164 108.2C63.5566 110.192 60.9723 111.534 58.5657 111.258Z" fill="#FAF5F6"/>
</g>
</svg>
