<svg width="1199" height="137" viewBox="0 0 1199 137" fill="none" xmlns="http://www.w3.org/2000/svg">
<g clip-path="url(#clip0_2_729)">
<g filter="url(#filter0_d_2_729)">
<rect y="1" width="178" height="135" fill="#FF4F2A"/>
</g>
<path d="M81.4289 29.703H83.0142V38.3706C83.0142 39.2655 82.8032 40.0645 82.3814 40.7677C81.9637 41.4665 81.3735 42.0184 80.6108 42.4232C79.848 42.8238 78.9531 43.0241 77.9261 43.0241C76.8991 43.0241 76.0042 42.8238 75.2414 42.4232C74.4787 42.0184 73.8863 41.4665 73.4645 40.7677C73.0468 40.0645 72.838 39.2655 72.838 38.3706V29.703H74.4233V38.2428C74.4233 38.882 74.5639 39.4509 74.8451 39.9495C75.1264 40.4438 75.527 40.8337 76.0468 41.1192C76.571 41.4005 77.1974 41.5411 77.9261 41.5411C78.6548 41.5411 79.2812 41.4005 79.8054 41.1192C80.3295 40.8337 80.7301 40.4438 81.0071 39.9495C81.2883 39.4509 81.4289 38.882 81.4289 38.2428V29.703ZM93.8298 35.1746L92.4747 35.5581C92.3895 35.3323 92.2638 35.1128 92.0976 34.8998C91.9356 34.6824 91.7141 34.5035 91.4328 34.3628C91.1516 34.2222 90.7915 34.1519 90.3526 34.1519C89.7517 34.1519 89.251 34.2904 88.8504 34.5674C88.4541 34.8401 88.256 35.1874 88.256 35.6093C88.256 35.9843 88.3923 36.2805 88.6651 36.4978C88.9378 36.7151 89.3639 36.8962 89.9435 37.0411L91.4008 37.3991C92.2787 37.6121 92.9328 37.9381 93.3632 38.377C93.7936 38.8117 94.0088 39.3721 94.0088 40.0581C94.0088 40.6206 93.8469 41.1235 93.523 41.5667C93.2034 42.0099 92.756 42.3593 92.1807 42.615C91.6054 42.8706 90.9364 42.9985 90.1736 42.9985C89.1722 42.9985 88.3433 42.7812 87.6871 42.3465C87.0308 41.9118 86.6153 41.2769 86.4406 40.4417L87.8724 40.0837C88.0088 40.6121 88.2666 41.0084 88.6459 41.2726C89.0294 41.5368 89.5301 41.6689 90.148 41.6689C90.8511 41.6689 91.4094 41.5198 91.8227 41.2215C92.2403 40.9189 92.4491 40.5567 92.4491 40.1349C92.4491 39.7939 92.3298 39.5084 92.0912 39.2783C91.8526 39.0439 91.4861 38.8692 90.9918 38.7542L89.3554 38.3706C88.4562 38.1576 87.7957 37.8273 87.3739 37.3799C86.9562 36.9282 86.7474 36.3635 86.7474 35.686C86.7474 35.132 86.903 34.642 87.2141 34.2158C87.5294 33.7897 87.9577 33.4552 88.4989 33.2123C89.0443 32.9694 89.6622 32.8479 90.3526 32.8479C91.3241 32.8479 92.0869 33.061 92.6409 33.4871C93.1991 33.9133 93.5955 34.4758 93.8298 35.1746ZM101.296 42.9985C100.35 42.9985 99.534 42.7897 98.8479 42.3721C98.1661 41.9502 97.6398 41.3621 97.2691 40.6079C96.9026 39.8493 96.7194 38.9672 96.7194 37.9616C96.7194 36.9559 96.9026 36.0695 97.2691 35.3025C97.6398 34.5312 98.1554 33.9303 98.8159 33.4999C99.4807 33.0653 100.256 32.8479 101.143 32.8479C101.654 32.8479 102.159 32.9331 102.658 33.1036C103.156 33.2741 103.61 33.551 104.019 33.9346C104.428 34.3138 104.754 34.8167 104.997 35.4431C105.24 36.0695 105.361 36.8408 105.361 37.757V38.3962H97.7932V37.0922H103.827C103.827 36.5383 103.717 36.0439 103.495 35.6093C103.278 35.1746 102.967 34.8316 102.562 34.5802C102.161 34.3287 101.688 34.203 101.143 34.203C100.542 34.203 100.022 34.3522 99.583 34.6505C99.1483 34.9445 98.8138 35.328 98.5794 35.801C98.3451 36.2741 98.2279 36.7812 98.2279 37.3224V38.1917C98.2279 38.9331 98.3557 39.5617 98.6114 40.0773C98.8713 40.5887 99.2314 40.9786 99.6917 41.2471C100.152 41.5113 100.687 41.6434 101.296 41.6434C101.692 41.6434 102.05 41.588 102.37 41.4772C102.694 41.3621 102.973 41.1917 103.207 40.9658C103.442 40.7357 103.623 40.4502 103.751 40.1093L105.208 40.5184C105.055 41.0127 104.797 41.4474 104.435 41.8224C104.072 42.1931 103.625 42.4829 103.092 42.6917C102.56 42.8962 101.961 42.9985 101.296 42.9985ZM108.556 42.7939V32.9758H110.014V34.4587H110.116C110.295 33.9729 110.619 33.5787 111.087 33.2762C111.556 32.9736 112.085 32.8224 112.673 32.8224C112.783 32.8224 112.922 32.8245 113.088 32.8287C113.254 32.833 113.38 32.8394 113.465 32.8479V34.382C113.414 34.3692 113.297 34.3501 113.114 34.3245C112.935 34.2947 112.745 34.2797 112.545 34.2797C112.068 34.2797 111.641 34.3799 111.266 34.5802C110.896 34.7762 110.602 35.0489 110.384 35.3983C110.171 35.7435 110.065 36.1377 110.065 36.5809V42.7939H108.556ZM51.3219 60.9758C51.2452 60.328 50.9341 59.8252 50.3887 59.4672C49.8432 59.1093 49.1742 58.9303 48.3816 58.9303C47.802 58.9303 47.2949 59.0241 46.8603 59.2116C46.4299 59.3991 46.0932 59.6569 45.8503 59.985C45.6117 60.3131 45.4924 60.686 45.4924 61.1036C45.4924 61.453 45.5755 61.7535 45.7417 62.0049C45.9121 62.252 46.1295 62.4587 46.3937 62.6249C46.6579 62.7868 46.9349 62.9211 47.2246 63.0276C47.5144 63.1299 47.7807 63.213 48.0236 63.2769L49.3532 63.6349C49.6941 63.7243 50.0733 63.8479 50.491 64.0056C50.9128 64.1633 51.3155 64.3785 51.6991 64.6512C52.0868 64.9197 52.4064 65.2648 52.6579 65.6867C52.9093 66.1086 53.035 66.6263 53.035 67.24C53.035 67.9474 52.8496 68.5866 52.4789 69.1576C52.1124 69.7286 51.5755 70.1824 50.8681 70.5191C50.165 70.8557 49.3106 71.0241 48.3049 71.0241C47.3674 71.0241 46.5556 70.8728 45.8695 70.5702C45.1877 70.2677 44.6508 69.8458 44.2587 69.3046C43.8709 68.7634 43.6515 68.1349 43.6003 67.4189H45.2367C45.2793 67.9133 45.4455 68.3224 45.7353 68.6462C46.0293 68.9658 46.4 69.2045 46.8475 69.3621C47.2992 69.5155 47.785 69.5922 48.3049 69.5922C48.91 69.5922 49.4533 69.4942 49.9349 69.2982C50.4164 69.0979 50.7978 68.8209 51.079 68.4672C51.3603 68.1093 51.5009 67.6917 51.5009 67.2144C51.5009 66.7797 51.3795 66.426 51.1366 66.1533C50.8937 65.8806 50.5741 65.659 50.1777 65.4885C49.7814 65.3181 49.3532 65.1689 48.8929 65.0411L47.2822 64.5809C46.2594 64.2868 45.4498 63.8671 44.8532 63.3216C44.2566 62.7762 43.9583 62.0624 43.9583 61.1803C43.9583 60.4474 44.1564 59.8081 44.5527 59.2627C44.9533 58.713 45.4902 58.2868 46.1635 57.9843C46.8411 57.6775 47.5975 57.5241 48.4327 57.5241C49.2765 57.5241 50.0265 57.6753 50.6827 57.9779C51.339 58.2762 51.8589 58.6853 52.2424 59.2052C52.6302 59.7251 52.8347 60.3153 52.856 60.9758H51.3219ZM56.5413 70.7939V57.703H64.4419V59.1093H58.1266V63.5326H64.0328V64.9388H58.1266V69.3877H64.5442V70.7939H56.5413ZM68.7361 70.7939H67.0742L71.881 57.703H73.5173L78.3242 70.7939H76.6622L72.7503 59.7741H72.648L68.7361 70.7939ZM69.3497 65.6803H76.0486V67.0866H69.3497V65.6803ZM81.2632 70.7939V57.703H85.6865C86.7092 57.703 87.5487 57.8778 88.205 58.2272C88.8612 58.5724 89.347 59.0475 89.6624 59.6526C89.9777 60.2577 90.1354 60.9459 90.1354 61.7172C90.1354 62.4885 89.9777 63.1725 89.6624 63.7691C89.347 64.3657 88.8634 64.8344 88.2114 65.1753C87.5594 65.512 86.7263 65.6803 85.7121 65.6803H82.1325V64.2485H85.661C86.3598 64.2485 86.9223 64.1462 87.3485 63.9417C87.7788 63.7371 88.0899 63.4474 88.2817 63.0724C88.4777 62.6931 88.5757 62.2414 88.5757 61.7172C88.5757 61.1931 88.4777 60.735 88.2817 60.343C88.0857 59.9509 87.7725 59.6483 87.3421 59.4353C86.9117 59.218 86.3428 59.1093 85.6354 59.1093H82.8485V70.7939H81.2632ZM87.4252 64.9133L90.6467 70.7939H88.8058L85.6354 64.9133H87.4252ZM104.211 61.7939H102.626C102.532 61.338 102.368 60.9374 102.134 60.5922C101.903 60.2471 101.622 59.9573 101.29 59.7229C100.962 59.4843 100.597 59.3053 100.197 59.186C99.7962 59.0667 99.3786 59.007 98.9439 59.007C98.1513 59.007 97.4333 59.2073 96.7898 59.6079C96.1506 60.0084 95.6414 60.5986 95.2621 61.3785C94.8871 62.1583 94.6996 63.115 94.6996 64.2485C94.6996 65.382 94.8871 66.3387 95.2621 67.1185C95.6414 67.8983 96.1506 68.4885 96.7898 68.8891C97.4333 69.2897 98.1513 69.49 98.9439 69.49C99.3786 69.49 99.7962 69.4303 100.197 69.311C100.597 69.1917 100.962 69.0148 101.29 68.7805C101.622 68.5418 101.903 68.2499 102.134 67.9047C102.368 67.5553 102.532 67.1547 102.626 66.703H104.211C104.092 67.3721 103.874 67.9708 103.559 68.4992C103.244 69.0276 102.852 69.4772 102.383 69.8479C101.914 70.2144 101.388 70.4935 100.804 70.6853C100.224 70.877 99.6045 70.9729 98.9439 70.9729C97.8275 70.9729 96.8346 70.7002 95.9652 70.1547C95.0959 69.6093 94.412 68.8337 93.9134 67.828C93.4148 66.8224 93.1655 65.6292 93.1655 64.2485C93.1655 62.8678 93.4148 61.6746 93.9134 60.6689C94.412 59.6633 95.0959 58.8877 95.9652 58.3422C96.8346 57.7968 97.8275 57.5241 98.9439 57.5241C99.6045 57.5241 100.224 57.6199 100.804 57.8117C101.388 58.0035 101.914 58.2847 102.383 58.6555C102.852 59.0219 103.244 59.4694 103.559 59.9978C103.874 60.5219 104.092 61.1206 104.211 61.7939ZM107.673 70.7939V57.703H109.258V63.5326H116.238V57.703H117.823V70.7939H116.238V64.9388H109.258V70.7939H107.673ZM121.897 70.7939V57.703H129.797V59.1093H123.482V63.5326H129.388V64.9388H123.482V69.3877H129.9V70.7939H121.897ZM140.714 60.9758C140.637 60.328 140.326 59.8252 139.78 59.4672C139.235 59.1093 138.566 58.9303 137.773 58.9303C137.194 58.9303 136.687 59.0241 136.252 59.2116C135.822 59.3991 135.485 59.6569 135.242 59.985C135.003 60.3131 134.884 60.686 134.884 61.1036C134.884 61.453 134.967 61.7535 135.133 62.0049C135.304 62.252 135.521 62.4587 135.785 62.6249C136.05 62.7868 136.327 62.9211 136.616 63.0276C136.906 63.1299 137.173 63.213 137.415 63.2769L138.745 63.6349C139.086 63.7243 139.465 63.8479 139.883 64.0056C140.305 64.1633 140.707 64.3785 141.091 64.6512C141.479 64.9197 141.798 65.2648 142.05 65.6867C142.301 66.1086 142.427 66.6263 142.427 67.24C142.427 67.9474 142.241 68.5866 141.871 69.1576C141.504 69.7286 140.967 70.1824 140.26 70.5191C139.557 70.8557 138.702 71.0241 137.697 71.0241C136.759 71.0241 135.947 70.8728 135.261 70.5702C134.579 70.2677 134.043 69.8458 133.651 69.3046C133.263 68.7634 133.043 68.1349 132.992 67.4189H134.628C134.671 67.9133 134.837 68.3224 135.127 68.6462C135.421 68.9658 135.792 69.2045 136.239 69.3621C136.691 69.5155 137.177 69.5922 137.697 69.5922C138.302 69.5922 138.845 69.4942 139.327 69.2982C139.808 69.0979 140.19 68.8209 140.471 68.4672C140.752 68.1093 140.893 67.6917 140.893 67.2144C140.893 66.7797 140.771 66.426 140.528 66.1533C140.285 65.8806 139.966 65.659 139.57 65.4885C139.173 65.3181 138.745 65.1689 138.285 65.0411L136.674 64.5809C135.651 64.2868 134.842 63.8671 134.245 63.3216C133.648 62.7762 133.35 62.0624 133.35 61.1803C133.35 60.4474 133.548 59.8081 133.945 59.2627C134.345 58.713 134.882 58.2868 135.555 57.9843C136.233 57.6775 136.989 57.5241 137.825 57.5241C138.668 57.5241 139.418 57.6753 140.075 57.9779C140.731 58.2762 141.251 58.6853 141.634 59.2052C142.022 59.7251 142.227 60.3153 142.248 60.9758H140.714ZM73.0146 98.9985C72.0686 98.9985 71.2525 98.7897 70.5665 98.3721C69.8846 97.9502 69.3584 97.3621 68.9876 96.6079C68.6211 95.8493 68.4379 94.9672 68.4379 93.9616C68.4379 92.9559 68.6211 92.0695 68.9876 91.3025C69.3584 90.5312 69.874 89.9303 70.5345 89.4999C71.1993 89.0653 71.9748 88.8479 72.8612 88.8479C73.3726 88.8479 73.8775 88.9331 74.3761 89.1036C74.8747 89.2741 75.3285 89.551 75.7376 89.9346C76.1467 90.3138 76.4727 90.8167 76.7156 91.4431C76.9585 92.0695 77.08 92.8408 77.08 93.757V94.3962H69.5118V93.0922H75.5459C75.5459 92.5383 75.4351 92.0439 75.2135 91.6093C74.9961 91.1746 74.6851 90.8316 74.2802 90.5802C73.8797 90.3287 73.4067 90.203 72.8612 90.203C72.2604 90.203 71.7405 90.3522 71.3015 90.6505C70.8669 90.9445 70.5324 91.328 70.298 91.801C70.0636 92.2741 69.9464 92.7812 69.9464 93.3224V94.1917C69.9464 94.9331 70.0743 95.5617 70.33 96.0773C70.5899 96.5887 70.95 96.9786 71.4102 97.2471C71.8704 97.5113 72.4052 97.6434 73.0146 97.6434C73.4109 97.6434 73.7689 97.588 74.0885 97.4772C74.4123 97.3621 74.6915 97.1917 74.9258 96.9658C75.1602 96.7357 75.3413 96.4502 75.4692 96.1093L76.9265 96.5184C76.7731 97.0127 76.5153 97.4474 76.1531 97.8224C75.7909 98.1931 75.3434 98.4829 74.8108 98.6917C74.2781 98.8962 73.6794 98.9985 73.0146 98.9985ZM88.0043 88.9758L84.3736 98.7939H82.8395L79.2088 88.9758H80.8452L83.5554 96.7996H83.6577L86.3679 88.9758H88.0043ZM94.6603 98.9985C93.7143 98.9985 92.8982 98.7897 92.2122 98.3721C91.5303 97.9502 91.0041 97.3621 90.6333 96.6079C90.2668 95.8493 90.0836 94.9672 90.0836 93.9616C90.0836 92.9559 90.2668 92.0695 90.6333 91.3025C91.0041 90.5312 91.5197 89.9303 92.1802 89.4999C92.845 89.0653 93.6205 88.8479 94.5069 88.8479C95.0183 88.8479 95.5232 88.9331 96.0218 89.1036C96.5204 89.2741 96.9742 89.551 97.3833 89.9346C97.7924 90.3138 98.1184 90.8167 98.3613 91.4431C98.6042 92.0695 98.7257 92.8408 98.7257 93.757V94.3962H91.1575V93.0922H97.1916C97.1916 92.5383 97.0808 92.0439 96.8592 91.6093C96.6418 91.1746 96.3308 90.8316 95.9259 90.5802C95.5254 90.3287 95.0524 90.203 94.5069 90.203C93.9061 90.203 93.3862 90.3522 92.9472 90.6505C92.5126 90.9445 92.1781 91.328 91.9437 91.801C91.7093 92.2741 91.5921 92.7812 91.5921 93.3224V94.1917C91.5921 94.9331 91.72 95.5617 91.9757 96.0773C92.2356 96.5887 92.5957 96.9786 93.0559 97.2471C93.5161 97.5113 94.0509 97.6434 94.6603 97.6434C95.0566 97.6434 95.4146 97.588 95.7342 97.4772C96.058 97.3621 96.3372 97.1917 96.5715 96.9658C96.8059 96.7357 96.987 96.4502 97.1149 96.1093L98.5722 96.5184C98.4188 97.0127 98.161 97.4474 97.7988 97.8224C97.4366 98.1931 96.9891 98.4829 96.4565 98.6917C95.9238 98.8962 95.3251 98.9985 94.6603 98.9985ZM103.429 92.8877V98.7939H101.92V88.9758H103.378V90.5099H103.506C103.736 90.0113 104.085 89.6107 104.554 89.3082C105.023 89.0013 105.628 88.8479 106.369 88.8479C107.034 88.8479 107.616 88.9843 108.114 89.257C108.613 89.5255 109.001 89.9346 109.278 90.4843C109.555 91.0297 109.693 91.7201 109.693 92.5553V98.7939H108.185V92.6576C108.185 91.8863 107.984 91.2854 107.584 90.855C107.183 90.4204 106.633 90.203 105.935 90.203C105.453 90.203 105.023 90.3074 104.643 90.5162C104.268 90.7251 103.972 91.0297 103.755 91.4303C103.538 91.8309 103.429 92.3167 103.429 92.8877ZM117.62 88.9758V90.2542H112.532V88.9758H117.62ZM114.014 86.6235H115.523V95.9814C115.523 96.4076 115.585 96.7272 115.708 96.9403C115.836 97.1491 115.998 97.2897 116.194 97.3621C116.394 97.4303 116.605 97.4644 116.827 97.4644C116.993 97.4644 117.13 97.4559 117.236 97.4388C117.343 97.4175 117.428 97.4005 117.492 97.3877L117.799 98.7428C117.696 98.7812 117.554 98.8195 117.37 98.8579C117.187 98.9005 116.955 98.9218 116.674 98.9218C116.247 98.9218 115.83 98.8302 115.421 98.6469C115.016 98.4637 114.679 98.1846 114.411 97.8096C114.147 97.4346 114.014 96.9616 114.014 96.3905V86.6235Z" fill="#0E0F25"/>
</g>
<rect x="0.5" y="1.18457" width="177" height="134" stroke="#FAF5F6"/>
<path fill-rule="evenodd" clip-rule="evenodd" d="M192 68.5038C192 67.9515 192.448 67.5038 193 67.5038H224.478C225.03 67.5038 225.478 67.9515 225.478 68.5038C225.478 69.0561 225.03 69.5038 224.478 69.5038H193C192.448 69.5038 192 69.0561 192 68.5038Z" fill="#FAF5F6"/>
<path fill-rule="evenodd" clip-rule="evenodd" d="M223.217 62.2001C222.826 61.8096 222.193 61.8096 221.803 62.2001C221.412 62.5906 221.412 63.2238 221.803 63.6143L225.726 67.5375C225.643 67.5156 225.557 67.5039 225.468 67.5039H223.51C222.957 67.5039 222.51 67.9516 222.51 68.5039C222.51 69.0562 222.957 69.5039 223.51 69.5039H225.053L221.803 72.7547C221.412 73.1453 221.412 73.7784 221.803 74.169C222.193 74.5595 222.826 74.5595 223.217 74.169L228.141 69.2452C228.726 68.6594 228.726 67.7097 228.141 67.1239L223.217 62.2001Z" fill="#FAF5F6"/>
<path d="M272.607 29.703H274.192V38.3706C274.192 39.2655 273.981 40.0645 273.559 40.7677C273.142 41.4665 272.551 42.0184 271.789 42.4232C271.026 42.8238 270.131 43.0241 269.104 43.0241C268.077 43.0241 267.182 42.8238 266.419 42.4232C265.656 42.0184 265.064 41.4665 264.642 40.7677C264.225 40.0645 264.016 39.2655 264.016 38.3706V29.703H265.601V38.2428C265.601 38.882 265.742 39.4509 266.023 39.9495C266.304 40.4438 266.705 40.8337 267.225 41.1192C267.749 41.4005 268.375 41.5411 269.104 41.5411C269.833 41.5411 270.459 41.4005 270.983 41.1192C271.507 40.8337 271.908 40.4438 272.185 39.9495C272.466 39.4509 272.607 38.882 272.607 38.2428V29.703ZM285.008 35.1746L283.652 35.5581C283.567 35.3323 283.442 35.1128 283.275 34.8998C283.113 34.6824 282.892 34.5035 282.611 34.3628C282.329 34.2222 281.969 34.1519 281.53 34.1519C280.929 34.1519 280.429 34.2904 280.028 34.5674C279.632 34.8401 279.434 35.1874 279.434 35.6093C279.434 35.9843 279.57 36.2805 279.843 36.4978C280.116 36.7151 280.542 36.8962 281.121 37.0411L282.579 37.3991C283.456 37.6121 284.111 37.9381 284.541 38.377C284.971 38.8117 285.187 39.3721 285.187 40.0581C285.187 40.6206 285.025 41.1235 284.701 41.5667C284.381 42.0099 283.934 42.3593 283.358 42.615C282.783 42.8706 282.114 42.9985 281.351 42.9985C280.35 42.9985 279.521 42.7812 278.865 42.3465C278.209 41.9118 277.793 41.2769 277.618 40.4417L279.05 40.0837C279.187 40.6121 279.444 41.0084 279.824 41.2726C280.207 41.5368 280.708 41.6689 281.326 41.6689C282.029 41.6689 282.587 41.5198 283.001 41.2215C283.418 40.9189 283.627 40.5567 283.627 40.1349C283.627 39.7939 283.508 39.5084 283.269 39.2783C283.03 39.0439 282.664 38.8692 282.17 38.7542L280.533 38.3706C279.634 38.1576 278.974 37.8273 278.552 37.3799C278.134 36.9282 277.925 36.3635 277.925 35.686C277.925 35.132 278.081 34.642 278.392 34.2158C278.707 33.7897 279.135 33.4552 279.677 33.2123C280.222 32.9694 280.84 32.8479 281.53 32.8479C282.502 32.8479 283.265 33.061 283.819 33.4871C284.377 33.9133 284.773 34.4758 285.008 35.1746ZM292.474 42.9985C291.528 42.9985 290.712 42.7897 290.026 42.3721C289.344 41.9502 288.818 41.3621 288.447 40.6079C288.08 39.8493 287.897 38.9672 287.897 37.9616C287.897 36.9559 288.08 36.0695 288.447 35.3025C288.818 34.5312 289.333 33.9303 289.994 33.4999C290.658 33.0653 291.434 32.8479 292.32 32.8479C292.832 32.8479 293.337 32.9331 293.835 33.1036C294.334 33.2741 294.788 33.551 295.197 33.9346C295.606 34.3138 295.932 34.8167 296.175 35.4431C296.418 36.0695 296.539 36.8408 296.539 37.757V38.3962H288.971V37.0922H295.005C295.005 36.5383 294.894 36.0439 294.673 35.6093C294.455 35.1746 294.144 34.8316 293.739 34.5802C293.339 34.3287 292.866 34.203 292.32 34.203C291.72 34.203 291.2 34.3522 290.761 34.6505C290.326 34.9445 289.992 35.328 289.757 35.801C289.523 36.2741 289.406 36.7812 289.406 37.3224V38.1917C289.406 38.9331 289.533 39.5617 289.789 40.0773C290.049 40.5887 290.409 40.9786 290.869 41.2471C291.33 41.5113 291.864 41.6434 292.474 41.6434C292.87 41.6434 293.228 41.588 293.548 41.4772C293.872 41.3621 294.151 41.1917 294.385 40.9658C294.619 40.7357 294.801 40.4502 294.928 40.1093L296.386 40.5184C296.232 41.0127 295.975 41.4474 295.612 41.8224C295.25 42.1931 294.803 42.4829 294.27 42.6917C293.737 42.8962 293.139 42.9985 292.474 42.9985ZM299.734 42.7939V32.9758H301.191V34.4587H301.294C301.473 33.9729 301.796 33.5787 302.265 33.2762C302.734 32.9736 303.262 32.8224 303.85 32.8224C303.961 32.8224 304.1 32.8245 304.266 32.8287C304.432 32.833 304.558 32.8394 304.643 32.8479V34.382C304.592 34.3692 304.475 34.3501 304.291 34.3245C304.112 34.2947 303.923 34.2797 303.723 34.2797C303.245 34.2797 302.819 34.3799 302.444 34.5802C302.073 34.7762 301.779 35.0489 301.562 35.3983C301.349 35.7435 301.242 36.1377 301.242 36.5809V42.7939H299.734ZM326.62 32.9758C326.543 32.328 326.232 31.8252 325.687 31.4672C325.141 31.1093 324.472 30.9303 323.679 30.9303C323.1 30.9303 322.593 31.0241 322.158 31.2116C321.728 31.3991 321.391 31.6569 321.148 31.985C320.91 32.3131 320.79 32.686 320.79 33.1036C320.79 33.453 320.873 33.7535 321.04 34.0049C321.21 34.252 321.427 34.4587 321.692 34.6249C321.956 34.7868 322.233 34.9211 322.523 35.0276C322.812 35.1299 323.079 35.213 323.322 35.2769L324.651 35.6349C324.992 35.7243 325.371 35.8479 325.789 36.0056C326.211 36.1633 326.613 36.3785 326.997 36.6512C327.385 36.9197 327.704 37.2648 327.956 37.6867C328.207 38.1086 328.333 38.6263 328.333 39.24C328.333 39.9474 328.148 40.5866 327.777 41.1576C327.41 41.7286 326.873 42.1824 326.166 42.5191C325.463 42.8557 324.608 43.0241 323.603 43.0241C322.665 43.0241 321.853 42.8728 321.167 42.5702C320.486 42.2677 319.949 41.8458 319.557 41.3046C319.169 40.7634 318.949 40.1349 318.898 39.4189H320.535C320.577 39.9133 320.743 40.3224 321.033 40.6462C321.327 40.9658 321.698 41.2045 322.145 41.3621C322.597 41.5155 323.083 41.5922 323.603 41.5922C324.208 41.5922 324.751 41.4942 325.233 41.2982C325.714 41.0979 326.096 40.8209 326.377 40.4672C326.658 40.1093 326.799 39.6917 326.799 39.2144C326.799 38.7797 326.677 38.426 326.434 38.1533C326.192 37.8806 325.872 37.659 325.476 37.4885C325.079 37.3181 324.651 37.1689 324.191 37.0411L322.58 36.5809C321.557 36.2868 320.748 35.8671 320.151 35.3216C319.554 34.7762 319.256 34.0624 319.256 33.1803C319.256 32.4474 319.454 31.8081 319.851 31.2627C320.251 30.713 320.788 30.2868 321.461 29.9843C322.139 29.6775 322.895 29.5241 323.731 29.5241C324.574 29.5241 325.324 29.6753 325.981 29.9779C326.637 30.2762 327.157 30.6853 327.54 31.2052C327.928 31.7251 328.133 32.3153 328.154 32.9758H326.62ZM331.839 42.7939V29.703H339.74V31.1093H333.424V35.5326H339.331V36.9388H333.424V41.3877H339.842V42.7939H331.839ZM343.497 42.7939V29.703H345.082V41.3877H351.168V42.7939H343.497ZM354.522 42.7939V29.703H362.423V31.1093H356.107V35.5326H362.014V36.9388H356.107V41.3877H362.525V42.7939H354.522ZM376.714 33.7939H375.129C375.035 33.338 374.871 32.9374 374.637 32.5922C374.406 32.2471 374.125 31.9573 373.793 31.7229C373.465 31.4843 373.1 31.3053 372.7 31.186C372.299 31.0667 371.882 31.007 371.447 31.007C370.654 31.007 369.936 31.2073 369.293 31.6079C368.654 32.0084 368.144 32.5986 367.765 33.3785C367.39 34.1583 367.203 35.115 367.203 36.2485C367.203 37.382 367.39 38.3387 367.765 39.1185C368.144 39.8983 368.654 40.4885 369.293 40.8891C369.936 41.2897 370.654 41.49 371.447 41.49C371.882 41.49 372.299 41.4303 372.7 41.311C373.1 41.1917 373.465 41.0148 373.793 40.7805C374.125 40.5418 374.406 40.2499 374.637 39.9047C374.871 39.5553 375.035 39.1547 375.129 38.703H376.714C376.595 39.3721 376.377 39.9708 376.062 40.4992C375.747 41.0276 375.355 41.4772 374.886 41.8479C374.417 42.2144 373.891 42.4935 373.307 42.6853C372.727 42.877 372.107 42.9729 371.447 42.9729C370.33 42.9729 369.338 42.7002 368.468 42.1547C367.599 41.6093 366.915 40.8337 366.416 39.828C365.918 38.8224 365.669 37.6292 365.669 36.2485C365.669 34.8678 365.918 33.6746 366.416 32.6689C366.915 31.6633 367.599 30.8877 368.468 30.3422C369.338 29.7968 370.33 29.5241 371.447 29.5241C372.107 29.5241 372.727 29.6199 373.307 29.8117C373.891 30.0035 374.417 30.2847 374.886 30.6555C375.355 31.0219 375.747 31.4694 376.062 31.9978C376.377 32.5219 376.595 33.1206 376.714 33.7939ZM379.46 31.1093V29.703H389.278V31.1093H385.161V42.7939H383.576V31.1093H379.46ZM399.784 32.9758C399.707 32.328 399.396 31.8252 398.85 31.4672C398.305 31.1093 397.636 30.9303 396.843 30.9303C396.264 30.9303 395.757 31.0241 395.322 31.2116C394.891 31.3991 394.555 31.6569 394.312 31.985C394.073 32.3131 393.954 32.686 393.954 33.1036C393.954 33.453 394.037 33.7535 394.203 34.0049C394.374 34.252 394.591 34.4587 394.855 34.6249C395.119 34.7868 395.396 34.9211 395.686 35.0276C395.976 35.1299 396.242 35.213 396.485 35.2769L397.815 35.6349C398.156 35.7243 398.535 35.8479 398.953 36.0056C399.374 36.1633 399.777 36.3785 400.161 36.6512C400.548 36.9197 400.868 37.2648 401.119 37.6867C401.371 38.1086 401.497 38.6263 401.497 39.24C401.497 39.9474 401.311 40.5866 400.94 41.1576C400.574 41.7286 400.037 42.1824 399.33 42.5191C398.627 42.8557 397.772 43.0241 396.766 43.0241C395.829 43.0241 395.017 42.8728 394.331 42.5702C393.649 42.2677 393.112 41.8458 392.72 41.3046C392.333 40.7634 392.113 40.1349 392.062 39.4189H393.698C393.741 39.9133 393.907 40.3224 394.197 40.6462C394.491 40.9658 394.862 41.2045 395.309 41.3621C395.761 41.5155 396.247 41.5922 396.766 41.5922C397.372 41.5922 397.915 41.4942 398.396 41.2982C398.878 41.0979 399.259 40.8209 399.541 40.4672C399.822 40.1093 399.962 39.6917 399.962 39.2144C399.962 38.7797 399.841 38.426 399.598 38.1533C399.355 37.8806 399.036 37.659 398.639 37.4885C398.243 37.3181 397.815 37.1689 397.355 37.0411L395.744 36.5809C394.721 36.2868 393.911 35.8671 393.315 35.3216C392.718 34.7762 392.42 34.0624 392.42 33.1803C392.42 32.4474 392.618 31.8081 393.014 31.2627C393.415 30.713 393.952 30.2868 394.625 29.9843C395.303 29.6775 396.059 29.5241 396.894 29.5241C397.738 29.5241 398.488 29.6753 399.144 29.9779C399.801 30.2762 400.32 30.6853 400.704 31.2052C401.092 31.7251 401.296 32.3153 401.318 32.9758H399.784ZM312.926 70.9985C311.98 70.9985 311.164 70.7897 310.478 70.3721C309.796 69.9502 309.27 69.3621 308.899 68.6079C308.533 67.8493 308.349 66.9672 308.349 65.9616C308.349 64.9559 308.533 64.0695 308.899 63.3025C309.27 62.5312 309.785 61.9303 310.446 61.4999C311.111 61.0653 311.886 60.8479 312.773 60.8479C313.284 60.8479 313.789 60.9331 314.287 61.1036C314.786 61.2741 315.24 61.551 315.649 61.9346C316.058 62.3138 316.384 62.8167 316.627 63.4431C316.87 64.0695 316.991 64.8408 316.991 65.757V66.3962H309.423V65.0922H315.457C315.457 64.5383 315.346 64.0439 315.125 63.6093C314.908 63.1746 314.596 62.8316 314.192 62.5802C313.791 62.3287 313.318 62.203 312.773 62.203C312.172 62.203 311.652 62.3522 311.213 62.6505C310.778 62.9445 310.444 63.328 310.209 63.801C309.975 64.2741 309.858 64.7812 309.858 65.3224V66.1917C309.858 66.9331 309.986 67.5617 310.241 68.0773C310.501 68.5887 310.861 68.9786 311.322 69.2471C311.782 69.5113 312.317 69.6434 312.926 69.6434C313.322 69.6434 313.68 69.588 314 69.4772C314.324 69.3621 314.603 69.1917 314.837 68.9658C315.072 68.7357 315.253 68.4502 315.381 68.1093L316.838 68.5184C316.685 69.0127 316.427 69.4474 316.064 69.8224C315.702 70.1931 315.255 70.4829 314.722 70.6917C314.189 70.8962 313.591 70.9985 312.926 70.9985ZM327.916 60.9758L324.285 70.7939H322.751L319.12 60.9758H320.757L323.467 68.7996H323.569L326.279 60.9758H327.916ZM334.572 70.9985C333.626 70.9985 332.81 70.7897 332.124 70.3721C331.442 69.9502 330.915 69.3621 330.545 68.6079C330.178 67.8493 329.995 66.9672 329.995 65.9616C329.995 64.9559 330.178 64.0695 330.545 63.3025C330.915 62.5312 331.431 61.9303 332.092 61.4999C332.756 61.0653 333.532 60.8479 334.418 60.8479C334.93 60.8479 335.435 60.9331 335.933 61.1036C336.432 61.2741 336.886 61.551 337.295 61.9346C337.704 62.3138 338.03 62.8167 338.273 63.4431C338.516 64.0695 338.637 64.8408 338.637 65.757V66.3962H331.069V65.0922H337.103C337.103 64.5383 336.992 64.0439 336.771 63.6093C336.553 63.1746 336.242 62.8316 335.837 62.5802C335.437 62.3287 334.964 62.203 334.418 62.203C333.817 62.203 333.298 62.3522 332.859 62.6505C332.424 62.9445 332.089 63.328 331.855 63.801C331.621 64.2741 331.504 64.7812 331.504 65.3224V66.1917C331.504 66.9331 331.631 67.5617 331.887 68.0773C332.147 68.5887 332.507 68.9786 332.967 69.2471C333.428 69.5113 333.962 69.6434 334.572 69.6434C334.968 69.6434 335.326 69.588 335.646 69.4772C335.969 69.3621 336.249 69.1917 336.483 68.9658C336.717 68.7357 336.898 68.4502 337.026 68.1093L338.484 68.5184C338.33 69.0127 338.072 69.4474 337.71 69.8224C337.348 70.1931 336.901 70.4829 336.368 70.6917C335.835 70.8962 335.236 70.9985 334.572 70.9985ZM343.34 64.8877V70.7939H341.832V60.9758H343.289V62.5099H343.417C343.647 62.0113 343.997 61.6107 344.465 61.3082C344.934 61.0013 345.539 60.8479 346.281 60.8479C346.945 60.8479 347.527 60.9843 348.026 61.257C348.524 61.5255 348.912 61.9346 349.189 62.4843C349.466 63.0297 349.604 63.7201 349.604 64.5553V70.7939H348.096V64.6576C348.096 63.8863 347.896 63.2854 347.495 62.855C347.095 62.4204 346.545 62.203 345.846 62.203C345.364 62.203 344.934 62.3074 344.555 62.5162C344.18 62.7251 343.884 63.0297 343.666 63.4303C343.449 63.8309 343.34 64.3167 343.34 64.8877ZM357.531 60.9758V62.2542H352.443V60.9758H357.531ZM353.926 58.6235H355.434V67.9814C355.434 68.4076 355.496 68.7272 355.62 68.9403C355.748 69.1491 355.91 69.2897 356.106 69.3621C356.306 69.4303 356.517 69.4644 356.738 69.4644C356.905 69.4644 357.041 69.4559 357.147 69.4388C357.254 69.4175 357.339 69.4005 357.403 69.3877L357.71 70.7428C357.608 70.7812 357.465 70.8195 357.282 70.8579C357.098 70.9005 356.866 70.9218 356.585 70.9218C356.159 70.9218 355.741 70.8302 355.332 70.6469C354.927 70.4637 354.591 70.1846 354.322 69.8096C354.058 69.4346 353.926 68.9616 353.926 68.3905V58.6235Z" fill="#FAF5F6"/>
<rect x="243.08" y="1.18457" width="177" height="134" stroke="#FAF5F6"/>
<path fill-rule="evenodd" clip-rule="evenodd" d="M434.58 68.5038C434.58 67.9515 435.028 67.5038 435.58 67.5038H467.058C467.61 67.5038 468.058 67.9515 468.058 68.5038C468.058 69.0561 467.61 69.5038 467.058 69.5038H435.58C435.028 69.5038 434.58 69.0561 434.58 68.5038Z" fill="#FAF5F6"/>
<path fill-rule="evenodd" clip-rule="evenodd" d="M465.797 62.2001C465.406 61.8096 464.773 61.8096 464.382 62.2001C463.992 62.5906 463.992 63.2238 464.382 63.6143L468.305 67.5375C468.223 67.5156 468.137 67.5039 468.047 67.5039H466.089C465.537 67.5039 465.089 67.9516 465.089 68.5039C465.089 69.0562 465.537 69.5039 466.089 69.5039H467.633L464.382 72.7547C463.992 73.1453 463.992 73.7784 464.382 74.169C464.773 74.5595 465.406 74.5595 465.797 74.169L470.72 69.2452C471.306 68.6594 471.306 67.7097 470.72 67.1239L465.797 62.2001Z" fill="#FAF5F6"/>
<path d="M536.839 31.0224H538.425V39.69C538.425 40.5849 538.214 41.3839 537.792 42.087C537.374 42.7859 536.784 43.3377 536.021 43.7425C535.259 44.1431 534.364 44.3434 533.337 44.3434C532.31 44.3434 531.415 44.1431 530.652 43.7425C529.889 43.3377 529.297 42.7859 528.875 42.087C528.457 41.3839 528.249 40.5849 528.249 39.69V31.0224H529.834V39.5621C529.834 40.2013 529.974 40.7702 530.256 41.2688C530.537 41.7631 530.938 42.1531 531.457 42.4386C531.982 42.7198 532.608 42.8604 533.337 42.8604C534.065 42.8604 534.692 42.7198 535.216 42.4386C535.74 42.1531 536.141 41.7631 536.418 41.2688C536.699 40.7702 536.839 40.2013 536.839 39.5621V31.0224ZM549.24 36.494L547.885 36.8775C547.8 36.6516 547.674 36.4322 547.508 36.2191C547.346 36.0018 547.125 35.8228 546.843 35.6822C546.562 35.5415 546.202 35.4712 545.763 35.4712C545.162 35.4712 544.662 35.6097 544.261 35.8867C543.865 36.1594 543.667 36.5067 543.667 36.9286C543.667 37.3036 543.803 37.5998 544.076 37.8171C544.348 38.0344 544.774 38.2156 545.354 38.3604L546.811 38.7184C547.689 38.9315 548.343 39.2575 548.774 39.6964C549.204 40.131 549.419 40.6914 549.419 41.3775C549.419 41.94 549.257 42.4428 548.934 42.886C548.614 43.3292 548.167 43.6786 547.591 43.9343C547.016 44.19 546.347 44.3178 545.584 44.3178C544.583 44.3178 543.754 44.1005 543.098 43.6658C542.441 43.2312 542.026 42.5962 541.851 41.761L543.283 41.4031C543.419 41.9315 543.677 42.3278 544.056 42.592C544.44 42.8562 544.941 42.9883 545.559 42.9883C546.262 42.9883 546.82 42.8391 547.233 42.5408C547.651 42.2383 547.86 41.8761 547.86 41.4542C547.86 41.1133 547.74 40.8278 547.502 40.5977C547.263 40.3633 546.897 40.1886 546.402 40.0735L544.766 39.69C543.867 39.4769 543.206 39.1467 542.784 38.6992C542.367 38.2475 542.158 37.6829 542.158 37.0053C542.158 36.4513 542.314 35.9613 542.625 35.5352C542.94 35.109 543.368 34.7745 543.909 34.5316C544.455 34.2887 545.073 34.1673 545.763 34.1673C546.735 34.1673 547.497 34.3803 548.051 34.8065C548.61 35.2326 549.006 35.7951 549.24 36.494ZM556.707 44.3178C555.761 44.3178 554.945 44.109 554.258 43.6914C553.577 43.2695 553.05 42.6815 552.68 41.9272C552.313 41.1687 552.13 40.2866 552.13 39.2809C552.13 38.2752 552.313 37.3888 552.68 36.6218C553.05 35.8505 553.566 35.2496 554.226 34.8192C554.891 34.3846 555.667 34.1673 556.553 34.1673C557.065 34.1673 557.57 34.2525 558.068 34.4229C558.567 34.5934 559.021 34.8704 559.43 35.2539C559.839 35.6332 560.165 36.136 560.408 36.7624C560.651 37.3888 560.772 38.1602 560.772 39.0763V39.7156H553.204V38.4116H559.238C559.238 37.8576 559.127 37.3633 558.905 36.9286C558.688 36.494 558.377 36.1509 557.972 35.8995C557.572 35.6481 557.099 35.5224 556.553 35.5224C555.952 35.5224 555.432 35.6715 554.994 35.9698C554.559 36.2638 554.224 36.6474 553.99 37.1204C553.756 37.5934 553.638 38.1005 553.638 38.6417V39.511C553.638 40.2525 553.766 40.881 554.022 41.3967C554.282 41.908 554.642 42.2979 555.102 42.5664C555.562 42.8306 556.097 42.9627 556.707 42.9627C557.103 42.9627 557.461 42.9073 557.78 42.7965C558.104 42.6815 558.383 42.511 558.618 42.2852C558.852 42.055 559.033 41.7695 559.161 41.4286L560.619 41.8377C560.465 42.332 560.207 42.7667 559.845 43.1417C559.483 43.5124 559.035 43.8022 558.503 44.011C557.97 44.2156 557.371 44.3178 556.707 44.3178ZM563.967 44.1133V34.2951H565.424V35.7781H565.526C565.705 35.2923 566.029 34.8981 566.498 34.5955C566.967 34.293 567.495 34.1417 568.083 34.1417C568.194 34.1417 568.332 34.1438 568.499 34.1481C568.665 34.1523 568.791 34.1587 568.876 34.1673V35.7013C568.825 35.6886 568.707 35.6694 568.524 35.6438C568.345 35.614 568.156 35.5991 567.955 35.5991C567.478 35.5991 567.052 35.6992 566.677 35.8995C566.306 36.0955 566.012 36.3683 565.795 36.7177C565.582 37.0629 565.475 37.457 565.475 37.9002V44.1133H563.967ZM577.731 44.1133V31.0224H582.308C583.22 31.0224 583.972 31.18 584.564 31.4954C585.156 31.8065 585.597 32.2262 585.887 32.7546C586.177 33.2788 586.322 33.8604 586.322 34.4996C586.322 35.0621 586.222 35.5266 586.021 35.8931C585.825 36.2596 585.566 36.5494 585.242 36.7624C584.922 36.9755 584.575 37.1332 584.2 37.2354V37.3633C584.6 37.3888 585.003 37.5295 585.408 37.7852C585.813 38.0408 586.151 38.4073 586.424 38.8846C586.697 39.3619 586.833 39.9457 586.833 40.636C586.833 41.2923 586.684 41.8825 586.386 42.4066C586.088 42.9308 585.617 43.3462 584.973 43.6531C584.33 43.9599 583.492 44.1133 582.461 44.1133H577.731ZM579.316 42.707H582.461C583.497 42.707 584.232 42.5067 584.666 42.1062C585.105 41.7013 585.325 41.2113 585.325 40.636C585.325 40.1928 585.212 39.7837 584.986 39.4087C584.76 39.0295 584.438 38.7269 584.021 38.5011C583.603 38.271 583.109 38.1559 582.538 38.1559H579.316V42.707ZM579.316 36.7752H582.257C582.734 36.7752 583.164 36.6815 583.548 36.494C583.936 36.3065 584.242 36.0423 584.468 35.7013C584.698 35.3604 584.813 34.9599 584.813 34.4996C584.813 33.9244 584.613 33.4364 584.213 33.0359C583.812 32.631 583.177 32.4286 582.308 32.4286H579.316V36.7752ZM598.929 31.0224H600.514V39.69C600.514 40.5849 600.303 41.3839 599.881 42.087C599.464 42.7859 598.874 43.3377 598.111 43.7425C597.348 44.1431 596.453 44.3434 595.426 44.3434C594.399 44.3434 593.504 44.1431 592.741 43.7425C591.979 43.3377 591.386 42.7859 590.964 42.087C590.547 41.3839 590.338 40.5849 590.338 39.69V31.0224H591.923V39.5621C591.923 40.2013 592.064 40.7702 592.345 41.2688C592.626 41.7631 593.027 42.1531 593.547 42.4386C594.071 42.7198 594.697 42.8604 595.426 42.8604C596.155 42.8604 596.781 42.7198 597.305 42.4386C597.83 42.1531 598.23 41.7631 598.507 41.2688C598.788 40.7702 598.929 40.2013 598.929 39.5621V31.0224ZM603.455 31.0224H605.27L608.901 37.1332H609.054L612.685 31.0224H614.5L609.77 38.7184V44.1133H608.185V38.7184L603.455 31.0224ZM624.61 34.2951C624.533 33.6474 624.222 33.1445 623.676 32.7866C623.131 32.4286 622.462 32.2496 621.669 32.2496C621.09 32.2496 620.583 32.3434 620.148 32.5309C619.718 32.7184 619.381 32.9762 619.138 33.3043C618.899 33.6325 618.78 34.0053 618.78 34.4229C618.78 34.7724 618.863 35.0728 619.029 35.3242C619.2 35.5714 619.417 35.7781 619.681 35.9442C619.946 36.1062 620.223 36.2404 620.512 36.3469C620.802 36.4492 621.068 36.5323 621.311 36.5962L622.641 36.9542C622.982 37.0437 623.361 37.1673 623.779 37.3249C624.201 37.4826 624.603 37.6978 624.987 37.9705C625.375 38.239 625.694 38.5842 625.946 39.006C626.197 39.4279 626.323 39.9457 626.323 40.5593C626.323 41.2667 626.137 41.9059 625.767 42.4769C625.4 43.0479 624.863 43.5018 624.156 43.8384C623.453 44.1751 622.598 44.3434 621.593 44.3434C620.655 44.3434 619.843 44.1921 619.157 43.8896C618.475 43.587 617.938 43.1651 617.546 42.6239C617.159 42.0827 616.939 41.4542 616.888 40.7383H618.524C618.567 41.2326 618.733 41.6417 619.023 41.9656C619.317 42.2852 619.688 42.5238 620.135 42.6815C620.587 42.8349 621.073 42.9116 621.593 42.9116C622.198 42.9116 622.741 42.8136 623.223 42.6175C623.704 42.4173 624.085 42.1403 624.367 41.7866C624.648 41.4286 624.789 41.011 624.789 40.5337C624.789 40.0991 624.667 39.7454 624.424 39.4727C624.181 39.1999 623.862 38.9783 623.465 38.8079C623.069 38.6374 622.641 38.4883 622.181 38.3604L620.57 37.9002C619.547 37.6062 618.737 37.1864 618.141 36.641C617.544 36.0955 617.246 35.3817 617.246 34.4996C617.246 33.7667 617.444 33.1275 617.84 32.582C618.241 32.0323 618.778 31.6062 619.451 31.3036C620.129 30.9968 620.885 30.8434 621.72 30.8434C622.564 30.8434 623.314 30.9947 623.97 31.2972C624.627 31.5955 625.147 32.0046 625.53 32.5245C625.918 33.0444 626.122 33.6346 626.144 34.2951H624.61ZM557.22 62.2951V63.5735H552.132V62.2951H557.22ZM553.615 59.9428H555.124V69.3008C555.124 69.7269 555.186 70.0465 555.309 70.2596C555.437 70.4684 555.599 70.609 555.795 70.6815C555.995 70.7496 556.206 70.7837 556.428 70.7837C556.594 70.7837 556.73 70.7752 556.837 70.7582C556.943 70.7369 557.029 70.7198 557.093 70.707L557.399 72.0621C557.297 72.1005 557.154 72.1388 556.971 72.1772C556.788 72.2198 556.556 72.2411 556.274 72.2411C555.848 72.2411 555.431 72.1495 555.022 71.9663C554.617 71.783 554.28 71.5039 554.012 71.1289C553.747 70.7539 553.615 70.2809 553.615 69.7099V59.9428ZM560.39 72.1133V62.2951H561.898V72.1133H560.39ZM561.157 60.6587C560.863 60.6587 560.609 60.5586 560.396 60.3583C560.187 60.158 560.083 59.9173 560.083 59.636C560.083 59.3548 560.187 59.114 560.396 58.9137C560.609 58.7134 560.863 58.6133 561.157 58.6133C561.451 58.6133 561.702 58.7134 561.911 58.9137C562.124 59.114 562.23 59.3548 562.23 59.636C562.23 59.9173 562.124 60.158 561.911 60.3583C561.702 60.5586 561.451 60.6587 561.157 60.6587ZM569.55 72.3178C568.629 72.3178 567.837 72.1005 567.172 71.6658C566.507 71.2312 565.996 70.6325 565.638 69.8697C565.28 69.1069 565.101 68.2354 565.101 67.2553C565.101 66.2582 565.284 65.3782 565.651 64.6154C566.021 63.8484 566.537 63.2496 567.197 62.8192C567.862 62.3846 568.638 62.1673 569.524 62.1673C570.214 62.1673 570.837 62.2951 571.391 62.5508C571.945 62.8065 572.398 63.1644 572.752 63.6246C573.106 64.0849 573.325 64.6218 573.41 65.2354H571.902C571.787 64.788 571.531 64.3917 571.135 64.0465C570.743 63.6971 570.214 63.5224 569.55 63.5224C568.962 63.5224 568.446 63.6758 568.003 63.9826C567.564 64.2852 567.221 64.7134 566.974 65.2674C566.731 65.8171 566.609 66.4627 566.609 67.2042C566.609 67.9627 566.729 68.6232 566.967 69.1857C567.21 69.7482 567.551 70.185 567.99 70.4961C568.433 70.8072 568.953 70.9627 569.55 70.9627C569.942 70.9627 570.298 70.8945 570.617 70.7582C570.937 70.6218 571.207 70.4258 571.429 70.1701C571.651 69.9144 571.808 69.6076 571.902 69.2496H573.41C573.325 69.8292 573.114 70.3512 572.778 70.8157C572.445 71.2759 572.004 71.6424 571.454 71.9151C570.909 72.1836 570.274 72.3178 569.55 72.3178ZM577.922 68.5337L577.896 66.6673H578.203L582.499 62.2951H584.365L579.788 66.9229H579.661L577.922 68.5337ZM576.516 72.1133V59.0224H578.024V72.1133H576.516ZM582.754 72.1133L578.919 67.2553L579.993 66.207L584.672 72.1133H582.754ZM590.919 72.3178C589.973 72.3178 589.157 72.109 588.471 71.6914C587.789 71.2695 587.263 70.6815 586.892 69.9272C586.525 69.1687 586.342 68.2866 586.342 67.2809C586.342 66.2752 586.525 65.3888 586.892 64.6218C587.263 63.8505 587.778 63.2496 588.439 62.8192C589.104 62.3846 589.879 62.1673 590.766 62.1673C591.277 62.1673 591.782 62.2525 592.28 62.4229C592.779 62.5934 593.233 62.8704 593.642 63.2539C594.051 63.6332 594.377 64.136 594.62 64.7624C594.863 65.3888 594.984 66.1602 594.984 67.0763V67.7156H587.416V66.4116H593.45C593.45 65.8576 593.339 65.3633 593.118 64.9286C592.9 64.494 592.589 64.1509 592.185 63.8995C591.784 63.6481 591.311 63.5224 590.766 63.5224C590.165 63.5224 589.645 63.6715 589.206 63.9698C588.771 64.2638 588.437 64.6474 588.202 65.1204C587.968 65.5934 587.851 66.1005 587.851 66.6417V67.511C587.851 68.2525 587.979 68.881 588.234 69.3967C588.494 69.908 588.854 70.2979 589.315 70.5664C589.775 70.8306 590.31 70.9627 590.919 70.9627C591.315 70.9627 591.673 70.9073 591.993 70.7965C592.317 70.6815 592.596 70.511 592.83 70.2852C593.065 70.055 593.246 69.7695 593.373 69.4286L594.831 69.8377C594.677 70.332 594.42 70.7667 594.057 71.1417C593.695 71.5124 593.248 71.8022 592.715 72.011C592.182 72.2156 591.584 72.3178 590.919 72.3178ZM602.449 62.2951V63.5735H597.361V62.2951H602.449ZM598.844 59.9428H600.352V69.3008C600.352 69.7269 600.414 70.0465 600.538 70.2596C600.666 70.4684 600.827 70.609 601.023 70.6815C601.224 70.7496 601.435 70.7837 601.656 70.7837C601.822 70.7837 601.959 70.7752 602.065 70.7582C602.172 70.7369 602.257 70.7198 602.321 70.707L602.628 72.0621C602.526 72.1005 602.383 72.1388 602.2 72.1772C602.016 72.2198 601.784 72.2411 601.503 72.2411C601.077 72.2411 600.659 72.1495 600.25 71.9663C599.845 71.783 599.509 71.5039 599.24 71.1289C598.976 70.7539 598.844 70.2809 598.844 69.7099V59.9428Z" fill="#FAF5F6"/>
<rect x="485.66" y="1.18457" width="177" height="134" stroke="#FAF5F6"/>
<path fill-rule="evenodd" clip-rule="evenodd" d="M677.16 68.5038C677.16 67.9515 677.607 67.5038 678.16 67.5038H709.638C710.19 67.5038 710.638 67.9515 710.638 68.5038C710.638 69.0561 710.19 69.5038 709.638 69.5038H678.16C677.607 69.5038 677.16 69.0561 677.16 68.5038Z" fill="#FAF5F6"/>
<path fill-rule="evenodd" clip-rule="evenodd" d="M708.376 62.2001C707.986 61.8096 707.352 61.8096 706.962 62.2001C706.571 62.5906 706.571 63.2238 706.962 63.6143L710.885 67.5375C710.803 67.5156 710.716 67.5039 710.627 67.5039H708.669C708.117 67.5039 707.669 67.9516 707.669 68.5039C707.669 69.0561 708.117 69.5039 708.669 69.5039H710.213L706.962 72.7547C706.571 73.1453 706.571 73.7784 706.962 74.169C707.352 74.5595 707.986 74.5595 708.376 74.169L713.3 69.2452C713.886 68.6594 713.886 67.7097 713.3 67.1239L708.376 62.2001Z" fill="#FAF5F6"/>
<path d="M752.559 30.5224H754.144V39.19C754.144 40.0849 753.933 40.8839 753.511 41.587C753.094 42.2859 752.503 42.8377 751.741 43.2425C750.978 43.6431 750.083 43.8434 749.056 43.8434C748.029 43.8434 747.134 43.6431 746.371 43.2425C745.609 42.8377 745.016 42.2859 744.594 41.587C744.177 40.8839 743.968 40.0849 743.968 39.19V30.5224H745.553V39.0621C745.553 39.7013 745.694 40.2702 745.975 40.7688C746.256 41.2631 746.657 41.6531 747.177 41.9386C747.701 42.2198 748.327 42.3604 749.056 42.3604C749.785 42.3604 750.411 42.2198 750.935 41.9386C751.459 41.6531 751.86 41.2631 752.137 40.7688C752.418 40.2702 752.559 39.7013 752.559 39.0621V30.5224ZM764.96 35.994L763.605 36.3775C763.519 36.1516 763.394 35.9322 763.227 35.7191C763.066 35.5018 762.844 35.3228 762.563 35.1822C762.281 35.0415 761.921 34.9712 761.482 34.9712C760.882 34.9712 760.381 35.1097 759.98 35.3867C759.584 35.6594 759.386 36.0067 759.386 36.4286C759.386 36.8036 759.522 37.0998 759.795 37.3171C760.068 37.5344 760.494 37.7156 761.073 37.8604L762.531 38.2184C763.409 38.4315 764.063 38.7575 764.493 39.1964C764.923 39.631 765.139 40.1914 765.139 40.8775C765.139 41.44 764.977 41.9428 764.653 42.386C764.333 42.8292 763.886 43.1786 763.311 43.4343C762.735 43.69 762.066 43.8178 761.303 43.8178C760.302 43.8178 759.473 43.6005 758.817 43.1658C758.161 42.7312 757.745 42.0962 757.57 41.261L759.002 40.9031C759.139 41.4315 759.396 41.8278 759.776 42.092C760.159 42.3562 760.66 42.4883 761.278 42.4883C761.981 42.4883 762.539 42.3391 762.953 42.0408C763.37 41.7383 763.579 41.3761 763.579 40.9542C763.579 40.6133 763.46 40.3278 763.221 40.0977C762.982 39.8633 762.616 39.6886 762.122 39.5735L760.485 39.19C759.586 38.9769 758.926 38.6467 758.504 38.1992C758.086 37.7475 757.877 37.1829 757.877 36.5053C757.877 35.9513 758.033 35.4613 758.344 35.0352C758.659 34.609 759.088 34.2745 759.629 34.0316C760.174 33.7887 760.792 33.6673 761.482 33.6673C762.454 33.6673 763.217 33.8803 763.771 34.3065C764.329 34.7326 764.725 35.2951 764.96 35.994ZM772.426 43.8178C771.48 43.8178 770.664 43.609 769.978 43.1914C769.296 42.7695 768.77 42.1815 768.399 41.4272C768.032 40.6687 767.849 39.7866 767.849 38.7809C767.849 37.7752 768.032 36.8888 768.399 36.1218C768.77 35.3505 769.285 34.7496 769.946 34.3192C770.611 33.8846 771.386 33.6673 772.273 33.6673C772.784 33.6673 773.289 33.7525 773.787 33.9229C774.286 34.0934 774.74 34.3704 775.149 34.7539C775.558 35.1332 775.884 35.636 776.127 36.2624C776.37 36.8888 776.491 37.6602 776.491 38.5763V39.2156H768.923V37.9116H774.957C774.957 37.3576 774.846 36.8633 774.625 36.4286C774.407 35.994 774.096 35.6509 773.692 35.3995C773.291 35.1481 772.818 35.0224 772.273 35.0224C771.672 35.0224 771.152 35.1715 770.713 35.4698C770.278 35.7638 769.944 36.1474 769.709 36.6204C769.475 37.0934 769.358 37.6005 769.358 38.1417V39.011C769.358 39.7525 769.486 40.381 769.741 40.8967C770.001 41.408 770.361 41.7979 770.822 42.0664C771.282 42.3306 771.817 42.4627 772.426 42.4627C772.822 42.4627 773.18 42.4073 773.5 42.2965C773.824 42.1815 774.103 42.011 774.337 41.7852C774.572 41.555 774.753 41.2695 774.88 40.9286L776.338 41.3377C776.184 41.832 775.927 42.2667 775.564 42.6417C775.202 43.0124 774.755 43.3022 774.222 43.511C773.689 43.7156 773.091 43.8178 772.426 43.8178ZM779.686 43.6133V33.7951H781.143V35.2781H781.246C781.425 34.7923 781.748 34.3981 782.217 34.0955C782.686 33.793 783.214 33.6417 783.802 33.6417C783.913 33.6417 784.052 33.6438 784.218 33.6481C784.384 33.6523 784.51 33.6587 784.595 33.6673V35.2013C784.544 35.1886 784.427 35.1694 784.244 35.1438C784.065 35.114 783.875 35.0991 783.675 35.0991C783.197 35.0991 782.771 35.1992 782.396 35.3995C782.025 35.5955 781.731 35.8683 781.514 36.2177C781.301 36.5629 781.195 36.957 781.195 37.4002V43.6133H779.686ZM800.609 33.7951C800.533 33.1474 800.222 32.6445 799.676 32.2866C799.131 31.9286 798.462 31.7496 797.669 31.7496C797.09 31.7496 796.582 31.8434 796.148 32.0309C795.717 32.2184 795.381 32.4762 795.138 32.8043C794.899 33.1325 794.78 33.5053 794.78 33.9229C794.78 34.2724 794.863 34.5728 795.029 34.8242C795.2 35.0714 795.417 35.2781 795.681 35.4442C795.945 35.6062 796.222 35.7404 796.512 35.8469C796.802 35.9492 797.068 36.0323 797.311 36.0962L798.641 36.4542C798.982 36.5437 799.361 36.6673 799.778 36.8249C800.2 36.9826 800.603 37.1978 800.987 37.4705C801.374 37.739 801.694 38.0842 801.945 38.506C802.197 38.9279 802.322 39.4457 802.322 40.0593C802.322 40.7667 802.137 41.4059 801.766 41.9769C801.4 42.5479 800.863 43.0018 800.156 43.3384C799.452 43.6751 798.598 43.8434 797.592 43.8434C796.655 43.8434 795.843 43.6921 795.157 43.3896C794.475 43.087 793.938 42.6651 793.546 42.1239C793.158 41.5827 792.939 40.9542 792.888 40.2383H794.524C794.567 40.7326 794.733 41.1417 795.023 41.4656C795.317 41.7852 795.688 42.0238 796.135 42.1815C796.587 42.3349 797.072 42.4116 797.592 42.4116C798.197 42.4116 798.741 42.3136 799.222 42.1175C799.704 41.9173 800.085 41.6403 800.367 41.2866C800.648 40.9286 800.788 40.511 800.788 40.0337C800.788 39.5991 800.667 39.2454 800.424 38.9727C800.181 38.6999 799.862 38.4783 799.465 38.3079C799.069 38.1374 798.641 37.9883 798.18 37.8604L796.57 37.4002C795.547 37.1062 794.737 36.6864 794.141 36.141C793.544 35.5955 793.246 34.8817 793.246 33.9996C793.246 33.2667 793.444 32.6275 793.84 32.082C794.241 31.5323 794.778 31.1062 795.451 30.8036C796.129 30.4968 796.885 30.3434 797.72 30.3434C798.564 30.3434 799.314 30.4947 799.97 30.7972C800.626 31.0955 801.146 31.5046 801.53 32.0245C801.918 32.5444 802.122 33.1346 802.143 33.7951H800.609ZM805.829 43.6133V30.5224H807.414V36.3519H814.394V30.5224H815.979V43.6133H814.394V37.7582H807.414V43.6133H805.829ZM820.59 43.6133H818.928L823.735 30.5224H825.371L830.178 43.6133H828.516L824.604 32.5934H824.502L820.59 43.6133ZM821.204 38.4996H827.902V39.9059H821.204V38.4996ZM833.117 43.6133V30.5224H837.54C838.563 30.5224 839.403 30.6971 840.059 31.0465C840.715 31.3917 841.201 31.8668 841.516 32.4719C841.832 33.0771 841.989 33.7653 841.989 34.5366C841.989 35.3079 841.832 35.9918 841.516 36.5884C841.201 37.185 840.717 37.6538 840.065 37.9947C839.413 38.3313 838.58 38.4996 837.566 38.4996H833.986V37.0678H837.515C838.214 37.0678 838.776 36.9656 839.202 36.761C839.633 36.5565 839.944 36.2667 840.136 35.8917C840.332 35.5124 840.43 35.0607 840.43 34.5366C840.43 34.0124 840.332 33.5543 840.136 33.1623C839.94 32.7702 839.626 32.4677 839.196 32.2546C838.766 32.0373 838.197 31.9286 837.489 31.9286H834.702V43.6133H833.117ZM839.279 37.7326L842.501 43.6133H840.66L837.489 37.7326H839.279ZM845.531 43.6133V30.5224H853.431V31.9286H847.116V36.3519H853.022V37.7582H847.116V42.207H853.534V43.6133H845.531ZM864.348 33.7951C864.271 33.1474 863.96 32.6445 863.414 32.2866C862.869 31.9286 862.2 31.7496 861.407 31.7496C860.828 31.7496 860.321 31.8434 859.886 32.0309C859.456 32.2184 859.119 32.4762 858.876 32.8043C858.637 33.1325 858.518 33.5053 858.518 33.9229C858.518 34.2724 858.601 34.5728 858.767 34.8242C858.938 35.0714 859.155 35.2781 859.419 35.4442C859.684 35.6062 859.961 35.7404 860.25 35.8469C860.54 35.9492 860.806 36.0323 861.049 36.0962L862.379 36.4542C862.72 36.5437 863.099 36.6673 863.517 36.8249C863.939 36.9826 864.341 37.1978 864.725 37.4705C865.113 37.739 865.432 38.0842 865.684 38.506C865.935 38.9279 866.061 39.4457 866.061 40.0593C866.061 40.7667 865.875 41.4059 865.505 41.9769C865.138 42.5479 864.601 43.0018 863.894 43.3384C863.191 43.6751 862.336 43.8434 861.331 43.8434C860.393 43.8434 859.581 43.6921 858.895 43.3896C858.213 43.087 857.677 42.6651 857.284 42.1239C856.897 41.5827 856.677 40.9542 856.626 40.2383H858.262C858.305 40.7326 858.471 41.1417 858.761 41.4656C859.055 41.7852 859.426 42.0238 859.873 42.1815C860.325 42.3349 860.811 42.4116 861.331 42.4116C861.936 42.4116 862.479 42.3136 862.961 42.1175C863.442 41.9173 863.824 41.6403 864.105 41.2866C864.386 40.9286 864.527 40.511 864.527 40.0337C864.527 39.5991 864.405 39.2454 864.162 38.9727C863.919 38.6999 863.6 38.4783 863.204 38.3079C862.807 38.1374 862.379 37.9883 861.919 37.8604L860.308 37.4002C859.285 37.1062 858.476 36.6864 857.879 36.141C857.282 35.5955 856.984 34.8817 856.984 33.9996C856.984 33.2667 857.182 32.6275 857.579 32.082C857.979 31.5323 858.516 31.1062 859.189 30.8036C859.867 30.4968 860.623 30.3434 861.458 30.3434C862.302 30.3434 863.052 30.4947 863.708 30.7972C864.365 31.0955 864.885 31.5046 865.268 32.0245C865.656 32.5444 865.86 33.1346 865.882 33.7951H864.348ZM879.442 43.8178C878.496 43.8178 877.679 43.609 876.993 43.1914C876.312 42.7695 875.785 42.1815 875.415 41.4272C875.048 40.6687 874.865 39.7866 874.865 38.7809C874.865 37.7752 875.048 36.8888 875.415 36.1218C875.785 35.3505 876.301 34.7496 876.961 34.3192C877.626 33.8846 878.402 33.6673 879.288 33.6673C879.799 33.6673 880.304 33.7525 880.803 33.9229C881.302 34.0934 881.755 34.3704 882.165 34.7539C882.574 35.1332 882.9 35.636 883.143 36.2624C883.385 36.8888 883.507 37.6602 883.507 38.5763V39.2156H875.939V37.9116H881.973C881.973 37.3576 881.862 36.8633 881.64 36.4286C881.423 35.994 881.112 35.6509 880.707 35.3995C880.307 35.1481 879.834 35.0224 879.288 35.0224C878.687 35.0224 878.167 35.1715 877.728 35.4698C877.294 35.7638 876.959 36.1474 876.725 36.6204C876.491 37.0934 876.373 37.6005 876.373 38.1417V39.011C876.373 39.7525 876.501 40.381 876.757 40.8967C877.017 41.408 877.377 41.7979 877.837 42.0664C878.297 42.3306 878.832 42.4627 879.442 42.4627C879.838 42.4627 880.196 42.4073 880.515 42.2965C880.839 42.1815 881.118 42.011 881.353 41.7852C881.587 41.555 881.768 41.2695 881.896 40.9286L883.353 41.3377C883.2 41.832 882.942 42.2667 882.58 42.6417C882.218 43.0124 881.77 43.3022 881.238 43.511C880.705 43.7156 880.106 43.8178 879.442 43.8178ZM894.431 33.7951L890.801 43.6133H889.266L885.636 33.7951H887.272L889.982 41.619H890.085L892.795 33.7951H894.431ZM901.087 43.8178C900.141 43.8178 899.325 43.609 898.639 43.1914C897.957 42.7695 897.431 42.1815 897.06 41.4272C896.694 40.6687 896.511 39.7866 896.511 38.7809C896.511 37.7752 896.694 36.8888 897.06 36.1218C897.431 35.3505 897.947 34.7496 898.607 34.3192C899.272 33.8846 900.047 33.6673 900.934 33.6673C901.445 33.6673 901.95 33.7525 902.449 33.9229C902.947 34.0934 903.401 34.3704 903.81 34.7539C904.219 35.1332 904.545 35.636 904.788 36.2624C905.031 36.8888 905.153 37.6602 905.153 38.5763V39.2156H897.584V37.9116H903.618C903.618 37.3576 903.508 36.8633 903.286 36.4286C903.069 35.994 902.758 35.6509 902.353 35.3995C901.952 35.1481 901.479 35.0224 900.934 35.0224C900.333 35.0224 899.813 35.1715 899.374 35.4698C898.94 35.7638 898.605 36.1474 898.371 36.6204C898.136 37.0934 898.019 37.6005 898.019 38.1417V39.011C898.019 39.7525 898.147 40.381 898.403 40.8967C898.663 41.408 899.023 41.7979 899.483 42.0664C899.943 42.3306 900.478 42.4627 901.087 42.4627C901.484 42.4627 901.842 42.4073 902.161 42.2965C902.485 42.1815 902.764 42.011 902.998 41.7852C903.233 41.555 903.414 41.2695 903.542 40.9286L904.999 41.3377C904.846 41.832 904.588 42.2667 904.226 42.6417C903.864 43.0124 903.416 43.3022 902.883 43.511C902.351 43.7156 901.752 43.8178 901.087 43.8178ZM909.856 37.707V43.6133H908.347V33.7951H909.805V35.3292H909.933C910.163 34.8306 910.512 34.43 910.981 34.1275C911.45 33.8207 912.055 33.6673 912.796 33.6673C913.461 33.6673 914.043 33.8036 914.541 34.0763C915.04 34.3448 915.428 34.7539 915.705 35.3036C915.982 35.8491 916.12 36.5394 916.12 37.3746V43.6133H914.612V37.4769C914.612 36.7056 914.411 36.1048 914.011 35.6744C913.61 35.2397 913.06 35.0224 912.362 35.0224C911.88 35.0224 911.45 35.1268 911.07 35.3356C910.695 35.5444 910.399 35.8491 910.182 36.2496C909.965 36.6502 909.856 37.136 909.856 37.707ZM924.047 33.7951V35.0735H918.958V33.7951H924.047ZM920.441 31.4428H921.95V40.8008C921.95 41.2269 922.012 41.5465 922.135 41.7596C922.263 41.9684 922.425 42.109 922.621 42.1815C922.821 42.2496 923.032 42.2837 923.254 42.2837C923.42 42.2837 923.556 42.2752 923.663 42.2582C923.77 42.2369 923.855 42.2198 923.919 42.207L924.225 43.5621C924.123 43.6005 923.98 43.6388 923.797 43.6772C923.614 43.7198 923.382 43.7411 923.1 43.7411C922.674 43.7411 922.257 43.6495 921.848 43.4663C921.443 43.283 921.106 43.0039 920.838 42.6289C920.573 42.2539 920.441 41.7809 920.441 41.2099V31.4428ZM933.178 43.6133V33.7951H934.687V43.6133H933.178ZM933.945 32.1587C933.651 32.1587 933.398 32.0586 933.185 31.8583C932.976 31.658 932.871 31.4173 932.871 31.136C932.871 30.8548 932.976 30.614 933.185 30.4137C933.398 30.2134 933.651 30.1133 933.945 30.1133C934.239 30.1133 934.491 30.2134 934.699 30.4137C934.913 30.614 935.019 30.8548 935.019 31.136C935.019 31.4173 934.913 31.658 934.699 31.8583C934.491 32.0586 934.239 32.1587 933.945 32.1587ZM939.858 37.707V43.6133H938.35V33.7951H939.807V35.3292H939.935C940.165 34.8306 940.514 34.43 940.983 34.1275C941.452 33.8207 942.057 33.6673 942.799 33.6673C943.463 33.6673 944.045 33.8036 944.544 34.0763C945.042 34.3448 945.43 34.7539 945.707 35.3036C945.984 35.8491 946.122 36.5394 946.122 37.3746V43.6133H944.614V37.4769C944.614 36.7056 944.414 36.1048 944.013 35.6744C943.612 35.2397 943.063 35.0224 942.364 35.0224C941.882 35.0224 941.452 35.1268 941.073 35.3356C940.698 35.5444 940.402 35.8491 940.184 36.2496C939.967 36.6502 939.858 37.136 939.858 37.707ZM795.945 63.994L794.59 64.3775C794.504 64.1516 794.379 63.9322 794.212 63.7191C794.05 63.5018 793.829 63.3228 793.548 63.1822C793.266 63.0415 792.906 62.9712 792.467 62.9712C791.867 62.9712 791.366 63.1097 790.965 63.3867C790.569 63.6594 790.371 64.0067 790.371 64.4286C790.371 64.8036 790.507 65.0998 790.78 65.3171C791.053 65.5344 791.479 65.7156 792.058 65.8604L793.516 66.2184C794.394 66.4315 795.048 66.7575 795.478 67.1964C795.908 67.631 796.124 68.1914 796.124 68.8775C796.124 69.44 795.962 69.9428 795.638 70.386C795.318 70.8292 794.871 71.1786 794.295 71.4343C793.72 71.69 793.051 71.8178 792.288 71.8178C791.287 71.8178 790.458 71.6005 789.802 71.1658C789.146 70.7312 788.73 70.0962 788.555 69.261L789.987 68.9031C790.124 69.4315 790.381 69.8278 790.761 70.092C791.144 70.3562 791.645 70.4883 792.263 70.4883C792.966 70.4883 793.524 70.3391 793.938 70.0408C794.355 69.7383 794.564 69.3761 794.564 68.9542C794.564 68.6133 794.445 68.3278 794.206 68.0977C793.967 67.8633 793.601 67.6886 793.107 67.5735L791.47 67.19C790.571 66.9769 789.911 66.6467 789.489 66.1992C789.071 65.7475 788.862 65.1829 788.862 64.5053C788.862 63.9513 789.018 63.4613 789.329 63.0352C789.644 62.609 790.072 62.2745 790.614 62.0316C791.159 61.7887 791.777 61.6673 792.467 61.6673C793.439 61.6673 794.202 61.8803 794.756 62.3065C795.314 62.7326 795.71 63.2951 795.945 63.994ZM803.283 71.8178C802.397 71.8178 801.619 71.6069 800.95 71.185C800.285 70.7631 799.765 70.1729 799.39 69.4144C799.02 68.6559 798.834 67.7695 798.834 66.7553C798.834 65.7326 799.02 64.8398 799.39 64.0771C799.765 63.3143 800.285 62.7219 800.95 62.3001C801.619 61.8782 802.397 61.6673 803.283 61.6673C804.169 61.6673 804.945 61.8782 805.61 62.3001C806.279 62.7219 806.799 63.3143 807.169 64.0771C807.544 64.8398 807.732 65.7326 807.732 66.7553C807.732 67.7695 807.544 68.6559 807.169 69.4144C806.799 70.1729 806.279 70.7631 805.61 71.185C804.945 71.6069 804.169 71.8178 803.283 71.8178ZM803.283 70.4627C803.956 70.4627 804.51 70.2901 804.945 69.945C805.38 69.5998 805.701 69.146 805.91 68.5835C806.119 68.021 806.223 67.4116 806.223 66.7553C806.223 66.0991 806.119 65.4876 805.91 64.9208C805.701 64.354 805.38 63.896 804.945 63.5465C804.51 63.1971 803.956 63.0224 803.283 63.0224C802.61 63.0224 802.056 63.1971 801.621 63.5465C801.186 63.896 800.865 64.354 800.656 64.9208C800.447 65.4876 800.343 66.0991 800.343 66.7553C800.343 67.4116 800.447 68.021 800.656 68.5835C800.865 69.146 801.186 69.5998 801.621 69.945C802.056 70.2901 802.61 70.4627 803.283 70.4627ZM814.923 71.8178C814.003 71.8178 813.21 71.6005 812.545 71.1658C811.881 70.7312 811.369 70.1325 811.011 69.3697C810.653 68.6069 810.474 67.7354 810.474 66.7553C810.474 65.7582 810.658 64.8782 811.024 64.1154C811.395 63.3484 811.91 62.7496 812.571 62.3192C813.236 61.8846 814.011 61.6673 814.898 61.6673C815.588 61.6673 816.21 61.7951 816.764 62.0508C817.318 62.3065 817.772 62.6644 818.126 63.1246C818.479 63.5849 818.699 64.1218 818.784 64.7354H817.276C817.16 64.288 816.905 63.8917 816.508 63.5465C816.116 63.1971 815.588 63.0224 814.923 63.0224C814.335 63.0224 813.82 63.1758 813.376 63.4826C812.937 63.7852 812.594 64.2134 812.347 64.7674C812.104 65.3171 811.983 65.9627 811.983 66.7042C811.983 67.4627 812.102 68.1232 812.341 68.6857C812.584 69.2482 812.925 69.685 813.364 69.9961C813.807 70.3072 814.327 70.4627 814.923 70.4627C815.315 70.4627 815.671 70.3945 815.991 70.2582C816.31 70.1218 816.581 69.9258 816.803 69.6701C817.024 69.4144 817.182 69.1076 817.276 68.7496H818.784C818.699 69.3292 818.488 69.8512 818.151 70.3157C817.819 70.7759 817.378 71.1424 816.828 71.4151C816.283 71.6836 815.648 71.8178 814.923 71.8178ZM821.889 71.6133V61.7951H823.398V71.6133H821.889ZM822.656 60.1587C822.362 60.1587 822.109 60.0586 821.896 59.8583C821.687 59.658 821.583 59.4173 821.583 59.136C821.583 58.8548 821.687 58.614 821.896 58.4137C822.109 58.2134 822.362 58.1133 822.656 58.1133C822.95 58.1133 823.202 58.2134 823.411 58.4137C823.624 58.614 823.73 58.8548 823.73 59.136C823.73 59.4173 823.624 59.658 823.411 59.8583C823.202 60.0586 822.95 60.1587 822.656 60.1587ZM829.95 71.8434C829.328 71.8434 828.763 71.7262 828.256 71.4918C827.749 71.2532 827.346 70.9102 827.048 70.4627C826.75 70.011 826.601 69.4656 826.601 68.8263C826.601 68.2638 826.711 67.8079 826.933 67.4585C827.155 67.1048 827.451 66.8278 827.821 66.6275C828.192 66.4272 828.601 66.2781 829.049 66.18C829.5 66.0778 829.954 65.9968 830.41 65.9371C831.007 65.8604 831.49 65.8029 831.861 65.7646C832.236 65.7219 832.509 65.6516 832.679 65.5536C832.854 65.4556 832.941 65.2852 832.941 65.0423V64.9911C832.941 64.3604 832.769 63.8704 832.424 63.521C832.083 63.1715 831.565 62.9968 830.87 62.9968C830.15 62.9968 829.586 63.1545 829.177 63.4698C828.767 63.7852 828.48 64.1218 828.314 64.4798L826.882 63.9684C827.138 63.3718 827.478 62.9073 827.905 62.5749C828.335 62.2383 828.804 62.0039 829.311 61.8718C829.822 61.7354 830.325 61.6673 830.819 61.6673C831.135 61.6673 831.497 61.7056 831.906 61.7823C832.319 61.8548 832.718 62.006 833.101 62.2361C833.489 62.4663 833.811 62.8136 834.066 63.2781C834.322 63.7425 834.45 64.3647 834.45 65.1445V71.6133H832.941V70.2837H832.865C832.763 70.4968 832.592 70.7248 832.353 70.9677C832.115 71.2106 831.797 71.4173 831.401 71.5877C831.005 71.7582 830.521 71.8434 829.95 71.8434ZM830.18 70.4883C830.777 70.4883 831.28 70.3711 831.689 70.1367C832.102 69.9023 832.413 69.5998 832.622 69.229C832.835 68.8583 832.941 68.4684 832.941 68.0593V66.6786C832.878 66.7553 832.737 66.8256 832.52 66.8896C832.307 66.9492 832.059 67.0025 831.778 67.0494C831.501 67.092 831.231 67.1303 830.966 67.1644C830.706 67.1942 830.495 67.2198 830.334 67.2411C829.941 67.2923 829.575 67.3754 829.234 67.4904C828.897 67.6012 828.625 67.7695 828.416 67.9954C828.211 68.217 828.109 68.5195 828.109 68.9031C828.109 69.4272 828.303 69.8235 828.691 70.092C829.083 70.3562 829.579 70.4883 830.18 70.4883ZM839.612 58.5224V71.6133H838.103V58.5224H839.612ZM849.237 71.6133V61.7951H850.695V63.3292H850.823C851.027 62.805 851.357 62.3981 851.813 62.1083C852.269 61.8143 852.817 61.6673 853.456 61.6673C854.104 61.6673 854.643 61.8143 855.073 62.1083C855.508 62.3981 855.847 62.805 856.09 63.3292H856.192C856.443 62.8221 856.82 62.4194 857.323 62.1211C857.826 61.8185 858.429 61.6673 859.132 61.6673C860.01 61.6673 860.728 61.9421 861.286 62.4918C861.845 63.0373 862.124 63.8874 862.124 65.0423V71.6133H860.615V65.0423C860.615 64.3178 860.417 63.8001 860.021 63.489C859.624 63.1779 859.158 63.0224 858.621 63.0224C857.931 63.0224 857.396 63.2312 857.016 63.6488C856.637 64.0621 856.448 64.5863 856.448 65.2212V71.6133H854.914V64.8888C854.914 64.3306 854.732 63.881 854.37 63.5401C854.008 63.195 853.541 63.0224 852.97 63.0224C852.578 63.0224 852.212 63.1268 851.871 63.3356C851.534 63.5444 851.262 63.8342 851.053 64.2049C850.848 64.5714 850.746 64.9954 850.746 65.4769V71.6133H849.237ZM869.898 71.8178C868.952 71.8178 868.136 71.609 867.45 71.1914C866.768 70.7695 866.242 70.1815 865.871 69.4272C865.505 68.6687 865.322 67.7866 865.322 66.7809C865.322 65.7752 865.505 64.8888 865.871 64.1218C866.242 63.3505 866.758 62.7496 867.418 62.3192C868.083 61.8846 868.859 61.6673 869.745 61.6673C870.256 61.6673 870.761 61.7525 871.26 61.9229C871.758 62.0934 872.212 62.3704 872.621 62.7539C873.03 63.1332 873.356 63.636 873.599 64.2624C873.842 64.8888 873.964 65.6602 873.964 66.5763V67.2156H866.396V65.9116H872.43C872.43 65.3576 872.319 64.8633 872.097 64.4286C871.88 63.994 871.569 63.6509 871.164 63.3995C870.763 63.1481 870.29 63.0224 869.745 63.0224C869.144 63.0224 868.624 63.1715 868.185 63.4698C867.751 63.7638 867.416 64.1474 867.182 64.6204C866.947 65.0934 866.83 65.6005 866.83 66.1417V67.011C866.83 67.7525 866.958 68.381 867.214 68.8967C867.474 69.408 867.834 69.7979 868.294 70.0664C868.754 70.3306 869.289 70.4627 869.898 70.4627C870.295 70.4627 870.653 70.4073 870.972 70.2965C871.296 70.1815 871.575 70.011 871.81 69.7852C872.044 69.555 872.225 69.2695 872.353 68.9286L873.81 69.3377C873.657 69.832 873.399 70.2667 873.037 70.6417C872.675 71.0124 872.227 71.3022 871.695 71.511C871.162 71.7156 870.563 71.8178 869.898 71.8178ZM880.866 71.8178C880.048 71.8178 879.325 71.6112 878.699 71.1978C878.073 70.7802 877.582 70.1921 877.229 69.4336C876.875 68.6708 876.698 67.7695 876.698 66.7298C876.698 65.6985 876.875 64.8036 877.229 64.0451C877.582 63.2866 878.075 62.7006 878.705 62.2873C879.336 61.8739 880.065 61.6673 880.891 61.6673C881.531 61.6673 882.036 61.7738 882.406 61.9869C882.781 62.1957 883.067 62.4343 883.263 62.7028C883.463 62.967 883.619 63.1843 883.729 63.3548H883.857V58.5224H885.366V71.6133H883.908V70.1048H883.729C883.619 70.2837 883.461 70.5096 883.256 70.7823C883.052 71.0508 882.76 71.2915 882.381 71.5046C882.001 71.7134 881.497 71.8178 880.866 71.8178ZM881.07 70.4627C881.675 70.4627 882.187 70.305 882.604 69.9897C883.022 69.6701 883.34 69.229 883.557 68.6665C883.774 68.0998 883.883 67.4457 883.883 66.7042C883.883 65.9712 883.776 65.3299 883.563 64.7802C883.35 64.2262 883.035 63.7958 882.617 63.489C882.2 63.1779 881.684 63.0224 881.07 63.0224C880.431 63.0224 879.899 63.1864 879.472 63.5146C879.05 63.8384 878.733 64.2795 878.52 64.8377C878.311 65.3917 878.207 66.0138 878.207 66.7042C878.207 67.4031 878.313 68.038 878.526 68.609C878.744 69.1758 879.063 69.6275 879.485 69.9641C879.911 70.2965 880.44 70.4627 881.07 70.4627ZM889.238 71.6133V61.7951H890.747V71.6133H889.238ZM890.005 60.1587C889.711 60.1587 889.458 60.0586 889.245 59.8583C889.036 59.658 888.931 59.4173 888.931 59.136C888.931 58.8548 889.036 58.614 889.245 58.4137C889.458 58.2134 889.711 58.1133 890.005 58.1133C890.299 58.1133 890.551 58.2134 890.759 58.4137C890.973 58.614 891.079 58.8548 891.079 59.136C891.079 59.4173 890.973 59.658 890.759 59.8583C890.551 60.0586 890.299 60.1587 890.005 60.1587ZM897.299 71.8434C896.677 71.8434 896.112 71.7262 895.605 71.4918C895.098 71.2532 894.695 70.9102 894.397 70.4627C894.099 70.011 893.949 69.4656 893.949 68.8263C893.949 68.2638 894.06 67.8079 894.282 67.4585C894.503 67.1048 894.8 66.8278 895.17 66.6275C895.541 66.4272 895.95 66.2781 896.398 66.18C896.849 66.0778 897.303 65.9968 897.759 65.9371C898.356 65.8604 898.839 65.8029 899.21 65.7646C899.585 65.7219 899.858 65.6516 900.028 65.5536C900.203 65.4556 900.29 65.2852 900.29 65.0423V64.9911C900.29 64.3604 900.118 63.8704 899.773 63.521C899.432 63.1715 898.914 62.9968 898.219 62.9968C897.499 62.9968 896.934 63.1545 896.525 63.4698C896.116 63.7852 895.829 64.1218 895.662 64.4798L894.231 63.9684C894.486 63.3718 894.827 62.9073 895.253 62.5749C895.684 62.2383 896.153 62.0039 896.66 61.8718C897.171 61.7354 897.674 61.6673 898.168 61.6673C898.483 61.6673 898.846 61.7056 899.255 61.7823C899.668 61.8548 900.067 62.006 900.45 62.2361C900.838 62.4663 901.16 62.8136 901.415 63.2781C901.671 63.7425 901.799 64.3647 901.799 65.1445V71.6133H900.29V70.2837H900.214C900.111 70.4968 899.941 70.7248 899.702 70.9677C899.464 71.2106 899.146 71.4173 898.75 71.5877C898.354 71.7582 897.87 71.8434 897.299 71.8434ZM897.529 70.4883C898.126 70.4883 898.628 70.3711 899.037 70.1367C899.451 69.9023 899.762 69.5998 899.971 69.229C900.184 68.8583 900.29 68.4684 900.29 68.0593V66.6786C900.226 66.7553 900.086 66.8256 899.868 66.8896C899.655 66.9492 899.408 67.0025 899.127 67.0494C898.85 67.092 898.579 67.1303 898.315 67.1644C898.055 67.1942 897.844 67.2198 897.682 67.2411C897.29 67.2923 896.924 67.3754 896.583 67.4904C896.246 67.6012 895.974 67.7695 895.765 67.9954C895.56 68.217 895.458 68.5195 895.458 68.9031C895.458 69.4272 895.652 69.8235 896.04 70.092C896.432 70.3562 896.928 70.4883 897.529 70.4883Z" fill="#FAF5F6"/>
<rect x="728.239" y="0.68457" width="227" height="135" stroke="#FAF5F6"/>
<path fill-rule="evenodd" clip-rule="evenodd" d="M969.739 68.5038C969.739 67.9515 970.187 67.5038 970.739 67.5038H1002.22C1002.77 67.5038 1003.22 67.9515 1003.22 68.5038C1003.22 69.0561 1002.77 69.5038 1002.22 69.5038H970.739C970.187 69.5038 969.739 69.0561 969.739 68.5038Z" fill="#FAF5F6"/>
<path fill-rule="evenodd" clip-rule="evenodd" d="M1000.96 62.2001C1000.57 61.8096 999.932 61.8096 999.542 62.2001C999.151 62.5906 999.151 63.2238 999.542 63.6143L1003.46 67.5375C1003.38 67.5156 1003.3 67.5039 1003.21 67.5039H1001.25C1000.7 67.5039 1000.25 67.9516 1000.25 68.5039C1000.25 69.0561 1000.7 69.5039 1001.25 69.5039H1002.79L999.542 72.7547C999.151 73.1453 999.151 73.7784 999.542 74.169C999.932 74.5595 1000.57 74.5595 1000.96 74.169L1005.88 69.2452C1006.47 68.6594 1006.47 67.7097 1005.88 67.1239L1000.96 62.2001Z" fill="#FAF5F6"/>
<g clip-path="url(#clip1_2_729)">
<g filter="url(#filter1_d_2_729)">
<rect x="1020.32" y="0.68457" width="190" height="135" fill="#FF4F2A"/>
</g>
<path d="M1061.21 27.203H1062.8V35.8706C1062.8 36.7655 1062.59 37.5645 1062.17 38.2677C1061.75 38.9665 1061.16 39.5184 1060.4 39.9232C1059.63 40.3238 1058.74 40.5241 1057.71 40.5241C1056.68 40.5241 1055.79 40.3238 1055.03 39.9232C1054.26 39.5184 1053.67 38.9665 1053.25 38.2677C1052.83 37.5645 1052.62 36.7655 1052.62 35.8706V27.203H1054.21V35.7428C1054.21 36.382 1054.35 36.9509 1054.63 37.4495C1054.91 37.9438 1055.31 38.3337 1055.83 38.6192C1056.36 38.9005 1056.98 39.0411 1057.71 39.0411C1058.44 39.0411 1059.07 38.9005 1059.59 38.6192C1060.12 38.3337 1060.52 37.9438 1060.79 37.4495C1061.07 36.9509 1061.21 36.382 1061.21 35.7428V27.203ZM1073.62 32.6746L1072.26 33.0581C1072.18 32.8323 1072.05 32.6128 1071.88 32.3998C1071.72 32.1824 1071.5 32.0035 1071.22 31.8628C1070.94 31.7222 1070.58 31.6519 1070.14 31.6519C1069.54 31.6519 1069.04 31.7904 1068.64 32.0674C1068.24 32.3401 1068.04 32.6874 1068.04 33.1093C1068.04 33.4843 1068.18 33.7805 1068.45 33.9978C1068.72 34.2151 1069.15 34.3962 1069.73 34.5411L1071.19 34.8991C1072.06 35.1121 1072.72 35.4381 1073.15 35.877C1073.58 36.3117 1073.79 36.8721 1073.79 37.5581C1073.79 38.1206 1073.63 38.6235 1073.31 39.0667C1072.99 39.5099 1072.54 39.8593 1071.97 40.115C1071.39 40.3706 1070.72 40.4985 1069.96 40.4985C1068.96 40.4985 1068.13 40.2812 1067.47 39.8465C1066.82 39.4118 1066.4 38.7769 1066.23 37.9417L1067.66 37.5837C1067.79 38.1121 1068.05 38.5084 1068.43 38.7726C1068.82 39.0368 1069.32 39.1689 1069.93 39.1689C1070.64 39.1689 1071.2 39.0198 1071.61 38.7215C1072.03 38.4189 1072.24 38.0567 1072.24 37.6349C1072.24 37.2939 1072.12 37.0084 1071.88 36.7783C1071.64 36.5439 1071.27 36.3692 1070.78 36.2542L1069.14 35.8706C1068.24 35.6576 1067.58 35.3273 1067.16 34.8799C1066.74 34.4282 1066.53 33.8635 1066.53 33.186C1066.53 32.632 1066.69 32.142 1067 31.7158C1067.32 31.2897 1067.74 30.9552 1068.28 30.7123C1068.83 30.4694 1069.45 30.3479 1070.14 30.3479C1071.11 30.3479 1071.87 30.561 1072.43 30.9871C1072.99 31.4133 1073.38 31.9758 1073.62 32.6746ZM1081.08 40.4985C1080.14 40.4985 1079.32 40.2897 1078.63 39.8721C1077.95 39.4502 1077.43 38.8621 1077.05 38.1079C1076.69 37.3493 1076.51 36.4672 1076.51 35.4616C1076.51 34.4559 1076.69 33.5695 1077.05 32.8025C1077.43 32.0312 1077.94 31.4303 1078.6 30.9999C1079.27 30.5653 1080.04 30.3479 1080.93 30.3479C1081.44 30.3479 1081.94 30.4331 1082.44 30.6036C1082.94 30.7741 1083.4 31.051 1083.8 31.4346C1084.21 31.8138 1084.54 32.3167 1084.78 32.9431C1085.03 33.5695 1085.15 34.3408 1085.15 35.257V35.8962H1077.58V34.5922H1083.61C1083.61 34.0383 1083.5 33.5439 1083.28 33.1093C1083.06 32.6746 1082.75 32.3316 1082.35 32.0802C1081.95 31.8287 1081.47 31.703 1080.93 31.703C1080.33 31.703 1079.81 31.8522 1079.37 32.1505C1078.93 32.4445 1078.6 32.828 1078.37 33.301C1078.13 33.7741 1078.01 34.2812 1078.01 34.8224V35.6917C1078.01 36.4331 1078.14 37.0617 1078.4 37.5773C1078.66 38.0887 1079.02 38.4786 1079.48 38.7471C1079.94 39.0113 1080.47 39.1434 1081.08 39.1434C1081.48 39.1434 1081.84 39.088 1082.16 38.9772C1082.48 38.8621 1082.76 38.6917 1082.99 38.4658C1083.23 38.2357 1083.41 37.9502 1083.54 37.6093L1084.99 38.0184C1084.84 38.5127 1084.58 38.9474 1084.22 39.3224C1083.86 39.6931 1083.41 39.9829 1082.88 40.1917C1082.35 40.3962 1081.75 40.4985 1081.08 40.4985ZM1088.34 40.2939V30.4758H1089.8V31.9587H1089.9C1090.08 31.4729 1090.4 31.0787 1090.87 30.7762C1091.34 30.4736 1091.87 30.3224 1092.46 30.3224C1092.57 30.3224 1092.71 30.3245 1092.87 30.3287C1093.04 30.333 1093.17 30.3394 1093.25 30.3479V31.882C1093.2 31.8692 1093.08 31.8501 1092.9 31.8245C1092.72 31.7947 1092.53 31.7797 1092.33 31.7797C1091.85 31.7797 1091.43 31.8799 1091.05 32.0802C1090.68 32.2762 1090.39 32.5489 1090.17 32.8983C1089.96 33.2435 1089.85 33.6377 1089.85 34.0809V40.2939H1088.34ZM1102.11 40.2939V27.203H1109.96V28.6093H1103.69V33.0326H1109.37V34.4388H1103.69V40.2939H1102.11ZM1124.62 33.7485C1124.62 35.1292 1124.37 36.3224 1123.87 37.328C1123.37 38.3337 1122.69 39.1093 1121.82 39.6547C1120.95 40.2002 1119.95 40.4729 1118.84 40.4729C1117.72 40.4729 1116.73 40.2002 1115.86 39.6547C1114.99 39.1093 1114.31 38.3337 1113.81 37.328C1113.31 36.3224 1113.06 35.1292 1113.06 33.7485C1113.06 32.3678 1113.31 31.1746 1113.81 30.1689C1114.31 29.1633 1114.99 28.3877 1115.86 27.8422C1116.73 27.2968 1117.72 27.0241 1118.84 27.0241C1119.95 27.0241 1120.95 27.2968 1121.82 27.8422C1122.69 28.3877 1123.37 29.1633 1123.87 30.1689C1124.37 31.1746 1124.62 32.3678 1124.62 33.7485ZM1123.08 33.7485C1123.08 32.615 1122.89 31.6583 1122.51 30.8785C1122.14 30.0986 1121.63 29.5084 1120.99 29.1079C1120.35 28.7073 1119.63 28.507 1118.84 28.507C1118.05 28.507 1117.33 28.7073 1116.68 29.1079C1116.04 29.5084 1115.54 30.0986 1115.16 30.8785C1114.78 31.6583 1114.59 32.615 1114.59 33.7485C1114.59 34.882 1114.78 35.8387 1115.16 36.6185C1115.54 37.3983 1116.04 37.9885 1116.68 38.3891C1117.33 38.7897 1118.05 38.99 1118.84 38.99C1119.63 38.99 1120.35 38.7897 1120.99 38.3891C1121.63 37.9885 1122.14 37.3983 1122.51 36.6185C1122.89 35.8387 1123.08 34.882 1123.08 33.7485ZM1136.77 27.203H1138.36V35.8706C1138.36 36.7655 1138.15 37.5645 1137.73 38.2677C1137.31 38.9665 1136.72 39.5184 1135.95 39.9232C1135.19 40.3238 1134.3 40.5241 1133.27 40.5241C1132.24 40.5241 1131.35 40.3238 1130.59 39.9232C1129.82 39.5184 1129.23 38.9665 1128.81 38.2677C1128.39 37.5645 1128.18 36.7655 1128.18 35.8706V27.203H1129.77V35.7428C1129.77 36.382 1129.91 36.9509 1130.19 37.4495C1130.47 37.9438 1130.87 38.3337 1131.39 38.6192C1131.91 38.9005 1132.54 39.0411 1133.27 39.0411C1134 39.0411 1134.62 38.9005 1135.15 38.6192C1135.67 38.3337 1136.07 37.9438 1136.35 37.4495C1136.63 36.9509 1136.77 36.382 1136.77 35.7428V27.203ZM1152.8 27.203V40.2939H1151.27L1144.14 30.0155H1144.01V40.2939H1142.42V27.203H1143.96L1151.12 37.507H1151.24V27.203H1152.8ZM1160.92 40.2939H1156.88V27.203H1161.09C1162.36 27.203 1163.45 27.4651 1164.35 27.9893C1165.26 28.5091 1165.95 29.257 1166.43 30.2329C1166.91 31.2045 1167.15 32.3678 1167.15 33.7229C1167.15 35.0866 1166.91 36.2606 1166.43 37.2449C1165.94 38.2251 1165.23 38.9793 1164.3 39.5077C1163.37 40.0319 1162.25 40.2939 1160.92 40.2939ZM1158.46 38.8877H1160.81C1161.9 38.8877 1162.79 38.6789 1163.5 38.2613C1164.22 37.8437 1164.75 37.2492 1165.1 36.4779C1165.45 35.7066 1165.62 34.7883 1165.62 33.7229C1165.62 32.6661 1165.45 31.7563 1165.1 30.9935C1164.76 30.2265 1164.24 29.6384 1163.56 29.2293C1162.87 28.816 1162.02 28.6093 1160.99 28.6093H1158.46V38.8877ZM1044.39 68.5241C1043.77 68.5241 1043.2 68.4069 1042.7 68.1725C1042.19 67.9339 1041.79 67.5908 1041.49 67.1434C1041.19 66.6917 1041.04 66.1462 1041.04 65.507C1041.04 64.9445 1041.15 64.4885 1041.37 64.1391C1041.59 63.7854 1041.89 63.5084 1042.26 63.3081C1042.63 63.1079 1043.04 62.9587 1043.49 62.8607C1043.94 62.7584 1044.39 62.6775 1044.85 62.6178C1045.45 62.5411 1045.93 62.4836 1046.3 62.4452C1046.68 62.4026 1046.95 62.3323 1047.12 62.2343C1047.29 62.1363 1047.38 61.9658 1047.38 61.7229V61.6718C1047.38 61.0411 1047.21 60.551 1046.86 60.2016C1046.52 59.8522 1046 59.6775 1045.31 59.6775C1044.59 59.6775 1044.02 59.8351 1043.62 60.1505C1043.21 60.4658 1042.92 60.8025 1042.75 61.1604L1041.32 60.6491C1041.58 60.0525 1041.92 59.588 1042.34 59.2556C1042.77 58.9189 1043.24 58.6846 1043.75 58.5525C1044.26 58.4161 1044.76 58.3479 1045.26 58.3479C1045.57 58.3479 1045.94 58.3863 1046.34 58.463C1046.76 58.5354 1047.16 58.6867 1047.54 58.9168C1047.93 59.1469 1048.25 59.4942 1048.51 59.9587C1048.76 60.4232 1048.89 61.0454 1048.89 61.8252V68.2939H1047.38V66.9644H1047.3C1047.2 67.1775 1047.03 67.4055 1046.79 67.6483C1046.55 67.8912 1046.24 68.0979 1045.84 68.2684C1045.44 68.4388 1044.96 68.5241 1044.39 68.5241ZM1044.62 67.1689C1045.22 67.1689 1045.72 67.0518 1046.13 66.8174C1046.54 66.583 1046.85 66.2805 1047.06 65.9097C1047.27 65.539 1047.38 65.1491 1047.38 64.74V63.3593C1047.32 63.436 1047.18 63.5063 1046.96 63.5702C1046.75 63.6299 1046.5 63.6831 1046.22 63.73C1045.94 63.7726 1045.67 63.811 1045.41 63.8451C1045.15 63.8749 1044.93 63.9005 1044.77 63.9218C1044.38 63.9729 1044.01 64.056 1043.67 64.1711C1043.34 64.2819 1043.06 64.4502 1042.85 64.676C1042.65 64.8976 1042.55 65.2002 1042.55 65.5837C1042.55 66.1079 1042.74 66.5042 1043.13 66.7726C1043.52 67.0368 1044.02 67.1689 1044.62 67.1689ZM1054.05 62.3877V68.2939H1052.54V58.4758H1054V60.0099H1054.13C1054.36 59.5113 1054.71 59.1107 1055.18 58.8082C1055.64 58.5013 1056.25 58.3479 1056.99 58.3479C1057.66 58.3479 1058.24 58.4843 1058.74 58.757C1059.23 59.0255 1059.62 59.4346 1059.9 59.9843C1060.18 60.5297 1060.32 61.2201 1060.32 62.0553V68.2939H1058.81V62.1576C1058.81 61.3863 1058.61 60.7854 1058.21 60.355C1057.81 59.9204 1057.26 59.703 1056.56 59.703C1056.08 59.703 1055.64 59.8074 1055.27 60.0162C1054.89 60.2251 1054.59 60.5297 1054.38 60.9303C1054.16 61.3309 1054.05 61.8167 1054.05 62.3877ZM1067.68 68.4985C1066.86 68.4985 1066.14 68.2918 1065.51 67.8785C1064.89 67.4608 1064.4 66.8728 1064.04 66.1143C1063.69 65.3515 1063.51 64.4502 1063.51 63.4104C1063.51 62.3792 1063.69 61.4843 1064.04 60.7258C1064.4 59.9672 1064.89 59.3813 1065.52 58.968C1066.15 58.5546 1066.88 58.3479 1067.7 58.3479C1068.34 58.3479 1068.85 58.4545 1069.22 58.6675C1069.59 58.8763 1069.88 59.115 1070.08 59.3834C1070.28 59.6476 1070.43 59.865 1070.54 60.0354H1070.67V55.203H1072.18V68.2939H1070.72V66.7854H1070.54C1070.43 66.9644 1070.27 67.1903 1070.07 67.463C1069.87 67.7314 1069.57 67.9722 1069.19 68.1853C1068.81 68.3941 1068.31 68.4985 1067.68 68.4985ZM1067.88 67.1434C1068.49 67.1434 1069 66.9857 1069.42 66.6704C1069.84 66.3508 1070.15 65.9097 1070.37 65.3472C1070.59 64.7805 1070.7 64.1263 1070.7 63.3849C1070.7 62.6519 1070.59 62.0106 1070.38 61.4608C1070.16 60.9069 1069.85 60.4765 1069.43 60.1697C1069.01 59.8586 1068.5 59.703 1067.88 59.703C1067.24 59.703 1066.71 59.8671 1066.29 60.1952C1065.86 60.5191 1065.55 60.9601 1065.33 61.5184C1065.12 62.0724 1065.02 62.6945 1065.02 63.3849C1065.02 64.0837 1065.13 64.7187 1065.34 65.2897C1065.56 65.8564 1065.88 66.3081 1066.3 66.6448C1066.72 66.9772 1067.25 67.1434 1067.88 67.1434ZM1082.22 68.2939V55.203H1086.8C1087.71 55.203 1088.46 55.3607 1089.05 55.676C1089.64 55.9871 1090.08 56.4069 1090.37 56.9353C1090.66 57.4594 1090.81 58.0411 1090.81 58.6803C1090.81 59.2428 1090.71 59.7073 1090.51 60.0738C1090.31 60.4403 1090.05 60.73 1089.73 60.9431C1089.41 61.1562 1089.06 61.3138 1088.69 61.4161V61.5439C1089.09 61.5695 1089.49 61.7101 1089.9 61.9658C1090.3 62.2215 1090.64 62.588 1090.91 63.0653C1091.18 63.5425 1091.32 64.1263 1091.32 64.8167C1091.32 65.4729 1091.17 66.0631 1090.87 66.5873C1090.57 67.1114 1090.1 67.5269 1089.46 67.8337C1088.82 68.1405 1087.98 68.2939 1086.95 68.2939H1082.22ZM1083.8 66.8877H1086.95C1087.98 66.8877 1088.72 66.6874 1089.15 66.2868C1089.59 65.882 1089.81 65.392 1089.81 64.8167C1089.81 64.3735 1089.7 63.9644 1089.47 63.5894C1089.25 63.2101 1088.93 62.9076 1088.51 62.6817C1088.09 62.4516 1087.6 62.3366 1087.03 62.3366H1083.8V66.8877ZM1083.8 60.9559H1086.74C1087.22 60.9559 1087.65 60.8621 1088.04 60.6746C1088.42 60.4871 1088.73 60.2229 1088.96 59.882C1089.19 59.5411 1089.3 59.1405 1089.3 58.6803C1089.3 58.105 1089.1 57.6171 1088.7 57.2165C1088.3 56.8117 1087.66 56.6093 1086.8 56.6093H1083.8V60.9559ZM1105.87 61.7485C1105.87 63.1292 1105.62 64.3224 1105.12 65.328C1104.62 66.3337 1103.94 67.1093 1103.07 67.6547C1102.2 68.2002 1101.21 68.4729 1100.09 68.4729C1098.98 68.4729 1097.98 68.2002 1097.11 67.6547C1096.24 67.1093 1095.56 66.3337 1095.06 65.328C1094.56 64.3224 1094.31 63.1292 1094.31 61.7485C1094.31 60.3678 1094.56 59.1746 1095.06 58.1689C1095.56 57.1633 1096.24 56.3877 1097.11 55.8422C1097.98 55.2968 1098.98 55.0241 1100.09 55.0241C1101.21 55.0241 1102.2 55.2968 1103.07 55.8422C1103.94 56.3877 1104.62 57.1633 1105.12 58.1689C1105.62 59.1746 1105.87 60.3678 1105.87 61.7485ZM1104.34 61.7485C1104.34 60.615 1104.15 59.6583 1103.77 58.8785C1103.39 58.0986 1102.88 57.5084 1102.24 57.1079C1101.6 56.7073 1100.89 56.507 1100.09 56.507C1099.3 56.507 1098.58 56.7073 1097.94 57.1079C1097.3 57.5084 1096.79 58.0986 1096.41 58.8785C1096.04 59.6583 1095.85 60.615 1095.85 61.7485C1095.85 62.882 1096.04 63.8387 1096.41 64.6185C1096.79 65.3983 1097.3 65.9885 1097.94 66.3891C1098.58 66.7897 1099.3 66.99 1100.09 66.99C1100.89 66.99 1101.6 66.7897 1102.24 66.3891C1102.88 65.9885 1103.39 65.3983 1103.77 64.6185C1104.15 63.8387 1104.34 62.882 1104.34 61.7485ZM1118.03 55.203H1119.61V63.8706C1119.61 64.7655 1119.4 65.5645 1118.98 66.2677C1118.56 66.9665 1117.97 67.5184 1117.21 67.9232C1116.45 68.3238 1115.55 68.5241 1114.52 68.5241C1113.5 68.5241 1112.6 68.3238 1111.84 67.9232C1111.08 67.5184 1110.48 66.9665 1110.06 66.2677C1109.65 65.5645 1109.44 64.7655 1109.44 63.8706V55.203H1111.02V63.7428C1111.02 64.382 1111.16 64.9509 1111.44 65.4495C1111.72 65.9438 1112.13 66.3337 1112.65 66.6192C1113.17 66.9005 1113.8 67.0411 1114.52 67.0411C1115.25 67.0411 1115.88 66.9005 1116.4 66.6192C1116.93 66.3337 1117.33 65.9438 1117.61 65.4495C1117.89 64.9509 1118.03 64.382 1118.03 63.7428V55.203ZM1132.63 59.2939C1132.49 58.8635 1132.3 58.4779 1132.07 58.137C1131.85 57.7918 1131.57 57.4978 1131.26 57.2549C1130.95 57.012 1130.59 56.8266 1130.2 56.6988C1129.8 56.5709 1129.37 56.507 1128.89 56.507C1128.12 56.507 1127.41 56.7073 1126.78 57.1079C1126.14 57.5084 1125.64 58.0986 1125.26 58.8785C1124.89 59.6583 1124.7 60.615 1124.7 61.7485C1124.7 62.882 1124.89 63.8387 1125.27 64.6185C1125.65 65.3983 1126.16 65.9885 1126.81 66.3891C1127.46 66.7897 1128.19 66.99 1129 66.99C1129.75 66.99 1130.41 66.8302 1130.98 66.5106C1131.55 66.1867 1132 65.7307 1132.32 65.1427C1132.64 64.5503 1132.81 63.8536 1132.81 63.0525L1133.29 63.1547H1129.35V61.7485H1134.34V63.1547C1134.34 64.2329 1134.11 65.1704 1133.65 65.9672C1133.19 66.7641 1132.56 67.382 1131.76 67.8209C1130.96 68.2556 1130.04 68.4729 1129 68.4729C1127.84 68.4729 1126.82 68.2002 1125.94 67.6547C1125.07 67.1093 1124.39 66.3337 1123.9 65.328C1123.41 64.3224 1123.17 63.1292 1123.17 61.7485C1123.17 60.713 1123.31 59.7819 1123.58 58.9552C1123.86 58.1242 1124.26 57.4168 1124.77 56.833C1125.28 56.2492 1125.89 55.8018 1126.59 55.4907C1127.29 55.1796 1128.05 55.0241 1128.89 55.0241C1129.58 55.0241 1130.23 55.1285 1130.82 55.3373C1131.43 55.5418 1131.96 55.8337 1132.43 56.213C1132.9 56.588 1133.3 57.0376 1133.61 57.5617C1133.93 58.0816 1134.14 58.659 1134.26 59.2939H1132.63ZM1137.96 68.2939V55.203H1139.54V61.0326H1146.52V55.203H1148.11V68.2939H1146.52V62.4388H1139.54V68.2939H1137.96ZM1151.46 56.6093V55.203H1161.28V56.6093H1157.17V68.2939H1155.58V56.6093H1151.46ZM1173.28 68.5241C1172.65 68.5241 1172.09 68.4069 1171.58 68.1725C1171.07 67.9339 1170.67 67.5908 1170.37 67.1434C1170.08 66.6917 1169.93 66.1462 1169.93 65.507C1169.93 64.9445 1170.04 64.4885 1170.26 64.1391C1170.48 63.7854 1170.78 63.5084 1171.15 63.3081C1171.52 63.1079 1171.93 62.9587 1172.37 62.8607C1172.83 62.7584 1173.28 62.6775 1173.74 62.6178C1174.33 62.5411 1174.82 62.4836 1175.19 62.4452C1175.56 62.4026 1175.83 62.3323 1176 62.2343C1176.18 62.1363 1176.27 61.9658 1176.27 61.7229V61.6718C1176.27 61.0411 1176.09 60.551 1175.75 60.2016C1175.41 59.8522 1174.89 59.6775 1174.2 59.6775C1173.48 59.6775 1172.91 59.8351 1172.5 60.1505C1172.09 60.4658 1171.81 60.8025 1171.64 61.1604L1170.21 60.6491C1170.46 60.0525 1170.8 59.588 1171.23 59.2556C1171.66 58.9189 1172.13 58.6846 1172.64 58.5525C1173.15 58.4161 1173.65 58.3479 1174.14 58.3479C1174.46 58.3479 1174.82 58.3863 1175.23 58.463C1175.64 58.5354 1176.04 58.6867 1176.43 58.9168C1176.81 59.1469 1177.14 59.4942 1177.39 59.9587C1177.65 60.4232 1177.78 61.0454 1177.78 61.8252V68.2939H1176.27V66.9644H1176.19C1176.09 67.1775 1175.92 67.4055 1175.68 67.6483C1175.44 67.8912 1175.12 68.0979 1174.73 68.2684C1174.33 68.4388 1173.85 68.5241 1173.28 68.5241ZM1173.51 67.1689C1174.1 67.1689 1174.6 67.0518 1175.01 66.8174C1175.43 66.583 1175.74 66.2805 1175.95 65.9097C1176.16 65.539 1176.27 65.1491 1176.27 64.74V63.3593C1176.2 63.436 1176.06 63.5063 1175.84 63.5702C1175.63 63.6299 1175.38 63.6831 1175.1 63.73C1174.83 63.7726 1174.56 63.811 1174.29 63.8451C1174.03 63.8749 1173.82 63.9005 1173.66 63.9218C1173.27 63.9729 1172.9 64.056 1172.56 64.1711C1172.22 64.2819 1171.95 64.4502 1171.74 64.676C1171.54 64.8976 1171.43 65.2002 1171.43 65.5837C1171.43 66.1079 1171.63 66.5042 1172.02 66.7726C1172.41 67.0368 1172.9 67.1689 1173.51 67.1689ZM1044.38 86.4758V87.7542H1039.29V86.4758H1044.38ZM1040.78 84.1235H1042.29V93.4814C1042.29 93.9076 1042.35 94.2272 1042.47 94.4403C1042.6 94.6491 1042.76 94.7897 1042.96 94.8621C1043.16 94.9303 1043.37 94.9644 1043.59 94.9644C1043.76 94.9644 1043.89 94.9559 1044 94.9388C1044.11 94.9175 1044.19 94.9005 1044.25 94.8877L1044.56 96.2428C1044.46 96.2812 1044.32 96.3195 1044.13 96.3579C1043.95 96.4005 1043.72 96.4218 1043.44 96.4218C1043.01 96.4218 1042.59 96.3302 1042.18 96.1469C1041.78 95.9637 1041.44 95.6846 1041.17 95.3096C1040.91 94.9346 1040.78 94.4616 1040.78 93.8905V84.1235ZM1047.55 96.2939V86.4758H1049.06V96.2939H1047.55ZM1048.32 84.8394C1048.02 84.8394 1047.77 84.7393 1047.56 84.539C1047.35 84.3387 1047.25 84.0979 1047.25 83.8167C1047.25 83.5354 1047.35 83.2947 1047.56 83.0944C1047.77 82.8941 1048.02 82.7939 1048.32 82.7939C1048.61 82.7939 1048.86 82.8941 1049.07 83.0944C1049.29 83.2947 1049.39 83.5354 1049.39 83.8167C1049.39 84.0979 1049.29 84.3387 1049.07 84.539C1048.86 84.7393 1048.61 84.8394 1048.32 84.8394ZM1056.71 96.4985C1055.79 96.4985 1055 96.2812 1054.33 95.8465C1053.67 95.4118 1053.16 94.8131 1052.8 94.0503C1052.44 93.2876 1052.26 92.4161 1052.26 91.436C1052.26 90.4388 1052.45 89.5589 1052.81 88.7961C1053.18 88.029 1053.7 87.4303 1054.36 86.9999C1055.02 86.5653 1055.8 86.3479 1056.69 86.3479C1057.38 86.3479 1058 86.4758 1058.55 86.7314C1059.11 86.9871 1059.56 87.3451 1059.91 87.8053C1060.27 88.2655 1060.49 88.8025 1060.57 89.4161H1059.06C1058.95 88.9687 1058.69 88.5724 1058.3 88.2272C1057.91 87.8778 1057.38 87.703 1056.71 87.703C1056.12 87.703 1055.61 87.8564 1055.17 88.1633C1054.73 88.4658 1054.38 88.8941 1054.14 89.4481C1053.89 89.9978 1053.77 90.6434 1053.77 91.3849C1053.77 92.1434 1053.89 92.8039 1054.13 93.3664C1054.37 93.9289 1054.71 94.3657 1055.15 94.6768C1055.6 94.9878 1056.12 95.1434 1056.71 95.1434C1057.1 95.1434 1057.46 95.0752 1057.78 94.9388C1058.1 94.8025 1058.37 94.6064 1058.59 94.3508C1058.81 94.0951 1058.97 93.7883 1059.06 93.4303H1060.57C1060.49 94.0099 1060.28 94.5319 1059.94 94.9964C1059.61 95.4566 1059.17 95.8231 1058.62 96.0958C1058.07 96.3643 1057.44 96.4985 1056.71 96.4985ZM1065.08 92.7144L1065.06 90.8479H1065.37L1069.66 86.4758H1071.53L1066.95 91.1036H1066.82L1065.08 92.7144ZM1063.68 96.2939V83.203H1065.19V96.2939H1063.68ZM1069.92 96.2939L1066.08 91.436L1067.16 90.3877L1071.83 96.2939H1069.92ZM1078.08 96.4985C1077.14 96.4985 1076.32 96.2897 1075.63 95.8721C1074.95 95.4502 1074.43 94.8621 1074.05 94.1079C1073.69 93.3493 1073.5 92.4672 1073.5 91.4616C1073.5 90.4559 1073.69 89.5695 1074.05 88.8025C1074.43 88.0312 1074.94 87.4303 1075.6 86.9999C1076.27 86.5653 1077.04 86.3479 1077.93 86.3479C1078.44 86.3479 1078.94 86.4331 1079.44 86.6036C1079.94 86.7741 1080.4 87.051 1080.8 87.4346C1081.21 87.8138 1081.54 88.3167 1081.78 88.9431C1082.03 89.5695 1082.15 90.3408 1082.15 91.257V91.8962H1074.58V90.5922H1080.61C1080.61 90.0383 1080.5 89.5439 1080.28 89.1093C1080.06 88.6746 1079.75 88.3316 1079.35 88.0802C1078.95 87.8287 1078.47 87.703 1077.93 87.703C1077.33 87.703 1076.81 87.8522 1076.37 88.1505C1075.93 88.4445 1075.6 88.828 1075.36 89.301C1075.13 89.7741 1075.01 90.2812 1075.01 90.8224V91.6917C1075.01 92.4331 1075.14 93.0617 1075.4 93.5773C1075.66 94.0887 1076.02 94.4786 1076.48 94.7471C1076.94 95.0113 1077.47 95.1434 1078.08 95.1434C1078.48 95.1434 1078.84 95.088 1079.16 94.9772C1079.48 94.8621 1079.76 94.6917 1079.99 94.4658C1080.23 94.2357 1080.41 93.9502 1080.54 93.6093L1081.99 94.0184C1081.84 94.5127 1081.58 94.9474 1081.22 95.3224C1080.86 95.6931 1080.41 95.9829 1079.88 96.1917C1079.34 96.3962 1078.75 96.4985 1078.08 96.4985ZM1089.61 86.4758V87.7542H1084.52V86.4758H1089.61ZM1086.01 84.1235H1087.51V93.4814C1087.51 93.9076 1087.58 94.2272 1087.7 94.4403C1087.83 94.6491 1087.99 94.7897 1088.19 94.8621C1088.39 94.9303 1088.6 94.9644 1088.82 94.9644C1088.98 94.9644 1089.12 94.9559 1089.23 94.9388C1089.33 94.9175 1089.42 94.9005 1089.48 94.8877L1089.79 96.2428C1089.69 96.2812 1089.55 96.3195 1089.36 96.3579C1089.18 96.4005 1088.95 96.4218 1088.67 96.4218C1088.24 96.4218 1087.82 96.3302 1087.41 96.1469C1087.01 95.9637 1086.67 95.6846 1086.4 95.3096C1086.14 94.9346 1086.01 94.4616 1086.01 93.8905V84.1235ZM1103.12 86.4758V87.7542H1097.82V86.4758H1103.12ZM1099.41 96.2939V85.1207C1099.41 84.5581 1099.54 84.0894 1099.8 83.7144C1100.07 83.3394 1100.41 83.0581 1100.83 82.8706C1101.26 82.6831 1101.7 82.5894 1102.17 82.5894C1102.54 82.5894 1102.84 82.6192 1103.08 82.6789C1103.31 82.7385 1103.49 82.7939 1103.6 82.8451L1103.17 84.1491C1103.09 84.1235 1102.98 84.0915 1102.85 84.0532C1102.71 84.0148 1102.54 83.9956 1102.32 83.9956C1101.82 83.9956 1101.46 84.1214 1101.24 84.3728C1101.02 84.6242 1100.92 84.9928 1100.92 85.4786V96.2939H1099.41ZM1109.71 96.4985C1108.83 96.4985 1108.05 96.2876 1107.38 95.8657C1106.72 95.4438 1106.2 94.8536 1105.82 94.0951C1105.45 93.3366 1105.26 92.4502 1105.26 91.436C1105.26 90.4133 1105.45 89.5205 1105.82 88.7577C1106.2 87.9949 1106.72 87.4026 1107.38 86.9807C1108.05 86.5589 1108.83 86.3479 1109.71 86.3479C1110.6 86.3479 1111.38 86.5589 1112.04 86.9807C1112.71 87.4026 1113.23 87.9949 1113.6 88.7577C1113.98 89.5205 1114.16 90.4133 1114.16 91.436C1114.16 92.4502 1113.98 93.3366 1113.6 94.0951C1113.23 94.8536 1112.71 95.4438 1112.04 95.8657C1111.38 96.2876 1110.6 96.4985 1109.71 96.4985ZM1109.71 95.1434C1110.39 95.1434 1110.94 94.9708 1111.38 94.6256C1111.81 94.2805 1112.13 93.8266 1112.34 93.2641C1112.55 92.7016 1112.65 92.0922 1112.65 91.436C1112.65 90.7797 1112.55 90.1682 1112.34 89.6015C1112.13 89.0347 1111.81 88.5766 1111.38 88.2272C1110.94 87.8778 1110.39 87.703 1109.71 87.703C1109.04 87.703 1108.49 87.8778 1108.05 88.2272C1107.62 88.5766 1107.3 89.0347 1107.09 89.6015C1106.88 90.1682 1106.77 90.7797 1106.77 91.436C1106.77 92.0922 1106.88 92.7016 1107.09 93.2641C1107.3 93.8266 1107.62 94.2805 1108.05 94.6256C1108.49 94.9708 1109.04 95.1434 1109.71 95.1434ZM1117.37 96.2939V86.4758H1118.82V87.9587H1118.92C1119.1 87.4729 1119.43 87.0787 1119.9 86.7762C1120.37 86.4736 1120.89 86.3224 1121.48 86.3224C1121.59 86.3224 1121.73 86.3245 1121.9 86.3287C1122.06 86.333 1122.19 86.3394 1122.27 86.3479V87.882C1122.22 87.8692 1122.11 87.8501 1121.92 87.8245C1121.74 87.7947 1121.55 87.7797 1121.35 87.7797C1120.88 87.7797 1120.45 87.8799 1120.08 88.0802C1119.7 88.2762 1119.41 88.5489 1119.19 88.8983C1118.98 89.2435 1118.87 89.6377 1118.87 90.0809V96.2939H1117.37ZM1135.04 96.4985C1134.1 96.4985 1133.28 96.2897 1132.59 95.8721C1131.91 95.4502 1131.39 94.8621 1131.01 94.1079C1130.65 93.3493 1130.46 92.4672 1130.46 91.4616C1130.46 90.4559 1130.65 89.5695 1131.01 88.8025C1131.39 88.0312 1131.9 87.4303 1132.56 86.9999C1133.23 86.5653 1134 86.3479 1134.89 86.3479C1135.4 86.3479 1135.9 86.4331 1136.4 86.6036C1136.9 86.7741 1137.36 87.051 1137.76 87.4346C1138.17 87.8138 1138.5 88.3167 1138.74 88.9431C1138.99 89.5695 1139.11 90.3408 1139.11 91.257V91.8962H1131.54V90.5922H1137.57C1137.57 90.0383 1137.46 89.5439 1137.24 89.1093C1137.02 88.6746 1136.71 88.3316 1136.31 88.0802C1135.91 87.8287 1135.43 87.703 1134.89 87.703C1134.29 87.703 1133.77 87.8522 1133.33 88.1505C1132.89 88.4445 1132.56 88.828 1132.32 89.301C1132.09 89.7741 1131.97 90.2812 1131.97 90.8224V91.6917C1131.97 92.4331 1132.1 93.0617 1132.36 93.5773C1132.62 94.0887 1132.98 94.4786 1133.44 94.7471C1133.9 95.0113 1134.43 95.1434 1135.04 95.1434C1135.44 95.1434 1135.8 95.088 1136.12 94.9772C1136.44 94.8621 1136.72 94.6917 1136.95 94.4658C1137.19 94.2357 1137.37 93.9502 1137.5 93.6093L1138.95 94.0184C1138.8 94.5127 1138.54 94.9474 1138.18 95.3224C1137.82 95.6931 1137.37 95.9829 1136.84 96.1917C1136.3 96.3962 1135.71 96.4985 1135.04 96.4985ZM1150.03 86.4758L1146.4 96.2939H1144.87L1141.24 86.4758H1142.87L1145.58 94.2996H1145.68L1148.39 86.4758H1150.03ZM1156.69 96.4985C1155.74 96.4985 1154.93 96.2897 1154.24 95.8721C1153.56 95.4502 1153.03 94.8621 1152.66 94.1079C1152.29 93.3493 1152.11 92.4672 1152.11 91.4616C1152.11 90.4559 1152.29 89.5695 1152.66 88.8025C1153.03 88.0312 1153.55 87.4303 1154.21 86.9999C1154.87 86.5653 1155.65 86.3479 1156.53 86.3479C1157.05 86.3479 1157.55 86.4331 1158.05 86.6036C1158.55 86.7741 1159 87.051 1159.41 87.4346C1159.82 87.8138 1160.15 88.3167 1160.39 88.9431C1160.63 89.5695 1160.75 90.3408 1160.75 91.257V91.8962H1153.18V90.5922H1159.22C1159.22 90.0383 1159.11 89.5439 1158.89 89.1093C1158.67 88.6746 1158.36 88.3316 1157.95 88.0802C1157.55 87.8287 1157.08 87.703 1156.53 87.703C1155.93 87.703 1155.41 87.8522 1154.97 88.1505C1154.54 88.4445 1154.2 88.828 1153.97 89.301C1153.74 89.7741 1153.62 90.2812 1153.62 90.8224V91.6917C1153.62 92.4331 1153.75 93.0617 1154 93.5773C1154.26 94.0887 1154.62 94.4786 1155.08 94.7471C1155.54 95.0113 1156.08 95.1434 1156.69 95.1434C1157.08 95.1434 1157.44 95.088 1157.76 94.9772C1158.08 94.8621 1158.36 94.6917 1158.6 94.4658C1158.83 94.2357 1159.01 93.9502 1159.14 93.6093L1160.6 94.0184C1160.45 94.5127 1160.19 94.9474 1159.83 95.3224C1159.46 95.6931 1159.02 95.9829 1158.48 96.1917C1157.95 96.3962 1157.35 96.4985 1156.69 96.4985ZM1165.46 90.3877V96.2939H1163.95V86.4758H1165.4V88.0099H1165.53C1165.76 87.5113 1166.11 87.1107 1166.58 86.8082C1167.05 86.5013 1167.65 86.3479 1168.4 86.3479C1169.06 86.3479 1169.64 86.4843 1170.14 86.757C1170.64 87.0255 1171.03 87.4346 1171.3 87.9843C1171.58 88.5297 1171.72 89.2201 1171.72 90.0553V96.2939H1170.21V90.1576C1170.21 89.3863 1170.01 88.7854 1169.61 88.355C1169.21 87.9204 1168.66 87.703 1167.96 87.703C1167.48 87.703 1167.05 87.8074 1166.67 88.0162C1166.3 88.2251 1166 88.5297 1165.78 88.9303C1165.56 89.3309 1165.46 89.8167 1165.46 90.3877ZM1179.65 86.4758V87.7542H1174.56V86.4758H1179.65ZM1176.04 84.1235H1177.55V93.4814C1177.55 93.9076 1177.61 94.2272 1177.74 94.4403C1177.86 94.6491 1178.03 94.7897 1178.22 94.8621C1178.42 94.9303 1178.63 94.9644 1178.85 94.9644C1179.02 94.9644 1179.16 94.9559 1179.26 94.9388C1179.37 94.9175 1179.45 94.9005 1179.52 94.8877L1179.83 96.2428C1179.72 96.2812 1179.58 96.3195 1179.4 96.3579C1179.21 96.4005 1178.98 96.4218 1178.7 96.4218C1178.27 96.4218 1177.86 96.3302 1177.45 96.1469C1177.04 95.9637 1176.71 95.6846 1176.44 95.3096C1176.17 94.9346 1176.04 94.4616 1176.04 93.8905V84.1235Z" fill="#0E0F25"/>
</g>
<rect x="1020.82" y="1.18457" width="177" height="134" stroke="#FAF5F6"/>
<defs>
<filter id="filter0_d_2_729" x="0" y="1" width="186" height="143" filterUnits="userSpaceOnUse" color-interpolation-filters="sRGB">
<feFlood flood-opacity="0" result="BackgroundImageFix"/>
<feColorMatrix in="SourceAlpha" type="matrix" values="0 0 0 0 0 0 0 0 0 0 0 0 0 0 0 0 0 0 127 0" result="hardAlpha"/>
<feOffset dx="4" dy="4"/>
<feGaussianBlur stdDeviation="2"/>
<feComposite in2="hardAlpha" operator="out"/>
<feColorMatrix type="matrix" values="0 0 0 0 0.0485636 0 0 0 0 0.00401041 0 0 0 0 0.320833 0 0 0 0.1 0"/>
<feBlend mode="normal" in2="BackgroundImageFix" result="effect1_dropShadow_2_729"/>
<feBlend mode="normal" in="SourceGraphic" in2="effect1_dropShadow_2_729" result="shape"/>
</filter>
<filter id="filter1_d_2_729" x="1020.32" y="0.68457" width="198" height="143" filterUnits="userSpaceOnUse" color-interpolation-filters="sRGB">
<feFlood flood-opacity="0" result="BackgroundImageFix"/>
<feColorMatrix in="SourceAlpha" type="matrix" values="0 0 0 0 0 0 0 0 0 0 0 0 0 0 0 0 0 0 127 0" result="hardAlpha"/>
<feOffset dx="4" dy="4"/>
<feGaussianBlur stdDeviation="2"/>
<feComposite in2="hardAlpha" operator="out"/>
<feColorMatrix type="matrix" values="0 0 0 0 0.0485636 0 0 0 0 0.00401041 0 0 0 0 0.320833 0 0 0 0.1 0"/>
<feBlend mode="normal" in2="BackgroundImageFix" result="effect1_dropShadow_2_729"/>
<feBlend mode="normal" in="SourceGraphic" in2="effect1_dropShadow_2_729" result="shape"/>
</filter>
<clipPath id="clip0_2_729">
<rect y="0.68457" width="178" height="135" fill="white"/>
</clipPath>
<clipPath id="clip1_2_729">
<rect x="1020.32" y="0.68457" width="178" height="135" fill="white"/>
</clipPath>
</defs>
</svg>
