<svg width="183" height="132" viewBox="0 0 183 132" fill="none" xmlns="http://www.w3.org/2000/svg">
<g clip-path="url(#clip0_2_35)">
<path d="M0.5 92.2321C0.5 87.3628 0.5 82.3364 0.5 77.4671C0.657032 64.587 9.92192 54.063 22.0134 52.9635C35.047 51.864 45.4111 59.7177 48.2377 72.5978C48.7088 74.9539 48.5518 75.7393 45.8822 75.7393C42.4275 75.7393 40.072 75.7393 38.9728 71.3412C37.2455 64.587 29.5509 60.346 22.9556 61.2885C15.261 62.388 9.29379 68.1997 9.13675 75.5822C8.82269 86.5774 8.82269 97.7297 9.13675 108.882C9.45082 117.521 16.5173 123.647 24.8399 123.49C33.4767 123.333 39.915 116.736 40.072 107.94C40.072 105.112 40.072 102.128 40.2291 99.3005C40.3861 96.6302 39.758 95.2165 36.7744 95.5307C33.6337 95.8448 30.4931 95.5307 27.3525 95.6877C25.4681 95.6877 24.6829 95.2165 24.8399 93.1746C24.997 92.075 24.997 90.9755 24.8399 89.876C24.5259 87.5199 25.4681 87.0487 27.6665 87.0487C33.7908 87.2057 39.915 87.0487 46.0393 87.0487C47.1385 87.0487 48.5518 86.7345 48.5518 88.7765C48.2377 96.6302 49.494 104.798 47.9236 112.495C45.4111 125.061 34.2619 133.071 21.8563 131.658C9.92192 130.401 0.657032 120.034 0.5 107.782C0.5 102.599 0.5 97.4156 0.5 92.2321Z" fill="#FAF5F6"/>
<path d="M72.4206 20.7632C72.4206 22.0198 72.2636 23.1193 72.4206 24.3759C72.8917 27.5174 71.9495 29.0881 68.3378 30.0306C61.1143 31.9155 56.7174 39.7692 57.9737 47.3087C59.2299 54.6912 65.5112 60.1888 73.0487 60.1888C76.1894 60.1888 79.33 60.0318 82.4707 60.1888C84.6691 60.3459 85.1402 59.5605 85.1402 57.5186C84.9832 54.22 85.2972 51.0785 85.1402 47.78C84.9832 45.5809 85.7683 44.6385 87.9668 44.9526C88.5949 45.1097 89.223 45.1097 89.6941 44.9526C92.5207 44.4814 93.777 45.4239 93.4629 48.5653C93.1488 51.3927 93.4629 54.3771 93.3059 57.2044C93.1488 59.4035 93.934 60.3459 96.1324 60.1888C99.116 60.0318 102.1 60.1888 105.083 60.0318C112.464 59.5605 118.431 54.0629 119.216 47.1517C120.158 39.1409 115.918 32.2296 108.695 29.8735C107.439 29.4023 105.24 29.7164 104.926 28.3028C104.455 26.2608 104.612 23.9047 104.926 21.8627C105.24 20.1349 106.811 20.9203 107.91 21.0773C123.299 22.9622 132.564 41.0258 125.34 55.3195C121.572 62.702 115.447 67.7284 107.125 68.3567C94.8762 69.4562 82.6277 69.4562 70.3792 68.3567C57.6596 67.1001 48.7088 56.262 49.1799 43.8531C49.651 31.2872 59.0729 21.8627 72.4206 20.7632Z" fill="#FAF5F6"/>
<path d="M65.0401 111.238C65.0401 105.426 64.255 99.7716 64.7261 93.9598C65.5112 82.4934 74.9331 72.9119 86.2394 72.4406C98.802 71.8123 109.637 79.9802 111.522 91.9179C112.778 100.243 111.993 108.568 111.993 116.736C111.993 120.977 111.836 125.218 111.836 129.302C111.836 131.186 111.208 131.658 109.323 131.815C104.141 131.815 104.141 131.972 104.141 126.788C104.141 117.05 104.298 107.311 104.141 97.5725C103.984 85.6349 93.934 77.6241 83.4129 81.2368C76.6605 83.4358 72.5777 89.5617 72.5777 97.4155C72.5777 107.782 72.7347 118.149 73.0488 128.516C73.2058 131.501 72.1066 132.129 69.437 131.972C66.7675 131.815 64.7261 131.972 65.0401 128.359C65.3542 122.547 65.0401 116.893 65.0401 111.238Z" fill="#FAF5F6"/>
<path d="M181.872 117.992C180.616 112.023 177.004 107.625 172.607 103.698C171.822 102.913 169.78 102.284 171.979 100.557C182.814 92.86 184.07 82.1789 181.087 70.3983C177.946 58.3036 169.309 52.1777 156.904 52.806C151.879 53.1201 147.482 55.3192 143.242 57.8324C142.457 52.6489 142.457 52.806 137.118 52.6489C134.605 52.6489 134.448 53.5914 134.448 55.6333C134.448 79.9799 134.605 104.169 134.448 128.516C134.448 131.814 136.019 131.657 138.217 131.5C140.101 131.343 142.928 132.757 142.771 128.673C142.457 122.076 142.771 115.479 142.614 108.882C142.614 106.84 143.085 106.054 145.283 106.211C150.151 106.368 155.176 106.211 160.044 106.211C165.698 106.368 170.252 109.51 172.136 114.85C173.549 118.777 174.334 123.018 173.863 127.259C173.549 131.029 174.805 132.286 178.417 131.657C179.045 131.5 179.83 131.657 180.616 131.657C181.715 131.657 182.5 131.343 182.343 130.087C182.186 126.16 182.814 122.076 181.872 117.992ZM158.945 97.7293C154.548 97.8863 149.994 97.7293 145.597 97.7293C143.713 97.7293 143.085 97.258 143.085 95.3731C143.242 91.7604 143.085 88.1477 143.085 84.535C143.085 81.5506 142.928 78.5662 143.085 75.5818C143.399 67.8851 148.738 62.3875 156.433 61.4451C164.127 60.5026 171.194 64.9007 173.078 72.1261C174.648 77.9379 174.962 83.7496 172.136 89.4043C169.466 94.7448 165.069 97.5722 158.945 97.7293Z" fill="#FAF5F6"/>
<path d="M102.728 8.19717C99.5871 5.5269 96.1324 3.01371 92.2066 1.60004C88.4379 0.186376 84.8261 1.12882 81.6855 3.64201C80.4292 4.58446 79.173 5.36983 77.6027 5.84105C74.148 6.7835 72.2636 9.13961 71.7925 12.4382C71.3214 15.7367 72.2636 18.7211 75.4042 20.449C76.9745 21.3914 77.4456 22.4909 77.2886 24.2188C77.1316 25.7895 77.2886 27.3602 77.4456 28.931C77.9167 34.8998 82.7847 39.2979 88.7519 39.2979C93.777 39.2979 98.0168 36.3135 99.7442 31.4442C100.686 28.931 100.529 26.2607 100.372 23.5905C100.372 21.8626 100.686 20.7631 102.1 19.6636C105.868 16.6792 106.34 11.1816 102.728 8.19717ZM85.1402 6.31228C85.9254 5.21275 87.4957 5.21275 88.7519 5.21275C90.0082 5.21275 91.4215 5.36983 92.9918 6.94057C92.0496 7.56887 90.9504 8.19717 90.1652 9.13961C89.3801 10.0821 89.066 11.1816 88.5949 12.2811C87.3386 11.6528 87.4957 10.0821 86.7105 9.13961C86.0824 8.19717 84.198 7.56887 85.1402 6.31228ZM96.2895 29.2451C95.6613 32.5437 92.8348 34.8998 89.5371 35.214C86.0824 35.5281 83.0988 33.4861 81.9996 30.3447C81.2144 27.9885 81.3714 25.6324 81.3714 23.1192C81.3714 21.8626 82.1566 21.5485 83.0988 21.2343C85.4543 20.2919 87.1816 18.7211 87.8097 16.208C88.2808 15.7367 88.5949 15.7367 89.066 16.208C89.8512 18.407 91.2644 19.9777 93.1488 20.9202C96.2895 22.4909 97.0746 24.69 96.2895 29.2451Z" fill="#FAF5F6"/>
<path d="M88.909 16.208C88.4379 16.208 88.1238 16.208 87.6527 16.208C87.6527 15.5797 87.6527 14.4802 88.4379 14.6372C89.3801 14.6372 88.909 15.5797 88.909 16.208Z" fill="#9A8DC3"/>
</g>
<defs>
<clipPath id="clip0_2_35">
<rect width="182" height="131" fill="white" transform="translate(0.5 0.97168)"/>
</clipPath>
</defs>
</svg>
