<svg width="109" height="189" viewBox="0 0 109 189" fill="none" xmlns="http://www.w3.org/2000/svg">
<g clip-path="url(#clip0_1_36)">
<path d="M15.124 108.984C14.982 109.556 14.8471 110.129 14.6944 110.698C12.5998 118.363 10.427 126.006 8.42822 133.696C7.12883 138.71 6.04955 143.784 5.30044 148.915C4.6898 153.098 4.0614 157.289 4.16791 161.543C4.23536 164.159 4.60814 166.703 5.69452 169.108C7.29924 172.658 9.98678 174.612 13.8672 174.805C16.3737 174.93 18.6991 174.186 20.9677 173.202C23.3393 172.175 25.4801 170.761 27.5854 169.262C31.0398 166.804 34.235 164.041 37.306 161.114C41.1261 157.471 44.7864 153.674 48.1911 149.631C50.8822 146.432 53.5768 143.236 56.2005 139.983C57.933 137.836 59.5732 135.611 61.1922 133.378C63.1448 130.687 65.0903 127.989 66.9329 125.219C69.1696 121.859 71.3175 118.438 73.4618 115.021C74.96 112.63 76.4334 110.222 77.8393 107.774C79.2878 105.252 80.6511 102.675 82.0286 100.113C83.0262 98.2558 84.0097 96.3915 84.9505 94.5021C85.8274 92.7487 86.6581 90.9702 87.4747 89.1846C88.38 87.2129 89.2818 85.2377 90.1161 83.2338C91.238 80.5428 92.3528 77.8483 93.361 75.1144C94.7279 71.4036 96.0592 67.6749 97.277 63.914C98.69 59.5555 99.9219 55.1362 100.937 50.6632C101.658 47.4999 102.364 44.333 103 41.1483C103.476 38.7543 103.859 36.3425 104.218 33.9271C104.598 31.3936 104.924 28.8529 105.222 26.3123C105.404 24.7735 105.517 23.2277 105.606 21.6818C105.677 20.4508 105.435 19.2413 105.063 18.0748C104.42 16.078 103.014 14.7934 101.168 13.9239C99.7018 13.2332 98.2142 12.5641 96.8083 11.7589C95.2924 10.893 94.2522 9.57253 93.7835 7.84774C93.3859 6.38418 93.0522 4.90273 92.6155 3.4499C92.3705 2.63045 92.0155 1.83604 91.6285 1.07385C91.4368 0.694536 91.0605 0.408265 90.7019 0.00390625C94.4119 0.93071 97.3906 2.91672 99.9823 5.59693C99.8438 4.76675 99.29 4.18705 98.7716 3.37117C100.231 3.80058 101.473 4.2944 102.645 5.02439C103.841 5.7687 104.651 6.82432 105.262 8.08392C105.315 8.06603 105.372 8.04456 105.425 8.02666C105.4 7.67598 105.379 7.32172 105.343 6.78138C105.698 7.07839 105.954 7.28236 106.202 7.49706C107.747 8.85327 108.62 10.553 108.741 12.6285C108.83 14.1135 108.918 15.6021 108.972 17.0907C109.074 19.8425 108.727 22.5693 108.368 25.2853C107.899 28.8565 107.441 32.4349 106.852 35.9846C106.181 40.0354 105.425 44.079 104.608 48.1047C103.241 54.8499 101.456 61.4914 99.3823 68.0471C97.5965 73.6973 95.5942 79.2725 93.2474 84.7081C91.348 89.1023 89.406 93.4787 87.3362 97.7906C85.7067 101.194 83.8818 104.5 82.0996 107.828C80.9919 109.893 79.8061 111.915 78.6559 113.958C78.5423 114.162 78.4322 114.369 78.2973 114.623C78.5671 114.92 78.805 115.221 79.0784 115.482C81.7339 117.994 83.573 121.072 84.9966 124.407C86.7398 128.486 87.7481 132.777 88.1564 137.192C88.4333 140.173 88.2132 143.136 87.6274 146.085C86.509 151.739 84.4428 157.042 82.0641 162.245C80.3209 166.063 78.3186 169.741 76.1352 173.32C74.9458 175.266 73.6571 177.152 72.2725 179.006C72.4962 178.394 72.7127 177.778 72.9506 177.174C73.9624 174.569 75.0098 171.974 75.9932 169.359C78.2653 163.311 80.3351 157.196 81.8085 150.894C82.7316 146.947 83.431 142.968 83.5659 138.892C83.6972 134.934 83.3777 131.03 82.5789 127.169C81.7623 123.215 80.3422 119.461 78.6488 115.808C78.5281 115.547 78.347 115.31 78.1091 114.92C70.7956 127.513 62.7507 139.447 53.4561 150.558C53.7615 150.883 54.0135 151.17 54.2798 151.441C56.7295 153.939 58.7212 156.773 60.2833 159.908C62.0975 163.544 63.1164 167.383 62.6691 171.473C62.4951 173.055 62.0194 174.615 61.5578 176.15C60.9188 178.279 59.7862 180.172 58.5685 182.008C56.9389 184.466 55.0324 186.689 52.9129 188.997C52.9662 188.668 52.9662 188.514 53.0195 188.381C54.0455 185.812 55.0715 183.243 56.1082 180.681C57.6632 176.823 58.9839 172.919 58.7105 168.657C58.5685 166.446 58.1993 164.277 57.5744 162.159C56.5981 158.842 55.3555 155.621 53.9958 152.447C53.7757 151.935 53.5662 151.424 53.3319 150.858C53.165 150.973 53.055 151.019 52.984 151.102C50.2361 154.132 47.5521 157.231 44.719 160.184C42.6882 162.298 40.5012 164.263 38.3072 166.21C36.2906 167.999 34.2137 169.72 32.0907 171.377C29.2895 173.567 26.3819 175.614 23.2292 177.26C20.492 178.687 17.634 179.822 14.5702 180.262C12.0814 180.62 9.62111 180.462 7.29924 179.346C4.56909 178.033 2.85431 175.792 1.71113 173.034C0.777414 170.783 0.369134 168.41 0.134817 166.002C-0.262812 161.905 0.227124 157.847 0.766763 153.8C1.07564 151.499 1.39871 149.194 1.86379 146.918C2.6129 143.243 3.47561 139.597 4.55134 135.997C5.98564 131.202 7.64361 126.489 9.543 121.862C11.2826 117.626 13.0755 113.41 14.8471 109.184C14.879 109.106 14.9465 109.038 14.9962 108.966C15.0352 108.966 15.0743 108.97 15.1134 108.973L15.124 108.984Z" fill="#F1F1F1"/>
<path d="M66.191 43.4059C66.0277 44.7621 65.8963 46.1255 65.6975 47.4745C65.0407 51.876 63.6419 56.0341 61.5899 59.9631C59.6692 63.6417 57.3118 67.0126 54.5426 70.1007C50.9036 74.1622 46.7214 77.6046 42.5463 81.0649C41.0658 82.2887 39.6457 83.5913 38.2469 84.9081C37.1357 85.9566 36.7594 87.3808 36.5251 88.8408C36.4398 89.3668 36.4363 89.9107 36.4221 90.4439C36.3617 93.0311 37.7712 94.8059 39.6493 96.291C42.2445 98.345 45.209 99.7513 48.1876 101.125C49.8279 101.88 51.4255 102.714 52.8243 103.884C55.0183 105.716 56.126 108.064 56.2361 110.955C56.3816 114.813 55.2243 118.295 53.4385 121.615C53.0124 122.41 52.4231 123.086 51.6491 123.558C51.3509 123.741 51.0172 123.895 50.6799 123.97C49.622 124.202 49.0468 123.73 48.9758 122.635C48.9154 121.751 49.0965 120.921 49.4444 120.116C50.2716 118.205 51.1237 116.305 51.8977 114.373C52.2491 113.496 52.5225 112.566 52.6823 111.635C52.984 109.878 52.448 108.336 51.2693 107.019C50.1261 105.742 48.7628 104.754 47.2433 104.002C44.8859 102.839 42.4895 101.762 40.1428 100.578C38.428 99.7119 36.7381 98.7565 35.3819 97.3573C32.9215 94.8274 32.0908 91.8037 32.8576 88.3291C33.3582 86.0675 34.576 84.2389 36.131 82.6C38.7688 79.8232 41.6871 77.3541 44.5557 74.8314C47.5593 72.1905 50.5344 69.5174 53.2326 66.5545C55.5722 63.9852 57.6988 61.2406 59.3426 58.1525C60.3615 56.238 61.4337 54.345 62.3106 52.3662C63.4893 49.7039 64.5082 46.97 65.5946 44.2683C65.7153 43.9677 65.8395 43.6707 65.9602 43.3701C66.0383 43.3809 66.1164 43.3916 66.1981 43.4023L66.191 43.4059Z" fill="#F1F1F1"/>
<path d="M38.3676 75.7437C37.867 75.7902 37.5582 75.8331 37.2493 75.8475C34.8387 75.9441 32.4991 75.4968 30.1736 74.9171C26.8683 74.094 23.6731 72.9883 20.7797 71.1204C18.6957 69.7749 16.8069 68.2291 15.6247 65.9604C14.5951 63.9922 14.4993 61.9704 15.3336 59.9272C15.8057 58.7714 16.5975 57.8696 17.6661 57.204C20.1158 55.6832 22.814 55.4256 25.5903 55.5437C26.4423 55.5794 27.3015 55.6725 28.1287 55.855C29.0944 56.0661 29.4103 56.6744 29.247 57.6513C29.1583 58.1845 28.8778 58.5423 28.363 58.639C27.905 58.7248 27.4328 58.7463 26.9642 58.757C25.6968 58.7785 24.4258 58.7213 23.1654 58.8107C22.4767 58.8608 21.7666 59.0612 21.1276 59.3368C19.4661 60.0632 18.9122 61.3764 19.0791 63.1907C19.2104 64.6113 19.853 65.8315 20.7939 66.9373C22.4199 68.8445 24.5216 70.0075 26.7192 71.0524C29.847 72.541 33.0919 73.6933 36.415 74.6415C37.0576 74.824 37.7179 75.003 38.3676 75.7437Z" fill="#F1F1F1"/>
</g>
<defs>
<clipPath id="clip0_1_36">
<rect width="109" height="189" fill="white"/>
</clipPath>
</defs>
</svg>
