<svg width="141" height="141" viewBox="0 0 141 141" fill="none" xmlns="http://www.w3.org/2000/svg">
<path d="M0 0H140.944V140.944H0V0Z" fill="#FF4F2A"/>
<path d="M87.5433 37.2567C88.6372 36.1636 90.1203 35.5496 91.6667 35.5496C93.2131 35.5496 94.6961 36.1636 95.79 37.2567L104.41 45.8767C105.503 46.9705 106.117 48.4536 106.117 50C106.117 51.5464 105.503 53.0295 104.41 54.1233L95.1 63.4333L95.06 63.4767L58.9667 97.9267C58.3071 98.5567 57.5091 99.0237 56.6367 99.29L38.2267 104.89C37.7938 105.021 37.3334 105.032 36.8948 104.922C36.4562 104.811 36.0558 104.584 35.7367 104.263C35.4162 103.944 35.1886 103.544 35.0782 103.105C34.9678 102.667 34.9788 102.206 35.11 101.773L40.6867 83.44C40.9791 82.4804 41.5141 81.6125 42.24 80.92L78.2533 46.5433L87.5433 37.2567ZM45.6933 84.5367C45.5903 84.6363 45.5135 84.76 45.47 84.8967L41.2567 98.7433L55.18 94.5067C55.3049 94.4678 55.419 94.4005 55.5133 94.31L89.7567 61.6233L79.9567 51.8267L45.6933 84.5367ZM93.3333 58.1333L100.877 50.5933C100.954 50.5159 101.016 50.424 101.058 50.3227C101.1 50.2215 101.121 50.1129 101.121 50.0033C101.121 49.8937 101.1 49.7852 101.058 49.6839C101.016 49.5827 100.954 49.4907 100.877 49.4133L92.2567 40.7933C92.1793 40.7157 92.0873 40.6542 91.9861 40.6121C91.8848 40.5701 91.7763 40.5485 91.6667 40.5485C91.5571 40.5485 91.4485 40.5701 91.3473 40.6121C91.246 40.6542 91.1541 40.7157 91.0767 40.7933L83.5367 48.3333L93.3333 58.1333Z" fill="#FAF5F6"/>
</svg>
