<svg width="142" height="141" viewBox="0 0 142 141" fill="none" xmlns="http://www.w3.org/2000/svg">
<rect x="0.943848" width="140.944" height="140.944" fill="#FF4F2A"/>
<path d="M95.0863 43.5775H87.8188V38.2975C87.8188 37.315 86.9563 36.3775 85.9438 36.4225C85.4493 36.4311 84.9774 36.6315 84.6276 36.9812C84.2778 37.331 84.0775 37.8029 84.0688 38.2975V43.5775H57.8188V38.2975C57.8188 37.315 56.9563 36.3775 55.9438 36.4225C55.4493 36.4311 54.9774 36.6315 54.6276 36.9812C54.2778 37.331 54.0775 37.8029 54.0688 38.2975V43.5775H46.8013C44.3159 43.5804 41.933 44.5691 40.1755 46.3266C38.418 48.0841 37.4293 50.467 37.4263 52.9525V94.2025C37.4263 99.3737 41.6338 103.577 46.8013 103.577H95.0826C100.254 103.577 104.458 99.3737 104.458 94.2025V52.9525C104.456 50.4673 103.468 48.0845 101.711 46.3268C99.9539 44.5692 97.5715 43.5804 95.0863 43.5775ZM46.8013 47.3275H54.0688V49.5475C54.0688 50.53 54.9313 51.4675 55.9438 51.4225C56.9601 51.3775 57.8188 50.5975 57.8188 49.5475V47.3275H84.0688V49.5475C84.0688 50.53 84.9313 51.4675 85.9438 51.4225C86.9601 51.3775 87.8188 50.5975 87.8188 49.5475V47.3275H95.0826C98.1838 47.3275 100.708 49.8512 100.708 52.9525V58.8925H41.1763V52.9525C41.1763 49.8512 43.7001 47.3275 46.8013 47.3275ZM95.0863 99.8275H46.8013C43.7001 99.8275 41.1763 97.3037 41.1763 94.2025V62.6425H100.708V94.2025C100.708 95.6936 100.115 97.1238 99.0614 98.1786C98.0073 99.2334 96.5775 99.8265 95.0863 99.8275Z" fill="#FAF5F6"/>
<path d="M48.4438 71.875H91.5688" stroke="#FAF5F6" stroke-width="3" stroke-linecap="round"/>
<path d="M48.4438 83.25H74.6938" stroke="#FAF5F6" stroke-width="3" stroke-linecap="round"/>
</svg>
