<svg width="141" height="141" viewBox="0 0 141 141" fill="none" xmlns="http://www.w3.org/2000/svg">
<g clip-path="url(#clip0_6_167)">
<rect width="175" height="175" fill="#FF4F2A"/>
<path d="M70.6637 93.5366L71.0165 93.8573L71.3536 93.5202L71.6782 93.1956C79.5986 86.0239 86.2063 80.036 90.8299 74.6334C95.4504 69.2345 98.1667 64.3346 98.1667 59.3333C98.1667 52.3905 92.9428 47.1667 86 47.1667C80.7925 47.1667 75.7141 50.4619 73.7641 55.0333H68.2359C66.286 50.4619 61.2076 47.1667 56 47.1667C49.0572 47.1667 43.8334 52.3905 43.8334 59.3333C43.8334 64.3345 46.5496 69.2344 51.1658 74.6333C55.785 80.0355 62.384 86.0233 70.2873 93.1945L70.297 93.2033L70.2974 93.2036L70.6637 93.5366ZM70.6206 48.259L71 48.701L71.3794 48.259C74.9213 44.1322 80.3512 41.5 86 41.5C95.9911 41.5 103.833 49.3101 103.833 59.3333C103.833 65.4523 101.079 71.0589 96.1337 77.1086C91.1834 83.1649 84.0906 89.604 75.4975 97.3963L75.4968 97.3969L71 101.491L66.5033 97.3969L66.5026 97.3963C57.9094 89.604 50.8166 83.1649 45.8663 77.1086C40.9215 71.0589 38.1667 65.4523 38.1667 59.3333C38.1667 49.3101 46.0089 41.5 56 41.5C61.6489 41.5 67.0787 44.1322 70.6206 48.259Z" fill="#FAF5F6" stroke="#FF4F2A"/>
</g>
<defs>
<clipPath id="clip0_6_167">
<rect width="141" height="141" fill="white"/>
</clipPath>
</defs>
</svg>
