<svg width="142" height="141" viewBox="0 0 142 141" fill="none" xmlns="http://www.w3.org/2000/svg">
<rect x="0.943878" width="141" height="141" fill="#FF4F2A"/>
<path d="M105.694 33.5L101.944 37.25M38.1939 33.5L41.9439 37.25M105.694 86L101.944 82.25M38.1939 86L41.9439 82.25M60.6939 93.5H83.1939M64.4439 104.75H79.4439M71.9439 37.25C56.9439 37.25 49.2639 44.5625 49.4439 56C49.5301 61.5762 51.3189 65.375 55.0689 69.125C58.8189 72.875 60.6939 74.75 60.6939 82.25H83.1939C83.1939 74.75 85.0689 72.875 88.8189 69.125C92.5689 65.375 94.3576 61.5762 94.4439 56C94.6239 44.5625 86.9439 37.25 71.9439 37.25Z" stroke="#FAF5F6" stroke-width="4" stroke-linecap="round" stroke-linejoin="round"/>
</svg>
