<svg width="38" height="39" viewBox="0 0 38 39" fill="none" xmlns="http://www.w3.org/2000/svg">
<path d="M34.7 19.6719C34.7 28.3426 27.6708 35.3719 19 35.3719C10.3292 35.3719 3.3 28.3426 3.3 19.6719C3.3 11.0011 10.3292 3.97187 19 3.97187C27.6708 3.97187 34.7 11.0011 34.7 19.6719ZM19 38.1719C29.2175 38.1719 37.5 29.8894 37.5 19.6719C37.5 9.45433 29.2175 1.17188 19 1.17188C8.78246 1.17188 0.5 9.45433 0.5 19.6719C0.5 29.8894 8.78246 38.1719 19 38.1719Z" fill="white" stroke="white"/>
<path d="M8.8963 18.6284C8.63797 18.9126 8.5 19.2886 8.5 19.6719C8.5 20.0551 8.63797 20.4312 8.8963 20.7153C9.15607 21.0011 9.51917 21.1719 9.90909 21.1719H28.0909C28.4808 21.1719 28.8439 21.0011 29.1037 20.7153C29.362 20.4312 29.5 20.0551 29.5 19.6719C29.5 19.2886 29.362 18.9126 29.1037 18.6284C28.8439 18.3427 28.4808 18.1719 28.0909 18.1719H9.90909C9.51917 18.1719 9.15607 18.3427 8.8963 18.6284Z" fill="white" stroke="white"/>
</svg>
