<svg width="50" height="50" viewBox="0 0 50 50" fill="none" xmlns="http://www.w3.org/2000/svg">
<rect width="50" height="50" fill="#C8FB03"/>
<path d="M10 25.5455C10 24.5758 10.3161 23.7424 10.9484 23.0455C11.6081 22.3485 12.3916 22 13.2988 22C14.1784 22 14.9481 22.3333 15.6079 23C16.2677 23.6667 16.5975 24.4848 16.5975 25.4545C16.5975 26.4242 16.2677 27.2576 15.6079 27.9545C14.9756 28.6515 14.2059 29 13.2988 29C12.8589 29 12.4328 28.9091 12.0205 28.7273C11.6356 28.5455 11.292 28.303 10.9896 28C10.6872 27.697 10.4398 27.3333 10.2474 26.9091C10.0825 26.4848 10 26.0303 10 25.5455Z" fill="#0E0F25"/>
<path d="M22.2012 25.5455C22.2012 24.5758 22.5174 23.7424 23.1496 23.0455C23.8094 22.3485 24.5928 22 25.5 22C26.3797 22 27.1494 22.3333 27.8091 23C28.4689 23.6667 28.7988 24.4848 28.7988 25.4545C28.7988 26.4242 28.4689 27.2576 27.8091 27.9545C27.1769 28.6515 26.4072 29 25.5 29C25.0602 29 24.6341 28.9091 24.2217 28.7273C23.8369 28.5455 23.4933 28.303 23.1909 28C22.8885 27.697 22.6411 27.3333 22.4486 26.9091C22.2837 26.4848 22.2012 26.0303 22.2012 25.5455Z" fill="#0E0F25"/>
<path d="M34.4025 25.5455C34.4025 24.5758 34.7186 23.7424 35.3509 23.0455C36.0106 22.3485 36.7941 22 37.7012 22C38.5809 22 39.3506 22.3333 40.0104 23C40.6701 23.6667 41 24.4848 41 25.4545C41 26.4242 40.6701 27.2576 40.0104 27.9545C39.3781 28.6515 38.6084 29 37.7012 29C37.2614 29 36.8353 28.9091 36.423 28.7273C36.0381 28.5455 35.6945 28.303 35.3921 28C35.0897 27.697 34.8423 27.3333 34.6499 26.9091C34.4849 26.4848 34.4025 26.0303 34.4025 25.5455Z" fill="#0E0F25"/>
</svg>
