<svg width="500" height="369" viewBox="0 0 500 369" fill="none" xmlns="http://www.w3.org/2000/svg">
<g clip-path="url(#clip0_904_373)">
<path d="M244.68 208.328C244.845 211.025 243.909 213.31 242.285 215.43C231.523 229.44 220.815 243.45 210.08 257.461C198.795 272.215 187.537 286.941 176.251 301.694C168.902 311.273 161.553 320.852 154.204 330.431C150.295 335.523 143.414 336.487 138.376 332.633C133.532 328.945 132.569 322.008 136.34 316.943C140.606 311.246 145.01 305.603 149.332 299.933C160.589 285.289 171.82 270.646 183.078 255.975C195.327 240.01 207.548 224.018 219.769 208.053C221.503 205.796 223.182 203.539 224.972 201.309C227.641 197.978 231.825 196.217 237.33 197.896C242.01 199.355 244.68 203.346 244.68 208.328Z" fill="#FAF5F6"/>
<path d="M236.422 81.16C236.863 66.5715 248.561 56.222 262.049 56.5798C276.362 56.9652 287.344 68.7185 286.491 83.1143C285.665 96.9872 273.829 107.282 260.094 106.594C247.625 105.96 236.34 95.7485 236.422 81.16Z" fill="#FAF5F6"/>
<path d="M304.052 98.5288C303.832 96.0515 304.74 93.7944 306.309 91.7851C317.209 77.5544 328.109 63.3512 339.01 49.1481C341.459 45.9552 343.909 42.7622 346.359 39.5693C350.24 34.5596 356.956 33.5137 361.993 37.1745C366.948 40.7804 368.131 47.7168 364.333 52.7539C356.984 62.553 349.497 72.242 342.065 81.9585C336.229 89.583 330.367 97.18 324.531 104.805C322.384 107.612 319.742 109.539 316.108 109.869C309.447 110.475 303.667 105.052 304.052 98.5288Z" fill="#FAF5F6"/>
<path d="M291.528 149.066C295.189 150.58 298.547 151.983 301.905 153.387C302.841 153.773 303.777 154.158 304.658 154.626C310.08 157.488 312.117 163.379 309.805 169.132C308.264 172.958 302.538 177.444 296.07 175.077C292.299 173.701 288.638 172.077 284.922 170.536C280.023 168.499 275.123 166.544 270.279 164.37C268.572 163.599 266.865 162.581 265.544 161.259C262.104 157.846 261.36 151.763 264.581 147.414C268.132 142.652 271.737 137.945 275.343 133.211C277.518 130.376 279.692 127.568 281.867 124.761C284.729 121.1 288.556 119.668 293.042 120.577C297.639 121.54 300.612 124.458 301.658 129.11C302.401 132.413 301.713 135.468 299.703 138.193C297.364 141.359 294.941 144.441 292.547 147.579C292.271 147.965 292.024 148.35 291.528 149.066Z" fill="#FAF5F6"/>
<path d="M253.928 169.104C255.662 169.599 257.507 169.902 259.158 170.59C273.334 176.453 287.509 182.371 301.657 188.289C304.052 189.28 306.282 190.464 307.878 192.611C310.603 196.217 310.796 201.694 308.236 205.493C305.676 209.319 300.859 211.383 296.51 210.062C292.849 208.961 289.326 207.419 285.775 205.961C273.967 201.089 262.186 196.106 250.35 191.234C245.533 189.253 242.67 185.674 242.698 180.582C242.753 173.921 247.735 169.407 253.928 169.104Z" fill="#FAF5F6"/>
<path d="M249.414 140.422C247.845 139.982 246.194 139.734 244.707 139.101C229.954 132.991 215.228 126.77 200.446 120.687C193.372 117.769 191.391 109.071 195.85 103.291C198.767 99.4921 204.245 98.0608 209.227 100.098C216.163 102.933 223.045 105.85 229.981 108.741C237.578 111.906 245.148 115.099 252.745 118.182C256.13 119.558 258.773 121.678 260.067 125.146C262.847 132.55 257.452 140.175 249.414 140.422Z" fill="#FAF5F6"/>
<path d="M294.171 244.964C292.74 244.607 290.978 244.386 289.409 243.726C279.197 239.514 268.985 235.248 258.801 230.954C257.452 230.376 256.076 229.798 254.92 228.972C250.048 225.504 249.69 219.035 251.782 214.907C254.204 210.145 259.709 207.695 264.829 209.512C270.499 211.549 276.032 213.971 281.619 216.255C287.372 218.623 293.097 220.99 298.823 223.412C303.447 225.366 305.842 229.743 305.704 234.037C305.511 239.349 302.291 242.9 298.245 244.194C297.061 244.579 295.767 244.689 294.171 244.964Z" fill="#FAF5F6"/>
<path d="M215.503 190.244C208.043 190.932 201.19 181.959 205.979 173.728C207.41 171.306 209.31 169.132 211.016 166.875C215.227 161.342 219.439 155.809 223.705 150.332C227.339 145.652 233.642 144.496 238.431 147.497C244.074 151.02 245.505 158.397 241.514 163.764C237.688 168.911 233.752 173.949 229.844 179.013C228.054 181.325 226.265 183.638 224.504 185.977C222.467 188.757 218.861 190.629 215.503 190.244Z" fill="#FAF5F6"/>
</g>
<defs>
<clipPath id="clip0_904_373">
<rect width="232.59" height="300" fill="white" transform="translate(134 35)"/>
</clipPath>
</defs>
</svg>
