<svg width="500" height="500" viewBox="0 0 500 500" fill="none" xmlns="http://www.w3.org/2000/svg">
<g clip-path="url(#clip0_904_332)">
<path d="M236.174 242.307H226.667V176.676H236.174V204.553H262.944V176.676H272.451V242.307H262.944V213.876H236.174V242.307Z" fill="#FAF5F6"/>
<path d="M280.585 217.568C280.585 210.553 282.985 204.368 287.601 199.476C292.585 194.122 299.047 191.168 305.785 191.168C312.985 191.168 319.17 193.753 324.154 198.83C329.047 203.814 331.724 210.276 331.724 216.922C331.724 223.753 329.139 230.491 324.801 235.291C319.816 240.737 313.447 243.691 306.247 243.691C299.047 243.691 292.862 241.107 287.97 235.937C283.262 231.045 280.585 224.214 280.585 217.568ZM289.816 217.476C289.816 227.445 296.924 234.83 306.247 234.83C315.293 234.83 322.493 227.537 322.493 217.383C322.493 207.137 315.293 200.03 306.154 200.03C297.201 200.03 289.816 207.23 289.816 217.476Z" fill="#FAF5F6"/>
<path d="M348.38 242.307H339.426V192.737H348.011V198.368C351.796 193.845 356.134 191.907 361.857 191.907C374.688 191.907 381.98 199.66 381.98 214.06V242.307H373.026V215.999C373.026 205.568 369.242 200.491 361.026 200.491C351.519 200.491 348.38 206.953 348.38 219.783V242.307Z" fill="#FAF5F6"/>
<path d="M432.493 242.307V236.214C427.877 241.014 422.154 243.414 415.877 243.414C400.831 243.414 389.939 232.153 389.939 217.291C389.939 210.368 392.431 203.907 397.047 199.107C402.031 193.845 407.847 191.445 415.323 191.445C422.062 191.445 427.785 193.845 432.585 198.737V176.676H441.539V242.307H432.493ZM399.17 217.199C399.17 227.537 407.016 234.922 416.339 234.922C425.016 234.922 432.954 227.076 432.954 217.845C432.954 207.783 425.016 200.122 416.154 200.122C406.923 200.122 399.17 207.507 399.17 217.199Z" fill="#FAF5F6"/>
<path d="M491.898 242.307V236.214C487.282 241.014 481.559 243.414 475.282 243.414C460.236 243.414 449.344 232.153 449.344 217.291C449.344 210.368 451.836 203.907 456.452 199.107C461.436 193.845 467.252 191.445 474.729 191.445C481.467 191.445 487.19 193.845 491.898 198.737V192.737H500.944V242.307H491.898ZM458.575 217.199C458.575 227.537 466.421 234.922 475.744 234.922C484.421 234.922 492.359 227.076 492.359 217.845C492.359 207.783 484.421 200.122 475.559 200.122C466.329 200.122 458.575 207.507 458.575 217.199Z" fill="#FAF5F6"/>
<path d="M301.335 319.231H275.489V264.539H283.412V311.693H301.335V319.231Z" fill="#FAF5F6"/>
<path d="M317.87 319.231H310.024V264.539H322.716C328.1 264.539 332.254 264.77 335.793 266.847C340.331 269.462 343.254 274.77 343.254 280.539C343.254 290.385 336.254 297.231 324.177 297.231H317.87V319.231ZM317.87 289.923H323.639C331.408 289.923 335.254 287.462 335.254 281C335.254 274.693 331.485 271.847 323.87 271.847H317.87V289.923Z" fill="#FAF5F6"/>
<path d="M371.229 291.616H405.075C404.306 309 392.691 320.308 377.152 320.308C368.998 320.308 361.998 317.154 356.46 310.923C351.844 305.77 349.383 299.077 349.383 291.539C349.383 283.923 352.306 276.923 357.921 271.385C363.229 266.077 369.768 263.462 377.768 263.462C388.921 263.462 397.537 268.923 401.768 278.385H391.998C388.383 273.77 383.306 271.385 377.152 271.385C371.998 271.385 367.229 273.385 363.614 277.077C359.768 281 357.614 286.385 357.614 291.616C357.614 297.385 359.614 302.616 363.152 306.308C366.921 310.231 372.075 312.462 377.152 312.462C385.383 312.462 391.844 308.077 395.998 299.308H371.229V291.616Z" fill="#FAF5F6"/>
<path d="M422.084 303.308L415.93 319.231H407.545L428.93 264.539H436.622L458.007 319.231H449.314L443.314 303.308H422.084ZM440.468 295.616L432.776 274.847L424.93 295.616H440.468Z" fill="#FAF5F6"/>
<path d="M237.475 365.384H233.514V341.73H228.398V338.038H242.591V341.73H237.475V365.384Z" fill="#FAF5F6"/>
<path d="M250.352 365.384H246.39V338.038H250.352V349.653H261.505V338.038H265.467V365.384H261.505V353.538H250.352V365.384Z" fill="#FAF5F6"/>
<path d="M275.087 357.423L272.01 365.384H267.818L278.51 338.038H282.356L293.048 365.384H288.702L285.702 357.423H275.087ZM284.279 353.577L280.433 343.192L276.51 353.577H284.279Z" fill="#FAF5F6"/>
<path d="M299.647 365.384H295.685V338.038H299.647V365.384Z" fill="#FAF5F6"/>
<path d="M318.476 365.384H305.553V338.038H309.515V361.615H318.476V365.384Z" fill="#FAF5F6"/>
<path d="M326.513 357.423L323.436 365.384H319.243L329.936 338.038H333.782L344.474 365.384H340.128L337.128 357.423H326.513ZM335.705 353.577L331.859 343.192L327.936 353.577H335.705Z" fill="#FAF5F6"/>
<path d="M351.073 365.384H347.111V338.038H351.188L364.611 358.73L364.419 338.038H368.342V365.384H364.534L350.804 344.077L351.073 365.384Z" fill="#FAF5F6"/>
<path d="M381.757 365.384H374.064V338.038H382.872C391.18 338.038 396.603 343.692 396.603 351.807C396.603 356.5 394.641 360.423 391.103 362.961C388.18 365.077 385.372 365.384 381.757 365.384ZM377.911 361.73H382.718C388.872 361.73 392.603 357.884 392.603 351.846C392.603 345.653 388.757 341.769 381.987 341.769H377.911V361.73Z" fill="#FAF5F6"/>
<path d="M430.792 365.384H413.484V361.577L423.061 352.384C425.33 350.192 426.984 348.653 426.984 346.192C426.984 343.461 424.946 341.269 422.023 341.269C419.023 341.269 417.215 343.269 417.215 346.73C417.215 346.807 417.215 346.923 417.215 347.038H413.484C413.484 347 413.484 346.961 413.484 346.961C413.484 341.192 417.1 337.538 422.369 337.538C427.176 337.538 430.869 341.384 430.869 346.038C430.869 348.884 429.523 351.115 426.907 353.577L418.407 361.577H430.792V365.384Z" fill="#FAF5F6"/>
<path d="M440.071 356.461C440.071 356.615 440.071 356.73 440.071 356.884C440.071 358.115 440.11 359.077 440.725 359.961C441.648 361.307 443.341 362.153 445.264 362.153C448.841 362.153 450.571 360.23 450.571 356.307V347.153C450.571 345.615 450.571 344.5 449.917 343.538C448.994 342.153 447.264 341.307 445.302 341.307C443.379 341.307 441.725 342.115 440.802 343.423C440.148 344.346 440.071 345.5 440.071 347.115V356.461ZM435.994 355.769V347.692C435.994 345.192 436.148 343.192 437.648 341.23C439.456 338.846 442.148 337.538 445.341 337.538C448.648 337.538 451.417 338.923 453.225 341.5C454.341 343.077 454.687 345 454.687 347.538V355.884C454.687 358.538 454.341 360.538 453.187 362.115C451.456 364.538 448.61 365.923 445.341 365.923C442.187 365.923 439.456 364.615 437.571 362.23C436.341 360.653 435.994 358.577 435.994 355.769Z" fill="#FAF5F6"/>
<path d="M477.12 365.384H459.812V361.577L469.389 352.384C471.658 350.192 473.312 348.653 473.312 346.192C473.312 343.461 471.274 341.269 468.351 341.269C465.351 341.269 463.543 343.269 463.543 346.73C463.543 346.807 463.543 346.923 463.543 347.038H459.812C459.812 347 459.812 346.961 459.812 346.961C459.812 341.192 463.428 337.538 468.697 337.538C473.505 337.538 477.197 341.384 477.197 346.038C477.197 348.884 475.851 351.115 473.235 353.577L464.735 361.577H477.12V365.384Z" fill="#FAF5F6"/>
<path d="M494.361 357.115V343.692L486.169 357.115H494.361ZM498.169 365.384H494.361V360.615H482.322V357.115L494.361 338.038H498.169V357.115H500.938V360.615H498.169V365.384Z" fill="#FAF5F6"/>
<g clip-path="url(#clip1_904_332)">
<path d="M24.0148 272.99C23.7893 273.899 23.5751 274.808 23.3327 275.711C20.0066 287.877 16.5566 300.01 13.3828 312.216C11.3195 320.174 9.6058 328.228 8.41633 336.373C7.44671 343.013 6.4489 349.664 6.61802 356.418C6.72513 360.57 7.31705 364.608 9.04207 368.425C11.5901 374.06 15.8576 377.161 22.0192 377.468C25.9991 377.666 29.6916 376.485 33.2938 374.923C37.0595 373.293 40.4588 371.049 43.8018 368.669C49.2869 364.767 54.3605 360.382 59.2367 355.736C65.3025 349.954 71.1146 343.927 76.5208 337.509C80.7939 332.431 85.0726 327.359 89.2386 322.196C91.9896 318.788 94.594 315.255 97.1646 311.71C100.265 307.439 103.354 303.156 106.28 298.76C109.832 293.427 113.242 287.996 116.647 282.572C119.026 278.778 121.366 274.955 123.598 271.07C125.898 267.066 128.063 262.976 130.25 258.909C131.834 255.961 133.396 253.002 134.89 250.003C136.282 247.22 137.601 244.397 138.898 241.563C140.335 238.433 141.767 235.298 143.092 232.117C144.873 227.845 146.643 223.568 148.244 219.229C150.415 213.339 152.529 207.42 154.462 201.45C156.706 194.532 158.662 187.517 160.274 180.417C161.419 175.396 162.541 170.37 163.55 165.314C164.305 161.514 164.914 157.686 165.483 153.852C166.086 149.831 166.605 145.798 167.079 141.765C167.366 139.323 167.547 136.869 167.687 134.415C167.8 132.461 167.417 130.541 166.825 128.69C165.805 125.52 163.572 123.481 160.641 122.101C158.313 121.005 155.951 119.943 153.718 118.665C151.311 117.29 149.659 115.194 148.915 112.456C148.284 110.133 147.754 107.782 147.061 105.476C146.672 104.175 146.108 102.914 145.493 101.704C145.189 101.102 144.591 100.648 144.022 100.006C149.913 101.477 154.643 104.629 158.758 108.884C158.538 107.566 157.659 106.646 156.836 105.351C159.153 106.032 161.126 106.816 162.986 107.975C164.886 109.156 166.171 110.832 167.141 112.831C167.225 112.803 167.315 112.769 167.4 112.74C167.361 112.184 167.327 111.621 167.27 110.764C167.834 111.235 168.24 111.559 168.635 111.9C171.087 114.052 172.474 116.75 172.665 120.045C172.806 122.402 172.947 124.765 173.032 127.128C173.195 131.496 172.643 135.824 172.073 140.135C171.329 145.804 170.602 151.484 169.666 157.118C168.601 163.548 167.4 169.966 166.103 176.356C163.933 187.063 161.097 197.605 157.805 208.011C154.97 216.98 151.79 225.829 148.064 234.457C145.048 241.432 141.964 248.379 138.678 255.223C136.09 260.625 133.193 265.873 130.363 271.155C128.604 274.433 126.721 277.642 124.895 280.885C124.714 281.209 124.539 281.538 124.325 281.942C124.754 282.413 125.131 282.89 125.565 283.305C129.782 287.292 132.702 292.177 134.963 297.471C137.731 303.946 139.332 310.756 139.98 317.765C140.42 322.497 140.07 327.2 139.14 331.88C137.364 340.854 134.083 349.272 130.306 357.531C127.538 363.591 124.359 369.43 120.892 375.11C119.004 378.2 116.957 381.194 114.759 384.136C115.114 383.165 115.458 382.188 115.835 381.228C117.442 377.093 119.105 372.975 120.667 368.823C124.274 359.224 127.561 349.516 129.901 339.514C131.366 333.249 132.477 326.933 132.691 320.463C132.9 314.181 132.392 307.984 131.124 301.856C129.827 295.579 127.572 289.621 124.883 283.822C124.692 283.407 124.404 283.032 124.026 282.413C112.414 302.401 99.6394 321.344 84.8809 338.98C85.3657 339.497 85.766 339.951 86.1888 340.383C90.0785 344.348 93.241 348.846 95.7215 353.822C98.6021 359.593 100.22 365.687 99.5097 372.18C99.2335 374.69 98.4781 377.167 97.7453 379.603C96.7305 382.983 94.9322 385.988 92.9986 388.901C90.4111 392.804 87.3839 396.331 84.0184 399.994C84.103 399.472 84.103 399.228 84.1875 399.018C85.8167 394.939 87.4459 390.861 89.092 386.794C91.5611 380.671 93.6582 374.474 93.2241 367.709C92.9986 364.199 92.4124 360.757 91.4202 357.395C89.8699 352.129 87.8969 347.017 85.7378 341.979C85.3883 341.167 85.0557 340.355 84.6836 339.457C84.4186 339.639 84.2439 339.713 84.1311 339.843C79.7679 344.654 75.506 349.573 71.0075 354.259C67.7829 357.616 64.3103 360.734 60.8265 363.824C57.6245 366.664 54.3266 369.396 50.9555 372.026C46.5077 375.502 41.8907 378.751 36.8848 381.364C32.5384 383.63 28.0004 385.431 23.1354 386.13C19.1836 386.698 15.2769 386.448 11.5901 384.676C7.25504 382.591 4.53221 379.035 2.717 374.656C1.23438 371.083 0.586091 367.318 0.214028 363.495C-0.417352 356.991 0.360598 350.55 1.21747 344.126C1.70792 340.474 2.22091 336.816 2.9594 333.204C4.14888 327.37 5.51874 321.582 7.22685 315.868C9.50433 308.257 12.137 300.776 15.1529 293.432C17.9152 286.707 20.7621 280.016 23.5751 273.308C23.6258 273.183 23.7329 273.075 23.8118 272.962C23.8739 272.962 23.9359 272.967 23.9979 272.973L24.0148 272.99Z" fill="#FAF5F6"/>
<path d="M105.102 168.898C104.843 171.051 104.634 173.215 104.319 175.356C103.276 182.343 101.055 188.943 97.7963 195.179C94.7465 201.018 91.0033 206.369 86.6062 211.271C80.828 217.718 74.1872 223.182 67.5577 228.674C65.207 230.617 62.9521 232.684 60.7309 234.775C58.9665 236.439 58.3689 238.7 57.9968 241.017C57.8615 241.852 57.8559 242.715 57.8334 243.562C57.7375 247.668 59.9755 250.485 62.9577 252.843C67.0786 256.103 71.7857 258.335 76.5154 260.516C79.1199 261.715 81.6567 263.038 83.8778 264.896C87.3616 267.804 89.1205 271.53 89.2952 276.119C89.5264 282.242 87.6886 287.769 84.853 293.04C84.1766 294.301 83.2408 295.374 82.0118 296.124C81.5383 296.414 81.0084 296.658 80.4728 296.777C78.7929 297.147 77.8797 296.397 77.7669 294.659C77.6711 293.256 77.9586 291.938 78.511 290.66C79.8245 287.627 81.1775 284.611 82.4064 281.544C82.9645 280.152 83.3986 278.675 83.6523 277.198C84.1315 274.41 83.2802 271.962 81.4086 269.871C79.5934 267.844 77.4287 266.276 75.0159 265.083C71.2727 263.237 67.4675 261.527 63.7413 259.647C61.0184 258.273 58.3351 256.756 56.1816 254.535C52.275 250.52 50.9558 245.72 52.1735 240.205C52.9684 236.615 54.902 233.712 57.3711 231.111C61.5596 226.703 66.1935 222.784 70.7485 218.78C75.5176 214.588 80.2417 210.345 84.5261 205.642C88.2411 201.564 91.6178 197.207 94.2279 192.305C95.8458 189.267 97.5483 186.262 98.9407 183.121C100.812 178.895 102.43 174.555 104.155 170.267C104.347 169.79 104.544 169.318 104.736 168.841C104.86 168.858 104.984 168.875 105.114 168.892L105.102 168.898Z" fill="#FAF5F6"/>
<path d="M60.9224 220.228C60.1275 220.302 59.6371 220.37 59.1466 220.393C55.3189 220.546 51.6039 219.836 47.9115 218.916C42.6631 217.61 37.5895 215.855 32.9951 212.89C29.686 210.754 26.687 208.3 24.8097 204.699C23.1749 201.575 23.0227 198.366 24.3475 195.123C25.0972 193.288 26.3544 191.857 28.0512 190.8C31.9409 188.386 36.2253 187.977 40.6337 188.165C41.9866 188.222 43.3509 188.369 44.6644 188.659C46.1977 188.994 46.6994 189.96 46.4401 191.51C46.2992 192.357 45.8538 192.925 45.0364 193.078C44.3092 193.214 43.5594 193.248 42.8153 193.265C40.8028 193.3 38.7846 193.209 36.7834 193.351C35.6897 193.43 34.5623 193.748 33.5476 194.186C30.9093 195.339 30.0299 197.423 30.2948 200.303C30.5034 202.558 31.5238 204.495 33.0177 206.25C35.5996 209.277 38.9368 211.123 42.4263 212.782C47.3928 215.145 52.5453 216.974 57.8219 218.479C58.8422 218.769 59.8908 219.053 60.9224 220.228Z" fill="#FAF5F6"/>
</g>
</g>
<defs>
<clipPath id="clip0_904_332">
<rect width="500" height="500" fill="white"/>
</clipPath>
<clipPath id="clip1_904_332">
<rect width="173.077" height="300" fill="white" transform="translate(0 100)"/>
</clipPath>
</defs>
</svg>
