<svg width="500" height="369" viewBox="0 0 500 369" fill="none" xmlns="http://www.w3.org/2000/svg">
<path d="M107.638 210.812C107.638 216.399 106.552 221.753 104.379 226.874C102.207 231.84 99.258 236.185 95.5335 239.91C91.8089 243.634 87.386 246.583 82.2648 248.756C77.2987 250.928 72.0223 252.015 66.4355 252.015C60.8487 252.015 55.4947 250.928 50.3734 248.756C45.4074 246.583 40.9845 243.634 37.1048 239.91C33.3802 236.185 30.4316 231.84 28.259 226.874C26.0863 221.908 25 216.631 25 211.045V157.97C25 152.383 26.0863 147.107 28.259 142.141C30.4316 137.175 33.3802 132.829 37.1048 129.105C40.9845 125.38 45.4074 122.432 50.3734 120.259C55.4947 118.086 60.8487 117 66.4355 117C72.0223 117 77.2987 118.086 82.2648 120.259C87.386 122.432 91.8089 125.38 95.5335 129.105C99.258 132.829 102.207 137.252 104.379 142.373C106.552 147.339 107.638 152.616 107.638 158.203H91.1106C91.1106 154.944 90.4122 151.84 89.0155 148.891C87.774 145.788 85.9893 143.149 83.6615 140.977C81.4889 138.649 78.8506 136.864 75.7468 135.623C72.7983 134.226 69.6945 133.528 66.4355 133.528C63.3317 133.528 60.2279 134.148 57.1242 135.39C54.1756 136.631 51.5373 138.339 49.2095 140.511C46.8817 142.529 45.0194 145.012 43.6227 147.96C42.226 150.754 41.5276 153.78 41.5276 157.039V212.209C41.5276 215.468 42.226 218.571 43.6227 221.52C45.0194 224.313 46.8817 226.796 49.2095 228.969C51.5373 230.986 54.1756 232.616 57.1242 233.857C60.2279 234.944 63.3317 235.487 66.4355 235.487C69.6945 235.487 72.7983 234.866 75.7468 233.625C78.8506 232.228 81.4889 230.443 83.6615 228.271C85.9893 225.943 87.774 223.305 89.0155 220.356C90.4122 217.252 91.1106 214.071 91.1106 210.812V191.025H65.7372V174.498H107.638V210.812Z" fill="#FAF5F6"/>
<path d="M133.368 148.18V210.812C133.368 214.226 133.989 217.407 135.23 220.356C136.627 223.305 138.412 225.943 140.584 228.271C142.912 230.443 145.55 232.228 148.499 233.625C151.603 234.866 154.862 235.487 158.276 235.487C161.535 235.487 164.639 234.866 167.587 233.625C170.691 232.228 173.329 230.443 175.502 228.271C177.83 225.943 179.614 223.305 180.856 220.356C182.253 217.252 182.951 214.071 182.951 210.812V148.18H199.479V210.812C199.479 216.399 198.392 221.753 196.22 226.874C194.047 231.84 191.098 236.185 187.374 239.91C183.649 243.634 179.226 246.583 174.105 248.756C169.139 250.928 163.863 252.015 158.276 252.015C152.689 252.015 147.335 250.928 142.214 248.756C137.248 246.583 132.825 243.634 128.945 239.91C125.221 236.185 122.272 231.84 120.099 226.874C117.927 221.908 116.84 216.554 116.84 210.812V148.18H133.368Z" fill="#FAF5F6"/>
<path d="M250.815 177.291V193.819H225.209V212.209C225.209 215.468 225.907 218.571 227.304 221.52C228.7 224.313 230.563 226.796 232.89 228.969C235.218 230.986 237.856 232.616 240.805 233.857C243.909 234.944 247.013 235.487 250.116 235.487C253.375 235.487 256.479 234.866 259.428 233.625C262.532 232.228 265.17 230.443 267.342 228.271C269.67 225.943 271.455 223.305 272.696 220.356C274.093 217.252 274.791 214.071 274.791 210.812H291.319C291.319 216.399 290.233 221.753 288.06 226.874C285.887 231.84 282.939 236.185 279.214 239.91C275.49 243.634 271.067 246.583 265.946 248.756C260.98 250.928 255.703 252.015 250.116 252.015C244.53 252.015 239.176 250.928 234.054 248.756C229.088 246.583 224.665 243.634 220.786 239.91C217.061 236.185 214.113 231.84 211.94 226.874C209.767 221.908 208.681 216.631 208.681 211.045V158.436C208.681 152.849 209.767 147.572 211.94 142.606C214.113 137.64 217.061 133.295 220.786 129.57C224.665 125.846 229.088 122.897 234.054 120.725C239.176 118.552 244.53 117.466 250.116 117.466C255.703 117.466 260.98 118.552 265.946 120.725C271.067 122.897 275.49 125.846 279.214 129.57C282.939 133.295 285.887 137.718 288.06 142.839C290.233 147.805 291.319 153.081 291.319 158.668H274.791C274.791 155.409 274.093 152.306 272.696 149.357C271.455 146.253 269.67 143.615 267.342 141.442C265.17 139.114 262.532 137.33 259.428 136.088C256.479 134.692 253.375 133.993 250.116 133.993C247.013 133.993 243.909 134.614 240.805 135.855C237.856 137.097 235.218 138.804 232.89 140.977C230.563 142.994 228.7 145.477 227.304 148.426C225.907 151.219 225.209 154.245 225.209 157.504V177.291H250.815Z" fill="#FAF5F6"/>
<path d="M383.16 167.747C383.16 174.73 381.22 181.093 377.34 186.835C373.615 192.422 369.037 197.078 363.606 200.802C369.037 204.682 373.615 209.726 377.34 215.933C381.22 221.985 383.16 228.503 383.16 235.487V252.015H366.632C366.632 247.359 366.477 242.548 366.166 237.582C366.011 232.461 365.158 227.805 363.606 223.615C362.209 219.425 359.804 216.011 356.389 213.372C352.975 210.579 348.087 209.182 341.724 209.182H317.049V252.015H300.521V117.233H317.049V125.613C320.618 122.975 324.498 120.957 328.688 119.561C333.033 118.009 337.456 117.233 341.957 117.233C349.561 117.233 356.001 118.629 361.278 121.423C366.554 124.216 370.822 127.941 374.081 132.597C377.34 137.252 379.668 142.684 381.065 148.891C382.461 154.944 383.16 161.229 383.16 167.747ZM341.724 192.655C345.138 192.655 348.32 192.034 351.268 190.792C354.372 189.396 357.01 187.611 359.183 185.438C361.511 183.111 363.295 180.472 364.537 177.524C365.934 174.42 366.632 171.161 366.632 167.747V158.436C366.632 155.177 365.934 152.073 364.537 149.124C363.295 146.02 361.511 143.382 359.183 141.21C357.01 138.882 354.372 137.097 351.268 135.855C348.32 134.459 345.216 133.76 341.957 133.76C338.853 133.76 335.749 134.381 332.645 135.623C329.697 136.864 327.059 138.571 324.731 140.744C322.403 142.761 320.541 145.244 319.144 148.193C317.747 150.986 317.049 154.013 317.049 157.272V192.422L341.724 192.655Z" fill="#FAF5F6"/>
<path d="M433.565 252.015C427.978 252.015 422.624 250.928 417.502 248.756C412.536 246.583 408.191 243.634 404.467 239.91C400.742 236.185 397.793 231.84 395.621 226.874C393.448 221.753 392.362 216.399 392.362 210.812V158.436C392.362 152.849 393.448 147.572 395.621 142.606C397.793 137.485 400.742 133.062 404.467 129.338C408.191 125.613 412.536 122.664 417.502 120.492C422.624 118.319 427.978 117.233 433.565 117.233C439.151 117.233 444.428 118.319 449.394 120.492C454.515 122.664 458.938 125.613 462.662 129.338C466.542 133.062 469.568 137.407 471.741 142.373C473.914 147.339 475 152.616 475 158.203V211.045C475 216.631 473.914 221.908 471.741 226.874C469.568 231.84 466.542 236.185 462.662 239.91C458.938 243.634 454.515 246.583 449.394 248.756C444.428 250.928 439.151 252.015 433.565 252.015ZM458.472 157.272C458.472 154.013 457.774 150.986 456.377 148.193C454.981 145.244 453.118 142.761 450.791 140.744C448.463 138.571 445.747 136.864 442.643 135.623C439.694 134.381 436.668 133.76 433.565 133.76C430.306 133.76 427.124 134.459 424.02 135.855C421.072 137.097 418.434 138.882 416.106 141.21C413.933 143.382 412.148 146.02 410.752 149.124C409.51 152.073 408.889 155.177 408.889 158.436V210.812C408.889 214.071 409.51 217.252 410.752 220.356C412.148 223.305 413.933 225.943 416.106 228.271C418.434 230.443 421.072 232.228 424.02 233.625C427.124 234.866 430.306 235.487 433.565 235.487C436.668 235.487 439.694 234.944 442.643 233.857C445.747 232.616 448.463 230.986 450.791 228.969C453.118 226.796 454.981 224.313 456.377 221.52C457.774 218.571 458.472 215.468 458.472 212.209V157.272Z" fill="#FAF5F6"/>
<circle cx="123.854" cy="127.539" r="8.08277" fill="#FAF5F6"/>
<circle cx="191.75" cy="127.539" r="8.08277" fill="#FAF5F6"/>
</svg>
