<svg width="82" height="82" viewBox="0 0 82 82" fill="none" xmlns="http://www.w3.org/2000/svg">
<path d="M0.5 41C0.5 63.3302 18.6698 81.5 41 81.5C63.3302 81.5 81.5 63.3302 81.5 41C81.5 18.6698 63.3302 0.5 41 0.5C18.6698 0.5 0.5 18.6698 0.5 41ZM2.22072 41C2.22072 19.5824 19.5824 2.22072 41 2.22072C62.4175 2.22072 79.7793 19.5824 79.7793 41C79.7793 62.4175 62.4175 79.7793 41 79.7793C19.5824 79.7793 2.22072 62.4175 2.22072 41Z" fill="#FAF5F6" stroke="#FAF5F6"/>
<path d="M37.036 15.1983C37.036 14.8379 37.1801 14.4776 37.4684 14.1893C37.7567 13.901 38.045 13.7568 38.4774 13.7568C38.9099 13.7568 39.1982 13.901 39.4865 14.1893C39.7747 14.4776 39.9189 14.7658 39.9189 15.1983V32.0631C39.9189 34.8019 38.982 37.1082 37.036 39.0541C35.0901 41.0001 32.7838 41.937 30.045 41.937C27.3063 41.937 25 41.0001 23.054 39.0541C21.1081 37.1082 20.1711 34.8019 20.1711 32.0631C20.1711 29.3244 21.1081 27.0181 23.054 25.0722C25 23.1262 27.3063 22.1893 30.045 22.1893C32.7838 22.1893 35.0901 23.1262 37.036 25.0722L37.1081 25.1442V15.1983H37.036ZM37.036 32.0631C37.036 30.1172 36.3153 28.4595 34.9459 27.0902C33.5765 25.7208 31.9189 25.0001 29.9729 25.0001C28.027 25.0001 26.3693 25.7208 25 27.0902C23.6306 28.4595 22.9099 30.1172 22.9099 32.0631C22.9099 34.0091 23.6306 35.6667 25 37.0361C26.3693 38.4055 28.027 39.1262 29.9729 39.1262C31.9189 39.1262 33.5765 38.4055 34.9459 37.0361C36.3153 35.6667 37.036 34.0091 37.036 32.0631Z" fill="#FAF5F6"/>
<path d="M57.9367 37.1081C58.2971 37.1081 58.6574 37.2523 58.9457 37.5406C59.234 37.8288 59.3781 38.1171 59.3781 38.5496C59.3781 38.982 59.234 39.2703 58.9457 39.5586C57.1439 41.1442 54.9817 41.937 52.5313 41.937C49.7926 41.937 47.4862 41 45.6124 39.0541C43.6664 37.1081 42.7295 34.8018 42.7295 32.0631C42.7295 29.3243 43.6664 27.018 45.6124 25.0721C47.5583 23.1261 49.8646 22.1892 52.5313 22.1892C55.198 22.1892 57.5763 23.1261 59.5223 25.0721C61.4682 27.018 62.4052 29.3243 62.4052 32.0631C62.4052 32.4234 62.261 32.7838 61.9727 33.0721C61.6844 33.3604 61.3962 33.5045 60.9637 33.5045H45.6124C45.9007 34.8739 46.5493 36.027 47.5583 37.0361C48.9277 38.4054 50.5853 39.1261 52.5313 39.1261C54.261 39.1261 55.7745 38.5496 57.0718 37.4685C57.2881 37.2523 57.5763 37.1081 57.9367 37.1081ZM59.3781 30.6937C59.0899 29.3243 58.4412 28.1712 57.4322 27.1622C56.0628 25.7928 54.4052 25.0721 52.4592 25.0721C50.5133 25.0721 48.8556 25.7928 47.4862 27.1622C46.4772 28.1712 45.8286 29.3964 45.5403 30.6937H59.3781Z" fill="#FAF5F6"/>
<path d="M37.036 15.1983C37.036 14.8379 37.1801 14.4776 37.4684 14.1893C37.7567 13.901 38.045 13.7568 38.4774 13.7568C38.9099 13.7568 39.1982 13.901 39.4865 14.1893C39.7747 14.4776 39.9189 14.7658 39.9189 15.1983V32.0631C39.9189 34.8019 38.982 37.1082 37.036 39.0541C35.0901 41.0001 32.7838 41.937 30.045 41.937C27.3063 41.937 25 41.0001 23.054 39.0541C21.1081 37.1082 20.1711 34.8019 20.1711 32.0631C20.1711 29.3244 21.1081 27.0181 23.054 25.0722C25 23.1262 27.3063 22.1893 30.045 22.1893C32.7838 22.1893 35.0901 23.1262 37.036 25.0722L37.1081 25.1442V15.1983H37.036ZM37.036 32.0631C37.036 30.1172 36.3153 28.4595 34.9459 27.0902C33.5765 25.7208 31.9189 25.0001 29.9729 25.0001C28.027 25.0001 26.3693 25.7208 25 27.0902C23.6306 28.4595 22.9099 30.1172 22.9099 32.0631C22.9099 34.0091 23.6306 35.6667 25 37.0361C26.3693 38.4055 28.027 39.1262 29.9729 39.1262C31.9189 39.1262 33.5765 38.4055 34.9459 37.0361C36.3153 35.6667 37.036 34.0091 37.036 32.0631Z" stroke="#FAF5F6" stroke-miterlimit="10"/>
<path d="M57.9367 37.1081C58.2971 37.1081 58.6574 37.2523 58.9457 37.5406C59.234 37.8288 59.3781 38.1171 59.3781 38.5496C59.3781 38.982 59.234 39.2703 58.9457 39.5586C57.1439 41.1442 54.9817 41.937 52.5313 41.937C49.7926 41.937 47.4862 41 45.6124 39.0541C43.6664 37.1081 42.7295 34.8018 42.7295 32.0631C42.7295 29.3243 43.6664 27.018 45.6124 25.0721C47.5583 23.1261 49.8646 22.1892 52.5313 22.1892C55.198 22.1892 57.5763 23.1261 59.5223 25.0721C61.4682 27.018 62.4052 29.3243 62.4052 32.0631C62.4052 32.4234 62.261 32.7838 61.9727 33.0721C61.6844 33.3604 61.3962 33.5045 60.9637 33.5045H45.6124C45.9007 34.8739 46.5493 36.027 47.5583 37.0361C48.9277 38.4054 50.5853 39.1261 52.5313 39.1261C54.261 39.1261 55.7745 38.5496 57.0718 37.4685C57.2881 37.2523 57.5763 37.1081 57.9367 37.1081ZM59.3781 30.6937C59.0899 29.3243 58.4412 28.1712 57.4322 27.1622C56.0628 25.7928 54.4052 25.0721 52.4592 25.0721C50.5133 25.0721 48.8556 25.7928 47.4862 27.1622C46.4772 28.1712 45.8286 29.3964 45.5403 30.6937H59.3781Z" stroke="#FAF5F6" stroke-miterlimit="10"/>
<path d="M25.5766 55.4864C24.4956 55.0539 23.7748 54.6936 23.3424 54.2611C22.4775 53.4684 22.1172 52.4593 22.1172 51.3062C22.1172 50.153 22.5496 49.144 23.4145 48.2792C25.0721 46.5494 27.3064 45.6846 30.0451 45.6846C33.0001 45.6846 35.5226 46.8377 37.6127 49.2161C37.8289 49.4323 37.901 49.7206 37.901 50.0089C37.901 50.3693 37.7568 50.7296 37.4685 51.0179C37.1802 51.3062 36.892 51.4503 36.4595 51.4503C36.0271 51.4503 35.7388 51.3062 35.5226 51.09C35.3064 50.8738 35.0902 50.6575 35.0181 50.5855C33.6487 49.2161 31.9911 48.4954 30.0451 48.4954C28.0992 48.4954 26.5857 49.072 25.3604 50.2972C25.0721 50.6575 24.928 51.0179 24.928 51.5224C24.928 52.099 25.2163 52.4593 25.7929 52.6756L34.4415 55.5584C35.5226 55.9909 36.2433 56.3512 36.6757 56.7837C37.5406 57.5765 37.901 58.5855 37.901 59.7386C37.901 60.8918 37.4685 61.9008 36.6037 62.7656C34.946 64.4954 32.7118 65.3602 29.973 65.3602C27.0181 65.3602 24.4956 64.2071 22.4055 61.8287C22.2613 61.6125 22.1172 61.3242 22.1172 61.0359C22.1172 60.6756 22.2613 60.3152 22.5496 60.0269C22.8379 59.7386 23.1262 59.5945 23.5586 59.5945C23.9911 59.5945 24.2793 59.7386 24.4956 59.9548C24.7118 60.1711 24.928 60.3873 25.0001 60.4593C26.3694 61.8287 28.0271 62.5494 29.973 62.5494C31.919 62.5494 33.4325 61.9729 34.6577 60.7476C34.946 60.3873 35.0902 60.0269 35.0902 59.5224C35.0902 58.9458 34.8019 58.5855 34.2253 58.3693L25.5766 55.4864Z" fill="#FAF5F6"/>
<path d="M55.9909 60.5315C56.3513 60.5315 56.7116 60.6756 56.9999 60.9639C57.2882 61.2522 57.4323 61.5405 57.4323 61.9729C57.4323 62.4053 57.2882 62.6936 56.9999 62.9819C55.1981 64.5675 53.0359 65.3603 50.5855 65.3603C47.8468 65.3603 45.5404 64.4234 43.6666 62.4774C41.7206 60.5315 40.7837 58.2252 40.7837 55.4864C40.7837 52.7477 41.7206 50.4414 43.6666 48.4954C45.6125 46.5495 47.9188 45.6125 50.5855 45.6125C53.3242 45.6125 55.6305 46.5495 57.5765 48.4954C59.5224 50.4414 60.4594 52.7477 60.4594 55.4864C60.4594 55.8468 60.3152 56.2071 60.0269 56.4954C59.7386 56.7837 59.4504 56.9279 59.0179 56.9279H43.6666C43.9549 58.2972 44.6035 59.4504 45.6125 60.4594C46.9819 61.8288 48.6395 62.5495 50.5855 62.5495C52.3152 62.5495 53.8287 61.9729 55.126 60.8918C55.3422 60.6035 55.6305 60.5315 55.9909 60.5315ZM57.5044 54.045C57.2161 52.6756 56.5675 51.5225 55.5585 50.5134C54.1891 49.1441 52.5314 48.4234 50.5855 48.4234C48.6395 48.4234 46.9819 49.1441 45.6125 50.5134C44.6035 51.5225 43.9549 52.7477 43.6666 54.045H57.5044Z" fill="#FAF5F6"/>
<path d="M25.5766 55.4864C24.4956 55.0539 23.7748 54.6936 23.3424 54.2611C22.4775 53.4684 22.1172 52.4593 22.1172 51.3062C22.1172 50.153 22.5496 49.144 23.4145 48.2792C25.0721 46.5494 27.3064 45.6846 30.0451 45.6846C33.0001 45.6846 35.5226 46.8377 37.6127 49.2161C37.8289 49.4323 37.901 49.7206 37.901 50.0089C37.901 50.3693 37.7568 50.7296 37.4685 51.0179C37.1802 51.3062 36.892 51.4503 36.4595 51.4503C36.0271 51.4503 35.7388 51.3062 35.5226 51.09C35.3064 50.8738 35.0902 50.6575 35.0181 50.5855C33.6487 49.2161 31.9911 48.4954 30.0451 48.4954C28.0992 48.4954 26.5857 49.072 25.3604 50.2972C25.0721 50.6575 24.928 51.0179 24.928 51.5224C24.928 52.099 25.2163 52.4593 25.7929 52.6756L34.4415 55.5584C35.5226 55.9909 36.2433 56.3512 36.6757 56.7837C37.5406 57.5765 37.901 58.5855 37.901 59.7386C37.901 60.8918 37.4685 61.9008 36.6037 62.7656C34.946 64.4954 32.7118 65.3602 29.973 65.3602C27.0181 65.3602 24.4956 64.2071 22.4055 61.8287C22.2613 61.6125 22.1172 61.3242 22.1172 61.0359C22.1172 60.6756 22.2613 60.3152 22.5496 60.0269C22.8379 59.7386 23.1262 59.5945 23.5586 59.5945C23.9911 59.5945 24.2793 59.7386 24.4956 59.9548C24.7118 60.1711 24.928 60.3873 25.0001 60.4593C26.3694 61.8287 28.0271 62.5494 29.973 62.5494C31.919 62.5494 33.4325 61.9729 34.6577 60.7476C34.946 60.3873 35.0902 60.0269 35.0902 59.5224C35.0902 58.9458 34.8019 58.5855 34.2253 58.3693L25.5766 55.4864Z" stroke="#FAF5F6" stroke-miterlimit="10"/>
<path d="M55.9909 60.5315C56.3513 60.5315 56.7116 60.6756 56.9999 60.9639C57.2882 61.2522 57.4323 61.5405 57.4323 61.9729C57.4323 62.4053 57.2882 62.6936 56.9999 62.9819C55.1981 64.5675 53.0359 65.3603 50.5855 65.3603C47.8468 65.3603 45.5404 64.4234 43.6666 62.4774C41.7206 60.5315 40.7837 58.2252 40.7837 55.4864C40.7837 52.7477 41.7206 50.4414 43.6666 48.4954C45.6125 46.5495 47.9188 45.6125 50.5855 45.6125C53.3242 45.6125 55.6305 46.5495 57.5765 48.4954C59.5224 50.4414 60.4594 52.7477 60.4594 55.4864C60.4594 55.8468 60.3152 56.2071 60.0269 56.4954C59.7386 56.7837 59.4504 56.9279 59.0179 56.9279H43.6666C43.9549 58.2972 44.6035 59.4504 45.6125 60.4594C46.9819 61.8288 48.6395 62.5495 50.5855 62.5495C52.3152 62.5495 53.8287 61.9729 55.126 60.8918C55.3422 60.6035 55.6305 60.5315 55.9909 60.5315ZM57.5044 54.045C57.2161 52.6756 56.5675 51.5225 55.5585 50.5134C54.1891 49.1441 52.5314 48.4234 50.5855 48.4234C48.6395 48.4234 46.9819 49.1441 45.6125 50.5134C44.6035 51.5225 43.9549 52.7477 43.6666 54.045H57.5044Z" stroke="#FAF5F6" stroke-miterlimit="10"/>
</svg>
