<svg width="500" height="500" viewBox="0 0 500 500" fill="none" xmlns="http://www.w3.org/2000/svg">
<path d="M170.749 260.85C183.073 251.14 197.428 246.357 214.102 246.357C233.096 246.357 249.336 252.734 263.111 265.632C269.925 272.01 274.999 278.966 278.334 286.793C281.669 294.618 283.409 303.025 283.409 312.155C283.409 330.416 276.595 345.924 263.111 358.678C249.481 371.577 233.096 377.953 214.102 377.953C194.963 377.953 178.723 371.577 165.094 358.678C151.609 345.779 144.795 330.416 144.795 312.155V202.299C144.795 198.821 145.955 195.922 148.42 193.603C150.885 191.284 153.929 190.125 157.699 190.125C161.324 190.125 164.369 191.284 166.979 193.603C169.444 195.922 170.749 198.821 170.749 202.299V260.85ZM214.102 353.169C220.047 353.169 225.702 352.011 231.066 349.837C236.286 347.662 240.926 344.619 244.841 340.851C248.756 337.083 251.801 332.735 254.12 327.807C256.44 322.88 257.455 317.518 257.455 311.866C257.455 306.213 256.295 300.996 254.12 295.923C251.801 290.996 248.756 286.647 244.841 282.88C240.926 279.111 236.286 276.213 231.066 273.894C225.847 271.719 220.192 270.561 214.102 270.561C208.012 270.561 202.357 271.719 196.993 273.894C191.773 276.068 187.133 279.111 183.218 282.735C179.303 286.502 176.259 290.851 173.939 295.778C171.619 300.85 170.604 306.068 170.604 311.72C170.604 317.373 171.764 322.735 173.939 327.663C176.259 332.735 179.303 337.083 183.218 340.706C187.133 344.475 191.628 347.373 196.993 349.547C202.357 352.156 208.012 353.169 214.102 353.169Z" fill="#FAF5F6" stroke="#FAF5F6" stroke-width="32" stroke-miterlimit="10"/>
<path d="M350.253 215.343C346.772 207.806 342.133 201.429 336.188 195.922C330.242 190.415 323.428 186.067 315.599 182.878C307.769 179.69 299.649 178.096 290.949 178.096C276.159 178.096 263.255 182.154 252.236 190.125V133.748C252.091 130.269 250.786 127.371 248.321 125.052C245.856 122.733 242.811 121.429 239.186 121.429C235.707 121.429 232.662 122.588 230.052 125.052C227.587 127.371 226.282 130.414 226.282 133.748V222.299C235.707 222.589 244.986 225.343 253.541 229.546C253.976 227.951 254.556 226.502 255.136 225.053C257.166 220.56 259.921 216.647 263.546 213.314C267.025 209.98 271.231 207.371 275.87 205.342C280.509 203.458 285.585 202.444 290.949 202.444C296.17 202.444 301.244 203.458 305.883 205.342C310.524 207.227 314.728 209.98 318.209 213.314C321.688 216.647 324.443 220.56 326.618 225.053C328.647 229.546 329.663 234.183 329.663 239.256V296.938C329.663 300.416 330.968 303.314 333.433 305.633C335.898 307.952 338.942 309.257 342.568 309.257C346.047 309.257 349.093 308.097 351.702 305.633C354.167 303.314 355.472 300.27 355.617 296.938V239.256C355.472 230.85 353.732 222.879 350.253 215.343Z" fill="#FAF5F6" stroke="#FAF5F6" stroke-width="32" stroke-miterlimit="10"/>
<path d="M342.423 355.424C350.67 355.424 357.358 349.066 357.358 341.221C357.358 333.378 350.67 327.02 342.423 327.02C334.174 327.02 327.489 333.378 327.489 341.221C327.489 349.066 334.174 355.424 342.423 355.424Z" fill="#FAF5F6"/>
<path d="M156.684 169.044C164.932 169.044 171.619 162.685 171.619 154.841C171.619 146.997 164.932 140.638 156.684 140.638C148.436 140.638 141.75 146.997 141.75 154.841C141.75 162.685 148.436 169.044 156.684 169.044Z" stroke="#FAF5F6" stroke-width="3" stroke-miterlimit="10"/>
</svg>
