<svg width="500" height="369" viewBox="0 0 500 369" fill="none" xmlns="http://www.w3.org/2000/svg">
<g clip-path="url(#clip0_904_291)">
<path d="M141.105 253.163C141.105 272.504 141.105 291.848 141.105 311.195C141.133 314.569 141.685 317.917 142.741 321.122C144.721 327.31 149.406 330.35 155.452 331.676C156.627 331.976 157.83 332.151 159.041 332.198C160.226 332.198 160.279 332.764 160.296 333.674C160.314 334.585 160.022 334.991 159.085 334.894C158.732 334.876 158.378 334.876 158.025 334.894C137.175 334.894 116.319 334.894 95.4575 334.894C94.715 334.894 93.5747 335.336 93.2918 334.496C93.0089 333.656 92.6288 332.357 94.6442 332.18C98.9934 331.8 103.166 330.722 106.587 327.707C109.84 324.843 111.006 321.06 111.837 316.985C112.571 313.308 112.359 309.604 112.359 305.909C112.359 275.029 112.338 244.149 112.297 213.269C112.375 208.997 111.198 204.795 108.911 201.185C106.136 196.916 101.919 195.581 97.305 194.865C96.9514 194.812 96.589 194.865 96.2354 194.865C95.042 194.662 93.2918 195.139 93.2564 193.194C93.2564 191.02 95.0244 191.709 96.2265 191.709C110.255 191.709 124.275 191.753 138.294 191.621C140.761 191.621 141.158 192.39 141.15 194.626C141.061 214.144 141.097 233.662 141.097 253.189L141.105 253.163Z" fill="#FAF5F6"/>
<path d="M123.258 178.335C113.853 178.335 104.456 178.335 95.0596 178.335C94.3347 178.335 93.1502 178.901 93.1767 177.31C93.1767 176.001 93.9369 175.816 95.0684 175.683C106.312 174.313 114.33 168.797 118.255 157.809C120.406 151.406 121.818 144.777 122.462 138.053C122.56 137.248 122.135 136.17 123.656 136.285C125.176 136.4 124.54 137.567 124.54 138.291C125.424 146.38 126.803 154.291 130.374 161.725C133.945 169.159 140.38 173.093 148.106 175.109C149.326 175.436 150.573 175.993 151.943 175.736C153.056 175.551 153.843 175.957 153.852 177.283C153.852 178.839 152.694 178.335 151.952 178.335C142.393 178.353 132.828 178.353 123.258 178.335Z" fill="#FAF5F6"/>
<path d="M378.671 292.958C378.723 291.751 378.333 290.566 377.575 289.626C372.925 283.853 368.346 278.019 363.643 272.282C361.23 269.33 359.179 266.05 356.298 263.487C355.175 260.994 353.018 259.288 351.498 257.104L344.559 248.38C339.918 242.537 335.295 236.685 330.619 230.877C327.339 226.811 323.971 222.815 320.647 218.793C319.931 217.105 318.429 216.018 317.43 214.542C311.82 207.47 306.2 200.398 300.573 193.326C299.874 192.442 299.229 191.629 297.823 191.638C282.867 191.726 267.919 191.726 252.962 191.762C252.532 191.677 252.091 191.653 251.654 191.691C250.964 191.841 249.771 191.046 249.753 192.646C249.753 193.892 250.337 194.316 251.521 194.361C252.538 194.405 253.466 195.085 254.545 194.891C259.041 196.474 263.318 198.622 267.274 201.282L272.109 205.56C274.823 208.539 277.536 211.501 280.065 214.612C283.432 218.696 286.358 223.16 290.177 226.882C291.192 228.94 292.646 230.751 294.438 232.185C294.428 232.62 294.587 233.041 294.88 233.361C297.532 236.482 300.184 239.602 302.685 242.793C309.757 251.633 316.814 260.496 323.856 269.383C324.276 270.307 324.975 271.076 325.854 271.584C325.875 271.524 325.908 271.47 325.951 271.425L325.854 271.584C325.774 272.176 326.155 272.538 326.49 272.954C330.521 277.851 334.561 282.739 338.521 287.69C344.85 295.583 351.118 303.53 357.411 311.451L359.922 314.677C364.819 320.865 369.699 327.053 374.622 333.24C375.374 334.186 376.213 335.318 377.672 334.823C379.131 334.328 378.556 333.055 378.556 332.082C378.644 319.044 378.618 306.005 378.671 292.958Z" fill="#FAF5F6"/>
<path d="M407.382 192.514C407.179 190.896 405.853 191.709 405.093 191.701C395.864 191.639 386.644 191.656 377.416 191.656H348.952C348.068 191.656 347.025 191.4 346.937 192.699C346.857 193.822 347.918 193.822 348.616 193.99C350.128 194.344 351.701 194.45 353.195 194.874C360.267 196.81 366.295 200.31 369.84 207.064C373.809 214.622 375.586 222.763 376.028 231.24C376.072 232.257 375.807 233.636 377.345 233.671C378.883 233.707 378.671 232.363 378.671 231.329C378.671 225.804 379.944 220.491 381.508 215.267C383.117 209.901 385.274 204.827 389.774 200.982C394.073 197.215 399.434 194.871 405.119 194.273C406.021 194.114 407.612 194.291 407.382 192.514Z" fill="#FAF5F6"/>
<path d="M290.752 333.249C290.752 319.495 290.752 305.746 290.752 292.004C290.819 291.659 290.815 291.304 290.741 290.96C290.666 290.617 290.523 290.292 290.319 290.006C288.604 288.026 286.968 285.975 285.324 283.933C279.234 276.34 273.196 268.702 267.035 261.162C263.614 256.963 260.609 252.428 256.746 248.61C256.551 247.284 255.499 246.647 254.58 245.914C253.112 243.182 250.903 241.025 249.02 238.612C243.716 231.859 238.509 225.087 233.029 218.502C229.573 214.338 226.532 209.821 222.66 206.011C222.474 204.677 221.414 204.049 220.485 203.315C218.399 199.665 215.252 196.809 212.901 193.371C211.858 191.85 210.541 191.603 208.861 191.603C192.184 191.65 175.503 191.65 158.82 191.603C158.29 191.603 157.75 191.647 157.229 191.603C156.345 191.523 155.974 191.868 156 192.805C156.027 193.742 156 194.211 157.238 194.308C159.925 194.505 162.598 194.853 165.246 195.351C171.866 196.46 177.997 199.541 182.837 204.191C189.485 210.643 195.036 217.998 200.906 225.096C206.05 231.284 211.053 237.649 216.066 243.978C221.917 251.359 227.69 258.811 233.542 266.192C238.845 272.883 244.149 279.557 249.594 286.161C253.015 290.324 255.95 294.885 259.813 298.678C260.016 300.003 261.05 300.64 261.979 301.374C262.032 301.63 261.979 301.957 262.138 302.134C267.088 308.257 272.044 314.371 277.006 320.476C277.434 321.399 278.138 322.165 279.021 322.668C281.603 326.938 285.103 330.491 288.047 334.478C288.613 335.238 289.558 334.929 290.274 334.779C290.99 334.628 290.752 333.78 290.752 333.249Z" fill="#FAF5F6"/>
<path d="M315.308 175.665C314.18 175.576 313.06 175.401 311.958 175.144C306.292 173.835 301.633 171.113 299.477 165.42C298.333 162.427 297.734 159.254 297.709 156.05C297.709 139.255 297.647 122.504 297.709 105.735C297.709 102.075 297.709 98.6631 294.588 95.9582C293.781 95.1757 293.045 94.3238 292.387 93.4123C287.083 86.6412 281.732 79.8936 276.334 73.1696C271.764 67.4326 267.141 61.7841 262.553 56.0648C257.311 49.4881 252.114 42.8496 246.89 36.2729C246.439 35.716 246.006 34.832 244.963 35.1944H199.686C199.579 35.2566 199.462 35.3014 199.341 35.327L199.686 35.1944C199.266 35.1172 198.838 35.0964 198.413 35.1325C197.723 35.2828 196.557 34.5138 196.504 36.0165C196.451 37.5193 197.308 37.9612 198.634 37.6518L199.597 37.7756L203.345 39.0132C205.866 40.0487 208.325 41.2293 210.709 42.549C219.151 47.7202 224.852 55.5698 231.04 62.9951C237.228 70.4204 242.691 77.9076 248.578 85.2887C254.465 92.6698 260.547 100.219 266.637 107.6C268.717 110.057 269.757 113.228 269.537 116.44C269.059 130.062 269.82 143.701 269.024 157.341C268.405 167.825 262.721 174.551 252.388 175.639C251.194 175.771 249.577 175.347 249.815 177.318C250.054 179.29 251.663 178.264 252.618 178.273C266.372 178.335 280.127 178.273 293.89 178.273C300.962 178.273 308.086 178.273 315.185 178.273C315.857 178.273 316.891 178.706 316.864 177.301C316.847 176.284 316.431 175.745 315.308 175.665Z" fill="#FAF5F6"/>
<path d="M222.006 175.709C222.006 162.674 222.006 149.635 222.006 136.594C222.084 135.545 221.803 134.501 221.21 133.633C217.577 129.054 213.9 124.519 210.231 119.966C205.647 114.274 201.059 108.581 196.468 102.888C190.463 95.3863 184.452 87.8726 178.435 80.3471C177.709 79.1944 176.877 78.1114 175.951 77.1118C175.684 76.6604 175.389 76.2264 175.067 75.8124C170.418 70.0578 165.724 64.3208 161.083 58.5839C156.442 52.847 151.678 46.8272 146.94 40.9488C145.72 39.8173 145.172 38.0759 143.722 37.1831C143.085 36.1754 142.838 34.6285 141.07 35.1942C125.636 35.1706 110.202 35.1382 94.768 35.097C92.1868 35.097 93 36.3787 93.7072 37.6516L95.8022 37.7665C96.3237 38.6947 97.2519 38.0759 97.9502 38.3234C98.7159 38.9298 99.6609 39.2656 100.637 39.2781C110.883 43.583 118.193 51.247 124.761 59.9187C130.516 67.5031 136.703 74.7781 142.644 82.1858L166.272 111.905C166.612 112.55 167.071 113.126 167.624 113.602L183.456 133.5C183.636 133.835 183.876 134.135 184.163 134.384L206.148 161.981C210.249 167.046 214.395 172.085 218.523 177.159C219.257 178.043 220.097 178.706 221.228 178.264C222.359 177.822 222.006 176.637 222.006 175.709Z" fill="#FAF5F6"/>
<path d="M190.05 290.466C190.121 274.015 190.104 257.556 190.104 241.105C190.104 238.542 190.104 235.978 190.104 233.415C190.104 231.434 189.087 231.974 188.062 232.663L185.94 241.706C185.351 242.944 184.779 244.181 184.225 245.419L182.068 248.601C180.733 250.44 179.116 252.057 177.277 253.392C176.393 253.931 175.571 254.541 174.625 255.01C166.829 259.076 158.334 260.455 149.733 261.401C149.017 261.489 147.965 261.109 148.036 262.426C148.036 263.381 148.743 263.505 149.521 263.54C153.34 263.769 157.136 264.301 160.871 265.131C171.107 267.226 180.203 271.08 185.224 281.122C185.51 282.796 186.062 284.414 186.859 285.913C186.665 287.062 187.275 288.035 187.513 289.087C187.664 290.448 186.842 292.207 189.016 292.737C191.12 292.782 190.042 291.182 190.05 290.466Z" fill="#FAF5F6"/>
<path d="M312.055 38.3502C312.365 39.1722 313.134 38.6684 313.646 38.8894C313.788 39.4993 314.327 39.3048 314.716 39.4286L318.411 42.5844C319.021 44.7324 320.046 46.7301 320.099 49.0638C320.267 56.3212 317.014 62.3852 313.567 68.3873C313.001 69.3685 312.25 70.0491 313.567 70.9331C314.884 71.8171 315.335 70.4911 315.715 69.8458C318.468 65.4298 321.635 61.286 325.173 57.4703C332.225 49.3767 341.053 43.0235 350.967 38.9071C353.443 38.1822 356.094 38.0231 358.402 36.7237C359.171 34.664 357.597 35.1414 356.634 35.1414C339.65 35.1414 322.672 35.1414 305.7 35.1414C304.922 35.1414 303.587 34.443 303.56 36.1668C303.534 37.8905 304.904 37.0507 305.673 37.2187" fill="#FAF5F6"/>
</g>
<defs>
<clipPath id="clip0_904_291">
<rect width="314.409" height="300" fill="white" transform="translate(93 35)"/>
</clipPath>
</defs>
</svg>
