<svg width="56" height="56" viewBox="0 0 56 56" fill="none" xmlns="http://www.w3.org/2000/svg">
<circle cx="28" cy="28" r="28" fill="#FAF5F6"/>
<path d="M34.3649 15.4414C34.3649 15.0811 34.509 14.7207 34.7973 14.4324C35.0856 14.1441 35.3739 14 35.8063 14C36.2387 14 36.527 14.1441 36.8153 14.4324C37.1036 14.7207 37.2477 15.009 37.2477 15.4414V32.3063C37.2477 35.045 36.3108 37.3513 34.3649 39.2973C32.4189 41.2432 30.1126 42.1802 27.3739 42.1802C24.6351 42.1802 22.3288 41.2432 20.3829 39.2973C18.4369 37.3513 17.5 35.045 17.5 32.3063C17.5 29.5676 18.4369 27.2613 20.3829 25.3153C22.3288 23.3694 24.6351 22.4324 27.3739 22.4324C30.1126 22.4324 32.4189 23.3694 34.3649 25.3153L34.4369 25.3874V15.4414H34.3649ZM34.3649 32.3063C34.3649 30.3604 33.6441 28.7027 32.2748 27.3333C30.9054 25.964 29.2477 25.2432 27.3018 25.2432C25.3559 25.2432 23.6982 25.964 22.3288 27.3333C20.9595 28.7027 20.2387 30.3604 20.2387 32.3063C20.2387 34.2523 20.9595 35.9099 22.3288 37.2793C23.6982 38.6486 25.3559 39.3694 27.3018 39.3694C29.2477 39.3694 30.9054 38.6486 32.2748 37.2793C33.6441 35.9099 34.3649 34.2523 34.3649 32.3063Z" fill="#0E0F25"/>
</svg>
