<svg width="500" height="500" viewBox="0 0 500 500" fill="none" xmlns="http://www.w3.org/2000/svg">
<g clip-path="url(#clip0_904_291)">
<path d="M141.105 318.163C141.105 337.504 141.105 356.848 141.105 376.195C141.133 379.569 141.685 382.917 142.741 386.122C144.721 392.31 149.406 395.35 155.452 396.676C156.627 396.976 157.83 397.151 159.041 397.198C160.226 397.198 160.279 397.764 160.296 398.674C160.314 399.585 160.022 399.991 159.085 399.894C158.732 399.876 158.378 399.876 158.025 399.894C137.175 399.894 116.319 399.894 95.4575 399.894C94.715 399.894 93.5747 400.336 93.2918 399.496C93.0089 398.656 92.6288 397.357 94.6442 397.18C98.9934 396.8 103.166 395.722 106.587 392.707C109.84 389.843 111.006 386.06 111.837 381.985C112.571 378.308 112.359 374.604 112.359 370.909C112.359 340.029 112.338 309.149 112.297 278.269C112.375 273.997 111.198 269.795 108.911 266.185C106.136 261.916 101.919 260.581 97.305 259.865C96.9514 259.812 96.589 259.865 96.2354 259.865C95.042 259.662 93.2918 260.139 93.2564 258.194C93.2564 256.02 95.0244 256.709 96.2265 256.709C110.255 256.709 124.275 256.753 138.294 256.621C140.761 256.621 141.158 257.39 141.15 259.626C141.061 279.144 141.097 298.662 141.097 318.189L141.105 318.163Z" fill="#FAF5F6"/>
<path d="M123.258 243.335C113.853 243.335 104.456 243.335 95.0596 243.335C94.3347 243.335 93.1502 243.901 93.1767 242.31C93.1767 241.001 93.9369 240.816 95.0684 240.683C106.312 239.313 114.33 233.797 118.255 222.809C120.406 216.406 121.818 209.777 122.462 203.053C122.56 202.248 122.135 201.17 123.656 201.285C125.176 201.4 124.54 202.567 124.54 203.291C125.424 211.38 126.803 219.291 130.374 226.725C133.945 234.159 140.38 238.093 148.106 240.109C149.326 240.436 150.573 240.993 151.943 240.736C153.056 240.551 153.843 240.957 153.852 242.283C153.852 243.839 152.694 243.335 151.952 243.335C142.393 243.353 132.828 243.353 123.258 243.335Z" fill="#FAF5F6"/>
<path d="M378.671 357.958C378.723 356.751 378.333 355.566 377.575 354.626C372.925 348.853 368.346 343.019 363.643 337.282C361.23 334.33 359.179 331.05 356.298 328.487C355.175 325.994 353.018 324.288 351.498 322.104L344.559 313.38C339.918 307.537 335.295 301.685 330.619 295.877C327.339 291.811 323.971 287.815 320.647 283.793C319.931 282.105 318.429 281.018 317.43 279.542C311.82 272.47 306.2 265.398 300.573 258.326C299.874 257.442 299.229 256.629 297.823 256.638C282.867 256.726 267.919 256.726 252.962 256.762C252.532 256.677 252.091 256.653 251.654 256.691C250.964 256.841 249.771 256.046 249.753 257.646C249.753 258.892 250.337 259.316 251.521 259.361C252.538 259.405 253.466 260.085 254.545 259.891C259.041 261.474 263.318 263.622 267.274 266.282L272.109 270.56C274.823 273.539 277.536 276.501 280.065 279.612C283.432 283.696 286.358 288.16 290.177 291.882C291.192 293.94 292.646 295.751 294.438 297.185C294.428 297.62 294.587 298.041 294.88 298.361C297.532 301.482 300.184 304.602 302.685 307.793C309.757 316.633 316.814 325.496 323.856 334.383C324.276 335.307 324.975 336.076 325.854 336.584C325.875 336.524 325.908 336.47 325.951 336.425L325.854 336.584C325.774 337.176 326.155 337.538 326.49 337.954C330.521 342.851 334.561 347.739 338.521 352.69C344.85 360.583 351.118 368.53 357.411 376.451L359.922 379.677C364.819 385.865 369.699 392.053 374.622 398.24C375.374 399.186 376.213 400.318 377.672 399.823C379.131 399.328 378.556 398.055 378.556 397.082C378.644 384.044 378.618 371.005 378.671 357.958Z" fill="#FAF5F6"/>
<path d="M407.382 257.514C407.179 255.896 405.853 256.709 405.093 256.701C395.864 256.639 386.644 256.656 377.416 256.656H348.952C348.068 256.656 347.025 256.4 346.937 257.699C346.857 258.822 347.918 258.822 348.616 258.99C350.128 259.344 351.701 259.45 353.195 259.874C360.267 261.81 366.295 265.31 369.84 272.064C373.809 279.622 375.586 287.763 376.028 296.24C376.072 297.257 375.807 298.636 377.345 298.671C378.883 298.707 378.671 297.363 378.671 296.329C378.671 290.804 379.944 285.491 381.508 280.267C383.117 274.901 385.274 269.827 389.774 265.982C394.073 262.215 399.434 259.871 405.119 259.273C406.021 259.114 407.612 259.291 407.382 257.514Z" fill="#FAF5F6"/>
<path d="M290.752 398.249C290.752 384.495 290.752 370.746 290.752 357.004C290.819 356.659 290.815 356.304 290.741 355.96C290.666 355.617 290.523 355.292 290.319 355.006C288.604 353.026 286.968 350.975 285.324 348.933C279.234 341.34 273.196 333.702 267.035 326.162C263.614 321.963 260.609 317.428 256.746 313.61C256.551 312.284 255.499 311.647 254.58 310.914C253.112 308.182 250.903 306.025 249.02 303.612C243.716 296.859 238.509 290.087 233.029 283.502C229.573 279.338 226.532 274.821 222.66 271.011C222.474 269.677 221.414 269.049 220.485 268.315C218.399 264.665 215.252 261.809 212.901 258.371C211.858 256.85 210.541 256.603 208.861 256.603C192.184 256.65 175.503 256.65 158.82 256.603C158.29 256.603 157.75 256.647 157.229 256.603C156.345 256.523 155.974 256.868 156 257.805C156.027 258.742 156 259.211 157.238 259.308C159.925 259.505 162.598 259.853 165.246 260.351C171.866 261.46 177.997 264.541 182.837 269.191C189.485 275.643 195.036 282.998 200.906 290.096C206.05 296.284 211.053 302.649 216.066 308.978C221.917 316.359 227.69 323.811 233.542 331.192C238.845 337.883 244.149 344.557 249.594 351.161C253.015 355.324 255.95 359.885 259.813 363.678C260.016 365.003 261.05 365.64 261.979 366.374C262.032 366.63 261.979 366.957 262.138 367.134C267.088 373.257 272.044 379.371 277.006 385.476C277.434 386.399 278.138 387.165 279.021 387.668C281.603 391.938 285.103 395.491 288.047 399.478C288.613 400.238 289.558 399.929 290.274 399.779C290.99 399.628 290.752 398.78 290.752 398.249Z" fill="#FAF5F6"/>
<path d="M315.308 240.665C314.18 240.576 313.06 240.401 311.958 240.144C306.292 238.835 301.633 236.113 299.477 230.42C298.333 227.427 297.734 224.254 297.709 221.05C297.709 204.255 297.647 187.504 297.709 170.735C297.709 167.075 297.709 163.663 294.588 160.958C293.781 160.176 293.045 159.324 292.387 158.412C287.083 151.641 281.732 144.894 276.334 138.17C271.764 132.433 267.141 126.784 262.553 121.065C257.311 114.488 252.114 107.85 246.89 101.273C246.439 100.716 246.006 99.832 244.963 100.194H199.686C199.579 100.257 199.462 100.301 199.341 100.327L199.686 100.194C199.266 100.117 198.838 100.096 198.413 100.133C197.723 100.283 196.557 99.5138 196.504 101.017C196.451 102.519 197.308 102.961 198.634 102.652L199.597 102.776L203.345 104.013C205.866 105.049 208.325 106.229 210.709 107.549C219.151 112.72 224.852 120.57 231.04 127.995C237.228 135.42 242.691 142.908 248.578 150.289C254.465 157.67 260.547 165.219 266.637 172.6C268.717 175.057 269.757 178.228 269.537 181.44C269.059 195.062 269.82 208.701 269.024 222.341C268.405 232.825 262.721 239.551 252.388 240.639C251.194 240.771 249.577 240.347 249.815 242.318C250.054 244.29 251.663 243.264 252.618 243.273C266.372 243.335 280.127 243.273 293.89 243.273C300.962 243.273 308.086 243.273 315.185 243.273C315.857 243.273 316.891 243.706 316.864 242.301C316.847 241.284 316.431 240.745 315.308 240.665Z" fill="#FAF5F6"/>
<path d="M222.006 240.709C222.006 227.674 222.006 214.635 222.006 201.594C222.084 200.545 221.803 199.501 221.21 198.633C217.577 194.054 213.9 189.519 210.231 184.966C205.647 179.274 201.059 173.581 196.468 167.888C190.463 160.386 184.452 152.873 178.435 145.347C177.709 144.194 176.877 143.111 175.951 142.112C175.684 141.66 175.389 141.226 175.067 140.812C170.418 135.058 165.724 129.321 161.083 123.584C156.442 117.847 151.678 111.827 146.94 105.949C145.72 104.817 145.172 103.076 143.722 102.183C143.085 101.175 142.838 99.6285 141.07 100.194C125.636 100.171 110.202 100.138 94.768 100.097C92.1868 100.097 93 101.379 93.7072 102.652L95.8022 102.767C96.3237 103.695 97.2519 103.076 97.9502 103.323C98.7159 103.93 99.6609 104.266 100.637 104.278C110.883 108.583 118.193 116.247 124.761 124.919C130.516 132.503 136.703 139.778 142.644 147.186L166.272 176.905C166.612 177.55 167.071 178.126 167.624 178.602L183.456 198.5C183.636 198.835 183.876 199.135 184.163 199.384L206.148 226.981C210.249 232.046 214.395 237.085 218.523 242.159C219.257 243.043 220.097 243.706 221.228 243.264C222.359 242.822 222.006 241.637 222.006 240.709Z" fill="#FAF5F6"/>
<path d="M190.05 355.466C190.121 339.015 190.104 322.556 190.104 306.105C190.104 303.542 190.104 300.978 190.104 298.415C190.104 296.434 189.087 296.974 188.062 297.663L185.94 306.706C185.351 307.944 184.779 309.181 184.225 310.419L182.068 313.601C180.733 315.44 179.116 317.057 177.277 318.392C176.393 318.931 175.571 319.541 174.625 320.01C166.829 324.076 158.334 325.455 149.733 326.401C149.017 326.489 147.965 326.109 148.036 327.426C148.036 328.381 148.743 328.505 149.521 328.54C153.34 328.769 157.136 329.301 160.871 330.131C171.107 332.226 180.203 336.08 185.224 346.122C185.51 347.796 186.062 349.414 186.859 350.913C186.665 352.062 187.275 353.035 187.513 354.087C187.664 355.448 186.842 357.207 189.016 357.737C191.12 357.782 190.042 356.182 190.05 355.466Z" fill="#FAF5F6"/>
<path d="M312.055 103.35C312.365 104.172 313.134 103.668 313.646 103.889C313.788 104.499 314.327 104.305 314.716 104.429L318.411 107.584C319.021 109.732 320.046 111.73 320.099 114.064C320.267 121.321 317.014 127.385 313.567 133.387C313.001 134.368 312.25 135.049 313.567 135.933C314.884 136.817 315.335 135.491 315.715 134.846C318.468 130.43 321.635 126.286 325.173 122.47C332.225 114.377 341.053 108.023 350.967 103.907C353.443 103.182 356.094 103.023 358.402 101.724C359.171 99.664 357.597 100.141 356.634 100.141C339.65 100.141 322.672 100.141 305.7 100.141C304.922 100.141 303.587 99.443 303.56 101.167C303.534 102.89 304.904 102.051 305.673 102.219" fill="#FAF5F6"/>
</g>
<defs>
<clipPath id="clip0_904_291">
<rect width="314.409" height="300" fill="white" transform="translate(93 100)"/>
</clipPath>
</defs>
</svg>
