<svg width="500" height="369" viewBox="0 0 500 369" fill="none" xmlns="http://www.w3.org/2000/svg">
<path d="M30.6639 165.833C28.9035 165.833 27.3987 165.207 26.1495 163.954C24.9002 162.759 24.2756 160.824 24.2756 158.149C24.2756 156.613 24.5027 154.621 24.957 152.173C25.4681 149.669 26.0927 147.108 26.8309 144.49C27.6259 141.815 28.4493 139.453 29.301 137.404L31.8564 130.489L33.3896 127.587C30.4935 130.034 27.3987 132.282 24.1052 134.331C20.8685 136.323 17.7169 137.916 14.6505 139.112C11.5841 140.307 8.88685 140.904 6.55866 140.904C4.1737 140.904 2.47015 140.478 1.44802 139.624C0.482672 138.77 0 137.717 0 136.465C0 135.042 0.482672 133.477 1.44802 131.77C2.47015 130.062 3.7762 128.412 5.36618 126.818C6.95616 125.225 8.60292 123.944 10.3065 122.977C10.7608 122.692 11.2434 122.521 11.7545 122.464C12.3223 122.408 12.4643 122.464 12.1804 122.635C11.0447 123.546 9.85219 124.684 8.60292 126.05C7.35365 127.359 6.27474 128.782 5.36618 130.319C4.45762 131.855 3.88977 133.42 3.66263 135.014C3.60585 136.266 3.83299 137.262 4.34405 138.002C4.85511 138.685 5.87724 138.998 7.41044 138.941C10.4768 138.77 13.742 137.803 17.2058 136.038C20.6697 134.274 24.1052 132.054 27.5123 129.379C30.9194 126.705 34.0142 123.944 36.7967 121.099L37.2225 120.672C38.1879 118.964 39.1532 117.342 40.1186 115.806C41.1407 114.212 42.0777 112.931 42.9294 111.964C43.7812 110.996 44.4626 110.513 44.9737 110.513C45.3712 110.513 45.8823 110.598 46.5069 110.769C47.1315 110.939 47.671 111.196 48.1253 111.537C48.5795 111.822 48.6931 112.135 48.466 112.476C47.5574 113.728 46.3081 115.521 44.7182 117.854C43.185 120.188 41.5098 122.863 39.6927 125.879C37.9324 128.896 36.2004 132.111 34.4969 135.526C32.8501 138.884 31.4589 142.27 30.3232 145.685C30.0392 146.482 29.6985 147.706 29.301 149.356C28.9035 150.95 28.5628 152.686 28.2789 154.564C27.995 156.385 27.853 158.035 27.853 159.515C27.853 160.767 28.0518 161.792 28.4493 162.589C28.8468 163.385 29.5282 163.784 30.4935 163.784C31.1182 163.784 31.828 163.613 32.623 163.271C33.418 162.93 34.3549 162.389 35.4338 161.649C37.0806 160.568 39.21 158.775 41.8221 156.271C44.491 153.767 47.2735 151.035 50.1695 148.076C54.5987 143.636 59.1132 138.856 63.7127 133.733C68.3123 128.554 72.9403 123.773 77.5967 119.391C81.5716 115.635 85.6033 112.362 89.6919 109.574C93.8372 106.785 98.238 104.793 102.894 103.598C103.803 103.427 104.683 103.285 105.535 103.171C106.443 103.057 107.352 103 108.261 103C109.283 103 110.305 103.085 111.327 103.256C113.371 103.711 114.904 104.679 115.927 106.159C116.949 107.582 117.46 109.289 117.46 111.281C117.46 113.956 116.551 116.858 114.734 119.989C112.917 123.119 110.22 125.908 106.642 128.355C106.358 128.583 106.103 128.696 105.876 128.696C105.705 128.696 105.62 128.611 105.62 128.44C105.62 128.327 105.734 128.127 105.961 127.843C106.188 127.501 106.585 127.16 107.153 126.818C108.743 125.737 110.163 124.371 111.412 122.721C112.661 121.07 113.655 119.334 114.393 117.513C115.132 115.692 115.501 114.013 115.501 112.476C115.501 111.167 115.217 110.029 114.649 109.061C114.081 108.094 113.144 107.411 111.838 107.012C111.157 106.899 110.475 106.813 109.794 106.756C109.169 106.699 108.544 106.671 107.92 106.671C106.5 106.671 105.081 106.87 103.661 107.269C99.8564 108.179 95.8814 109.801 91.7361 112.135C87.6476 114.468 83.701 117.228 79.8965 120.416C76.4326 123.318 73.0823 126.448 69.8455 129.806C66.6088 133.164 63.4856 136.551 60.476 139.965C57.4664 143.38 54.5704 146.653 51.7879 149.783C49.1758 152.742 46.5353 155.503 43.8664 158.064C41.2543 160.568 38.699 162.589 36.2004 164.125C34.4401 165.263 32.5946 165.833 30.6639 165.833Z" fill="white"/>
<path d="M88.9718 134.587C87.9497 134.587 87.4386 134.018 87.4386 132.88C87.4386 132.424 87.5522 131.969 87.7794 131.514C87.9497 131.058 88.5176 130.688 89.4829 130.404C90.4482 130.062 91.4704 129.835 92.5493 129.721C93.685 129.55 94.5652 129.465 95.1898 129.465C95.7009 129.465 95.9564 129.493 95.9564 129.55C95.9564 129.664 95.6725 129.835 95.1046 130.062C94.5368 130.29 93.9405 130.575 93.3159 130.916C92.6913 131.258 92.2654 131.656 92.0382 132.111C91.7543 132.851 91.3 133.449 90.6754 133.904C90.1075 134.359 89.5397 134.587 88.9718 134.587ZM74.4917 164.125C72.9017 164.125 71.5105 163.841 70.318 163.271C69.1255 162.645 68.5293 161.536 68.5293 159.942C68.5293 158.235 68.9551 156.556 69.8069 154.905C70.6587 153.255 71.6808 151.746 72.8733 150.381C74.0658 148.958 75.2299 147.734 76.3656 146.71C77.5581 145.628 78.4382 144.831 79.0061 144.319C78.495 144.205 78.5802 143.693 79.2616 142.783C79.943 141.872 80.9368 141.132 82.2428 140.563C82.5835 140.449 82.8958 140.392 83.1798 140.392C83.8044 140.392 84.429 140.535 85.0537 140.819C85.7351 141.104 86.0758 141.502 86.0758 142.014C86.0758 142.299 85.9622 142.583 85.7351 142.868C85.508 143.153 85.2808 143.38 85.0537 143.551C84.5994 143.892 83.8896 144.49 82.9242 145.344C81.9589 146.197 80.9084 147.165 79.7727 148.246C78.637 149.328 77.5581 150.409 76.5359 151.49C75.5706 152.515 74.804 153.369 74.2361 154.051C72.1351 156.726 71.0846 158.804 71.0846 160.284C71.0846 161.877 72.3622 162.674 74.9176 162.674C77.0186 162.674 79.0629 162.361 81.0503 161.735C83.0946 161.052 84.9969 160.255 86.7572 159.344C89.5397 157.922 92.1234 156.214 94.5084 154.222C96.8933 152.173 99.3635 150.124 101.919 148.076C102.032 148.019 102.174 147.99 102.345 147.99C102.515 147.99 102.6 148.076 102.6 148.246C102.6 148.417 102.487 148.645 102.26 148.929C101.919 149.385 101.209 150.153 100.13 151.234C99.0512 152.259 97.6883 153.425 96.0416 154.734C94.4516 156.043 92.6629 157.352 90.6754 158.661C88.7447 159.914 86.7572 160.995 84.713 161.906C83.634 162.361 82.1009 162.845 80.1134 163.357C78.1827 163.869 76.3088 164.125 74.4917 164.125Z" fill="white"/>
<path d="M109.376 178.382C106.821 178.382 104.975 177.756 103.839 176.504C102.76 175.252 102.221 173.658 102.221 171.723C102.221 169.447 102.817 166.829 104.01 163.869C105.259 160.91 106.877 157.922 108.865 154.905C110.852 151.832 112.982 149.043 115.253 146.539C114.231 146.823 113.266 146.966 112.357 146.966C110.256 146.966 108.581 146.425 107.332 145.344L106.735 146.197C106.338 146.767 105.628 147.563 104.606 148.588C103.641 149.612 102.675 150.523 101.71 151.32C99.2681 153.369 96.6844 155.304 93.9587 157.125C91.2898 158.946 88.6493 160.454 86.0372 161.649C83.4251 162.845 80.9833 163.528 78.7119 163.698C78.4848 163.698 78.2293 163.641 77.9454 163.528C77.6614 163.471 77.5195 163.385 77.5195 163.271C77.5195 163.101 78.0305 162.902 79.0527 162.674C81.0401 162.275 83.2264 161.45 85.6113 160.198C88.0531 158.889 90.5516 157.352 93.1069 155.588C95.719 153.767 98.2176 151.889 100.603 149.954C101.568 149.157 102.59 148.246 103.669 147.222C104.805 146.197 105.798 145.287 106.65 144.49C106.026 143.636 105.713 142.612 105.713 141.417C105.713 140.108 106.054 138.799 106.735 137.49C107.474 136.124 108.41 134.872 109.546 133.733C110.682 132.595 111.874 131.684 113.124 131.001C114.43 130.262 115.622 129.892 116.701 129.892C117.61 129.892 118.064 130.262 118.064 131.001C118.064 131.514 117.837 131.941 117.383 132.282C116.985 132.624 116.304 133.278 115.338 134.246C114.43 135.156 113.436 136.209 112.357 137.404C111.278 138.599 110.313 139.766 109.461 140.904C108.609 141.986 108.07 142.868 107.843 143.551C108.07 143.949 108.382 144.319 108.78 144.661C109.177 144.945 109.944 145.088 111.079 145.088C112.556 145.088 113.947 144.803 115.253 144.234C116.616 143.608 117.894 142.896 119.086 142.1C119.427 141.986 119.739 141.929 120.023 141.929C121.272 141.929 122.181 142.27 122.749 142.953C122.976 143.295 122.692 143.921 121.897 144.831C121.102 145.742 120.307 146.624 119.512 147.478C117.865 149.242 116.19 151.263 114.486 153.539C112.783 155.759 111.221 158.035 109.802 160.369C108.382 162.702 107.246 164.922 106.395 167.028C105.543 169.134 105.117 170.955 105.117 172.491C105.117 173.744 105.458 174.74 106.139 175.479C106.821 176.219 107.956 176.589 109.546 176.589C110.228 176.589 110.994 176.504 111.846 176.333C113.322 176.106 114.998 175.565 116.871 174.711C118.745 173.914 120.619 172.975 122.493 171.894C124.367 170.869 125.957 169.902 127.263 168.991C127.377 168.934 127.49 168.906 127.604 168.906C127.774 168.906 127.859 169.02 127.859 169.247C127.859 169.475 127.746 169.646 127.519 169.76C127.121 170.101 126.213 170.869 124.793 172.065C123.43 173.26 121.698 174.455 119.597 175.65C117.553 176.845 115.253 177.642 112.698 178.041C112.13 178.097 111.562 178.154 110.994 178.211C110.426 178.325 109.887 178.382 109.376 178.382Z" fill="white"/>
<path d="M108.639 199.639C107.163 199.639 105.715 199.44 104.295 199.042C102.819 198.7 101.626 198.074 100.718 197.164C99.7523 196.253 99.2697 195.058 99.2697 193.578C99.2697 191.586 100.093 189.452 101.74 187.175C103.33 184.899 105.772 182.736 109.065 180.687C113.324 178.126 117.526 175.963 121.671 174.199C125.873 172.491 129.99 171.012 134.022 169.76C138.111 168.508 142.086 167.284 145.947 166.089L147.991 165.406C149.07 163.3 149.922 161.109 150.546 158.832C151.171 156.556 151.483 154.592 151.483 152.942C151.483 151.519 151.228 150.466 150.717 149.783C150.206 150.124 149.865 150.466 149.695 150.807C148.9 151.661 147.792 152.799 146.373 154.222C145.01 155.645 143.448 157.096 141.688 158.576C139.984 160.056 138.253 161.308 136.492 162.332C134.732 163.357 133.085 163.869 131.552 163.869C130.814 163.869 130.075 163.698 129.337 163.357C128.656 163.015 128.06 162.475 127.549 161.735C126.924 160.824 126.612 159.8 126.612 158.661C126.612 157.011 127.123 155.218 128.145 153.283C129.224 151.348 130.558 149.47 132.148 147.649C133.795 145.827 135.527 144.234 137.344 142.868C139.218 141.502 140.95 140.535 142.54 139.965C143.051 139.795 143.59 139.652 144.158 139.539C144.783 139.425 145.436 139.368 146.117 139.368C147.707 139.368 149.212 139.709 150.632 140.392C152.108 141.075 152.96 142.299 153.187 144.063V144.319C153.187 144.718 153.073 145.059 152.846 145.344C152.676 145.571 152.506 145.685 152.335 145.685C152.051 145.685 151.909 145.458 151.909 145.002C151.909 144.718 151.824 144.319 151.654 143.807C151.54 143.238 151.228 142.726 150.717 142.27C150.206 141.815 149.439 141.587 148.417 141.587C146.657 141.587 144.698 142.213 142.54 143.466C140.439 144.661 138.395 146.197 136.407 148.076C134.42 149.954 132.744 151.889 131.382 153.881C130.019 155.873 129.224 157.637 128.997 159.174C128.94 159.401 128.911 159.601 128.911 159.771C128.911 159.942 128.911 160.113 128.911 160.284C128.911 161.934 129.536 162.759 130.785 162.759C131.694 162.759 132.744 162.418 133.937 161.735C135.186 160.995 136.35 160.198 137.429 159.344C138.565 158.491 139.36 157.865 139.814 157.466C141.347 156.157 142.937 154.791 144.584 153.369C146.288 151.889 147.934 150.437 149.524 149.015C149.354 148.958 149.269 148.73 149.269 148.332C149.269 147.933 149.496 147.535 149.95 147.136C150.461 146.738 151.285 146.539 152.42 146.539C154.521 146.539 155.572 148.189 155.572 151.49C155.572 153.027 155.316 154.877 154.805 157.039C154.294 159.145 153.471 161.45 152.335 163.954C158.014 161.906 163.068 159.686 167.497 157.296C171.983 154.905 175.503 152.486 178.059 150.039C178.4 149.698 178.911 149.242 179.592 148.673C180.33 148.047 181.068 147.421 181.807 146.795C182.545 146.169 183.169 145.685 183.681 145.344C184.192 145.002 184.447 144.917 184.447 145.088C184.447 145.315 184.248 145.771 183.851 146.454C183.453 147.08 182.545 148.104 181.125 149.527C177.207 153.454 172.693 156.783 167.582 159.515C162.528 162.247 157.446 164.381 152.335 165.918L151.228 166.174C149.127 170.443 146.515 174.569 143.392 178.553C140.268 182.537 136.805 186.094 133 189.224C129.195 192.411 125.22 194.944 121.075 196.822C116.93 198.7 112.784 199.639 108.639 199.639ZM108.128 198.529C112.103 198.473 115.993 197.477 119.797 195.541C123.602 193.663 127.179 191.188 130.53 188.114C133.937 185.098 137.032 181.768 139.814 178.126C142.597 174.54 144.925 171.012 146.799 167.54C141.802 169.02 137.23 170.471 133.085 171.894C128.94 173.317 125.078 174.853 121.501 176.504C117.98 178.154 114.602 180.061 111.365 182.224C107.901 184.5 105.374 186.663 103.784 188.712C102.194 190.761 101.399 192.525 101.399 194.005C101.399 195.371 101.995 196.452 103.188 197.249C104.38 198.103 106.027 198.529 108.128 198.529Z" fill="white"/>
<path d="M194.612 134.587C193.59 134.587 193.079 134.018 193.079 132.88C193.079 132.424 193.192 131.969 193.419 131.514C193.59 131.058 194.158 130.688 195.123 130.404C196.088 130.062 197.11 129.835 198.189 129.721C199.325 129.55 200.205 129.465 200.83 129.465C201.341 129.465 201.596 129.493 201.596 129.55C201.596 129.664 201.312 129.835 200.745 130.062C200.177 130.29 199.581 130.575 198.956 130.916C198.331 131.258 197.905 131.656 197.678 132.111C197.394 132.851 196.94 133.449 196.315 133.904C195.748 134.359 195.18 134.587 194.612 134.587ZM180.132 164.125C178.542 164.125 177.15 163.841 175.958 163.271C174.765 162.645 174.169 161.536 174.169 159.942C174.169 158.235 174.595 156.556 175.447 154.905C176.299 153.255 177.321 151.746 178.513 150.381C179.706 148.958 180.87 147.734 182.006 146.71C183.198 145.628 184.078 144.831 184.646 144.319C184.135 144.205 184.22 143.693 184.902 142.783C185.583 141.872 186.577 141.132 187.883 140.563C188.224 140.449 188.536 140.392 188.82 140.392C189.444 140.392 190.069 140.535 190.694 140.819C191.375 141.104 191.716 141.502 191.716 142.014C191.716 142.299 191.602 142.583 191.375 142.868C191.148 143.153 190.921 143.38 190.694 143.551C190.239 143.892 189.53 144.49 188.564 145.344C187.599 146.197 186.548 147.165 185.413 148.246C184.277 149.328 183.198 150.409 182.176 151.49C181.211 152.515 180.444 153.369 179.876 154.051C177.775 156.726 176.725 158.804 176.725 160.284C176.725 161.877 178.002 162.674 180.558 162.674C182.659 162.674 184.703 162.361 186.69 161.735C188.735 161.052 190.637 160.255 192.397 159.344C195.18 157.922 197.763 156.214 200.148 154.222C202.533 152.173 205.003 150.124 207.559 148.076C207.672 148.019 207.814 147.99 207.985 147.99C208.155 147.99 208.24 148.076 208.24 148.246C208.24 148.417 208.127 148.645 207.9 148.929C207.559 149.385 206.849 150.153 205.77 151.234C204.691 152.259 203.328 153.425 201.682 154.734C200.092 156.043 198.303 157.352 196.315 158.661C194.385 159.914 192.397 160.995 190.353 161.906C189.274 162.361 187.741 162.845 185.753 163.357C183.823 163.869 181.949 164.125 180.132 164.125Z" fill="white"/>
<path d="M200.28 166.089C199.655 166.089 199.343 165.747 199.343 165.064C199.343 164.267 199.741 163.129 200.536 161.649C201.331 160.17 202.239 158.661 203.261 157.125C204.283 155.588 205.135 154.336 205.817 153.369C206.271 152.742 206.896 151.889 207.691 150.807C208.486 149.726 209.309 148.559 210.161 147.307C211.012 145.998 211.722 144.718 212.29 143.466C212.915 142.213 213.227 141.104 213.227 140.136C213.227 139.169 212.915 138.457 212.29 138.002C211.722 137.547 211.438 137.063 211.438 136.551C211.438 136.323 211.552 136.209 211.779 136.209C212.063 136.209 212.404 136.351 212.801 136.636C213.199 136.864 213.625 137.177 214.079 137.575C214.533 137.973 214.959 138.429 215.357 138.941C215.697 139.339 216.038 139.795 216.379 140.307C216.719 140.819 216.89 141.417 216.89 142.1C216.89 142.953 216.577 143.892 215.953 144.917C214.931 146.681 213.738 148.303 212.375 149.783C211.012 151.263 209.621 152.828 208.202 154.478C206.668 156.243 205.277 157.893 204.028 159.43C202.835 160.91 202.097 161.849 201.813 162.247C202.495 161.45 203.602 160.312 205.135 158.832C206.725 157.296 208.514 155.617 210.501 153.795C212.489 151.974 214.476 150.238 216.464 148.588C218.508 146.937 220.297 145.6 221.83 144.575C222.455 144.177 223.25 143.807 224.215 143.466C225.18 143.067 226.117 142.868 227.026 142.868C227.821 142.868 228.474 143.124 228.985 143.636C229.553 144.092 229.837 144.945 229.837 146.197C229.837 147.279 229.61 148.531 229.155 149.954C228.758 151.377 228.304 152.686 227.792 153.881C227.395 154.791 227.083 155.702 226.855 156.613C226.628 157.466 226.515 158.263 226.515 159.003C226.515 160.084 226.799 160.938 227.367 161.564C227.991 162.19 228.928 162.503 230.177 162.503C231.427 162.503 233.017 162.162 234.947 161.479C237.957 160.34 240.967 158.775 243.976 156.783C246.986 154.791 249.711 152.771 252.153 150.722C252.778 150.21 253.346 149.783 253.857 149.441C254.368 149.1 254.907 148.645 255.475 148.076C255.589 148.019 255.702 147.99 255.816 147.99C255.986 147.99 256.071 148.076 256.071 148.246C256.071 148.417 255.986 148.645 255.816 148.929C255.475 149.385 254.652 150.238 253.346 151.49C252.04 152.686 250.421 154.051 248.491 155.588C246.56 157.068 244.459 158.519 242.187 159.942C239.973 161.308 237.73 162.389 235.458 163.186C234.436 163.471 233.357 163.698 232.222 163.869C231.143 164.097 230.092 164.211 229.07 164.211C227.367 164.211 225.89 163.841 224.641 163.101C223.392 162.361 222.767 161.08 222.767 159.259C222.767 158.121 223.051 156.783 223.619 155.247C224.016 154.165 224.442 153.084 224.896 152.003C225.407 150.864 225.748 149.726 225.919 148.588C225.975 148.36 226.004 148.161 226.004 147.99C226.004 147.763 226.004 147.563 226.004 147.393C226.004 146.027 225.521 145.344 224.556 145.344C223.931 145.344 223.164 145.6 222.256 146.112C221.404 146.567 220.638 147.023 219.956 147.478C219.331 147.876 218.309 148.702 216.89 149.954C215.527 151.149 214.05 152.486 212.46 153.966C210.871 155.446 209.366 156.869 207.946 158.235C206.754 159.373 205.618 160.568 204.539 161.82C203.46 163.015 202.552 164.011 201.813 164.808C201.075 165.662 200.564 166.089 200.28 166.089Z" fill="white"/>
<path d="M266.48 134.587C265.458 134.587 264.947 134.018 264.947 132.88C264.947 132.424 265.061 131.969 265.288 131.514C265.458 131.058 266.026 130.688 266.991 130.404C267.957 130.062 268.979 129.835 270.058 129.721C271.193 129.55 272.074 129.465 272.698 129.465C273.209 129.465 273.465 129.493 273.465 129.55C273.465 129.664 273.181 129.835 272.613 130.062C272.045 130.29 271.449 130.575 270.824 130.916C270.2 131.258 269.774 131.656 269.547 132.111C269.263 132.851 268.808 133.449 268.184 133.904C267.616 134.359 267.048 134.587 266.48 134.587ZM252 164.125C250.41 164.125 249.019 163.841 247.826 163.271C246.634 162.645 246.038 161.536 246.038 159.942C246.038 158.235 246.464 156.556 247.315 154.905C248.167 153.255 249.189 151.746 250.382 150.381C251.574 148.958 252.738 147.734 253.874 146.71C255.067 145.628 255.947 144.831 256.515 144.319C256.003 144.205 256.089 143.693 256.77 142.783C257.451 141.872 258.445 141.132 259.751 140.563C260.092 140.449 260.404 140.392 260.688 140.392C261.313 140.392 261.938 140.535 262.562 140.819C263.244 141.104 263.584 141.502 263.584 142.014C263.584 142.299 263.471 142.583 263.244 142.868C263.016 143.153 262.789 143.38 262.562 143.551C262.108 143.892 261.398 144.49 260.433 145.344C259.467 146.197 258.417 147.165 257.281 148.246C256.145 149.328 255.067 150.409 254.044 151.49C253.079 152.515 252.312 153.369 251.745 154.051C249.644 156.726 248.593 158.804 248.593 160.284C248.593 161.877 249.871 162.674 252.426 162.674C254.527 162.674 256.571 162.361 258.559 161.735C260.603 161.052 262.505 160.255 264.266 159.344C267.048 157.922 269.632 156.214 272.017 154.222C274.402 152.173 276.872 150.124 279.427 148.076C279.541 148.019 279.683 147.99 279.853 147.99C280.024 147.99 280.109 148.076 280.109 148.246C280.109 148.417 279.995 148.645 279.768 148.929C279.427 149.385 278.717 150.153 277.639 151.234C276.56 152.259 275.197 153.425 273.55 154.734C271.96 156.043 270.171 157.352 268.184 158.661C266.253 159.914 264.266 160.995 262.221 161.906C261.143 162.361 259.609 162.845 257.622 163.357C255.691 163.869 253.817 164.125 252 164.125Z" fill="white"/>
<path d="M301.024 164.381C299.32 164.381 297.815 163.954 296.509 163.101C295.26 162.247 294.635 160.653 294.635 158.32C294.692 157.125 294.891 155.901 295.232 154.649C295.629 153.34 296.055 152.116 296.509 150.978C295.771 151.832 294.664 152.97 293.187 154.393C291.711 155.816 290.036 157.267 288.162 158.747C286.345 160.17 284.471 161.393 282.54 162.418C280.61 163.442 278.792 163.954 277.089 163.954C275.385 163.954 273.994 163.328 272.915 162.076C272.177 161.28 271.808 160.227 271.808 158.918C271.808 157.267 272.376 155.446 273.511 153.454C274.704 151.405 276.294 149.385 278.281 147.393C280.269 145.344 282.54 143.466 285.096 141.758C287.708 140.051 290.433 138.713 293.273 137.746C296.339 136.664 299.008 136.124 301.279 136.124C305.141 136.124 307.071 137.774 307.071 141.075C307.071 141.36 307.043 141.673 306.986 142.014C306.986 142.299 306.958 142.612 306.901 142.953C306.787 143.636 306.56 144.177 306.22 144.575C305.936 144.974 305.709 145.173 305.538 145.173C305.254 145.173 305.197 144.86 305.368 144.234C305.481 143.949 305.538 143.665 305.538 143.38C305.538 143.039 305.538 142.754 305.538 142.526C305.538 141.616 305.311 140.904 304.857 140.392C304.402 139.823 303.607 139.539 302.472 139.539C301.45 139.539 300.172 139.766 298.639 140.221C297.162 140.62 295.572 141.161 293.869 141.844C292.165 142.47 290.519 143.181 288.929 143.978C287.395 144.775 286.118 145.571 285.096 146.368C283.335 147.62 281.688 149.015 280.155 150.551C278.622 152.088 277.344 153.596 276.322 155.076C275.3 156.499 274.704 157.808 274.534 159.003C274.477 159.174 274.448 159.344 274.448 159.515C274.448 159.686 274.448 159.828 274.448 159.942C274.448 160.966 274.647 161.678 275.045 162.076C275.499 162.475 276.067 162.674 276.748 162.674C277.77 162.674 278.934 162.361 280.24 161.735C281.603 161.109 282.853 160.397 283.988 159.601C285.124 158.804 285.919 158.206 286.373 157.808C288.19 156.271 290.235 154.592 292.506 152.771C294.777 150.893 296.793 149.157 298.554 147.563C298.838 147.393 299.15 147.307 299.491 147.307C300.286 147.307 300.939 147.506 301.45 147.905C301.62 148.076 301.705 148.303 301.705 148.588C301.705 148.872 301.62 149.242 301.45 149.698C301.336 150.096 301.166 150.551 300.939 151.064C299.973 153.055 299.178 154.848 298.554 156.442C297.929 158.035 297.617 159.373 297.617 160.454C297.617 162.162 298.554 163.015 300.427 163.015C301.847 163.015 303.948 162.503 306.731 161.479C309.74 160.34 312.75 158.775 315.759 156.783C318.769 154.791 321.495 152.771 323.936 150.722C324.561 150.21 325.129 149.783 325.64 149.441C326.151 149.1 326.691 148.645 327.258 148.076C327.372 148.019 327.514 147.99 327.684 147.99C327.855 147.99 327.94 148.076 327.94 148.246C327.94 148.417 327.826 148.645 327.599 148.929C327.258 149.385 326.435 150.238 325.129 151.49C323.823 152.686 322.205 154.051 320.274 155.588C318.343 157.068 316.242 158.519 313.971 159.942C311.756 161.308 309.513 162.389 307.242 163.186C306.39 163.471 305.396 163.727 304.26 163.954C303.182 164.239 302.103 164.381 301.024 164.381Z" fill="white"/>
<path d="M275.892 252.097C272.594 252.097 270.148 250.817 268.556 248.257C266.964 245.753 266.168 242.738 266.168 239.211C266.168 231.531 267.703 222.997 270.774 213.61C273.845 204.166 278.309 194.636 284.166 185.022C282.801 185.42 281.038 186.444 278.877 188.094C276.716 189.744 274.328 191.763 271.712 194.153C269.096 196.542 266.452 199.102 263.779 201.833C261.163 204.507 258.661 207.124 256.273 209.684C253.941 212.244 251.923 214.548 250.217 216.597C248.568 218.588 247.43 220.095 246.805 221.119C246.52 221.575 246.065 221.802 245.44 221.802C244.701 221.802 243.933 221.432 243.137 220.693C242.398 219.953 242.028 219.128 242.028 218.218C242.028 217.877 242.454 217.023 243.307 215.658C244.16 214.235 245.184 212.5 246.378 210.452C247.629 208.347 248.795 206.157 249.876 203.881C250.217 203.142 250.7 202.089 251.326 200.724C251.951 199.358 252.577 197.879 253.202 196.286C253.885 194.636 254.453 193.043 254.908 191.507C255.363 189.914 255.591 188.549 255.591 187.411C255.591 186.501 255.42 185.79 255.079 185.278C254.738 184.709 254.169 184.424 253.373 184.424C252.292 184.424 250.785 184.965 248.852 186.046C246.179 187.525 243.364 189.658 240.407 192.446C237.45 195.177 234.493 198.334 231.536 201.918C228.636 205.446 225.878 209.201 223.262 213.183C220.646 217.109 218.343 221.063 216.353 225.045C214.363 228.97 212.827 232.697 211.747 236.224C211.462 236.622 211.036 237.021 210.467 237.419C209.899 237.817 209.33 238.016 208.761 238.016C208.363 238.016 207.994 237.846 207.652 237.504C207.311 237.163 207.141 236.565 207.141 235.712C207.141 235.257 207.283 234.688 207.567 234.005C207.851 233.323 208.136 232.526 208.42 231.616C208.648 230.933 209.358 229.426 210.553 227.093C211.747 224.76 213.254 221.887 215.073 218.474C216.893 215.004 218.855 211.249 220.959 207.209C223.12 203.113 225.224 198.989 227.271 194.835C228.693 191.991 229.887 189.089 230.854 186.131C231.821 183.116 232.304 180.385 232.304 177.939C232.304 175.435 231.536 173.416 230.001 171.88C228.522 170.287 225.878 169.49 222.068 169.49C216.779 169.49 211.235 170.059 205.435 171.197C199.691 172.278 193.919 173.814 188.119 175.805C182.375 177.739 176.774 180.015 171.315 182.632C165.913 185.249 160.88 188.065 156.217 191.081C151.554 194.096 147.46 197.225 143.934 200.468C140.408 203.654 137.65 206.84 135.66 210.026C133.727 213.155 132.76 216.17 132.76 219.071C132.76 221.631 133.414 223.367 134.722 224.277C136.03 225.13 137.565 225.557 139.328 225.557C140.579 225.557 141.858 225.415 143.166 225.13C144.531 224.846 145.754 224.59 146.834 224.362C146.948 224.305 147.147 224.277 147.431 224.277C147.886 224.277 148.256 224.362 148.54 224.533C148.881 224.704 149.052 224.903 149.052 225.13C149.052 225.301 148.853 225.472 148.455 225.642C147.147 226.041 145.725 226.382 144.19 226.666C142.711 226.951 141.233 227.093 139.754 227.093C137.764 227.093 135.887 226.809 134.125 226.24C132.362 225.671 130.94 224.732 129.86 223.424C128.836 222.115 128.324 220.351 128.324 218.133C128.324 215.231 129.376 212.187 131.48 209.001C133.584 205.759 136.485 202.516 140.181 199.273C143.934 196.03 148.284 192.873 153.232 189.801C158.179 186.728 163.496 183.884 169.183 181.267C174.926 178.593 180.84 176.26 186.925 174.269C193.066 172.278 199.151 170.742 205.179 169.661C211.207 168.523 216.978 167.954 222.494 167.954C227.726 167.954 231.394 168.864 233.498 170.685C235.659 172.449 236.739 174.838 236.739 177.853C236.739 180.243 236.199 182.917 235.119 185.875C234.095 188.776 232.759 191.82 231.11 195.006C229.688 197.794 228.352 200.297 227.101 202.516C225.906 204.678 224.798 206.669 223.774 208.489C226.276 205.247 228.92 202.061 231.707 198.932C234.493 195.746 237.308 192.873 240.151 190.313C243.052 187.696 245.866 185.619 248.596 184.083C251.382 182.547 253.941 181.779 256.273 181.779C257.922 181.779 259.059 182.205 259.685 183.059C260.31 183.912 260.623 185.022 260.623 186.387C260.623 188.037 260.254 189.943 259.514 192.105C258.832 194.21 257.979 196.315 256.955 198.42C255.932 200.468 254.993 202.26 254.14 203.796C253.06 205.73 252.036 207.579 251.07 209.343C250.16 211.106 249.193 212.842 248.17 214.548C249.591 213.297 251.439 211.505 253.714 209.172C255.989 206.84 258.548 204.251 261.391 201.406C264.234 198.505 267.191 195.603 270.262 192.702C273.333 189.744 276.375 187.041 279.389 184.595C282.46 182.092 285.303 180.129 287.919 178.707C288.26 178.479 288.687 178.508 289.198 178.792C289.71 179.076 290.165 179.475 290.563 179.987C290.961 180.499 291.16 180.982 291.16 181.437C291.16 182.063 290.99 182.831 290.648 183.742C290.364 184.595 289.824 185.448 289.028 186.302C286.241 189.545 283.682 193.328 281.351 197.652C279.076 201.975 277.114 206.527 275.465 211.306C273.873 216.084 272.622 220.75 271.712 225.301C270.859 229.852 270.433 233.948 270.433 237.59C270.433 241.401 270.944 244.445 271.968 246.721C272.992 249.053 274.612 250.163 276.83 250.049C278.138 249.935 279.588 249.537 281.18 248.854C282.773 248.228 284.336 247.432 285.872 246.465C287.407 245.554 288.743 244.673 289.881 243.819C289.938 243.762 289.995 243.734 290.051 243.734C290.165 243.734 290.222 243.876 290.222 244.161C290.279 244.445 290.25 244.673 290.137 244.843C289.909 245.128 289.369 245.64 288.516 246.379C287.663 247.176 286.583 248.001 285.275 248.854C283.967 249.764 282.517 250.532 280.924 251.158C279.332 251.784 277.655 252.097 275.892 252.097Z" fill="white"/>
<path d="M301.9 235.883C300.592 235.883 299.341 235.741 298.147 235.456C297.009 235.172 295.957 234.745 294.991 234.176C293.74 233.38 292.801 232.469 292.176 231.445C291.607 230.364 291.323 229.226 291.323 228.032C291.323 226.041 292.005 223.964 293.37 221.802C294.735 219.64 296.526 217.592 298.744 215.658C301.019 213.667 303.407 212.017 305.909 210.708C307.388 209.912 308.866 209.343 310.345 209.001C311.823 208.66 313.131 208.489 314.268 208.489C316.145 208.489 317.368 208.859 317.936 209.599C318.562 210.282 318.874 211.078 318.874 211.988C318.874 213.069 318.533 214.093 317.851 215.06C317.225 216.028 316.287 216.995 315.036 217.962C312.818 219.726 309.804 221.319 305.994 222.741C302.241 224.163 298.346 225.159 294.308 225.728C294.024 226.297 293.768 226.865 293.541 227.434C293.37 228.003 293.285 228.572 293.285 229.141C293.285 230.393 293.683 231.417 294.479 232.213C295.332 232.953 296.384 233.493 297.635 233.835C298.943 234.119 300.279 234.261 301.644 234.261C302.326 234.261 303.009 234.233 303.691 234.176C304.374 234.119 304.999 234.034 305.568 233.92C308.525 233.294 311.51 232.213 314.524 230.677C317.595 229.141 320.552 227.377 323.395 225.386C326.239 223.395 328.798 221.404 331.072 219.413C331.186 219.356 331.328 219.327 331.499 219.327C331.726 219.327 331.84 219.384 331.84 219.498C331.84 219.669 331.726 219.896 331.499 220.181C331.101 220.863 330.276 221.745 329.025 222.826C327.831 223.907 326.438 225.016 324.845 226.154C323.31 227.292 321.803 228.373 320.325 229.397C318.846 230.364 317.623 231.132 316.657 231.701C314.553 232.896 312.193 233.892 309.577 234.688C306.961 235.485 304.402 235.883 301.9 235.883ZM295.076 224.277C296.384 223.992 297.948 223.623 299.767 223.167C301.587 222.655 303.464 222.058 305.397 221.375C307.388 220.636 309.207 219.839 310.856 218.986C312.505 218.076 313.785 217.109 314.695 216.084C315.605 215.117 316.06 214.122 316.06 213.098C316.06 212.643 315.889 212.273 315.548 211.988C315.207 211.647 314.524 211.476 313.501 211.476C312.306 211.476 310.885 211.846 309.236 212.586C307.587 213.325 305.852 214.321 304.032 215.572C302.27 216.824 300.592 218.218 299 219.754C297.408 221.233 296.1 222.741 295.076 224.277Z" fill="white"/>
<path d="M323.809 237.419C323.184 237.419 322.871 237.078 322.871 236.395C322.871 235.598 323.269 234.46 324.065 232.981C324.861 231.502 325.771 229.994 326.795 228.458C327.818 226.922 328.671 225.671 329.354 224.704C329.809 224.078 330.434 223.224 331.23 222.143C332.026 221.063 332.851 219.896 333.704 218.645C334.557 217.336 335.268 216.056 335.836 214.804C336.462 213.553 336.775 212.443 336.775 211.476C336.775 210.509 336.462 209.798 335.836 209.343C335.268 208.888 334.983 208.404 334.983 207.892C334.983 207.665 335.097 207.551 335.325 207.551C335.609 207.551 335.95 207.693 336.348 207.977C336.746 208.205 337.173 208.518 337.628 208.916C338.083 209.314 338.509 209.77 338.907 210.282C339.248 210.68 339.589 211.135 339.931 211.647C340.272 212.159 340.442 212.756 340.442 213.439C340.442 214.292 340.13 215.231 339.504 216.255C338.481 218.019 337.286 219.64 335.922 221.119C334.557 222.599 333.164 224.163 331.742 225.813C330.207 227.577 328.813 229.226 327.562 230.763C326.368 232.242 325.629 233.18 325.345 233.579C326.027 232.782 327.136 231.644 328.671 230.165C330.263 228.629 332.055 226.951 334.045 225.13C336.035 223.31 338.026 221.575 340.016 219.925C342.063 218.275 343.854 216.938 345.39 215.914C346.015 215.516 346.811 215.146 347.778 214.804C348.745 214.406 349.683 214.207 350.593 214.207C351.389 214.207 352.043 214.463 352.555 214.975C353.124 215.43 353.408 216.284 353.408 217.535C353.408 218.616 353.18 219.868 352.726 221.29C352.327 222.712 351.873 224.021 351.361 225.216C350.963 226.126 350.65 227.036 350.422 227.946C350.195 228.8 350.081 229.596 350.081 230.336C350.081 231.417 350.366 232.27 350.934 232.896C351.56 233.522 352.498 233.835 353.749 233.835C355 233.835 356.592 233.493 358.526 232.811C361.54 231.673 364.554 230.108 367.568 228.117C370.581 226.126 373.311 224.106 375.756 222.058C376.382 221.546 376.951 221.119 377.462 220.778C377.974 220.437 378.514 219.982 379.083 219.413C379.197 219.356 379.31 219.327 379.424 219.327C379.595 219.327 379.68 219.413 379.68 219.583C379.68 219.754 379.595 219.982 379.424 220.266C379.083 220.721 378.258 221.575 376.951 222.826C375.643 224.021 374.022 225.386 372.088 226.922C370.155 228.402 368.051 229.852 365.776 231.275C363.559 232.64 361.312 233.721 359.038 234.517C358.014 234.802 356.934 235.029 355.796 235.2C354.716 235.428 353.664 235.541 352.64 235.541C350.934 235.541 349.456 235.172 348.205 234.432C346.954 233.692 346.328 232.412 346.328 230.592C346.328 229.454 346.612 228.117 347.181 226.581C347.579 225.5 348.006 224.419 348.461 223.338C348.972 222.2 349.314 221.062 349.484 219.925C349.541 219.697 349.569 219.498 349.569 219.327C349.569 219.1 349.569 218.901 349.569 218.73C349.569 217.365 349.086 216.682 348.119 216.682C347.494 216.682 346.726 216.938 345.816 217.45C344.963 217.905 344.196 218.36 343.513 218.815C342.888 219.214 341.864 220.038 340.442 221.29C339.078 222.485 337.599 223.822 336.007 225.301C334.415 226.78 332.908 228.202 331.486 229.568C330.292 230.706 329.155 231.9 328.074 233.152C326.994 234.347 326.084 235.342 325.345 236.139C324.605 236.992 324.093 237.419 323.809 237.419Z" fill="white"/>
<path d="M397.44 246.891C394.938 246.891 393.146 245.924 392.066 243.99C390.985 242.112 390.445 239.78 390.445 236.992C390.445 234.717 390.729 232.327 391.298 229.824C391.924 227.264 392.72 224.76 393.686 222.314C392.947 223.167 391.838 224.305 390.36 225.728C388.881 227.15 387.204 228.601 385.327 230.08C383.507 231.502 381.631 232.725 379.697 233.749C377.764 234.773 375.944 235.285 374.238 235.285C372.532 235.285 371.139 234.66 370.059 233.408C369.319 232.612 368.95 231.587 368.95 230.336C368.95 228.686 369.518 226.894 370.656 224.96C371.793 222.968 373.243 221.034 375.006 219.157C376.826 217.222 378.788 215.516 380.892 214.036C383.053 212.5 385.1 211.419 387.033 210.794C388 210.452 388.881 210.225 389.677 210.111C390.53 209.94 391.27 209.855 391.895 209.855C393.999 209.855 395.449 210.395 396.245 211.476C397.098 212.5 397.696 213.496 398.037 214.463V214.548C398.037 214.89 397.809 215.146 397.354 215.316C396.899 215.43 396.672 215.316 396.672 214.975C396.672 214.804 396.473 214.406 396.075 213.78C395.734 213.155 394.824 212.842 393.345 212.842C391.924 212.842 390.331 213.24 388.568 214.036C386.806 214.776 384.986 215.8 383.109 217.109C381.29 218.36 379.584 219.754 377.991 221.29C376.456 222.769 375.148 224.277 374.068 225.813C373.044 227.292 372.447 228.629 372.276 229.824C372.22 229.994 372.191 230.165 372.191 230.336C372.191 230.507 372.191 230.677 372.191 230.848C372.191 232.725 372.987 233.664 374.579 233.664C375.546 233.664 376.627 233.38 377.821 232.811C379.072 232.242 380.209 231.587 381.233 230.848C382.313 230.108 383.081 229.539 383.536 229.141C385.356 227.605 387.403 225.927 389.677 224.106C391.952 222.229 393.971 220.494 395.734 218.901C397.724 216.17 399.885 213.069 402.216 209.599C404.548 206.072 407.022 202.573 409.637 199.102C412.31 195.632 415.068 192.617 417.911 190.057C418.764 189.26 419.589 188.862 420.385 188.862C420.84 188.862 421.181 188.976 421.409 189.203C422.205 189.772 422.944 190.455 423.626 191.251C424.309 191.991 424.65 192.674 424.65 193.299C424.65 193.641 424.593 193.868 424.479 193.982C424.138 194.38 423.911 194.579 423.797 194.579C423.683 194.579 423.598 194.494 423.541 194.323C423.541 194.096 423.513 193.868 423.456 193.641C423.399 193.072 423.029 192.787 422.347 192.787C421.778 192.787 421.096 193.015 420.3 193.47C419.561 193.925 419.049 194.238 418.764 194.409C417.513 195.376 416.063 196.798 414.414 198.676C412.822 200.496 411.201 202.459 409.552 204.564C407.96 206.612 406.51 208.546 405.202 210.367C402.188 214.804 399.771 218.929 397.951 222.741C396.132 226.496 394.824 230.507 394.028 234.773C393.914 235.513 393.8 236.253 393.686 236.992C393.63 237.732 393.601 238.414 393.601 239.04C393.601 240.861 393.914 242.34 394.539 243.478C395.222 244.673 396.331 245.27 397.866 245.27C398.264 245.27 398.662 245.241 399.06 245.185C399.515 245.128 399.97 245.014 400.425 244.843C401.449 244.502 402.558 243.905 403.752 243.051C404.946 242.198 406.112 241.259 407.249 240.235C408.386 239.268 409.325 238.358 410.064 237.504C410.178 237.39 410.263 237.334 410.32 237.334C410.434 237.334 410.519 237.419 410.576 237.59C410.633 237.817 410.604 237.988 410.49 238.102C410.32 238.386 409.865 239.069 409.126 240.15C408.386 241.231 407.391 242.34 406.14 243.478C404.889 244.616 403.354 245.497 401.534 246.123C399.999 246.635 398.634 246.891 397.44 246.891Z" fill="white"/>
<path d="M422.102 235.883C420.794 235.883 419.543 235.741 418.349 235.456C417.211 235.172 416.159 234.745 415.192 234.176C413.941 233.38 413.003 232.469 412.378 231.445C411.809 230.364 411.525 229.226 411.525 228.032C411.525 226.041 412.207 223.964 413.572 221.802C414.937 219.64 416.728 217.592 418.946 215.658C421.22 213.667 423.609 212.017 426.111 210.708C427.589 209.912 429.068 209.343 430.546 209.001C432.025 208.66 433.333 208.489 434.47 208.489C436.347 208.489 437.569 208.859 438.138 209.599C438.763 210.282 439.076 211.078 439.076 211.988C439.076 213.069 438.735 214.093 438.053 215.06C437.427 216.028 436.489 216.995 435.238 217.962C433.02 219.726 430.006 221.319 426.196 222.741C422.443 224.163 418.548 225.159 414.51 225.728C414.226 226.297 413.97 226.865 413.742 227.434C413.572 228.003 413.486 228.572 413.486 229.141C413.486 230.393 413.885 231.417 414.681 232.213C415.534 232.953 416.586 233.493 417.837 233.835C419.145 234.119 420.481 234.261 421.846 234.261C422.528 234.261 423.211 234.233 423.893 234.176C424.575 234.119 425.201 234.034 425.77 233.92C428.727 233.294 431.712 232.213 434.726 230.677C437.797 229.141 440.754 227.377 443.597 225.386C446.44 223.395 448.999 221.404 451.274 219.413C451.388 219.356 451.53 219.327 451.701 219.327C451.928 219.327 452.042 219.384 452.042 219.498C452.042 219.669 451.928 219.896 451.701 220.181C451.302 220.863 450.478 221.745 449.227 222.826C448.033 223.907 446.639 225.016 445.047 226.154C443.512 227.292 442.005 228.373 440.526 229.397C439.048 230.364 437.825 231.132 436.858 231.701C434.754 232.896 432.394 233.892 429.779 234.688C427.163 235.485 424.604 235.883 422.102 235.883ZM415.278 224.277C416.586 223.992 418.15 223.623 419.969 223.167C421.789 222.655 423.666 222.058 425.599 221.375C427.589 220.636 429.409 219.839 431.058 218.986C432.707 218.076 433.987 217.109 434.897 216.084C435.806 215.117 436.261 214.122 436.261 213.098C436.261 212.643 436.091 212.273 435.75 211.988C435.408 211.647 434.726 211.476 433.702 211.476C432.508 211.476 431.087 211.846 429.437 212.586C427.788 213.325 426.054 214.321 424.234 215.572C422.471 216.824 420.794 218.218 419.202 219.754C417.609 221.233 416.301 222.741 415.278 224.277Z" fill="white"/>
<path d="M439.405 266.178C437.983 266.178 436.732 265.751 435.652 264.898C434.628 264.044 434.116 262.821 434.116 261.228C434.116 258.44 434.912 255.909 436.505 253.633C438.097 251.357 440.201 249.281 442.817 247.403C445.433 245.583 448.304 243.933 451.432 242.454C454.56 240.975 457.687 239.638 460.815 238.443C463.942 237.248 466.786 236.139 469.345 235.115C469.515 234.261 469.601 233.436 469.601 232.64C469.601 232.412 469.601 232.213 469.601 232.043C469.601 231.872 469.572 231.673 469.515 231.445C469.288 230.307 468.577 229.397 467.383 228.714C466.246 227.975 464.881 227.605 463.289 227.605C462.834 227.605 462.35 227.662 461.838 227.776C461.384 227.833 460.9 227.918 460.388 228.032C459.535 228.601 458.597 229.369 457.573 230.336C456.607 231.246 455.128 232.071 453.138 232.811C452.057 233.152 451.176 233.323 450.494 233.323C449.47 233.323 448.958 232.953 448.958 232.213C448.958 232.043 448.958 231.9 448.958 231.787C449.015 231.616 449.072 231.445 449.129 231.275C449.243 231.047 449.726 230.763 450.579 230.421C451.489 230.023 452.569 229.625 453.82 229.226C455.128 228.771 456.436 228.345 457.744 227.946L461.924 225.557C463.743 224.533 465.592 223.395 467.468 222.143C469.402 220.892 471.022 219.697 472.33 218.559C473.638 217.421 474.292 216.483 474.292 215.743C474.292 215.288 473.951 214.975 473.269 214.804C472.586 214.577 471.705 214.463 470.624 214.463C469.032 214.463 467.212 214.605 465.165 214.89C463.175 215.174 461.355 215.516 459.706 215.914C458.057 216.255 456.976 216.54 456.465 216.767C456.067 216.938 455.612 217.109 455.1 217.279C454.645 217.45 454.162 217.763 453.65 218.218C453.479 218.332 453.309 218.531 453.138 218.815C452.967 219.1 452.882 219.413 452.882 219.754C452.882 220.152 452.939 220.465 453.053 220.693C453.053 220.806 452.996 220.863 452.882 220.863C452.541 220.863 452.342 220.75 452.285 220.522C452.057 220.181 451.688 219.697 451.176 219.071C450.721 218.389 450.494 217.677 450.494 216.938C450.494 216.028 451.375 215.203 453.138 214.463C454.901 213.723 457.261 213.155 460.218 212.756C463.175 212.358 466.445 212.216 470.027 212.33C470.766 212.33 471.733 212.443 472.927 212.671C474.178 212.899 475.287 213.24 476.254 213.695C477.278 214.15 477.789 214.776 477.789 215.572C477.789 215.971 477.619 216.426 477.278 216.938C476.993 217.393 476.453 217.933 475.657 218.559C473.894 219.982 471.961 221.347 469.857 222.655C467.809 223.964 465.734 225.187 463.63 226.325C463.914 226.268 464.198 226.24 464.483 226.24C464.824 226.24 465.137 226.24 465.421 226.24C467.298 226.24 468.975 226.581 470.454 227.264C471.989 227.89 472.899 228.97 473.183 230.507C473.354 231.36 473.382 232.384 473.269 233.579C477.306 231.758 481.201 229.625 484.954 227.178C488.708 224.732 492.319 221.973 495.787 218.901C497.437 217.478 498.46 216.767 498.858 216.767C499.199 216.767 499.057 217.222 498.432 218.133C497.863 218.986 496.839 220.067 495.361 221.375C491.778 224.618 488.167 227.349 484.528 229.568C480.889 231.787 477.05 233.721 473.013 235.371C472.558 237.362 471.705 239.467 470.454 241.686C469.203 243.961 467.724 246.209 466.018 248.427C463.971 251.044 461.668 253.548 459.109 255.937C456.55 258.327 453.991 260.375 451.432 262.081C450.124 262.992 448.446 263.902 446.399 264.812C444.409 265.722 442.077 266.178 439.405 266.178ZM440.428 264.386C442.646 264.386 444.835 263.788 446.996 262.593C449.157 261.399 451.204 259.891 453.138 258.071C455.128 256.25 456.976 254.316 458.682 252.268C460.388 250.276 461.867 248.427 463.118 246.721C464.369 245.071 465.478 243.392 466.445 241.686C467.411 240.036 468.179 238.471 468.748 236.992C466.53 237.846 464.028 238.784 461.241 239.808C458.455 240.889 455.64 242.084 452.797 243.392C449.953 244.758 447.309 246.266 444.864 247.915C442.476 249.622 440.514 251.5 438.978 253.548C437.443 255.596 436.59 257.871 436.419 260.375C436.362 261.854 436.732 262.878 437.528 263.447C438.324 264.073 439.291 264.386 440.428 264.386Z" fill="white"/>
</svg>
