<svg width="500" height="500" viewBox="0 0 500 500" fill="none" xmlns="http://www.w3.org/2000/svg">
<path d="M107.638 275.812C107.638 281.399 106.552 286.753 104.379 291.874C102.207 296.84 99.258 301.185 95.5335 304.91C91.8089 308.634 87.386 311.583 82.2648 313.756C77.2987 315.928 72.0223 317.015 66.4355 317.015C60.8487 317.015 55.4947 315.928 50.3734 313.756C45.4074 311.583 40.9845 308.634 37.1048 304.91C33.3802 301.185 30.4316 296.84 28.259 291.874C26.0863 286.908 25 281.631 25 276.045V222.97C25 217.383 26.0863 212.107 28.259 207.141C30.4316 202.175 33.3802 197.829 37.1048 194.105C40.9845 190.38 45.4074 187.432 50.3734 185.259C55.4947 183.086 60.8487 182 66.4355 182C72.0223 182 77.2987 183.086 82.2648 185.259C87.386 187.432 91.8089 190.38 95.5335 194.105C99.258 197.829 102.207 202.252 104.379 207.373C106.552 212.339 107.638 217.616 107.638 223.203H91.1106C91.1106 219.944 90.4122 216.84 89.0155 213.891C87.774 210.788 85.9893 208.149 83.6615 205.977C81.4889 203.649 78.8506 201.864 75.7468 200.623C72.7983 199.226 69.6945 198.528 66.4355 198.528C63.3317 198.528 60.2279 199.148 57.1242 200.39C54.1756 201.631 51.5373 203.339 49.2095 205.511C46.8817 207.529 45.0194 210.012 43.6227 212.96C42.226 215.754 41.5276 218.78 41.5276 222.039V277.209C41.5276 280.468 42.226 283.571 43.6227 286.52C45.0194 289.313 46.8817 291.796 49.2095 293.969C51.5373 295.986 54.1756 297.616 57.1242 298.857C60.2279 299.944 63.3317 300.487 66.4355 300.487C69.6945 300.487 72.7983 299.866 75.7468 298.625C78.8506 297.228 81.4889 295.443 83.6615 293.271C85.9893 290.943 87.774 288.305 89.0155 285.356C90.4122 282.252 91.1106 279.071 91.1106 275.812V256.025H65.7372V239.498H107.638V275.812Z" fill="#FAF5F6"/>
<path d="M133.368 213.18V275.812C133.368 279.226 133.989 282.407 135.23 285.356C136.627 288.305 138.412 290.943 140.584 293.271C142.912 295.443 145.55 297.228 148.499 298.625C151.603 299.866 154.862 300.487 158.276 300.487C161.535 300.487 164.639 299.866 167.587 298.625C170.691 297.228 173.329 295.443 175.502 293.271C177.83 290.943 179.614 288.305 180.856 285.356C182.253 282.252 182.951 279.071 182.951 275.812V213.18H199.479V275.812C199.479 281.399 198.392 286.753 196.22 291.874C194.047 296.84 191.098 301.185 187.374 304.91C183.649 308.634 179.226 311.583 174.105 313.756C169.139 315.928 163.863 317.015 158.276 317.015C152.689 317.015 147.335 315.928 142.214 313.756C137.248 311.583 132.825 308.634 128.945 304.91C125.221 301.185 122.272 296.84 120.099 291.874C117.927 286.908 116.84 281.554 116.84 275.812V213.18H133.368Z" fill="#FAF5F6"/>
<path d="M250.815 242.291V258.819H225.209V277.209C225.209 280.468 225.907 283.571 227.304 286.52C228.7 289.313 230.563 291.796 232.89 293.969C235.218 295.986 237.856 297.616 240.805 298.857C243.909 299.944 247.013 300.487 250.116 300.487C253.375 300.487 256.479 299.866 259.428 298.625C262.532 297.228 265.17 295.443 267.342 293.271C269.67 290.943 271.455 288.305 272.696 285.356C274.093 282.252 274.791 279.071 274.791 275.812H291.319C291.319 281.399 290.233 286.753 288.06 291.874C285.887 296.84 282.939 301.185 279.214 304.91C275.49 308.634 271.067 311.583 265.946 313.756C260.98 315.928 255.703 317.015 250.116 317.015C244.53 317.015 239.176 315.928 234.054 313.756C229.088 311.583 224.665 308.634 220.786 304.91C217.061 301.185 214.113 296.84 211.94 291.874C209.767 286.908 208.681 281.631 208.681 276.045V223.436C208.681 217.849 209.767 212.572 211.94 207.606C214.113 202.64 217.061 198.295 220.786 194.57C224.665 190.846 229.088 187.897 234.054 185.725C239.176 183.552 244.53 182.466 250.116 182.466C255.703 182.466 260.98 183.552 265.946 185.725C271.067 187.897 275.49 190.846 279.214 194.57C282.939 198.295 285.887 202.718 288.06 207.839C290.233 212.805 291.319 218.081 291.319 223.668H274.791C274.791 220.409 274.093 217.306 272.696 214.357C271.455 211.253 269.67 208.615 267.342 206.442C265.17 204.114 262.532 202.33 259.428 201.088C256.479 199.692 253.375 198.993 250.116 198.993C247.013 198.993 243.909 199.614 240.805 200.855C237.856 202.097 235.218 203.804 232.89 205.977C230.563 207.994 228.7 210.477 227.304 213.426C225.907 216.219 225.209 219.245 225.209 222.504V242.291H250.815Z" fill="#FAF5F6"/>
<path d="M383.16 232.747C383.16 239.73 381.22 246.093 377.34 251.835C373.615 257.422 369.037 262.078 363.606 265.802C369.037 269.682 373.615 274.726 377.34 280.933C381.22 286.985 383.16 293.503 383.16 300.487V317.015H366.632C366.632 312.359 366.477 307.548 366.166 302.582C366.011 297.461 365.158 292.805 363.606 288.615C362.209 284.425 359.804 281.011 356.389 278.372C352.975 275.579 348.087 274.182 341.724 274.182H317.049V317.015H300.521V182.233H317.049V190.613C320.618 187.975 324.498 185.957 328.688 184.561C333.033 183.009 337.456 182.233 341.957 182.233C349.561 182.233 356.001 183.629 361.278 186.423C366.554 189.216 370.822 192.941 374.081 197.597C377.34 202.252 379.668 207.684 381.065 213.891C382.461 219.944 383.16 226.229 383.16 232.747ZM341.724 257.655C345.138 257.655 348.32 257.034 351.268 255.792C354.372 254.396 357.01 252.611 359.183 250.438C361.511 248.111 363.295 245.472 364.537 242.524C365.934 239.42 366.632 236.161 366.632 232.747V223.436C366.632 220.177 365.934 217.073 364.537 214.124C363.295 211.02 361.511 208.382 359.183 206.21C357.01 203.882 354.372 202.097 351.268 200.855C348.32 199.459 345.216 198.76 341.957 198.76C338.853 198.76 335.749 199.381 332.645 200.623C329.697 201.864 327.059 203.571 324.731 205.744C322.403 207.761 320.541 210.244 319.144 213.193C317.747 215.986 317.049 219.013 317.049 222.272V257.422L341.724 257.655Z" fill="#FAF5F6"/>
<path d="M433.565 317.015C427.978 317.015 422.624 315.928 417.502 313.756C412.536 311.583 408.191 308.634 404.467 304.91C400.742 301.185 397.793 296.84 395.621 291.874C393.448 286.753 392.362 281.399 392.362 275.812V223.436C392.362 217.849 393.448 212.572 395.621 207.606C397.793 202.485 400.742 198.062 404.467 194.338C408.191 190.613 412.536 187.664 417.502 185.492C422.624 183.319 427.978 182.233 433.565 182.233C439.151 182.233 444.428 183.319 449.394 185.492C454.515 187.664 458.938 190.613 462.662 194.338C466.542 198.062 469.568 202.407 471.741 207.373C473.914 212.339 475 217.616 475 223.203V276.045C475 281.631 473.914 286.908 471.741 291.874C469.568 296.84 466.542 301.185 462.662 304.91C458.938 308.634 454.515 311.583 449.394 313.756C444.428 315.928 439.151 317.015 433.565 317.015ZM458.472 222.272C458.472 219.013 457.774 215.986 456.377 213.193C454.981 210.244 453.118 207.761 450.791 205.744C448.463 203.571 445.747 201.864 442.643 200.623C439.694 199.381 436.668 198.76 433.565 198.76C430.306 198.76 427.124 199.459 424.02 200.855C421.072 202.097 418.434 203.882 416.106 206.21C413.933 208.382 412.148 211.02 410.752 214.124C409.51 217.073 408.889 220.177 408.889 223.436V275.812C408.889 279.071 409.51 282.252 410.752 285.356C412.148 288.305 413.933 290.943 416.106 293.271C418.434 295.443 421.072 297.228 424.02 298.625C427.124 299.866 430.306 300.487 433.565 300.487C436.668 300.487 439.694 299.944 442.643 298.857C445.747 297.616 448.463 295.986 450.791 293.969C453.118 291.796 454.981 289.313 456.377 286.52C457.774 283.571 458.472 280.468 458.472 277.209V222.272Z" fill="#FAF5F6"/>
<circle cx="123.854" cy="192.54" r="8.08277" fill="#FAF5F6"/>
<circle cx="191.75" cy="192.54" r="8.08277" fill="#FAF5F6"/>
</svg>
