<svg width="500" height="369" viewBox="0 0 500 369" fill="none" xmlns="http://www.w3.org/2000/svg">
<g clip-path="url(#clip0_904_332)">
<path d="M236.174 177.307H226.667V111.676H236.174V139.553H262.944V111.676H272.451V177.307H262.944V148.876H236.174V177.307Z" fill="#FAF5F6"/>
<path d="M280.585 152.568C280.585 145.553 282.985 139.368 287.601 134.476C292.585 129.122 299.047 126.168 305.785 126.168C312.985 126.168 319.17 128.753 324.154 133.83C329.047 138.814 331.724 145.276 331.724 151.922C331.724 158.753 329.139 165.491 324.801 170.291C319.816 175.737 313.447 178.691 306.247 178.691C299.047 178.691 292.862 176.107 287.97 170.937C283.262 166.045 280.585 159.214 280.585 152.568ZM289.816 152.476C289.816 162.445 296.924 169.83 306.247 169.83C315.293 169.83 322.493 162.537 322.493 152.383C322.493 142.137 315.293 135.03 306.154 135.03C297.201 135.03 289.816 142.23 289.816 152.476Z" fill="#FAF5F6"/>
<path d="M348.38 177.307H339.426V127.737H348.011V133.368C351.796 128.845 356.134 126.907 361.857 126.907C374.688 126.907 381.98 134.66 381.98 149.06V177.307H373.026V150.999C373.026 140.568 369.242 135.491 361.026 135.491C351.519 135.491 348.38 141.953 348.38 154.783V177.307Z" fill="#FAF5F6"/>
<path d="M432.493 177.307V171.214C427.877 176.014 422.154 178.414 415.877 178.414C400.831 178.414 389.939 167.153 389.939 152.291C389.939 145.368 392.431 138.907 397.047 134.107C402.031 128.845 407.847 126.445 415.323 126.445C422.062 126.445 427.785 128.845 432.585 133.737V111.676H441.539V177.307H432.493ZM399.17 152.199C399.17 162.537 407.016 169.922 416.339 169.922C425.016 169.922 432.954 162.076 432.954 152.845C432.954 142.783 425.016 135.122 416.154 135.122C406.923 135.122 399.17 142.507 399.17 152.199Z" fill="#FAF5F6"/>
<path d="M491.898 177.307V171.214C487.282 176.014 481.559 178.414 475.282 178.414C460.236 178.414 449.344 167.153 449.344 152.291C449.344 145.368 451.836 138.907 456.452 134.107C461.436 128.845 467.252 126.445 474.729 126.445C481.467 126.445 487.19 128.845 491.898 133.737V127.737H500.944V177.307H491.898ZM458.575 152.199C458.575 162.537 466.421 169.922 475.744 169.922C484.421 169.922 492.359 162.076 492.359 152.845C492.359 142.783 484.421 135.122 475.559 135.122C466.329 135.122 458.575 142.507 458.575 152.199Z" fill="#FAF5F6"/>
<path d="M301.335 254.231H275.489V199.539H283.412V246.693H301.335V254.231Z" fill="#FAF5F6"/>
<path d="M317.87 254.231H310.024V199.539H322.716C328.1 199.539 332.254 199.77 335.793 201.847C340.331 204.462 343.254 209.77 343.254 215.539C343.254 225.385 336.254 232.231 324.177 232.231H317.87V254.231ZM317.87 224.923H323.639C331.408 224.923 335.254 222.462 335.254 216C335.254 209.693 331.485 206.847 323.87 206.847H317.87V224.923Z" fill="#FAF5F6"/>
<path d="M371.229 226.616H405.075C404.306 244 392.691 255.308 377.152 255.308C368.998 255.308 361.998 252.154 356.46 245.923C351.844 240.77 349.383 234.077 349.383 226.539C349.383 218.923 352.306 211.923 357.921 206.385C363.229 201.077 369.768 198.462 377.768 198.462C388.921 198.462 397.537 203.923 401.768 213.385H391.998C388.383 208.77 383.306 206.385 377.152 206.385C371.998 206.385 367.229 208.385 363.614 212.077C359.768 216 357.614 221.385 357.614 226.616C357.614 232.385 359.614 237.616 363.152 241.308C366.921 245.231 372.075 247.462 377.152 247.462C385.383 247.462 391.844 243.077 395.998 234.308H371.229V226.616Z" fill="#FAF5F6"/>
<path d="M422.084 238.308L415.93 254.231H407.545L428.93 199.539H436.622L458.007 254.231H449.314L443.314 238.308H422.084ZM440.468 230.616L432.776 209.847L424.93 230.616H440.468Z" fill="#FAF5F6"/>
<path d="M237.475 300.384H233.514V276.73H228.398V273.038H242.591V276.73H237.475V300.384Z" fill="#FAF5F6"/>
<path d="M250.352 300.384H246.39V273.038H250.352V284.653H261.505V273.038H265.467V300.384H261.505V288.538H250.352V300.384Z" fill="#FAF5F6"/>
<path d="M275.087 292.423L272.01 300.384H267.818L278.51 273.038H282.356L293.048 300.384H288.702L285.702 292.423H275.087ZM284.279 288.577L280.433 278.192L276.51 288.577H284.279Z" fill="#FAF5F6"/>
<path d="M299.647 300.384H295.685V273.038H299.647V300.384Z" fill="#FAF5F6"/>
<path d="M318.476 300.384H305.553V273.038H309.515V296.615H318.476V300.384Z" fill="#FAF5F6"/>
<path d="M326.513 292.423L323.436 300.384H319.243L329.936 273.038H333.782L344.474 300.384H340.128L337.128 292.423H326.513ZM335.705 288.577L331.859 278.192L327.936 288.577H335.705Z" fill="#FAF5F6"/>
<path d="M351.073 300.384H347.111V273.038H351.188L364.611 293.73L364.419 273.038H368.342V300.384H364.534L350.804 279.077L351.073 300.384Z" fill="#FAF5F6"/>
<path d="M381.757 300.384H374.064V273.038H382.872C391.18 273.038 396.603 278.692 396.603 286.807C396.603 291.5 394.641 295.423 391.103 297.961C388.18 300.077 385.372 300.384 381.757 300.384ZM377.911 296.73H382.718C388.872 296.73 392.603 292.884 392.603 286.846C392.603 280.653 388.757 276.769 381.987 276.769H377.911V296.73Z" fill="#FAF5F6"/>
<path d="M430.792 300.384H413.484V296.577L423.061 287.384C425.33 285.192 426.984 283.653 426.984 281.192C426.984 278.461 424.946 276.269 422.023 276.269C419.023 276.269 417.215 278.269 417.215 281.73C417.215 281.807 417.215 281.923 417.215 282.038H413.484C413.484 282 413.484 281.961 413.484 281.961C413.484 276.192 417.1 272.538 422.369 272.538C427.176 272.538 430.869 276.384 430.869 281.038C430.869 283.884 429.523 286.115 426.907 288.577L418.407 296.577H430.792V300.384Z" fill="#FAF5F6"/>
<path d="M440.071 291.461C440.071 291.615 440.071 291.73 440.071 291.884C440.071 293.115 440.11 294.077 440.725 294.961C441.648 296.307 443.341 297.153 445.264 297.153C448.841 297.153 450.571 295.23 450.571 291.307V282.153C450.571 280.615 450.571 279.5 449.917 278.538C448.994 277.153 447.264 276.307 445.302 276.307C443.379 276.307 441.725 277.115 440.802 278.423C440.148 279.346 440.071 280.5 440.071 282.115V291.461ZM435.994 290.769V282.692C435.994 280.192 436.148 278.192 437.648 276.23C439.456 273.846 442.148 272.538 445.341 272.538C448.648 272.538 451.417 273.923 453.225 276.5C454.341 278.077 454.687 280 454.687 282.538V290.884C454.687 293.538 454.341 295.538 453.187 297.115C451.456 299.538 448.61 300.923 445.341 300.923C442.187 300.923 439.456 299.615 437.571 297.23C436.341 295.653 435.994 293.577 435.994 290.769Z" fill="#FAF5F6"/>
<path d="M477.12 300.384H459.812V296.577L469.389 287.384C471.658 285.192 473.312 283.653 473.312 281.192C473.312 278.461 471.274 276.269 468.351 276.269C465.351 276.269 463.543 278.269 463.543 281.73C463.543 281.807 463.543 281.923 463.543 282.038H459.812C459.812 282 459.812 281.961 459.812 281.961C459.812 276.192 463.428 272.538 468.697 272.538C473.505 272.538 477.197 276.384 477.197 281.038C477.197 283.884 475.851 286.115 473.235 288.577L464.735 296.577H477.12V300.384Z" fill="#FAF5F6"/>
<path d="M494.361 292.115V278.692L486.169 292.115H494.361ZM498.169 300.384H494.361V295.615H482.322V292.115L494.361 273.038H498.169V292.115H500.938V295.615H498.169V300.384Z" fill="#FAF5F6"/>
<g clip-path="url(#clip1_904_332)">
<path d="M24.0148 207.99C23.7893 208.899 23.5751 209.808 23.3327 210.711C20.0066 222.877 16.5566 235.01 13.3828 247.216C11.3195 255.174 9.6058 263.228 8.41633 271.373C7.44671 278.013 6.4489 284.664 6.61802 291.418C6.72513 295.57 7.31705 299.608 9.04207 303.425C11.5901 309.06 15.8576 312.161 22.0192 312.468C25.9991 312.666 29.6916 311.485 33.2938 309.923C37.0595 308.293 40.4588 306.049 43.8018 303.669C49.2869 299.767 54.3605 295.382 59.2367 290.736C65.3025 284.954 71.1146 278.927 76.5208 272.509C80.7939 267.431 85.0726 262.359 89.2386 257.196C91.9896 253.788 94.594 250.255 97.1646 246.71C100.265 242.439 103.354 238.156 106.28 233.76C109.832 228.427 113.242 222.996 116.647 217.572C119.026 213.778 121.366 209.955 123.598 206.07C125.898 202.066 128.063 197.976 130.25 193.909C131.834 190.961 133.396 188.002 134.89 185.003C136.282 182.22 137.601 179.397 138.898 176.563C140.335 173.433 141.767 170.298 143.092 167.117C144.873 162.845 146.643 158.568 148.244 154.229C150.415 148.339 152.529 142.42 154.462 136.45C156.706 129.532 158.662 122.517 160.274 115.417C161.419 110.396 162.541 105.37 163.55 100.314C164.305 96.5145 164.914 92.6861 165.483 88.8522C166.086 84.8307 166.605 80.7979 167.079 76.7651C167.366 74.3227 167.547 71.869 167.687 69.4152C167.8 67.4613 167.417 65.5415 166.825 63.6898C165.805 60.5204 163.572 58.4813 160.641 57.101C158.313 56.0048 155.951 54.9426 153.718 53.6646C151.311 52.2901 149.659 50.1942 148.915 47.4564C148.284 45.1333 147.754 42.7818 147.061 40.4757C146.672 39.175 146.108 37.914 145.493 36.7042C145.189 36.1021 144.591 35.6477 144.022 35.0059C149.913 36.477 154.643 39.6294 158.758 43.8837C158.538 42.5659 157.659 41.6458 156.836 40.3507C159.153 41.0323 161.126 41.8162 162.986 42.9749C164.886 44.1563 166.171 45.8319 167.141 47.8313C167.225 47.8029 167.315 47.7688 167.4 47.7404C167.361 47.1838 167.327 46.6214 167.27 45.7638C167.834 46.2352 168.24 46.559 168.635 46.8998C171.087 49.0525 172.474 51.7505 172.665 55.0449C172.806 57.4021 172.947 59.7649 173.032 62.1278C173.195 66.4957 172.643 70.8239 172.073 75.135C171.329 80.8036 170.602 86.4836 169.666 92.1182C168.601 98.5479 167.4 104.966 166.103 111.356C163.933 122.063 161.097 132.605 157.805 143.011C154.97 151.98 151.79 160.829 148.064 169.457C145.048 176.432 141.964 183.379 138.678 190.223C136.09 195.625 133.193 200.873 130.363 206.155C128.604 209.433 126.721 212.642 124.895 215.885C124.714 216.209 124.539 216.538 124.325 216.942C124.754 217.413 125.131 217.89 125.565 218.305C129.782 222.292 132.702 227.177 134.963 232.471C137.731 238.946 139.332 245.756 139.98 252.765C140.42 257.497 140.07 262.2 139.14 266.88C137.364 275.854 134.083 284.272 130.306 292.531C127.538 298.591 124.359 304.43 120.892 310.11C119.004 313.2 116.957 316.194 114.759 319.136C115.114 318.165 115.458 317.188 115.835 316.228C117.442 312.093 119.105 307.975 120.667 303.823C124.274 294.224 127.561 284.516 129.901 274.514C131.366 268.249 132.477 261.933 132.691 255.463C132.9 249.181 132.392 242.984 131.124 236.856C129.827 230.579 127.572 224.621 124.883 218.822C124.692 218.407 124.404 218.032 124.026 217.413C112.414 237.401 99.6394 256.344 84.8809 273.98C85.3657 274.497 85.766 274.951 86.1888 275.383C90.0785 279.348 93.241 283.846 95.7215 288.822C98.6021 294.593 100.22 300.687 99.5097 307.18C99.2335 309.69 98.4781 312.167 97.7453 314.603C96.7305 317.983 94.9322 320.988 92.9986 323.901C90.4111 327.804 87.3839 331.331 84.0184 334.994C84.103 334.472 84.103 334.228 84.1875 334.018C85.8167 329.939 87.4459 325.861 89.092 321.794C91.5611 315.671 93.6582 309.474 93.2241 302.709C92.9986 299.199 92.4124 295.757 91.4202 292.395C89.8699 287.129 87.8969 282.017 85.7378 276.979C85.3883 276.167 85.0557 275.355 84.6836 274.457C84.4186 274.639 84.2439 274.713 84.1311 274.843C79.7679 279.654 75.506 284.573 71.0075 289.259C67.7829 292.616 64.3103 295.734 60.8265 298.824C57.6245 301.664 54.3266 304.396 50.9555 307.026C46.5077 310.502 41.8907 313.751 36.8848 316.364C32.5384 318.63 28.0004 320.431 23.1354 321.13C19.1836 321.698 15.2769 321.448 11.5901 319.676C7.25504 317.591 4.53221 314.035 2.717 309.656C1.23438 306.083 0.586091 302.318 0.214028 298.495C-0.417352 291.991 0.360598 285.55 1.21747 279.126C1.70792 275.474 2.22091 271.816 2.9594 268.204C4.14888 262.37 5.51874 256.582 7.22685 250.868C9.50433 243.257 12.137 235.776 15.1529 228.432C17.9152 221.707 20.7621 215.016 23.5751 208.308C23.6258 208.183 23.7329 208.075 23.8118 207.962C23.8739 207.962 23.9359 207.967 23.9979 207.973L24.0148 207.99Z" fill="#FAF5F6"/>
<path d="M105.102 103.898C104.843 106.051 104.634 108.215 104.319 110.356C103.276 117.343 101.055 123.943 97.7963 130.179C94.7465 136.018 91.0033 141.369 86.6062 146.271C80.828 152.718 74.1872 158.182 67.5577 163.674C65.207 165.617 62.9521 167.684 60.7309 169.775C58.9665 171.439 58.3689 173.7 57.9968 176.017C57.8615 176.852 57.8559 177.715 57.8334 178.562C57.7375 182.668 59.9755 185.485 62.9577 187.843C67.0786 191.103 71.7857 193.335 76.5154 195.516C79.1199 196.715 81.6567 198.038 83.8778 199.896C87.3616 202.804 89.1205 206.53 89.2952 211.119C89.5264 217.242 87.6886 222.769 84.853 228.04C84.1766 229.301 83.2408 230.374 82.0118 231.124C81.5383 231.414 81.0084 231.658 80.4728 231.777C78.7929 232.147 77.8797 231.397 77.7669 229.659C77.6711 228.256 77.9586 226.938 78.511 225.66C79.8245 222.627 81.1775 219.611 82.4064 216.544C82.9645 215.152 83.3986 213.675 83.6523 212.198C84.1315 209.41 83.2802 206.962 81.4086 204.871C79.5934 202.844 77.4287 201.276 75.0159 200.083C71.2727 198.237 67.4675 196.527 63.7413 194.647C61.0184 193.273 58.3351 191.756 56.1816 189.535C52.275 185.52 50.9558 180.72 52.1735 175.205C52.9684 171.615 54.902 168.712 57.3711 166.111C61.5596 161.703 66.1935 157.784 70.7485 153.78C75.5176 149.588 80.2417 145.345 84.5261 140.642C88.2411 136.564 91.6178 132.207 94.2279 127.305C95.8458 124.267 97.5483 121.262 98.9407 118.121C100.812 113.895 102.43 109.555 104.155 105.267C104.347 104.79 104.544 104.318 104.736 103.841C104.86 103.858 104.984 103.875 105.114 103.892L105.102 103.898Z" fill="#FAF5F6"/>
<path d="M60.9224 155.228C60.1275 155.302 59.6371 155.37 59.1466 155.393C55.3189 155.546 51.6039 154.836 47.9115 153.916C42.6631 152.61 37.5895 150.855 32.9951 147.89C29.686 145.754 26.687 143.3 24.8097 139.699C23.1749 136.575 23.0227 133.366 24.3475 130.123C25.0972 128.288 26.3544 126.857 28.0512 125.8C31.9409 123.386 36.2253 122.977 40.6337 123.165C41.9866 123.222 43.3509 123.369 44.6644 123.659C46.1977 123.994 46.6994 124.96 46.4401 126.51C46.2992 127.357 45.8538 127.925 45.0364 128.078C44.3092 128.214 43.5594 128.248 42.8153 128.265C40.8028 128.3 38.7846 128.209 36.7834 128.351C35.6897 128.43 34.5623 128.748 33.5476 129.186C30.9093 130.339 30.0299 132.423 30.2948 135.303C30.5034 137.558 31.5238 139.495 33.0177 141.25C35.5996 144.277 38.9368 146.123 42.4263 147.782C47.3928 150.145 52.5453 151.974 57.8219 153.479C58.8422 153.769 59.8908 154.053 60.9224 155.228Z" fill="#FAF5F6"/>
</g>
</g>
<defs>
<clipPath id="clip0_904_332">
<rect width="500" height="369" fill="white"/>
</clipPath>
<clipPath id="clip1_904_332">
<rect width="173.077" height="300" fill="white" transform="translate(0 35)"/>
</clipPath>
</defs>
</svg>
