<svg width="500" height="369" viewBox="0 0 500 369" fill="none" xmlns="http://www.w3.org/2000/svg">
<path d="M260.024 163.916V265.831H266.345H272.665V241.708V217.586L275.562 214.742L278.459 211.845L305.478 238.864L332.445 265.831H341.135H349.826L318.487 234.493L287.149 203.154L312.167 178.136L337.185 153.118H329.021H320.857L296.787 177.188L272.665 201.311V131.629V62H266.345H260.024V163.916Z" fill="white"/>
<path d="M196.294 149.379C184.654 151.96 176.227 156.436 167.747 164.6C144.467 186.985 144.046 223.906 166.746 246.765C187.762 267.885 221.259 269.887 244.645 251.347C247.015 249.451 248.964 247.713 248.964 247.502C248.964 247.291 246.962 245.606 244.487 243.815L240.01 240.602L236.534 243.236C218.468 256.877 193.345 255.666 176.385 240.286C171.223 235.651 166.43 228.383 164.113 221.799C153.579 191.567 175.911 159.913 207.881 159.913C219.047 159.86 228.738 163.073 236.902 169.499L239.536 171.605L244.276 168.076L249.016 164.6L247.015 162.81C241.01 157.437 231.793 152.486 223.419 150.116C216.835 148.273 203.088 147.904 196.294 149.379Z" fill="white"/>
<path d="M160.584 276.207C159.373 276.628 157.108 278.156 155.528 279.578C151.894 282.896 150.366 286.267 150.366 291.112C150.366 295.958 151.894 299.329 155.528 302.647C162.006 308.546 171.118 308.441 177.175 302.384C178.702 300.856 179.966 299.382 179.966 299.066C179.966 297.644 177.122 298.592 174.7 300.751C169.222 305.649 162.744 305.491 157.477 300.277C152.684 295.484 151.999 289.006 155.739 283.844C160.689 276.997 168.59 275.996 174.7 281.474C177.175 283.686 179.966 284.529 179.966 283.107C179.966 281.79 174.384 277.05 171.803 276.207C168.695 275.101 163.639 275.101 160.584 276.207Z" fill="white"/>
<path d="M207.881 290.849V305.86H209.461H211.042V290.849V275.838H209.461H207.881V290.849Z" fill="white"/>
<path d="M234.216 278.208C234.216 280.473 234.269 280.579 235.796 280.579C237.324 280.579 237.376 280.473 237.376 278.208C237.376 275.944 237.324 275.838 235.796 275.838C234.269 275.838 234.216 275.944 234.216 278.208Z" fill="white"/>
<path d="M271.085 290.849V305.86H272.665H274.245V301.752C274.245 297.907 274.35 297.485 275.93 295.431C276.878 294.22 277.774 293.219 277.984 293.219C278.195 293.219 280.46 296.063 282.988 299.54C287.518 305.597 287.728 305.807 289.624 305.86H291.626L285.78 298.223C281.724 292.903 280.091 290.375 280.407 289.901C280.723 289.532 283.357 286.267 286.306 282.527L291.679 275.838H289.677C287.728 275.891 287.518 276.102 281.092 284.265L274.508 292.692L274.35 284.265L274.245 275.838H272.665H271.085V290.849Z" fill="white"/>
<path d="M292.679 290.849V305.86H294.259H295.839V290.849V275.838H294.259H292.679V290.849Z" fill="white"/>
<path d="M323.754 278.524C323.754 281.105 323.807 281.158 325.229 281C326.546 280.842 326.651 280.631 326.809 278.314C326.967 275.891 326.967 275.838 325.387 275.838C323.807 275.838 323.754 275.891 323.754 278.524Z" fill="white"/>
<path d="M188.078 284.213C185.075 285.582 182.231 289.058 181.494 292.429C180.283 297.96 183.759 304.069 189.131 305.86C192.344 306.913 196.452 306.281 199.191 304.385L201.561 302.7V304.28C201.561 305.597 201.772 305.86 202.878 305.86H204.195V294.799V283.739H202.878C201.719 283.739 201.561 283.949 201.561 285.582V287.373L200.139 286.004C197.031 283.107 192.133 282.369 188.078 284.213ZM197.769 287.373C201.35 289.901 202.562 295.01 200.508 299.013C196.768 306.334 186.024 304.859 184.18 296.748C183.337 293.009 184.917 289.374 188.446 287.004C190.816 285.372 195.241 285.53 197.769 287.373Z" fill="white"/>
<path d="M246.014 284.529C243.855 285.793 243.802 285.793 243.539 284.792C243.381 284.055 242.801 283.739 241.906 283.739H240.536V294.799V305.86H242.117H243.697V297.907V289.954L245.751 287.9C247.489 286.109 248.121 285.845 250.122 285.845C251.755 285.845 252.967 286.214 253.915 286.952C256.495 288.953 256.864 290.428 256.864 298.486V305.86H258.497H260.13L259.919 298.065C259.761 291.007 259.603 290.112 258.444 287.952C255.916 283.423 250.386 281.895 246.014 284.529Z" fill="white"/>
<path d="M304.214 284.687C300.316 286.688 298.368 289.585 298.052 293.693C297.736 297.749 298.631 300.277 301.317 302.91C306.795 308.388 316.381 307.177 319.857 300.488C320.857 298.592 320.805 298.486 319.33 298.486C318.435 298.486 317.539 299.118 316.644 300.277C313.905 303.911 309.059 304.807 305.057 302.436C303.74 301.699 302.476 300.382 301.949 299.329C300.264 295.747 299.948 295.853 311.43 295.853H321.753L321.384 293.588C319.962 285.055 311.693 280.737 304.214 284.687ZM314.274 287.004C316.223 288.321 317.697 290.217 318.224 292.008L318.54 293.219H309.85C300.211 293.219 300.158 293.219 302.318 290.006C305.109 285.845 310.534 284.476 314.274 287.004Z" fill="white"/>
<path d="M336.922 283.581C336.5 283.791 335.342 284.476 334.446 285.213L332.708 286.477V285.108C332.708 284.002 332.445 283.739 331.391 283.739H330.075V294.799V305.86H331.655H333.235V298.17C333.235 292.008 333.393 290.217 334.078 289.006C336.184 285.529 340.925 284.739 343.927 287.426C346.297 289.48 346.929 292.113 346.929 299.75V305.86H348.246H349.562V299.118C349.562 289.532 348.456 286.372 344.295 284.265C342.347 283.265 338.66 282.949 336.922 283.581Z" fill="white"/>
<path d="M215.624 293.325C217.783 298.644 219.785 303.595 220.101 304.385C220.522 305.597 220.943 305.86 222.26 305.86H223.946L228.001 295.695C230.266 290.164 232.267 285.161 232.425 284.634C232.741 283.791 232.531 283.686 231.319 283.844C229.897 284.002 229.581 284.581 226.105 293.061C224.051 298.065 222.26 302.015 222.049 301.752C221.891 301.541 221.312 300.33 220.838 299.013C220.311 297.696 218.731 293.746 217.257 290.164C214.781 284.107 214.518 283.739 213.148 283.739H211.674L215.624 293.325Z" fill="white"/>
<path d="M234.216 294.799V305.86H235.796H237.376V294.799V283.739H235.796H234.216V294.799Z" fill="white"/>
<path d="M323.754 294.799V305.86H325.334H326.914V294.799V283.739H325.334H323.754V294.799Z" fill="white"/>
</svg>
