<svg width="500" height="369" viewBox="0 0 500 369" fill="none" xmlns="http://www.w3.org/2000/svg">
<g clip-path="url(#clip0_904_347)">
<g clip-path="url(#clip1_904_347)">
<g clip-path="url(#clip2_904_347)">
<path d="M9.91006 93.9377V167.332C9.91338 167.91 9.79991 168.482 9.57627 169.015C9.35263 169.549 9.0233 170.034 8.60748 170.441C8.19165 170.848 7.69766 171.169 7.1543 171.386C6.61095 171.603 6.0291 171.712 5.4427 171.706C4.28185 171.652 3.18298 171.174 2.36124 170.366C1.53951 169.557 1.05408 168.475 1 167.332V82.3733C1.01119 81.246 1.45946 80.1654 2.25314 79.3526C3.04682 78.5397 4.12596 78.056 5.26993 78.0003C7.93554 78.0003 9.1943 78.5348 10.0828 79.7495C22.0041 95.3468 50.6594 130.55 70.2319 155.768V82.3733C70.2448 81.2175 70.717 80.1125 71.5474 79.2951C72.3778 78.4777 73.5003 78.0129 74.6746 78.0003C75.2599 77.9938 75.8406 78.1024 76.3826 78.3199C76.9246 78.5374 77.417 78.8592 77.8308 79.2666C78.2447 79.674 78.5717 80.1587 78.7926 80.6922C79.0135 81.2257 79.1239 81.7973 79.1173 82.3733V167.405C79.1372 168.542 78.6992 169.64 77.8991 170.459C77.0989 171.279 76.0017 171.753 74.8474 171.778C73.9412 171.931 73.0104 171.849 72.1455 171.543C71.2806 171.236 70.5108 170.715 69.9111 170.029C53.5718 148.455 25.9037 114.248 9.91006 93.9377Z" fill="#FAF5F6"/>
<path d="M143.586 164.514C163.331 164.514 174.536 153.654 174.536 133.708V82.3733C174.556 81.2152 175.033 80.1103 175.868 79.2935C176.702 78.4768 177.827 78.0128 179.004 78.0003C179.588 77.9971 180.167 78.108 180.708 78.3266C181.248 78.5452 181.739 78.8672 182.153 79.2739C182.566 79.6807 182.893 80.164 183.115 80.696C183.337 81.2281 183.45 81.7982 183.447 82.3733V133.708C183.447 159.267 169.032 173.285 143.586 173.285C120.459 173.285 104.441 159.267 104.441 134.219V82.3733C104.454 81.2175 104.926 80.1125 105.756 79.2951C106.587 78.4777 107.709 78.0129 108.883 78.0003C109.469 77.9938 110.049 78.1024 110.591 78.3199C111.133 78.5374 111.626 78.8592 112.04 79.2666C112.453 79.674 112.78 80.1587 113.001 80.6922C113.222 81.2257 113.333 81.7973 113.326 82.3733V134.219C113.326 153.654 125.79 164.514 143.586 164.514Z" fill="#FAF5F6"/>
<path d="M69.5162 242.622H9.91006V283.777C9.91334 284.356 9.80003 284.929 9.57669 285.464C9.35334 285.999 9.0244 286.485 8.60891 286.894C8.19342 287.303 7.69963 287.627 7.15615 287.847C6.61266 288.066 6.03028 288.178 5.4427 288.175C4.27778 288.121 3.17554 287.64 2.3532 286.826C1.53087 286.012 1.04809 284.924 1 283.777V198.745C1.01907 197.591 1.49327 196.49 2.32234 195.674C3.15141 194.858 4.27037 194.391 5.4427 194.372C6.0291 194.366 6.61095 194.474 7.1543 194.692C7.69766 194.909 8.19165 195.23 8.60748 195.637C9.0233 196.044 9.35263 196.529 9.57627 197.062C9.79991 197.596 9.91338 198.168 9.91006 198.745V233.876H69.5162V198.843C69.529 197.687 70.0012 196.582 70.8316 195.764C71.662 194.947 72.7846 194.482 73.9588 194.47C74.5441 194.463 75.1248 194.572 75.6668 194.789C76.2088 195.007 76.7012 195.328 77.115 195.736C77.5289 196.143 77.8559 196.628 78.0768 197.161C78.2978 197.695 78.4082 198.267 78.4015 198.843V283.875C78.4081 284.452 78.2979 285.025 78.0772 285.559C77.8566 286.094 77.53 286.58 77.1165 286.99C76.7029 287.399 76.2107 287.723 75.6686 287.943C75.1265 288.164 74.5453 288.275 73.9588 288.272C72.792 288.224 71.6866 287.744 70.8631 286.929C70.0396 286.114 69.5586 285.023 69.5162 283.875V242.622Z" fill="#FAF5F6"/>
<path d="M263.711 243.205C260.875 240.479 257.52 238.333 253.838 236.888C254.81 236.226 255.704 235.46 256.504 234.605C260.719 230.198 263.074 224.379 263.094 218.327C262.934 212.353 260.595 206.635 256.504 202.22C253.552 199.584 250.102 197.547 246.349 196.225C242.597 194.904 238.617 194.324 234.636 194.518H209.954C209.37 194.515 208.791 194.626 208.25 194.844C207.71 195.063 207.219 195.385 206.806 195.792C206.393 196.199 206.065 196.682 205.843 197.214C205.621 197.746 205.509 198.316 205.512 198.891V283.923C205.509 284.498 205.621 285.068 205.843 285.601C206.065 286.133 206.393 286.616 206.806 287.023C207.219 287.429 207.71 287.751 208.25 287.97C208.791 288.189 209.37 288.299 209.954 288.296H237.549C251.074 288.296 259.071 284.458 264.427 279.38C269.2 274.487 271.805 267.929 271.671 261.147C271.537 254.364 268.674 247.912 263.711 243.205V243.205ZM214.348 203.264H234.636C242.041 203.264 246.977 205.354 250.112 208.512C252.659 211.136 254.12 214.601 254.209 218.23C254.229 220.078 253.878 221.912 253.175 223.626C252.472 225.34 251.431 226.9 250.112 228.215C246.282 231.625 241.373 233.625 236.216 233.876H214.249L214.348 203.264ZM257.936 272.966C254.011 276.999 247.791 279.453 237.474 279.453H214.249V242.622H237.919C245.025 242.386 251.954 244.827 257.294 249.449C258.988 251.001 260.339 252.882 261.26 254.972C262.182 257.062 262.655 259.318 262.65 261.596C262.654 263.704 262.231 265.791 261.404 267.735C260.578 269.679 259.365 271.441 257.837 272.918L257.936 272.966Z" fill="#FAF5F6"/>
<path d="M363.77 203.216H330.475C329.312 203.168 328.21 202.692 327.387 201.882C326.564 201.072 326.081 199.988 326.032 198.843C326.051 197.689 326.525 196.588 327.355 195.772C328.184 194.956 329.303 194.489 330.475 194.47H406.642C407.228 194.463 407.808 194.572 408.35 194.79C408.892 195.007 409.385 195.329 409.799 195.736C410.212 196.144 410.539 196.628 410.76 197.162C410.981 197.695 411.092 198.267 411.085 198.843C411.072 199.999 410.6 201.104 409.77 201.921C408.939 202.739 407.817 203.204 406.642 203.216H372.656V283.778C372.662 284.355 372.552 284.928 372.331 285.463C372.111 285.998 371.784 286.484 371.371 286.893C370.957 287.302 370.465 287.627 369.923 287.847C369.381 288.067 368.8 288.179 368.213 288.175C367.046 288.127 365.941 287.648 365.117 286.833C364.294 286.017 363.813 284.927 363.77 283.778V203.216Z" fill="#FAF5F6"/>
<path d="M496.212 288.175C495.045 288.127 493.939 287.647 493.116 286.832C492.292 286.017 491.812 284.926 491.769 283.777V198.745C491.782 197.59 492.254 196.485 493.084 195.667C493.915 194.85 495.037 194.385 496.212 194.372C496.797 194.366 497.378 194.475 497.92 194.692C498.462 194.909 498.954 195.231 499.368 195.639C499.782 196.046 500.109 196.531 500.33 197.064C500.551 197.598 500.661 198.169 500.655 198.745V283.777C500.661 284.355 500.551 284.927 500.33 285.462C500.11 285.997 499.783 286.483 499.369 286.893C498.956 287.302 498.464 287.626 497.922 287.846C497.379 288.066 496.798 288.178 496.212 288.175V288.175Z" fill="#FAF5F6"/>
<path d="M436.828 230.11C437.618 229.454 438.506 228.871 439.296 228.288C439.348 228.127 439.435 227.979 439.55 227.853C439.664 227.727 439.805 227.627 439.962 227.559L440.851 227.146C442.885 225.894 444.995 224.766 447.17 223.769H447.342C449.746 222.673 451.961 221.214 453.908 219.445C456.364 217.03 457.898 213.855 458.252 210.456C458.252 209.946 459.115 209.484 459.535 209.29C459.955 209.095 460.72 208.779 460.67 209.29C460.185 213.145 458.373 216.72 455.537 219.421C454.982 219.955 454.397 220.458 453.784 220.927L454.648 220.538C463.352 217.067 471.492 212.36 478.811 206.569C488.276 198.183 495.448 187.59 499.667 175.763C487.845 183.367 474.788 187.91 461.534 192.575C450.748 196.389 440.629 200.811 433.545 210.067C426.462 219.323 423.525 230.766 422.562 242.258C422.315 245.27 422.192 248.283 422.118 251.32C425.299 243.23 430.332 235.972 436.828 230.11V230.11Z" fill="#FAF5F6"/>
<path d="M500.852 221.802C500.852 215.363 500.852 208.901 500.852 202.366C500.852 195.83 500.852 189.465 500.852 182.93C500.852 182.493 500.728 180.986 500.605 179.383C496.669 188.785 490.852 197.311 483.501 204.455C476.973 210.409 469.514 215.29 461.411 218.911C457.536 220.708 453.439 222.336 449.489 224.183C458.469 222.682 467.699 223.823 476.022 227.462C477.577 228.094 475.504 229.6 474.443 229.163C463.953 224.838 451.489 223.284 441.196 229.017C441.007 229.125 440.797 229.192 440.579 229.212C431.324 235.99 424.314 248.793 422.019 259.75C422.019 262.18 422.019 264.609 422.019 267.039C422.019 273.598 422.019 280.134 422.019 286.693C422.019 293.253 422.019 299.181 422.019 305.425C422.019 310.867 422.019 316.333 422.142 321.775C422.142 322.261 422.29 327.168 422.364 324.545C422.587 315.483 422.636 306.421 422.636 297.359C422.636 297.067 422.636 296.776 422.636 296.508C424.141 279.502 430.608 262.301 446.503 253.531C454.228 249.279 462.842 246.801 471.185 243.813C481.613 240.334 491.562 235.592 500.803 229.697C501.048 227.072 501.065 224.43 500.852 221.802V221.802Z" fill="#FAF5F6"/>
<path d="M178.708 290.095C177.543 290.041 176.44 289.56 175.618 288.746C174.796 287.932 174.313 286.844 174.265 285.697V200.665C174.284 199.511 174.758 198.41 175.587 197.594C176.416 196.778 177.535 196.311 178.708 196.292C179.294 196.286 179.876 196.394 180.419 196.612C180.963 196.829 181.457 197.15 181.872 197.557C182.288 197.964 182.618 198.449 182.841 198.982C183.065 199.516 183.178 200.088 183.175 200.665V285.697C183.178 286.276 183.065 286.849 182.842 287.384C182.618 287.919 182.289 288.405 181.874 288.814C181.458 289.223 180.965 289.547 180.421 289.767C179.878 289.986 179.295 290.098 178.708 290.095Z" fill="#FAF5F6"/>
<path d="M119.348 232.054C120.138 231.374 121.027 230.815 121.816 230.208C121.941 229.893 122.178 229.634 122.483 229.479C122.779 229.333 123.1 229.236 123.396 229.066C125.41 227.845 127.495 226.742 129.64 225.762H129.789C132.217 224.628 134.456 223.137 136.428 221.34C138.876 218.91 140.408 215.73 140.772 212.327C140.772 211.817 141.636 211.379 142.031 211.161C142.426 210.942 143.24 210.65 143.166 211.161C142.707 215.037 140.892 218.636 138.032 221.34C137.486 221.867 136.909 222.361 136.304 222.822L137.168 222.433C145.866 218.961 154.006 214.264 161.332 208.488C170.799 200.075 177.97 189.458 182.188 177.609C170.34 185.214 157.309 189.757 144.055 194.421C133.269 198.236 123.125 202.657 116.066 211.914C109.007 221.17 106.02 232.637 105.082 244.104C104.835 247.117 104.712 250.13 104.613 253.166C107.807 245.106 112.85 237.881 119.348 232.054V232.054Z" fill="#FAF5F6"/>
<path d="M183.372 223.769C183.372 217.331 183.372 210.869 183.372 204.334C183.372 197.798 183.372 191.433 183.372 184.898C183.372 184.46 183.224 182.954 183.126 181.351C179.195 190.761 173.368 199.29 165.997 206.423C159.461 212.311 152.012 217.134 143.931 220.708C140.031 222.53 135.959 224.134 132.01 225.98C140.981 224.48 150.203 225.621 158.518 229.26C160.073 229.892 158.024 231.398 156.963 230.961C146.449 226.636 133.984 225.081 123.692 230.815C123.512 230.923 123.31 230.989 123.1 231.009C113.82 237.788 106.81 250.591 104.539 261.572C104.539 264.002 104.539 266.431 104.539 268.861C104.539 275.42 105.058 284.774 105.058 291.309C105.058 297.844 113.178 264.123 129.098 255.353C136.798 251.101 145.437 248.623 153.779 245.635C164.21 242.15 174.159 237.401 183.397 231.495C183.608 228.924 183.6 226.339 183.372 223.769V223.769Z" fill="#FAF5F6"/>
<path d="M303.226 289.487C302.061 289.434 300.959 288.952 300.137 288.138C299.315 287.324 298.832 286.237 298.784 285.09V200.058C298.803 198.904 299.277 197.803 300.106 196.986C300.935 196.17 302.054 195.704 303.226 195.685C303.813 195.678 304.395 195.787 304.938 196.004C305.481 196.221 305.975 196.543 306.391 196.95C306.807 197.357 307.136 197.841 307.36 198.375C307.584 198.909 307.697 199.481 307.694 200.058V285.09C307.697 285.668 307.584 286.242 307.36 286.777C307.137 287.311 306.808 287.798 306.393 288.207C305.977 288.615 305.483 288.939 304.94 289.159C304.396 289.379 303.814 289.491 303.226 289.487V289.487Z" fill="#FAF5F6"/>
</g>
</g>
</g>
<defs>
<clipPath id="clip0_904_347">
<rect width="500" height="369" fill="white"/>
</clipPath>
<clipPath id="clip1_904_347">
<rect width="607" height="214" fill="white" transform="translate(-53 78)"/>
</clipPath>
<clipPath id="clip2_904_347">
<rect width="500" height="247.312" fill="white" transform="translate(1 78)"/>
</clipPath>
</defs>
</svg>
