<svg width="500" height="500" viewBox="0 0 500 500" fill="none" xmlns="http://www.w3.org/2000/svg">
<g clip-path="url(#clip0_904_347)">
<g clip-path="url(#clip1_904_347)">
<g clip-path="url(#clip2_904_347)">
<path d="M9.91006 158.938V232.332C9.91338 232.91 9.79991 233.482 9.57627 234.015C9.35263 234.549 9.0233 235.034 8.60748 235.441C8.19165 235.848 7.69766 236.169 7.1543 236.386C6.61095 236.603 6.0291 236.712 5.4427 236.706C4.28185 236.652 3.18298 236.174 2.36124 235.366C1.53951 234.557 1.05408 233.475 1 232.332V147.373C1.01119 146.246 1.45946 145.165 2.25314 144.353C3.04682 143.54 4.12596 143.056 5.26993 143C7.93554 143 9.1943 143.535 10.0828 144.75C22.0041 160.347 50.6594 195.55 70.2319 220.768V147.373C70.2448 146.217 70.717 145.112 71.5474 144.295C72.3778 143.478 73.5003 143.013 74.6746 143C75.2599 142.994 75.8406 143.102 76.3826 143.32C76.9246 143.537 77.417 143.859 77.8308 144.267C78.2447 144.674 78.5717 145.159 78.7926 145.692C79.0135 146.226 79.1239 146.797 79.1173 147.373V232.405C79.1372 233.542 78.6992 234.64 77.8991 235.459C77.0989 236.279 76.0017 236.753 74.8474 236.778C73.9412 236.931 73.0104 236.849 72.1455 236.543C71.2806 236.236 70.5108 235.715 69.9111 235.029C53.5718 213.455 25.9037 179.248 9.91006 158.938Z" fill="#FAF5F6"/>
<path d="M143.586 229.514C163.331 229.514 174.536 218.654 174.536 198.708V147.373C174.556 146.215 175.033 145.11 175.868 144.294C176.702 143.477 177.827 143.013 179.004 143C179.588 142.997 180.167 143.108 180.708 143.327C181.248 143.545 181.739 143.867 182.153 144.274C182.566 144.681 182.893 145.164 183.115 145.696C183.337 146.228 183.45 146.798 183.447 147.373V198.708C183.447 224.267 169.032 238.285 143.586 238.285C120.459 238.285 104.441 224.267 104.441 199.219V147.373C104.454 146.217 104.926 145.112 105.756 144.295C106.587 143.478 107.709 143.013 108.883 143C109.469 142.994 110.049 143.102 110.591 143.32C111.133 143.537 111.626 143.859 112.04 144.267C112.453 144.674 112.78 145.159 113.001 145.692C113.222 146.226 113.333 146.797 113.326 147.373V199.219C113.326 218.654 125.79 229.514 143.586 229.514Z" fill="#FAF5F6"/>
<path d="M69.5162 307.622H9.91006V348.777C9.91334 349.356 9.80003 349.929 9.57669 350.464C9.35334 350.999 9.0244 351.485 8.60891 351.894C8.19342 352.303 7.69963 352.627 7.15615 352.847C6.61266 353.066 6.03028 353.178 5.4427 353.175C4.27778 353.121 3.17554 352.64 2.3532 351.826C1.53087 351.012 1.04809 349.924 1 348.777V263.745C1.01907 262.591 1.49327 261.49 2.32234 260.674C3.15141 259.858 4.27037 259.391 5.4427 259.372C6.0291 259.366 6.61095 259.474 7.1543 259.692C7.69766 259.909 8.19165 260.23 8.60748 260.637C9.0233 261.044 9.35263 261.529 9.57627 262.062C9.79991 262.596 9.91338 263.168 9.91006 263.745V298.876H69.5162V263.843C69.529 262.687 70.0012 261.582 70.8316 260.764C71.662 259.947 72.7846 259.482 73.9588 259.47C74.5441 259.463 75.1248 259.572 75.6668 259.789C76.2088 260.007 76.7012 260.328 77.115 260.736C77.5289 261.143 77.8559 261.628 78.0768 262.161C78.2978 262.695 78.4082 263.267 78.4015 263.843V348.875C78.4081 349.452 78.2979 350.025 78.0772 350.559C77.8566 351.094 77.53 351.58 77.1165 351.99C76.7029 352.399 76.2107 352.723 75.6686 352.943C75.1265 353.164 74.5453 353.275 73.9588 353.272C72.792 353.224 71.6866 352.744 70.8631 351.929C70.0396 351.114 69.5586 350.023 69.5162 348.875V307.622Z" fill="#FAF5F6"/>
<path d="M263.711 308.205C260.875 305.479 257.52 303.333 253.838 301.888C254.81 301.226 255.704 300.46 256.504 299.605C260.719 295.198 263.074 289.379 263.094 283.327C262.934 277.353 260.595 271.635 256.504 267.22C253.552 264.584 250.102 262.547 246.349 261.225C242.597 259.904 238.617 259.324 234.636 259.518H209.954C209.37 259.515 208.791 259.626 208.25 259.844C207.71 260.063 207.219 260.385 206.806 260.792C206.393 261.199 206.065 261.682 205.843 262.214C205.621 262.746 205.509 263.316 205.512 263.891V348.923C205.509 349.498 205.621 350.068 205.843 350.601C206.065 351.133 206.393 351.616 206.806 352.023C207.219 352.429 207.71 352.751 208.25 352.97C208.791 353.189 209.37 353.299 209.954 353.296H237.549C251.074 353.296 259.071 349.458 264.427 344.38C269.2 339.487 271.805 332.929 271.671 326.147C271.537 319.364 268.674 312.912 263.711 308.205V308.205ZM214.348 268.264H234.636C242.041 268.264 246.977 270.354 250.112 273.512C252.659 276.136 254.12 279.601 254.209 283.23C254.229 285.078 253.878 286.912 253.175 288.626C252.472 290.34 251.431 291.9 250.112 293.215C246.282 296.625 241.373 298.625 236.216 298.876H214.249L214.348 268.264ZM257.936 337.966C254.011 341.999 247.791 344.453 237.474 344.453H214.249V307.622H237.919C245.025 307.386 251.954 309.827 257.294 314.449C258.988 316.001 260.339 317.882 261.26 319.972C262.182 322.062 262.655 324.318 262.65 326.596C262.654 328.704 262.231 330.791 261.404 332.735C260.578 334.679 259.365 336.441 257.837 337.918L257.936 337.966Z" fill="#FAF5F6"/>
<path d="M363.77 268.216H330.475C329.312 268.168 328.21 267.692 327.387 266.882C326.564 266.072 326.081 264.988 326.032 263.843C326.051 262.689 326.525 261.588 327.355 260.772C328.184 259.956 329.303 259.489 330.475 259.47H406.642C407.228 259.463 407.808 259.572 408.35 259.79C408.892 260.007 409.385 260.329 409.799 260.736C410.212 261.144 410.539 261.628 410.76 262.162C410.981 262.695 411.092 263.267 411.085 263.843C411.072 264.999 410.6 266.104 409.77 266.921C408.939 267.739 407.817 268.204 406.642 268.216H372.656V348.778C372.662 349.355 372.552 349.928 372.331 350.463C372.111 350.998 371.784 351.484 371.371 351.893C370.957 352.302 370.465 352.627 369.923 352.847C369.381 353.067 368.8 353.179 368.213 353.175C367.046 353.127 365.941 352.648 365.117 351.833C364.294 351.017 363.813 349.927 363.77 348.778V268.216Z" fill="#FAF5F6"/>
<path d="M496.212 353.175C495.045 353.127 493.939 352.647 493.116 351.832C492.292 351.017 491.812 349.926 491.769 348.777V263.745C491.782 262.59 492.254 261.485 493.084 260.667C493.915 259.85 495.037 259.385 496.212 259.372C496.797 259.366 497.378 259.475 497.92 259.692C498.462 259.909 498.954 260.231 499.368 260.639C499.782 261.046 500.109 261.531 500.33 262.064C500.551 262.598 500.661 263.169 500.655 263.745V348.777C500.661 349.355 500.551 349.927 500.33 350.462C500.11 350.997 499.783 351.483 499.369 351.893C498.956 352.302 498.464 352.626 497.922 352.846C497.379 353.066 496.798 353.178 496.212 353.175V353.175Z" fill="#FAF5F6"/>
<path d="M436.828 295.11C437.618 294.454 438.506 293.871 439.296 293.288C439.348 293.127 439.435 292.979 439.55 292.853C439.664 292.727 439.805 292.627 439.962 292.559L440.851 292.146C442.885 290.894 444.995 289.766 447.17 288.769H447.342C449.746 287.673 451.961 286.214 453.908 284.445C456.364 282.03 457.898 278.855 458.252 275.456C458.252 274.946 459.115 274.484 459.535 274.29C459.955 274.095 460.72 273.779 460.67 274.29C460.185 278.145 458.373 281.72 455.537 284.421C454.982 284.955 454.397 285.458 453.784 285.927L454.648 285.538C463.352 282.067 471.492 277.36 478.811 271.569C488.276 263.183 495.448 252.59 499.667 240.763C487.845 248.367 474.788 252.91 461.534 257.575C450.748 261.389 440.629 265.811 433.545 275.067C426.462 284.323 423.525 295.766 422.562 307.258C422.315 310.27 422.192 313.283 422.118 316.32C425.299 308.23 430.332 300.972 436.828 295.11V295.11Z" fill="#FAF5F6"/>
<path d="M500.852 286.802C500.852 280.363 500.852 273.901 500.852 267.366C500.852 260.83 500.852 254.465 500.852 247.93C500.852 247.493 500.728 245.986 500.605 244.383C496.669 253.785 490.852 262.311 483.501 269.455C476.973 275.409 469.514 280.29 461.411 283.911C457.536 285.708 453.439 287.336 449.489 289.183C458.469 287.682 467.699 288.823 476.022 292.462C477.577 293.094 475.504 294.6 474.443 294.163C463.953 289.838 451.489 288.284 441.196 294.017C441.007 294.125 440.797 294.192 440.579 294.212C431.324 300.99 424.314 313.793 422.019 324.75C422.019 327.18 422.019 329.609 422.019 332.039C422.019 338.598 422.019 345.134 422.019 351.693C422.019 358.253 422.019 364.181 422.019 370.425C422.019 375.867 422.019 381.333 422.142 386.775C422.142 387.261 422.29 392.168 422.364 389.545C422.587 380.483 422.636 371.421 422.636 362.359C422.636 362.067 422.636 361.776 422.636 361.508C424.141 344.502 430.608 327.301 446.503 318.531C454.228 314.279 462.842 311.801 471.185 308.813C481.613 305.334 491.562 300.592 500.803 294.697C501.048 292.072 501.065 289.43 500.852 286.802V286.802Z" fill="#FAF5F6"/>
<path d="M178.708 355.095C177.543 355.041 176.44 354.56 175.618 353.746C174.796 352.932 174.313 351.844 174.265 350.697V265.665C174.284 264.511 174.758 263.41 175.587 262.594C176.416 261.778 177.535 261.311 178.708 261.292C179.294 261.286 179.876 261.394 180.419 261.612C180.963 261.829 181.457 262.15 181.872 262.557C182.288 262.964 182.618 263.449 182.841 263.982C183.065 264.516 183.178 265.088 183.175 265.665V350.697C183.178 351.276 183.065 351.849 182.842 352.384C182.618 352.919 182.289 353.405 181.874 353.814C181.458 354.223 180.965 354.547 180.421 354.767C179.878 354.986 179.295 355.098 178.708 355.095Z" fill="#FAF5F6"/>
<path d="M119.348 297.054C120.138 296.374 121.027 295.815 121.816 295.208C121.941 294.893 122.178 294.634 122.483 294.479C122.779 294.333 123.1 294.236 123.396 294.066C125.41 292.845 127.495 291.742 129.64 290.762H129.789C132.217 289.628 134.456 288.137 136.428 286.34C138.876 283.91 140.408 280.73 140.772 277.327C140.772 276.817 141.636 276.379 142.031 276.161C142.426 275.942 143.24 275.65 143.166 276.161C142.707 280.037 140.892 283.636 138.032 286.34C137.486 286.867 136.909 287.361 136.304 287.822L137.168 287.433C145.866 283.961 154.006 279.264 161.332 273.488C170.799 265.075 177.97 254.458 182.188 242.609C170.34 250.214 157.309 254.757 144.055 259.421C133.269 263.236 123.125 267.657 116.066 276.914C109.007 286.17 106.02 297.637 105.082 309.104C104.835 312.117 104.712 315.13 104.613 318.166C107.807 310.106 112.85 302.881 119.348 297.054V297.054Z" fill="#FAF5F6"/>
<path d="M183.372 288.769C183.372 282.331 183.372 275.869 183.372 269.334C183.372 262.798 183.372 256.433 183.372 249.898C183.372 249.46 183.224 247.954 183.126 246.351C179.195 255.761 173.368 264.29 165.997 271.423C159.461 277.311 152.012 282.134 143.931 285.708C140.031 287.53 135.959 289.134 132.01 290.98C140.981 289.48 150.203 290.621 158.518 294.26C160.073 294.892 158.024 296.398 156.963 295.961C146.449 291.636 133.984 290.081 123.692 295.815C123.512 295.923 123.31 295.989 123.1 296.009C113.82 302.788 106.81 315.591 104.539 326.572C104.539 329.002 104.539 331.431 104.539 333.861C104.539 340.42 105.058 349.774 105.058 356.309C105.058 362.844 113.178 329.123 129.098 320.353C136.798 316.101 145.437 313.623 153.779 310.635C164.21 307.15 174.159 302.401 183.397 296.495C183.608 293.924 183.6 291.339 183.372 288.769V288.769Z" fill="#FAF5F6"/>
<path d="M303.226 354.487C302.061 354.434 300.959 353.952 300.137 353.138C299.315 352.324 298.832 351.237 298.784 350.09V265.058C298.803 263.904 299.277 262.803 300.106 261.986C300.935 261.17 302.054 260.704 303.226 260.685C303.813 260.678 304.395 260.787 304.938 261.004C305.481 261.221 305.975 261.543 306.391 261.95C306.807 262.357 307.136 262.841 307.36 263.375C307.584 263.909 307.697 264.481 307.694 265.058V350.09C307.697 350.668 307.584 351.242 307.36 351.777C307.137 352.311 306.808 352.798 306.393 353.207C305.977 353.615 305.483 353.939 304.94 354.159C304.396 354.379 303.814 354.491 303.226 354.487V354.487Z" fill="#FAF5F6"/>
</g>
</g>
</g>
<defs>
<clipPath id="clip0_904_347">
<rect width="500" height="500" fill="white"/>
</clipPath>
<clipPath id="clip1_904_347">
<rect width="607" height="214" fill="white" transform="translate(-53 143)"/>
</clipPath>
<clipPath id="clip2_904_347">
<rect width="500" height="247.312" fill="white" transform="translate(1 143)"/>
</clipPath>
</defs>
</svg>
