<svg width="500" height="500" viewBox="0 0 500 500" fill="none" xmlns="http://www.w3.org/2000/svg">
<g clip-path="url(#clip0_904_373)">
<path d="M244.68 273.328C244.845 276.025 243.909 278.31 242.285 280.43C231.523 294.44 220.815 308.45 210.08 322.461C198.795 337.215 187.537 351.941 176.251 366.694C168.902 376.273 161.553 385.852 154.204 395.431C150.295 400.523 143.414 401.487 138.376 397.633C133.532 393.945 132.569 387.008 136.34 381.943C140.606 376.246 145.01 370.603 149.332 364.933C160.589 350.289 171.82 335.646 183.078 320.975C195.327 305.01 207.548 289.018 219.769 273.053C221.503 270.796 223.182 268.539 224.972 266.309C227.641 262.978 231.825 261.217 237.33 262.896C242.01 264.355 244.68 268.346 244.68 273.328Z" fill="#FAF5F6"/>
<path d="M236.422 146.16C236.863 131.572 248.561 121.222 262.049 121.58C276.362 121.965 287.344 133.719 286.491 148.114C285.665 161.987 273.829 172.282 260.094 171.594C247.625 170.96 236.34 160.749 236.422 146.16Z" fill="#FAF5F6"/>
<path d="M304.052 163.529C303.832 161.051 304.74 158.794 306.309 156.785C317.209 142.554 328.109 128.351 339.01 114.148C341.459 110.955 343.909 107.762 346.359 104.569C350.24 99.5596 356.956 98.5137 361.993 102.175C366.948 105.78 368.131 112.717 364.333 117.754C356.984 127.553 349.497 137.242 342.065 146.958C336.229 154.583 330.367 162.18 324.531 169.805C322.384 172.612 319.742 174.539 316.108 174.869C309.447 175.475 303.667 170.052 304.052 163.529Z" fill="#FAF5F6"/>
<path d="M291.528 214.066C295.189 215.58 298.547 216.983 301.905 218.387C302.841 218.773 303.777 219.158 304.658 219.626C310.08 222.488 312.117 228.379 309.805 234.132C308.264 237.958 302.538 242.444 296.07 240.077C292.299 238.701 288.638 237.077 284.922 235.536C280.023 233.499 275.123 231.544 270.279 229.37C268.572 228.599 266.865 227.581 265.544 226.259C262.104 222.846 261.36 216.763 264.581 212.414C268.132 207.652 271.737 202.945 275.343 198.211C277.518 195.376 279.692 192.568 281.867 189.761C284.729 186.1 288.556 184.668 293.042 185.577C297.639 186.54 300.612 189.458 301.658 194.11C302.401 197.413 301.713 200.468 299.703 203.193C297.364 206.359 294.941 209.441 292.547 212.579C292.271 212.965 292.024 213.35 291.528 214.066Z" fill="#FAF5F6"/>
<path d="M253.928 234.104C255.662 234.6 257.507 234.903 259.158 235.591C273.334 241.454 287.509 247.372 301.657 253.29C304.052 254.281 306.282 255.464 307.878 257.611C310.603 261.217 310.796 266.695 308.236 270.493C305.676 274.319 300.859 276.384 296.51 275.062C292.849 273.961 289.326 272.42 285.775 270.961C273.967 266.089 262.186 261.107 250.35 256.235C245.533 254.253 242.67 250.675 242.698 245.583C242.753 238.921 247.735 234.407 253.928 234.104Z" fill="#FAF5F6"/>
<path d="M249.414 205.422C247.845 204.982 246.194 204.734 244.707 204.101C229.954 197.991 215.228 191.77 200.446 185.687C193.372 182.769 191.391 174.071 195.85 168.291C198.767 164.492 204.245 163.061 209.227 165.098C216.163 167.933 223.045 170.85 229.981 173.741C237.578 176.906 245.148 180.099 252.745 183.182C256.13 184.558 258.773 186.678 260.067 190.146C262.847 197.55 257.452 205.175 249.414 205.422Z" fill="#FAF5F6"/>
<path d="M294.171 309.964C292.74 309.607 290.978 309.386 289.409 308.726C279.197 304.514 268.985 300.248 258.801 295.954C257.452 295.376 256.076 294.798 254.92 293.972C250.048 290.504 249.69 284.035 251.782 279.907C254.204 275.145 259.709 272.695 264.829 274.512C270.499 276.549 276.032 278.971 281.619 281.255C287.372 283.623 293.097 285.99 298.823 288.412C303.447 290.366 305.842 294.743 305.704 299.037C305.511 304.349 302.291 307.9 298.245 309.194C297.061 309.579 295.767 309.689 294.171 309.964Z" fill="#FAF5F6"/>
<path d="M215.503 255.243C208.043 255.931 201.19 246.958 205.979 238.728C207.41 236.306 209.31 234.131 211.016 231.874C215.227 226.342 219.439 220.809 223.705 215.331C227.339 210.652 233.642 209.496 238.431 212.496C244.074 216.019 245.505 223.396 241.514 228.764C237.688 233.911 233.752 238.948 229.844 244.013C228.054 246.325 226.265 248.637 224.504 250.977C222.467 253.757 218.861 255.629 215.503 255.243Z" fill="#FAF5F6"/>
</g>
<defs>
<clipPath id="clip0_904_373">
<rect width="232.59" height="300" fill="white" transform="translate(134 100)"/>
</clipPath>
</defs>
</svg>
