<svg width="500" height="369" viewBox="0 0 500 369" fill="none" xmlns="http://www.w3.org/2000/svg">
<path d="M170.749 195.85C183.073 186.14 197.428 181.357 214.102 181.357C233.096 181.357 249.336 187.734 263.111 200.632C269.925 207.01 274.999 213.966 278.334 221.793C281.669 229.618 283.409 238.025 283.409 247.155C283.409 265.416 276.595 280.924 263.111 293.678C249.481 306.577 233.096 312.953 214.102 312.953C194.963 312.953 178.723 306.577 165.094 293.678C151.609 280.779 144.795 265.416 144.795 247.155V137.299C144.795 133.821 145.955 130.922 148.42 128.603C150.885 126.284 153.929 125.125 157.699 125.125C161.324 125.125 164.369 126.284 166.979 128.603C169.444 130.922 170.749 133.821 170.749 137.299V195.85ZM214.102 288.169C220.047 288.169 225.702 287.011 231.066 284.837C236.286 282.662 240.926 279.619 244.841 275.851C248.756 272.083 251.801 267.735 254.12 262.807C256.44 257.88 257.455 252.518 257.455 246.866C257.455 241.213 256.295 235.996 254.12 230.923C251.801 225.996 248.756 221.647 244.841 217.88C240.926 214.111 236.286 211.213 231.066 208.894C225.847 206.719 220.192 205.561 214.102 205.561C208.012 205.561 202.357 206.719 196.993 208.894C191.773 211.068 187.133 214.111 183.218 217.735C179.303 221.502 176.259 225.851 173.939 230.778C171.619 235.85 170.604 241.068 170.604 246.72C170.604 252.373 171.764 257.735 173.939 262.663C176.259 267.735 179.303 272.083 183.218 275.706C187.133 279.475 191.628 282.373 196.993 284.547C202.357 287.156 208.012 288.169 214.102 288.169Z" fill="#FAF5F6" stroke="#FAF5F6" stroke-width="32" stroke-miterlimit="10"/>
<path d="M350.253 150.343C346.772 142.806 342.133 136.429 336.188 130.922C330.242 125.415 323.428 121.067 315.599 117.878C307.769 114.69 299.649 113.096 290.949 113.096C276.159 113.096 263.255 117.154 252.236 125.125V68.7476C252.091 65.2693 250.786 62.3709 248.321 60.0519C245.856 57.733 242.811 56.4287 239.186 56.4287C235.707 56.4287 232.662 57.5881 230.052 60.0519C227.587 62.3709 226.282 65.4142 226.282 68.7476V157.299C235.707 157.589 244.986 160.343 253.541 164.546C253.976 162.951 254.556 161.502 255.136 160.053C257.166 155.56 259.921 151.647 263.546 148.314C267.025 144.98 271.231 142.371 275.87 140.342C280.509 138.458 285.585 137.444 290.949 137.444C296.17 137.444 301.244 138.458 305.883 140.342C310.524 142.227 314.728 144.98 318.209 148.314C321.688 151.647 324.443 155.56 326.618 160.053C328.647 164.546 329.663 169.183 329.663 174.256V231.938C329.663 235.416 330.968 238.314 333.433 240.633C335.898 242.952 338.942 244.257 342.568 244.257C346.047 244.257 349.093 243.097 351.702 240.633C354.167 238.314 355.472 235.27 355.617 231.938V174.256C355.472 165.85 353.732 157.879 350.253 150.343Z" fill="#FAF5F6" stroke="#FAF5F6" stroke-width="32" stroke-miterlimit="10"/>
<path d="M342.423 290.424C350.67 290.424 357.358 284.066 357.358 276.221C357.358 268.378 350.67 262.02 342.423 262.02C334.174 262.02 327.489 268.378 327.489 276.221C327.489 284.066 334.174 290.424 342.423 290.424Z" fill="#FAF5F6"/>
<path d="M156.684 104.044C164.932 104.044 171.619 97.6852 171.619 89.8412C171.619 81.9971 164.932 75.6382 156.684 75.6382C148.436 75.6382 141.75 81.9971 141.75 89.8412C141.75 97.6852 148.436 104.044 156.684 104.044Z" stroke="#FAF5F6" stroke-width="3" stroke-miterlimit="10"/>
</svg>
