<svg width="353" height="175" viewBox="0 0 353 175" fill="none" xmlns="http://www.w3.org/2000/svg">
<g clip-path="url(#clip0_1_58)">
<path d="M6.77268 11.7132V63.3512C6.77502 63.7573 6.69514 64.1599 6.5377 64.5353C6.38025 64.9108 6.1484 65.2516 5.85566 65.538C5.56292 65.8244 5.21515 66.0506 4.83263 66.2034C4.45011 66.3562 4.04049 66.4325 3.62766 66.428C2.81042 66.3905 2.03682 66.0543 1.45832 65.4852C0.879814 64.9162 0.538072 64.1552 0.5 63.3512V3.57694C0.507876 2.78376 0.823458 2.02351 1.38221 1.45161C1.94096 0.879715 2.70068 0.539381 3.50603 0.500194C5.38262 0.500194 6.26878 0.876241 6.89431 1.73089C15.2869 12.7046 35.4602 37.4724 49.2393 55.2149V3.57694C49.2483 2.76369 49.5807 1.98626 50.1653 1.41118C50.7499 0.836093 51.5402 0.509083 52.3669 0.500194C52.779 0.495614 53.1878 0.572068 53.5693 0.725067C53.9509 0.878066 54.2975 1.10453 54.5889 1.39114C54.8803 1.67776 55.1105 2.01876 55.266 2.39412C55.4215 2.76948 55.4993 3.17162 55.4946 3.57694V63.4025C55.5086 64.202 55.2002 64.9745 54.6369 65.551C54.0737 66.1276 53.3012 66.4613 52.4886 66.4792C51.8506 66.5862 51.1953 66.5292 50.5864 66.3135C49.9775 66.0979 49.4356 65.731 49.0134 65.2485C37.5106 50.0699 18.0322 26.003 6.77268 11.7132Z" fill="#FAF5F6"/>
<path d="M100.88 61.3684C114.781 61.3684 122.67 53.7278 122.67 39.6945V3.57694C122.683 2.76214 123.019 1.9847 123.607 1.41007C124.194 0.835441 124.986 0.508992 125.815 0.500194C126.226 0.497927 126.634 0.575962 127.014 0.729779C127.395 0.883597 127.741 1.11014 128.031 1.3963C128.322 1.68245 128.553 2.02253 128.709 2.39684C128.865 2.77115 128.945 3.17226 128.942 3.57694V39.6945C128.942 57.6763 118.795 67.539 100.88 67.539C84.5992 67.539 73.3222 57.6763 73.3222 40.0534V3.57694C73.3313 2.76369 73.6637 1.98626 74.2483 1.41118C74.8329 0.836093 75.6232 0.509083 76.4499 0.500194C76.8619 0.495614 77.2707 0.572068 77.6523 0.725067C78.0338 0.878066 78.3805 1.10453 78.6718 1.39114C78.9632 1.67776 79.1934 2.01876 79.3489 2.39412C79.5045 2.76948 79.5822 3.17162 79.5775 3.57694V40.0534C79.5775 53.7278 88.3523 61.3684 100.88 61.3684Z" fill="#FAF5F6"/>
<path d="M48.7354 116.322H6.77269V145.278C6.77499 145.685 6.69522 146.088 6.53799 146.465C6.38075 146.841 6.14917 147.183 5.85667 147.471C5.56417 147.758 5.21654 147.986 4.83393 148.141C4.45132 148.296 4.04131 148.374 3.62766 148.372C2.80756 148.334 2.03158 147.995 1.45265 147.423C0.873731 146.85 0.533853 146.085 0.5 145.278V85.4524C0.513422 84.6405 0.847262 83.8656 1.43093 83.2914C2.01459 82.7173 2.80234 82.3889 3.62766 82.3757C4.04049 82.3711 4.45011 82.4475 4.83263 82.6003C5.21515 82.7531 5.56292 82.9793 5.85566 83.2657C6.1484 83.552 6.38025 83.8929 6.5377 84.2683C6.69514 84.6438 6.77502 85.0463 6.77269 85.4524V110.169H48.7354V85.5208C48.7444 84.7075 49.0768 83.9301 49.6614 83.355C50.246 82.7799 51.0363 82.4529 51.863 82.444C52.275 82.4395 52.6838 82.5159 53.0654 82.6689C53.447 82.8219 53.7936 83.0484 54.085 83.335C54.3763 83.6216 54.6066 83.9626 54.7621 84.338C54.9176 84.7133 54.9953 85.1155 54.9907 85.5208V145.346C54.9953 145.752 54.9177 146.155 54.7624 146.532C54.607 146.908 54.3771 147.25 54.086 147.538C53.7949 147.826 53.4484 148.054 53.0667 148.209C52.6851 148.364 52.2759 148.442 51.863 148.44C51.0416 148.406 50.2634 148.069 49.6836 147.495C49.1039 146.922 48.7653 146.155 48.7354 145.346V116.322Z" fill="#FAF5F6"/>
<path d="M185.449 116.733C183.452 114.815 181.09 113.305 178.498 112.289C179.182 111.823 179.811 111.284 180.375 110.682C183.342 107.582 185 103.488 185.014 99.2296C184.902 95.0265 183.255 91.0037 180.375 87.8969C178.297 86.0425 175.868 84.6093 173.226 83.6795C170.584 82.7498 167.782 82.3416 164.98 82.4785H147.604C147.193 82.4762 146.785 82.5542 146.404 82.708C146.024 82.8619 145.678 83.0884 145.387 83.3746C145.096 83.6607 144.866 84.0008 144.71 84.3751C144.553 84.7494 144.474 85.1505 144.476 85.5552V145.381C144.474 145.785 144.553 146.187 144.71 146.561C144.866 146.935 145.096 147.275 145.387 147.561C145.678 147.848 146.024 148.074 146.404 148.228C146.785 148.382 147.193 148.46 147.604 148.457H167.03C176.552 148.457 182.182 145.757 185.952 142.184C189.313 138.742 191.147 134.128 191.052 129.356C190.958 124.584 188.942 120.044 185.449 116.733ZM150.697 88.6319H164.98C170.193 88.6319 173.668 90.1019 175.874 92.324C177.668 94.1704 178.696 96.6084 178.759 99.1612C178.774 100.462 178.526 101.752 178.031 102.958C177.536 104.164 176.803 105.261 175.874 106.186C173.179 108.585 169.722 109.992 166.092 110.169H150.627L150.697 88.6319ZM181.383 137.672C178.62 140.509 174.241 142.236 166.978 142.236H150.627V116.323H167.291C172.293 116.156 177.172 117.874 180.931 121.126C182.124 122.218 183.074 123.541 183.723 125.012C184.372 126.482 184.705 128.069 184.701 129.672C184.705 131.155 184.407 132.624 183.825 133.991C183.243 135.359 182.389 136.599 181.313 137.638L181.383 137.672Z" fill="#FAF5F6"/>
<path d="M255.89 88.5975H232.45C231.632 88.5639 230.856 88.229 230.277 87.6591C229.697 87.0892 229.357 86.326 229.323 85.5208C229.336 84.7089 229.67 83.934 230.254 83.3598C230.837 82.7856 231.625 82.4572 232.45 82.444H286.072C286.484 82.4395 286.893 82.5159 287.275 82.6689C287.656 82.8219 288.003 83.0484 288.294 83.335C288.586 83.6216 288.816 83.9626 288.971 84.338C289.127 84.7133 289.205 85.1155 289.2 85.5208C289.191 86.334 288.858 87.1115 288.274 87.6865C287.689 88.2616 286.899 88.5886 286.072 88.5975H262.146V145.278C262.15 145.684 262.073 146.087 261.917 146.463C261.762 146.84 261.532 147.182 261.241 147.47C260.95 147.758 260.603 147.986 260.222 148.141C259.84 148.296 259.431 148.374 259.018 148.372C258.197 148.338 257.418 148.001 256.839 147.427C256.259 146.854 255.92 146.086 255.89 145.278V88.5975Z" fill="#FAF5F6"/>
<path d="M349.129 148.372C348.308 148.338 347.529 148.001 346.95 147.427C346.37 146.854 346.031 146.086 346.001 145.278V85.4524C346.011 84.6392 346.343 83.8617 346.928 83.2867C347.512 82.7116 348.302 82.3846 349.129 82.3757C349.541 82.3711 349.95 82.4476 350.332 82.6006C350.713 82.7536 351.06 82.98 351.351 83.2666C351.643 83.5533 351.873 83.8942 352.028 84.2696C352.184 84.645 352.262 85.0471 352.257 85.4524V145.278C352.261 145.684 352.184 146.087 352.029 146.463C351.873 146.84 351.643 147.182 351.352 147.47C351.061 147.758 350.715 147.986 350.333 148.141C349.951 148.296 349.542 148.374 349.129 148.372Z" fill="#FAF5F6"/>
<path d="M307.323 107.52C307.879 107.058 308.504 106.648 309.06 106.238C309.097 106.124 309.158 106.02 309.239 105.932C309.32 105.843 309.419 105.773 309.53 105.725L310.155 105.434C311.587 104.553 313.072 103.76 314.603 103.059H314.725C316.417 102.287 317.977 101.26 319.347 100.016C321.076 98.3169 322.156 96.0831 322.405 93.6915C322.405 93.3326 323.013 93.0078 323.309 92.8711C323.604 92.7343 324.143 92.5121 324.108 92.8711C323.766 95.5833 322.491 98.0987 320.494 99.9989C320.103 100.375 319.691 100.729 319.26 101.059L319.868 100.785C325.996 98.3428 331.727 95.0316 336.879 90.9567C343.543 85.0567 348.592 77.6037 351.562 69.2827C343.239 74.6328 334.047 77.8292 324.716 81.1111C317.123 83.7947 309.999 86.9056 305.012 93.4181C300.025 99.9305 297.957 107.981 297.28 116.066C297.106 118.186 297.019 120.305 296.967 122.442C299.206 116.751 302.75 111.644 307.323 107.52Z" fill="#FAF5F6"/>
<path d="M352.396 101.674C352.396 97.1439 352.396 92.5971 352.396 87.9991C352.396 83.4011 352.396 78.9227 352.396 74.3247C352.396 74.017 352.309 72.9572 352.222 71.8291C349.451 78.4439 345.356 84.4429 340.181 89.4691C335.585 93.6583 330.334 97.0924 324.629 99.6394C321.901 100.904 319.017 102.05 316.237 103.349C322.558 102.293 329.056 103.096 334.916 105.656C336.01 106.101 334.551 107.16 333.804 106.853C326.419 103.81 317.644 102.716 310.398 106.75C310.265 106.826 310.117 106.873 309.964 106.887C303.448 111.656 298.513 120.664 296.897 128.373C296.897 130.082 296.897 131.791 296.897 133.501C296.897 138.116 296.897 142.714 296.897 147.329C296.897 151.944 296.897 156.115 296.897 160.508C296.897 164.337 296.897 168.182 296.984 172.011C296.984 172.353 297.088 175.806 297.141 173.96C297.297 167.584 297.332 161.208 297.332 154.833C297.332 154.628 297.332 154.423 297.332 154.235C298.392 142.269 302.944 130.168 314.134 123.997C319.573 121.006 325.637 119.262 331.51 117.16C338.852 114.712 345.856 111.376 352.361 107.229C352.534 105.381 352.546 103.523 352.396 101.674Z" fill="#FAF5F6"/>
<path d="M125.606 149.722C124.786 149.685 124.01 149.346 123.431 148.773C122.852 148.201 122.512 147.436 122.479 146.629V86.803C122.492 85.9911 122.826 85.2162 123.409 84.642C123.993 84.0679 124.781 83.7395 125.606 83.7263C126.019 83.7217 126.429 83.7981 126.811 83.9509C127.194 84.1037 127.541 84.3299 127.834 84.6162C128.127 84.9026 128.359 85.2435 128.516 85.6189C128.674 85.9944 128.754 86.3969 128.751 86.803V146.629C128.753 147.035 128.674 147.439 128.516 147.815C128.359 148.192 128.128 148.534 127.835 148.821C127.543 149.109 127.195 149.337 126.812 149.492C126.43 149.646 126.02 149.725 125.606 149.722Z" fill="#FAF5F6"/>
<path d="M83.8172 108.887C84.3732 108.408 84.9988 108.015 85.5548 107.588C85.6424 107.366 85.8092 107.184 86.024 107.075C86.2325 106.973 86.4583 106.904 86.6669 106.785C88.0847 105.926 89.5526 105.149 91.063 104.46H91.1672C92.8767 103.662 94.4528 102.613 95.8413 101.349C97.5645 99.639 98.6433 97.402 98.8995 95.0075C98.8995 94.6485 99.5076 94.3408 99.7856 94.187C100.064 94.0332 100.637 93.828 100.585 94.187C100.262 96.9146 98.9841 99.4467 96.9708 101.349C96.5862 101.719 96.1801 102.068 95.7544 102.392L96.3626 102.118C102.486 99.6754 108.216 96.3704 113.374 92.3068C120.039 86.3876 125.087 78.9178 128.056 70.5815C119.716 75.9317 110.541 79.128 101.21 82.4099C93.6172 85.0935 86.4757 88.2044 81.5063 94.7169C76.5368 101.229 74.4343 109.297 73.774 117.365C73.6002 119.485 73.5133 121.604 73.4438 123.741C75.6926 118.07 79.2426 112.986 83.8172 108.887Z" fill="#FAF5F6"/>
<path d="M128.89 103.058C128.89 98.5286 128.89 93.9819 128.89 89.3839C128.89 84.7858 128.89 80.3075 128.89 75.7094C128.89 75.4018 128.786 74.342 128.716 73.2139C125.949 79.8348 121.847 85.8355 116.658 90.8539C112.057 94.9965 106.813 98.3895 101.124 100.905C98.3782 102.187 95.5112 103.315 92.731 104.614C99.0469 103.558 105.539 104.361 111.393 106.921C112.487 107.366 111.045 108.425 110.298 108.118C102.896 105.075 94.1211 103.981 86.8754 108.015C86.7485 108.091 86.606 108.138 86.4583 108.152C79.925 112.921 74.9903 121.929 73.3917 129.655C73.3917 131.364 73.3917 133.074 73.3917 134.783C73.3917 139.398 73.7566 145.979 73.7566 150.577C73.7566 155.175 79.4733 131.45 90.6807 125.279C96.102 122.288 102.184 120.544 108.057 118.442C115.4 115.991 122.404 112.649 128.908 108.494C129.056 106.685 129.05 104.866 128.89 103.058Z" fill="#FAF5F6"/>
<path d="M213.267 149.295C212.447 149.257 211.671 148.918 211.092 148.346C210.513 147.773 210.174 147.008 210.14 146.201V86.3753C210.153 85.5634 210.487 84.7885 211.071 84.2143C211.654 83.6401 212.442 83.3117 213.267 83.2985C213.68 83.294 214.09 83.3703 214.472 83.5231C214.855 83.6759 215.203 83.9021 215.495 84.1885C215.788 84.4749 216.02 84.8157 216.177 85.1912C216.335 85.5666 216.415 85.9692 216.412 86.3753V146.201C216.415 146.608 216.335 147.011 216.178 147.387C216.02 147.764 215.789 148.106 215.496 148.394C215.204 148.681 214.856 148.909 214.474 149.064C214.091 149.218 213.681 149.297 213.267 149.295Z" fill="#FAF5F6"/>
</g>
<defs>
<clipPath id="clip0_1_58">
<rect width="352" height="174" fill="white" transform="translate(0.5 0.5)"/>
</clipPath>
</defs>
</svg>
