<svg width="822" height="137" viewBox="0 0 822 137" fill="none" xmlns="http://www.w3.org/2000/svg">
<g clip-path="url(#clip0_26_343)">
<g filter="url(#filter0_d_26_343)">
<rect width="190" height="135" fill="#FF4F2A"/>
</g>
<path d="M16.8756 47.9091H18.4608V56.5767C18.4608 57.4716 18.2499 58.2706 17.828 58.9737C17.4104 59.6726 16.8202 60.2244 16.0574 60.6293C15.2947 61.0298 14.3998 61.2301 13.3728 61.2301C12.3458 61.2301 11.4509 61.0298 10.6881 60.6293C9.92533 60.2244 9.333 59.6726 8.91113 58.9737C8.49352 58.2706 8.28471 57.4716 8.28471 56.5767V47.9091H9.86994V56.4489C9.86994 57.0881 10.0106 57.657 10.2918 58.1555C10.5731 58.6499 10.9736 59.0398 11.4935 59.3253C12.0177 59.6065 12.6441 59.7472 13.3728 59.7472C14.1015 59.7472 14.7279 59.6065 15.252 59.3253C15.7762 59.0398 16.1768 58.6499 16.4537 58.1555C16.735 57.657 16.8756 57.0881 16.8756 56.4489V47.9091ZM29.2765 53.3807L27.9214 53.7642C27.8362 53.5384 27.7105 53.3189 27.5443 53.1058C27.3823 52.8885 27.1607 52.7095 26.8795 52.5689C26.5982 52.4283 26.2382 52.358 25.7992 52.358C25.1984 52.358 24.6977 52.4964 24.2971 52.7734C23.9008 53.0462 23.7026 53.3935 23.7026 53.8153C23.7026 54.1903 23.839 54.4865 24.1117 54.7038C24.3845 54.9212 24.8106 55.1023 25.3901 55.2472L26.8475 55.6051C27.7254 55.8182 28.3795 56.1442 28.8099 56.5831C29.2403 57.0178 29.4555 57.5781 29.4555 58.2642C29.4555 58.8267 29.2936 59.3295 28.9697 59.7727C28.6501 60.2159 28.2026 60.5653 27.6274 60.821C27.0521 61.0767 26.383 61.2045 25.6203 61.2045C24.6188 61.2045 23.79 60.9872 23.1338 60.5526C22.4775 60.1179 22.062 59.483 21.8873 58.6477L23.3191 58.2898C23.4555 58.8182 23.7133 59.2145 24.0926 59.4787C24.4761 59.7429 24.9768 59.875 25.5947 59.875C26.2978 59.875 26.8561 59.7259 27.2694 59.4276C27.687 59.125 27.8958 58.7628 27.8958 58.3409C27.8958 58 27.7765 57.7145 27.5379 57.4844C27.2992 57.25 26.9328 57.0753 26.4384 56.9602L24.8021 56.5767C23.9029 56.3636 23.2424 56.0334 22.8205 55.5859C22.4029 55.1342 22.1941 54.5696 22.1941 53.892C22.1941 53.3381 22.3497 52.848 22.6607 52.4219C22.9761 51.9957 23.4043 51.6612 23.9455 51.4183C24.491 51.1754 25.1089 51.054 25.7992 51.054C26.7708 51.054 27.5336 51.267 28.0876 51.6932C28.6458 52.1193 29.0421 52.6818 29.2765 53.3807ZM36.7427 61.2045C35.7967 61.2045 34.9807 60.9957 34.2946 60.5781C33.6128 60.1562 33.0865 59.5682 32.7157 58.8139C32.3493 58.0554 32.166 57.1733 32.166 56.1676C32.166 55.1619 32.3493 54.2756 32.7157 53.5085C33.0865 52.7372 33.6021 52.1364 34.2626 51.706C34.9274 51.2713 35.703 51.054 36.5893 51.054C37.1007 51.054 37.6057 51.1392 38.1042 51.3097C38.6028 51.4801 39.0567 51.7571 39.4657 52.1406C39.8748 52.5199 40.2008 53.0227 40.4437 53.6491C40.6866 54.2756 40.8081 55.0469 40.8081 55.9631V56.6023H33.2399V55.2983H39.274C39.274 54.7443 39.1632 54.25 38.9416 53.8153C38.7243 53.3807 38.4132 53.0376 38.0084 52.7862C37.6078 52.5348 37.1348 52.4091 36.5893 52.4091C35.9885 52.4091 35.4686 52.5582 35.0297 52.8565C34.595 53.1506 34.2605 53.5341 34.0261 54.0071C33.7917 54.4801 33.6746 54.9872 33.6746 55.5284V56.3977C33.6746 57.1392 33.8024 57.7678 34.0581 58.2834C34.318 58.7947 34.6781 59.1847 35.1383 59.4531C35.5986 59.7173 36.1334 59.8494 36.7427 59.8494C37.139 59.8494 37.497 59.794 37.8166 59.6832C38.1405 59.5682 38.4196 59.3977 38.654 59.1719C38.8883 58.9418 39.0694 58.6562 39.1973 58.3153L40.6547 58.7244C40.5013 59.2188 40.2434 59.6534 39.8812 60.0284C39.519 60.3991 39.0716 60.6889 38.5389 60.8977C38.0062 61.1023 37.4075 61.2045 36.7427 61.2045ZM44.0028 61V51.1818H45.4602V52.6648H45.5625C45.7415 52.179 46.0653 51.7848 46.5341 51.4822C47.0028 51.1797 47.5312 51.0284 48.1193 51.0284C48.2301 51.0284 48.3686 51.0305 48.5348 51.0348C48.701 51.0391 48.8267 51.0455 48.9119 51.054V52.5881C48.8608 52.5753 48.7436 52.5561 48.5603 52.5305C48.3814 52.5007 48.1917 52.4858 47.9915 52.4858C47.5142 52.4858 47.088 52.5859 46.713 52.7862C46.3423 52.9822 46.0483 53.255 45.8309 53.6044C45.6179 53.9496 45.5113 54.3437 45.5113 54.7869V61H44.0028ZM57.7671 61V47.9091H65.6677V49.3153H59.3524V53.7386H65.2586V55.1449H59.3524V59.5938H65.77V61H57.7671ZM79.8056 47.9091V61H78.2715L71.138 50.7216H71.0102V61H69.4249V47.9091H70.959L78.1181 58.2131H78.246V47.9091H79.8056ZM83.1618 49.3153V47.9091H92.9799V49.3153H88.8635V61H87.2782V49.3153H83.1618ZM96.3265 61V47.9091H104.227V49.3153H97.9117V53.7386H103.818V55.1449H97.9117V59.5938H104.329V61H96.3265ZM107.984 61V47.9091H112.408C113.43 47.9091 114.27 48.0838 114.926 48.4332C115.582 48.7784 116.068 49.2536 116.383 49.8587C116.699 50.4638 116.856 51.152 116.856 51.9233C116.856 52.6946 116.699 53.3786 116.383 53.9751C116.068 54.5717 115.584 55.0405 114.932 55.3814C114.28 55.718 113.447 55.8864 112.433 55.8864H108.854V54.4545H112.382C113.081 54.4545 113.643 54.3523 114.07 54.1477C114.5 53.9432 114.811 53.6534 115.003 53.2784C115.199 52.8991 115.297 52.4474 115.297 51.9233C115.297 51.3991 115.199 50.9411 115.003 50.549C114.807 50.157 114.494 49.8544 114.063 49.6413C113.633 49.424 113.064 49.3153 112.356 49.3153H109.57V61H107.984ZM114.146 55.1193L117.368 61H115.527L112.356 55.1193H114.146ZM127.557 51.1818C127.48 50.5341 127.169 50.0312 126.624 49.6733C126.078 49.3153 125.409 49.1364 124.617 49.1364C124.037 49.1364 123.53 49.2301 123.095 49.4176C122.665 49.6051 122.328 49.8629 122.085 50.1911C121.847 50.5192 121.728 50.892 121.728 51.3097C121.728 51.6591 121.811 51.9595 121.977 52.2109C122.147 52.4581 122.365 52.6648 122.629 52.831C122.893 52.9929 123.17 53.1271 123.46 53.2337C123.75 53.3359 124.016 53.419 124.259 53.483L125.588 53.8409C125.929 53.9304 126.308 54.054 126.726 54.2116C127.148 54.3693 127.551 54.5845 127.934 54.8572C128.322 55.1257 128.642 55.4709 128.893 55.8928C129.144 56.3146 129.27 56.8324 129.27 57.446C129.27 58.1534 129.085 58.7926 128.714 59.3636C128.348 59.9347 127.811 60.3885 127.103 60.7251C126.4 61.0618 125.546 61.2301 124.54 61.2301C123.603 61.2301 122.791 61.0788 122.105 60.7763C121.423 60.4737 120.886 60.0518 120.494 59.5107C120.106 58.9695 119.887 58.3409 119.835 57.625H121.472C121.514 58.1193 121.681 58.5284 121.97 58.8523C122.264 59.1719 122.635 59.4105 123.083 59.5682C123.534 59.7216 124.02 59.7983 124.54 59.7983C125.145 59.7983 125.688 59.7003 126.17 59.5043C126.652 59.304 127.033 59.027 127.314 58.6733C127.595 58.3153 127.736 57.8977 127.736 57.4205C127.736 56.9858 127.615 56.6321 127.372 56.3594C127.129 56.0866 126.809 55.8651 126.413 55.6946C126.017 55.5241 125.588 55.375 125.128 55.2472L123.517 54.7869C122.495 54.4929 121.685 54.0732 121.088 53.5277C120.492 52.9822 120.193 52.2685 120.193 51.3864C120.193 50.6534 120.392 50.0142 120.788 49.4688C121.188 48.919 121.725 48.4929 122.399 48.1903C123.076 47.8835 123.833 47.7301 124.668 47.7301C125.512 47.7301 126.262 47.8814 126.918 48.1839C127.574 48.4822 128.094 48.8913 128.478 49.4112C128.865 49.9311 129.07 50.5213 129.091 51.1818H127.557ZM39.6911 79.1818V80.4602H34.603V79.1818H39.6911ZM36.086 76.8295H37.5945V86.1875C37.5945 86.6136 37.6563 86.9332 37.7798 87.1463C37.9077 87.3551 38.0696 87.4957 38.2656 87.5682C38.4659 87.6364 38.6769 87.6705 38.8985 87.6705C39.0646 87.6705 39.201 87.6619 39.3075 87.6449C39.4141 87.6236 39.4993 87.6065 39.5632 87.5938L39.87 88.9489C39.7678 88.9872 39.625 89.0256 39.4418 89.0639C39.2585 89.1065 39.0263 89.1278 38.745 89.1278C38.3189 89.1278 37.9013 89.0362 37.4922 88.853C37.0874 88.6697 36.7507 88.3906 36.4823 88.0156C36.2181 87.6406 36.086 87.1676 36.086 86.5966V76.8295ZM44.5797 83.0938V89H43.0712V75.9091H44.5797V80.7159H44.7075C44.9377 80.2088 45.2828 79.8061 45.7431 79.5078C46.2075 79.2053 46.8254 79.054 47.5967 79.054C48.2658 79.054 48.8517 79.1882 49.3546 79.4567C49.8574 79.7209 50.2473 80.1278 50.5243 80.6776C50.8056 81.223 50.9462 81.9176 50.9462 82.7614V89H49.4377V82.8636C49.4377 82.0838 49.2352 81.4808 48.8304 81.0547C48.4298 80.6243 47.8737 80.4091 47.1621 80.4091C46.6678 80.4091 46.2246 80.5135 45.8325 80.7223C45.4448 80.9311 45.1379 81.2358 44.9121 81.6364C44.6905 82.0369 44.5797 82.5227 44.5797 83.0938ZM58.7224 89.2045C57.7764 89.2045 56.9603 88.9957 56.2743 88.5781C55.5924 88.1562 55.0662 87.5682 54.6954 86.8139C54.329 86.0554 54.1457 85.1733 54.1457 84.1676C54.1457 83.1619 54.329 82.2756 54.6954 81.5085C55.0662 80.7372 55.5818 80.1364 56.2423 79.706C56.9071 79.2713 57.6826 79.054 58.569 79.054C59.0804 79.054 59.5853 79.1392 60.0839 79.3097C60.5825 79.4801 61.0363 79.7571 61.4454 80.1406C61.8545 80.5199 62.1805 81.0227 62.4234 81.6491C62.6663 82.2756 62.7878 83.0469 62.7878 83.9631V84.6023H55.2196V83.2983H61.2537C61.2537 82.7443 61.1429 82.25 60.9213 81.8153C60.704 81.3807 60.3929 81.0376 59.988 80.7862C59.5875 80.5348 59.1145 80.4091 58.569 80.4091C57.9682 80.4091 57.4483 80.5582 57.0094 80.8565C56.5747 81.1506 56.2402 81.5341 56.0058 82.0071C55.7714 82.4801 55.6542 82.9872 55.6542 83.5284V84.3977C55.6542 85.1392 55.7821 85.7678 56.0378 86.2834C56.2977 86.7947 56.6578 87.1847 57.118 87.4531C57.5782 87.7173 58.113 87.8494 58.7224 87.8494C59.1187 87.8494 59.4767 87.794 59.7963 87.6832C60.1201 87.5682 60.3993 87.3977 60.6336 87.1719C60.868 86.9418 61.0491 86.6562 61.177 86.3153L62.6344 86.7244C62.4809 87.2188 62.2231 87.6534 61.8609 88.0284C61.4987 88.3991 61.0513 88.6889 60.5186 88.8977C59.9859 89.1023 59.3872 89.2045 58.7224 89.2045ZM78.8996 81.3807L77.5444 81.7642C77.4592 81.5384 77.3335 81.3189 77.1673 81.1058C77.0054 80.8885 76.7838 80.7095 76.5025 80.5689C76.2213 80.4283 75.8612 80.358 75.4223 80.358C74.8214 80.358 74.3207 80.4964 73.9201 80.7734C73.5238 81.0462 73.3257 81.3935 73.3257 81.8153C73.3257 82.1903 73.4621 82.4865 73.7348 82.7038C74.0075 82.9212 74.4336 83.1023 75.0132 83.2472L76.4706 83.6051C77.3484 83.8182 78.0025 84.1442 78.4329 84.5831C78.8633 85.0178 79.0785 85.5781 79.0785 86.2642C79.0785 86.8267 78.9166 87.3295 78.5927 87.7727C78.2731 88.2159 77.8257 88.5653 77.2504 88.821C76.6751 89.0767 76.0061 89.2045 75.2433 89.2045C74.2419 89.2045 73.413 88.9872 72.7568 88.5526C72.1005 88.1179 71.6851 87.483 71.5103 86.6477L72.9422 86.2898C73.0785 86.8182 73.3363 87.2145 73.7156 87.4787C74.0991 87.7429 74.5998 87.875 75.2177 87.875C75.9209 87.875 76.4791 87.7259 76.8924 87.4276C77.3101 87.125 77.5189 86.7628 77.5189 86.3409C77.5189 86 77.3996 85.7145 77.1609 85.4844C76.9223 85.25 76.5558 85.0753 76.0615 84.9602L74.4251 84.5767C73.526 84.3636 72.8655 84.0334 72.4436 83.5859C72.026 83.1342 71.8172 82.5696 71.8172 81.892C71.8172 81.3381 71.9727 80.848 72.2838 80.4219C72.5991 79.9957 73.0274 79.6612 73.5686 79.4183C74.114 79.1754 74.7319 79.054 75.4223 79.054C76.3939 79.054 77.1567 79.267 77.7106 79.6932C78.2689 80.1193 78.6652 80.6818 78.8996 81.3807ZM82.2493 89V79.1818H83.7578V89H82.2493ZM83.0163 77.5455C82.7223 77.5455 82.4688 77.4453 82.2557 77.245C82.0469 77.0447 81.9425 76.804 81.9425 76.5227C81.9425 76.2415 82.0469 76.0007 82.2557 75.8004C82.4688 75.6001 82.7223 75.5 83.0163 75.5C83.3104 75.5 83.5618 75.6001 83.7706 75.8004C83.9837 76.0007 84.0902 76.2415 84.0902 76.5227C84.0902 76.804 83.9837 77.0447 83.7706 77.245C83.5618 77.4453 83.3104 77.5455 83.0163 77.5455ZM91.6907 79.1818V80.4602H86.6026V79.1818H91.6907ZM88.0856 76.8295H89.5941V86.1875C89.5941 86.6136 89.6559 86.9332 89.7795 87.1463C89.9073 87.3551 90.0692 87.4957 90.2652 87.5682C90.4655 87.6364 90.6765 87.6705 90.8981 87.6705C91.0643 87.6705 91.2006 87.6619 91.3072 87.6449C91.4137 87.6236 91.4989 87.6065 91.5628 87.5938L91.8697 88.9489C91.7674 88.9872 91.6246 89.0256 91.4414 89.0639C91.2581 89.1065 91.0259 89.1278 90.7447 89.1278C90.3185 89.1278 89.9009 89.0362 89.4918 88.853C89.087 88.6697 88.7503 88.3906 88.4819 88.0156C88.2177 87.6406 88.0856 87.1676 88.0856 86.5966V76.8295ZM98.8709 89.2045C97.9248 89.2045 97.1088 88.9957 96.4227 88.5781C95.7409 88.1562 95.2146 87.5682 94.8439 86.8139C94.4774 86.0554 94.2942 85.1733 94.2942 84.1676C94.2942 83.1619 94.4774 82.2756 94.8439 81.5085C95.2146 80.7372 95.7302 80.1364 96.3907 79.706C97.0555 79.2713 97.8311 79.054 98.7175 79.054C99.2288 79.054 99.7338 79.1392 100.232 79.3097C100.731 79.4801 101.185 79.7571 101.594 80.1406C102.003 80.5199 102.329 81.0227 102.572 81.6491C102.815 82.2756 102.936 83.0469 102.936 83.9631V84.6023H95.368V83.2983H101.402C101.402 82.7443 101.291 82.25 101.07 81.8153C100.852 81.3807 100.541 81.0376 100.136 80.7862C99.7359 80.5348 99.2629 80.4091 98.7175 80.4091C98.1166 80.4091 97.5967 80.5582 97.1578 80.8565C96.7231 81.1506 96.3886 81.5341 96.1542 82.0071C95.9199 82.4801 95.8027 82.9872 95.8027 83.5284V84.3977C95.8027 85.1392 95.9305 85.7678 96.1862 86.2834C96.4461 86.7947 96.8062 87.1847 97.2665 87.4531C97.7267 87.7173 98.2615 87.8494 98.8709 87.8494C99.2672 87.8494 99.6251 87.794 99.9447 87.6832C100.269 87.5682 100.548 87.3977 100.782 87.1719C101.016 86.9418 101.198 86.6562 101.325 86.3153L102.783 86.7244C102.629 87.2188 102.372 87.6534 102.009 88.0284C101.647 88.3991 101.2 88.6889 100.667 88.8977C100.134 89.1023 99.5356 89.2045 98.8709 89.2045Z" fill="#0E0F25"/>
</g>
<path fill-rule="evenodd" clip-rule="evenodd" d="M153 67.8622C153 67.3099 153.448 66.8622 154 66.8622H185.478C186.03 66.8622 186.478 67.3099 186.478 67.8622C186.478 68.4145 186.03 68.8622 185.478 68.8622H154C153.448 68.8622 153 68.4145 153 67.8622Z" fill="#FAF5F6"/>
<path fill-rule="evenodd" clip-rule="evenodd" d="M184.217 61.5585C183.826 61.168 183.193 61.168 182.803 61.5585C182.412 61.949 182.412 62.5822 182.803 62.9727L186.726 66.8959C186.643 66.874 186.557 66.8623 186.468 66.8623H184.51C183.957 66.8623 183.51 67.31 183.51 67.8623C183.51 68.4145 183.957 68.8623 184.51 68.8623H186.053L182.803 72.1131C182.412 72.5037 182.412 73.1368 182.803 73.5274C183.193 73.9179 183.826 73.9179 184.217 73.5274L189.141 68.6036C189.726 68.0178 189.726 67.0681 189.141 66.4823L184.217 61.5585Z" fill="#FAF5F6"/>
<path d="M242.948 31.0185H244.533V39.6861C244.533 40.581 244.322 41.38 243.9 42.0831C243.482 42.782 242.892 43.3338 242.129 43.7386C241.367 44.1392 240.472 44.3395 239.445 44.3395C238.418 44.3395 237.523 44.1392 236.76 43.7386C235.997 43.3338 235.405 42.782 234.983 42.0831C234.565 41.38 234.357 40.581 234.357 39.6861V31.0185H235.942V39.5582C235.942 40.1974 236.082 40.7663 236.364 41.2649C236.645 41.7592 237.046 42.1491 237.565 42.4347C238.09 42.7159 238.716 42.8565 239.445 42.8565C240.173 42.8565 240.8 42.7159 241.324 42.4347C241.848 42.1491 242.249 41.7592 242.526 41.2649C242.807 40.7663 242.948 40.1974 242.948 39.5582V31.0185ZM255.348 36.4901L253.993 36.8736C253.908 36.6477 253.782 36.4283 253.616 36.2152C253.454 35.9979 253.233 35.8189 252.951 35.6783C252.67 35.5376 252.31 35.4673 251.871 35.4673C251.27 35.4673 250.77 35.6058 250.369 35.8828C249.973 36.1555 249.775 36.5028 249.775 36.9247C249.775 37.2997 249.911 37.5959 250.184 37.8132C250.456 38.0305 250.883 38.2116 251.462 38.3565L252.919 38.7145C253.797 38.9276 254.451 39.2536 254.882 39.6925C255.312 40.1271 255.527 40.6875 255.527 41.3736C255.527 41.9361 255.365 42.4389 255.042 42.8821C254.722 43.3253 254.275 43.6747 253.699 43.9304C253.124 44.1861 252.455 44.3139 251.692 44.3139C250.691 44.3139 249.862 44.0966 249.206 43.6619C248.549 43.2273 248.134 42.5923 247.959 41.7571L249.391 41.3991C249.527 41.9276 249.785 42.3239 250.164 42.5881C250.548 42.8523 251.049 42.9844 251.667 42.9844C252.37 42.9844 252.928 42.8352 253.341 42.5369C253.759 42.2344 253.968 41.8722 253.968 41.4503C253.968 41.1094 253.848 40.8239 253.61 40.5938C253.371 40.3594 253.005 40.1847 252.51 40.0696L250.874 39.6861C249.975 39.473 249.314 39.1428 248.892 38.6953C248.475 38.2436 248.266 37.679 248.266 37.0014C248.266 36.4474 248.422 35.9574 248.733 35.5312C249.048 35.1051 249.476 34.7706 250.017 34.5277C250.563 34.2848 251.181 34.1634 251.871 34.1634C252.843 34.1634 253.606 34.3764 254.16 34.8026C254.718 35.2287 255.114 35.7912 255.348 36.4901ZM262.815 44.3139C261.869 44.3139 261.053 44.1051 260.367 43.6875C259.685 43.2656 259.158 42.6776 258.788 41.9233C258.421 41.1648 258.238 40.2827 258.238 39.277C258.238 38.2713 258.421 37.3849 258.788 36.6179C259.158 35.8466 259.674 35.2457 260.335 34.8153C260.999 34.3807 261.775 34.1634 262.661 34.1634C263.173 34.1634 263.678 34.2486 264.176 34.419C264.675 34.5895 265.129 34.8665 265.538 35.25C265.947 35.6293 266.273 36.1321 266.516 36.7585C266.759 37.3849 266.88 38.1562 266.88 39.0724V39.7116H259.312V38.4077H265.346C265.346 37.8537 265.235 37.3594 265.014 36.9247C264.796 36.4901 264.485 36.147 264.08 35.8956C263.68 35.6442 263.207 35.5185 262.661 35.5185C262.06 35.5185 261.541 35.6676 261.102 35.9659C260.667 36.2599 260.332 36.6435 260.098 37.1165C259.864 37.5895 259.746 38.0966 259.746 38.6378V39.5071C259.746 40.2486 259.874 40.8771 260.13 41.3928C260.39 41.9041 260.75 42.294 261.21 42.5625C261.67 42.8267 262.205 42.9588 262.815 42.9588C263.211 42.9588 263.569 42.9034 263.889 42.7926C264.212 42.6776 264.492 42.5071 264.726 42.2812C264.96 42.0511 265.141 41.7656 265.269 41.4247L266.727 41.8338C266.573 42.3281 266.315 42.7628 265.953 43.1378C265.591 43.5085 265.144 43.7983 264.611 44.0071C264.078 44.2116 263.479 44.3139 262.815 44.3139ZM270.075 44.1094V34.2912H271.532V35.7741H271.634C271.813 35.2884 272.137 34.8942 272.606 34.5916C273.075 34.2891 273.603 34.1378 274.191 34.1378C274.302 34.1378 274.441 34.1399 274.607 34.1442C274.773 34.1484 274.899 34.1548 274.984 34.1634V35.6974C274.933 35.6847 274.816 35.6655 274.632 35.6399C274.453 35.6101 274.264 35.5952 274.063 35.5952C273.586 35.5952 273.16 35.6953 272.785 35.8956C272.414 36.0916 272.12 36.3643 271.903 36.7138C271.69 37.0589 271.583 37.4531 271.583 37.8963V44.1094H270.075ZM300.336 35.1094H298.75C298.657 34.6534 298.493 34.2528 298.258 33.9077C298.028 33.5625 297.747 33.2727 297.414 33.0384C297.086 32.7997 296.722 32.6207 296.321 32.5014C295.921 32.3821 295.503 32.3224 295.069 32.3224C294.276 32.3224 293.558 32.5227 292.914 32.9233C292.275 33.3239 291.766 33.9141 291.387 34.6939C291.012 35.4737 290.824 36.4304 290.824 37.5639C290.824 38.6974 291.012 39.6541 291.387 40.4339C291.766 41.2138 292.275 41.804 292.914 42.2045C293.558 42.6051 294.276 42.8054 295.069 42.8054C295.503 42.8054 295.921 42.7457 296.321 42.6264C296.722 42.5071 297.086 42.3303 297.414 42.0959C297.747 41.8572 298.028 41.5653 298.258 41.2202C298.493 40.8707 298.657 40.4702 298.75 40.0185H300.336C300.216 40.6875 299.999 41.2862 299.684 41.8146C299.368 42.343 298.976 42.7926 298.508 43.1634C298.039 43.5298 297.513 43.8089 296.929 44.0007C296.349 44.1925 295.729 44.2884 295.069 44.2884C293.952 44.2884 292.959 44.0156 292.09 43.4702C291.221 42.9247 290.537 42.1491 290.038 41.1435C289.539 40.1378 289.29 38.9446 289.29 37.5639C289.29 36.1832 289.539 34.9901 290.038 33.9844C290.537 32.9787 291.221 32.2031 292.09 31.6577C292.959 31.1122 293.952 30.8395 295.069 30.8395C295.729 30.8395 296.349 30.9354 296.929 31.1271C297.513 31.3189 298.039 31.6001 298.508 31.9709C298.976 32.3374 299.368 32.7848 299.684 33.3132C299.999 33.8374 300.216 34.4361 300.336 35.1094ZM303.797 44.1094V31.0185H305.382V42.7031H311.468V44.1094H303.797ZM316.407 31.0185V44.1094H314.822V31.0185H316.407ZM331.02 35.1094H329.435C329.341 34.6534 329.177 34.2528 328.943 33.9077C328.713 33.5625 328.431 33.2727 328.099 33.0384C327.771 32.7997 327.406 32.6207 327.006 32.5014C326.605 32.3821 326.188 32.3224 325.753 32.3224C324.96 32.3224 324.242 32.5227 323.599 32.9233C322.96 33.3239 322.45 33.9141 322.071 34.6939C321.696 35.4737 321.509 36.4304 321.509 37.5639C321.509 38.6974 321.696 39.6541 322.071 40.4339C322.45 41.2138 322.96 41.804 323.599 42.2045C324.242 42.6051 324.96 42.8054 325.753 42.8054C326.188 42.8054 326.605 42.7457 327.006 42.6264C327.406 42.5071 327.771 42.3303 328.099 42.0959C328.431 41.8572 328.713 41.5653 328.943 41.2202C329.177 40.8707 329.341 40.4702 329.435 40.0185H331.02C330.901 40.6875 330.683 41.2862 330.368 41.8146C330.053 42.343 329.661 42.7926 329.192 43.1634C328.723 43.5298 328.197 43.8089 327.613 44.0007C327.034 44.1925 326.413 44.2884 325.753 44.2884C324.637 44.2884 323.644 44.0156 322.774 43.4702C321.905 42.9247 321.221 42.1491 320.722 41.1435C320.224 40.1378 319.975 38.9446 319.975 37.5639C319.975 36.1832 320.224 34.9901 320.722 33.9844C321.221 32.9787 321.905 32.2031 322.774 31.6577C323.644 31.1122 324.637 30.8395 325.753 30.8395C326.413 30.8395 327.034 30.9354 327.613 31.1271C328.197 31.3189 328.723 31.6001 329.192 31.9709C329.661 32.3374 330.053 32.7848 330.368 33.3132C330.683 33.8374 330.901 34.4361 331.02 35.1094ZM334.482 44.1094V31.0185H336.067V37.5128H336.22L342.101 31.0185H344.172L338.675 36.9247L344.172 44.1094H342.254L337.703 38.0241L336.067 39.8651V44.1094H334.482ZM354.283 34.2912C354.206 33.6435 353.895 33.1406 353.35 32.7827C352.804 32.4247 352.135 32.2457 351.343 32.2457C350.763 32.2457 350.256 32.3395 349.821 32.527C349.391 32.7145 349.054 32.9723 348.811 33.3004C348.573 33.6286 348.453 34.0014 348.453 34.419C348.453 34.7685 348.536 35.0689 348.703 35.3203C348.873 35.5675 349.09 35.7741 349.355 35.9403C349.619 36.1023 349.896 36.2365 350.186 36.343C350.475 36.4453 350.742 36.5284 350.985 36.5923L352.314 36.9503C352.655 37.0398 353.034 37.1634 353.452 37.321C353.874 37.4787 354.277 37.6939 354.66 37.9666C355.048 38.2351 355.367 38.5803 355.619 39.0021C355.87 39.424 355.996 39.9418 355.996 40.5554C355.996 41.2628 355.811 41.902 355.44 42.473C355.073 43.044 354.536 43.4979 353.829 43.8345C353.126 44.1712 352.272 44.3395 351.266 44.3395C350.328 44.3395 349.517 44.1882 348.831 43.8857C348.149 43.5831 347.612 43.1612 347.22 42.62C346.832 42.0788 346.612 41.4503 346.561 40.7344H348.198C348.24 41.2287 348.407 41.6378 348.696 41.9616C348.99 42.2812 349.361 42.5199 349.808 42.6776C350.26 42.831 350.746 42.9077 351.266 42.9077C351.871 42.9077 352.414 42.8097 352.896 42.6136C353.377 42.4134 353.759 42.1364 354.04 41.7827C354.321 41.4247 354.462 41.0071 354.462 40.5298C354.462 40.0952 354.34 39.7415 354.098 39.4688C353.855 39.196 353.535 38.9744 353.139 38.804C352.742 38.6335 352.314 38.4844 351.854 38.3565L350.243 37.8963C349.22 37.6023 348.411 37.1825 347.814 36.6371C347.218 36.0916 346.919 35.3778 346.919 34.4957C346.919 33.7628 347.117 33.1236 347.514 32.5781C347.914 32.0284 348.451 31.6023 349.125 31.2997C349.802 30.9929 350.558 30.8395 351.394 30.8395C352.237 30.8395 352.987 30.9908 353.644 31.2933C354.3 31.5916 354.82 32.0007 355.203 32.5206C355.591 33.0405 355.796 33.6307 355.817 34.2912H354.283ZM234.228 72.3139C233.341 72.3139 232.564 72.103 231.895 71.6811C231.23 71.2592 230.71 70.669 230.335 69.9105C229.964 69.152 229.779 68.2656 229.779 67.2514C229.779 66.2287 229.964 65.3359 230.335 64.5732C230.71 63.8104 231.23 63.218 231.895 62.7962C232.564 62.3743 233.341 62.1634 234.228 62.1634C235.114 62.1634 235.89 62.3743 236.555 62.7962C237.224 63.218 237.743 63.8104 238.114 64.5732C238.489 65.3359 238.677 66.2287 238.677 67.2514C238.677 68.2656 238.489 69.152 238.114 69.9105C237.743 70.669 237.224 71.2592 236.555 71.6811C235.89 72.103 235.114 72.3139 234.228 72.3139ZM234.228 70.9588C234.901 70.9588 235.455 70.7862 235.89 70.4411C236.324 70.0959 236.646 69.642 236.855 69.0795C237.064 68.517 237.168 67.9077 237.168 67.2514C237.168 66.5952 237.064 65.9837 236.855 65.4169C236.646 64.8501 236.324 64.392 235.89 64.0426C235.455 63.6932 234.901 63.5185 234.228 63.5185C233.555 63.5185 233.001 63.6932 232.566 64.0426C232.131 64.392 231.81 64.8501 231.601 65.4169C231.392 65.9837 231.288 66.5952 231.288 67.2514C231.288 67.9077 231.392 68.517 231.601 69.0795C231.81 69.642 232.131 70.0959 232.566 70.4411C233.001 70.7862 233.555 70.9588 234.228 70.9588ZM243.388 66.2031V72.1094H241.879V62.2912H243.337V63.8253H243.465C243.695 63.3267 244.044 62.9261 244.513 62.6236C244.982 62.3168 245.587 62.1634 246.328 62.1634C246.993 62.1634 247.575 62.2997 248.073 62.5724C248.572 62.8409 248.96 63.25 249.237 63.7997C249.514 64.3452 249.652 65.0355 249.652 65.8707V72.1094H248.144V65.973C248.144 65.2017 247.943 64.6009 247.543 64.1705C247.142 63.7358 246.593 63.5185 245.894 63.5185C245.412 63.5185 244.982 63.6229 244.602 63.8317C244.227 64.0405 243.931 64.3452 243.714 64.7457C243.497 65.1463 243.388 65.6321 243.388 66.2031ZM270.01 63.1094H268.425C268.331 62.6534 268.167 62.2528 267.932 61.9077C267.702 61.5625 267.421 61.2727 267.089 61.0384C266.761 60.7997 266.396 60.6207 265.996 60.5014C265.595 60.3821 265.177 60.3224 264.743 60.3224C263.95 60.3224 263.232 60.5227 262.589 60.9233C261.95 61.3239 261.44 61.9141 261.061 62.6939C260.686 63.4737 260.499 64.4304 260.499 65.5639C260.499 66.6974 260.686 67.6541 261.061 68.4339C261.44 69.2138 261.95 69.804 262.589 70.2045C263.232 70.6051 263.95 70.8054 264.743 70.8054C265.177 70.8054 265.595 70.7457 265.996 70.6264C266.396 70.5071 266.761 70.3303 267.089 70.0959C267.421 69.8572 267.702 69.5653 267.932 69.2202C268.167 68.8707 268.331 68.4702 268.425 68.0185H270.01C269.891 68.6875 269.673 69.2862 269.358 69.8146C269.043 70.343 268.651 70.7926 268.182 71.1634C267.713 71.5298 267.187 71.8089 266.603 72.0007C266.023 72.1925 265.403 72.2884 264.743 72.2884C263.626 72.2884 262.633 72.0156 261.764 71.4702C260.895 70.9247 260.211 70.1491 259.712 69.1435C259.214 68.1378 258.964 66.9446 258.964 65.5639C258.964 64.1832 259.214 62.9901 259.712 61.9844C260.211 60.9787 260.895 60.2031 261.764 59.6577C262.633 59.1122 263.626 58.8395 264.743 58.8395C265.403 58.8395 266.023 58.9354 266.603 59.1271C267.187 59.3189 267.713 59.6001 268.182 59.9709C268.651 60.3374 269.043 60.7848 269.358 61.3132C269.673 61.8374 269.891 62.4361 270.01 63.1094ZM272.756 60.4247V59.0185H282.574V60.4247H278.457V72.1094H276.872V60.4247H272.756ZM284.928 72.1094H283.266L288.073 59.0185H289.709L294.516 72.1094H292.854L288.942 61.0895H288.84L284.928 72.1094ZM285.542 66.9957H292.24V68.402H285.542V66.9957ZM302.702 63.1094V61.9588C302.702 61.6094 302.763 61.2386 302.887 60.8466C303.015 60.4503 303.198 60.0689 303.437 59.7024C303.68 59.3317 303.972 59.0099 304.312 58.7372L305.131 59.402C304.862 59.7855 304.628 60.1861 304.428 60.6037C304.232 61.017 304.133 61.4602 304.133 61.9332V63.1094H302.702ZM311.688 72.3139C310.767 72.3139 309.975 72.0966 309.31 71.6619C308.645 71.2273 308.134 70.6286 307.776 69.8658C307.418 69.103 307.239 68.2315 307.239 67.2514C307.239 66.2543 307.422 65.3743 307.788 64.6115C308.159 63.8445 308.675 63.2457 309.335 62.8153C310 62.3807 310.776 62.1634 311.662 62.1634C312.352 62.1634 312.975 62.2912 313.529 62.5469C314.082 62.8026 314.536 63.1605 314.89 63.6207C315.244 64.081 315.463 64.6179 315.548 65.2315H314.04C313.925 64.7841 313.669 64.3878 313.273 64.0426C312.881 63.6932 312.352 63.5185 311.688 63.5185C311.1 63.5185 310.584 63.6719 310.141 63.9787C309.702 64.2812 309.359 64.7095 309.112 65.2635C308.869 65.8132 308.747 66.4588 308.747 67.2003C308.747 67.9588 308.867 68.6193 309.105 69.1818C309.348 69.7443 309.689 70.1811 310.128 70.4922C310.571 70.8033 311.091 70.9588 311.688 70.9588C312.08 70.9588 312.435 70.8906 312.755 70.7543C313.075 70.6179 313.345 70.4219 313.567 70.1662C313.788 69.9105 313.946 69.6037 314.04 69.2457H315.548C315.463 69.8253 315.252 70.3473 314.916 70.8118C314.583 71.272 314.142 71.6385 313.592 71.9112C313.047 72.1797 312.412 72.3139 311.688 72.3139ZM320.162 66.2031V72.1094H318.654V59.0185H320.162V63.8253H320.29C320.52 63.3182 320.865 62.9155 321.326 62.6172C321.79 62.3146 322.408 62.1634 323.179 62.1634C323.848 62.1634 324.434 62.2976 324.937 62.5661C325.44 62.8303 325.83 63.2372 326.107 63.7869C326.388 64.3324 326.529 65.027 326.529 65.8707V72.1094H325.02V65.973C325.02 65.1932 324.818 64.5902 324.413 64.1641C324.012 63.7337 323.456 63.5185 322.745 63.5185C322.25 63.5185 321.807 63.6229 321.415 63.8317C321.027 64.0405 320.72 64.3452 320.495 64.7457C320.273 65.1463 320.162 65.6321 320.162 66.2031ZM334.305 72.3139C333.359 72.3139 332.543 72.1051 331.857 71.6875C331.175 71.2656 330.649 70.6776 330.278 69.9233C329.911 69.1648 329.728 68.2827 329.728 67.277C329.728 66.2713 329.911 65.3849 330.278 64.6179C330.649 63.8466 331.164 63.2457 331.825 62.8153C332.49 62.3807 333.265 62.1634 334.151 62.1634C334.663 62.1634 335.168 62.2486 335.666 62.419C336.165 62.5895 336.619 62.8665 337.028 63.25C337.437 63.6293 337.763 64.1321 338.006 64.7585C338.249 65.3849 338.37 66.1562 338.37 67.0724V67.7116H330.802V66.4077H336.836C336.836 65.8537 336.725 65.3594 336.504 64.9247C336.286 64.4901 335.975 64.147 335.571 63.8956C335.17 63.6442 334.697 63.5185 334.151 63.5185C333.551 63.5185 333.031 63.6676 332.592 63.9659C332.157 64.2599 331.823 64.6435 331.588 65.1165C331.354 65.5895 331.237 66.0966 331.237 66.6378V67.5071C331.237 68.2486 331.365 68.8771 331.62 69.3928C331.88 69.9041 332.24 70.294 332.701 70.5625C333.161 70.8267 333.696 70.9588 334.305 70.9588C334.701 70.9588 335.059 70.9034 335.379 70.7926C335.703 70.6776 335.982 70.5071 336.216 70.2812C336.451 70.0511 336.632 69.7656 336.759 69.4247L338.217 69.8338C338.063 70.3281 337.806 70.7628 337.443 71.1378C337.081 71.5085 336.634 71.7983 336.101 72.0071C335.568 72.2116 334.97 72.3139 334.305 72.3139ZM345.554 72.3139C344.633 72.3139 343.841 72.0966 343.176 71.6619C342.511 71.2273 342 70.6286 341.642 69.8658C341.284 69.103 341.105 68.2315 341.105 67.2514C341.105 66.2543 341.288 65.3743 341.654 64.6115C342.025 63.8445 342.541 63.2457 343.201 62.8153C343.866 62.3807 344.642 62.1634 345.528 62.1634C346.218 62.1634 346.841 62.2912 347.395 62.5469C347.949 62.8026 348.402 63.1605 348.756 63.6207C349.11 64.081 349.329 64.6179 349.414 65.2315H347.906C347.791 64.7841 347.535 64.3878 347.139 64.0426C346.747 63.6932 346.218 63.5185 345.554 63.5185C344.966 63.5185 344.45 63.6719 344.007 63.9787C343.568 64.2812 343.225 64.7095 342.978 65.2635C342.735 65.8132 342.613 66.4588 342.613 67.2003C342.613 67.9588 342.733 68.6193 342.971 69.1818C343.214 69.7443 343.555 70.1811 343.994 70.4922C344.437 70.8033 344.957 70.9588 345.554 70.9588C345.946 70.9588 346.301 70.8906 346.621 70.7543C346.941 70.6179 347.211 70.4219 347.433 70.1662C347.654 69.9105 347.812 69.6037 347.906 69.2457H349.414C349.329 69.8253 349.118 70.3473 348.782 70.8118C348.449 71.272 348.008 71.6385 347.458 71.9112C346.913 72.1797 346.278 72.3139 345.554 72.3139ZM353.926 68.5298L353.9 66.6634H354.207L358.503 62.2912H360.369L355.792 66.919H355.665L353.926 68.5298ZM352.52 72.1094V59.0185H354.028V72.1094H352.52ZM358.758 72.1094L354.923 67.2514L355.997 66.2031L360.676 72.1094H358.758ZM259.94 92.4901L258.585 92.8736C258.5 92.6477 258.374 92.4283 258.208 92.2152C258.046 91.9979 257.824 91.8189 257.543 91.6783C257.262 91.5376 256.901 91.4673 256.463 91.4673C255.862 91.4673 255.361 91.6058 254.96 91.8828C254.564 92.1555 254.366 92.5028 254.366 92.9247C254.366 93.2997 254.502 93.5959 254.775 93.8132C255.048 94.0305 255.474 94.2116 256.053 94.3565L257.511 94.7145C258.389 94.9276 259.043 95.2536 259.473 95.6925C259.904 96.1271 260.119 96.6875 260.119 97.3736C260.119 97.9361 259.957 98.4389 259.633 98.8821C259.313 99.3253 258.866 99.6747 258.291 99.9304C257.715 100.186 257.046 100.314 256.284 100.314C255.282 100.314 254.453 100.097 253.797 99.6619C253.141 99.2273 252.725 98.5923 252.551 97.7571L253.982 97.3991C254.119 97.9276 254.377 98.3239 254.756 98.5881C255.139 98.8523 255.64 98.9844 256.258 98.9844C256.961 98.9844 257.519 98.8352 257.933 98.5369C258.35 98.2344 258.559 97.8722 258.559 97.4503C258.559 97.1094 258.44 96.8239 258.201 96.5938C257.963 96.3594 257.596 96.1847 257.102 96.0696L255.465 95.6861C254.566 95.473 253.906 95.1428 253.484 94.6953C253.066 94.2436 252.857 93.679 252.857 93.0014C252.857 92.4474 253.013 91.9574 253.324 91.5312C253.639 91.1051 254.068 90.7706 254.609 90.5277C255.154 90.2848 255.772 90.1634 256.463 90.1634C257.434 90.1634 258.197 90.3764 258.751 90.8026C259.309 91.2287 259.705 91.7912 259.94 92.4901ZM267.278 100.314C266.358 100.314 265.565 100.097 264.9 99.6619C264.236 99.2273 263.724 98.6286 263.366 97.8658C263.008 97.103 262.829 96.2315 262.829 95.2514C262.829 94.2543 263.013 93.3743 263.379 92.6115C263.75 91.8445 264.265 91.2457 264.926 90.8153C265.591 90.3807 266.366 90.1634 267.253 90.1634C267.943 90.1634 268.565 90.2912 269.119 90.5469C269.673 90.8026 270.127 91.1605 270.481 91.6207C270.834 92.081 271.054 92.6179 271.139 93.2315H269.631C269.515 92.7841 269.26 92.3878 268.863 92.0426C268.471 91.6932 267.943 91.5185 267.278 91.5185C266.69 91.5185 266.175 91.6719 265.731 91.9787C265.292 92.2812 264.949 92.7095 264.702 93.2635C264.459 93.8132 264.338 94.4588 264.338 95.2003C264.338 95.9588 264.457 96.6193 264.696 97.1818C264.939 97.7443 265.28 98.1811 265.719 98.4922C266.162 98.8033 266.682 98.9588 267.278 98.9588C267.67 98.9588 268.026 98.8906 268.346 98.7543C268.665 98.6179 268.936 98.4219 269.158 98.1662C269.379 97.9105 269.537 97.6037 269.631 97.2457H271.139C271.054 97.8253 270.843 98.3473 270.506 98.8118C270.174 99.272 269.733 99.6385 269.183 99.9112C268.638 100.18 268.003 100.314 267.278 100.314ZM275.753 94.2031V100.109H274.244V87.0185H275.753V91.8253H275.881C276.111 91.3182 276.456 90.9155 276.916 90.6172C277.381 90.3146 277.999 90.1634 278.77 90.1634C279.439 90.1634 280.025 90.2976 280.528 90.5661C281.031 90.8303 281.42 91.2372 281.697 91.7869C281.979 92.3324 282.119 93.027 282.119 93.8707V100.109H280.611V93.973C280.611 93.1932 280.408 92.5902 280.004 92.1641C279.603 91.7337 279.047 91.5185 278.335 91.5185C277.841 91.5185 277.398 91.6229 277.006 91.8317C276.618 92.0405 276.311 92.3452 276.085 92.7457C275.864 93.1463 275.753 93.6321 275.753 94.2031ZM289.896 100.314C288.95 100.314 288.133 100.105 287.447 99.6875C286.766 99.2656 286.239 98.6776 285.869 97.9233C285.502 97.1648 285.319 96.2827 285.319 95.277C285.319 94.2713 285.502 93.3849 285.869 92.6179C286.239 91.8466 286.755 91.2457 287.415 90.8153C288.08 90.3807 288.856 90.1634 289.742 90.1634C290.253 90.1634 290.758 90.2486 291.257 90.419C291.756 90.5895 292.209 90.8665 292.619 91.25C293.028 91.6293 293.354 92.1321 293.597 92.7585C293.839 93.3849 293.961 94.1562 293.961 95.0724V95.7116H286.393V94.4077H292.427C292.427 93.8537 292.316 93.3594 292.094 92.9247C291.877 92.4901 291.566 92.147 291.161 91.8956C290.761 91.6442 290.288 91.5185 289.742 91.5185C289.141 91.5185 288.621 91.6676 288.182 91.9659C287.748 92.2599 287.413 92.6435 287.179 93.1165C286.945 93.5895 286.827 94.0966 286.827 94.6378V95.5071C286.827 96.2486 286.955 96.8771 287.211 97.3928C287.471 97.9041 287.831 98.294 288.291 98.5625C288.751 98.8267 289.286 98.9588 289.896 98.9588C290.292 98.9588 290.65 98.9034 290.969 98.7926C291.293 98.6776 291.572 98.5071 291.807 98.2812C292.041 98.0511 292.222 97.7656 292.35 97.4247L293.807 97.8338C293.654 98.3281 293.396 98.7628 293.034 99.1378C292.672 99.5085 292.224 99.7983 291.692 100.007C291.159 100.212 290.56 100.314 289.896 100.314ZM300.863 100.314C300.045 100.314 299.323 100.107 298.696 99.6939C298.07 99.2763 297.58 98.6882 297.226 97.9297C296.872 97.1669 296.695 96.2656 296.695 95.2259C296.695 94.1946 296.872 93.2997 297.226 92.5412C297.58 91.7827 298.072 91.1967 298.702 90.7834C299.333 90.37 300.062 90.1634 300.889 90.1634C301.528 90.1634 302.033 90.2699 302.403 90.483C302.778 90.6918 303.064 90.9304 303.26 91.1989C303.46 91.4631 303.616 91.6804 303.727 91.8509H303.854V87.0185H305.363V100.109H303.906V98.6009H303.727C303.616 98.7798 303.458 99.0057 303.254 99.2784C303.049 99.5469 302.757 99.7876 302.378 100.001C301.999 100.21 301.494 100.314 300.863 100.314ZM301.068 98.9588C301.673 98.9588 302.184 98.8011 302.602 98.4858C303.019 98.1662 303.337 97.7251 303.554 97.1626C303.771 96.5959 303.88 95.9418 303.88 95.2003C303.88 94.4673 303.774 93.826 303.56 93.2763C303.347 92.7223 303.032 92.2919 302.614 91.9851C302.197 91.674 301.681 91.5185 301.068 91.5185C300.428 91.5185 299.896 91.6825 299.47 92.0107C299.048 92.3345 298.73 92.7756 298.517 93.3338C298.308 93.8878 298.204 94.5099 298.204 95.2003C298.204 95.8991 298.31 96.5341 298.524 97.1051C298.741 97.6719 299.06 98.1236 299.482 98.4602C299.908 98.7926 300.437 98.9588 301.068 98.9588ZM315.423 96.0952V90.2912H316.931V100.109H315.423V98.4474H315.321C315.09 98.946 314.732 99.37 314.247 99.7195C313.761 100.065 313.147 100.237 312.406 100.237C311.792 100.237 311.247 100.103 310.769 99.8345C310.292 99.5618 309.917 99.1527 309.644 98.6072C309.372 98.0575 309.235 97.3651 309.235 96.5298V90.2912H310.744V96.4276C310.744 97.1435 310.944 97.7145 311.345 98.1406C311.75 98.5668 312.265 98.7798 312.892 98.7798C313.267 98.7798 313.648 98.6839 314.036 98.4922C314.428 98.3004 314.756 98.0064 315.02 97.6101C315.289 97.2138 315.423 96.7088 315.423 96.0952ZM322.103 87.0185V100.109H320.594V87.0185H322.103ZM329.882 100.314C328.936 100.314 328.12 100.105 327.434 99.6875C326.752 99.2656 326.226 98.6776 325.855 97.9233C325.489 97.1648 325.306 96.2827 325.306 95.277C325.306 94.2713 325.489 93.3849 325.855 92.6179C326.226 91.8466 326.742 91.2457 327.402 90.8153C328.067 90.3807 328.842 90.1634 329.729 90.1634C330.24 90.1634 330.745 90.2486 331.244 90.419C331.742 90.5895 332.196 90.8665 332.605 91.25C333.014 91.6293 333.34 92.1321 333.583 92.7585C333.826 93.3849 333.948 94.1562 333.948 95.0724V95.7116H326.379V94.4077H332.414C332.414 93.8537 332.303 93.3594 332.081 92.9247C331.864 92.4901 331.553 92.147 331.148 91.8956C330.747 91.6442 330.274 91.5185 329.729 91.5185C329.128 91.5185 328.608 91.6676 328.169 91.9659C327.735 92.2599 327.4 92.6435 327.166 93.1165C326.931 93.5895 326.814 94.0966 326.814 94.6378V95.5071C326.814 96.2486 326.942 96.8771 327.198 97.3928C327.458 97.9041 327.818 98.294 328.278 98.5625C328.738 98.8267 329.273 98.9588 329.882 98.9588C330.279 98.9588 330.637 98.9034 330.956 98.7926C331.28 98.6776 331.559 98.5071 331.793 98.2812C332.028 98.0511 332.209 97.7656 332.337 97.4247L333.794 97.8338C333.641 98.3281 333.383 98.7628 333.021 99.1378C332.659 99.5085 332.211 99.7983 331.678 100.007C331.146 100.212 330.547 100.314 329.882 100.314ZM338.472 87.0185V88.169C338.472 88.5185 338.408 88.8913 338.28 89.2876C338.157 89.6797 337.973 90.0611 337.73 90.4318C337.492 90.7983 337.202 91.1179 336.861 91.3906L336.043 90.7259C336.311 90.3423 336.544 89.9439 336.74 89.5305C336.94 89.1129 337.04 88.6676 337.04 88.1946V87.0185H338.472Z" fill="#FAF5F6"/>
<rect x="205.5" y="2.5" width="177" height="134" stroke="#FAF5F6"/>
<path fill-rule="evenodd" clip-rule="evenodd" d="M398 68.5966C398 68.0443 398.448 67.5966 399 67.5966H430.478C431.03 67.5966 431.478 68.0443 431.478 68.5966C431.478 69.1488 431.03 69.5966 430.478 69.5966H399C398.448 69.5966 398 69.1488 398 68.5966Z" fill="#FAF5F6"/>
<path fill-rule="evenodd" clip-rule="evenodd" d="M429.217 62.2929C428.826 61.9024 428.193 61.9024 427.802 62.2929C427.412 62.6834 427.412 63.3166 427.802 63.7071L431.726 67.6303C431.643 67.6083 431.557 67.5966 431.468 67.5966H429.51C428.957 67.5966 428.51 68.0444 428.51 68.5966C428.51 69.1489 428.957 69.5966 429.51 69.5966H431.053L427.802 72.8475C427.412 73.238 427.412 73.8712 427.802 74.2617C428.193 74.6523 428.826 74.6523 429.217 74.2617L434.14 69.338C434.726 68.7522 434.726 67.8024 434.14 67.2167L429.217 62.2929Z" fill="#FAF5F6"/>
<path d="M501.416 29.8661H503.001V38.5337C503.001 39.4286 502.79 40.2276 502.369 40.9308C501.951 41.6296 501.361 42.1815 500.598 42.5863C499.835 42.9869 498.94 43.1871 497.913 43.1871C496.886 43.1871 495.991 42.9869 495.229 42.5863C494.466 42.1815 493.874 41.6296 493.452 40.9308C493.034 40.2276 492.825 39.4286 492.825 38.5337V29.8661H494.41V38.4059C494.41 39.0451 494.551 39.614 494.832 40.1126C495.114 40.6069 495.514 40.9968 496.034 41.2823C496.558 41.5636 497.185 41.7042 497.913 41.7042C498.642 41.7042 499.268 41.5636 499.793 41.2823C500.317 40.9968 500.717 40.6069 500.994 40.1126C501.276 39.614 501.416 39.0451 501.416 38.4059V29.8661ZM513.817 35.3377L512.462 35.7212C512.377 35.4954 512.251 35.2759 512.085 35.0629C511.923 34.8455 511.701 34.6665 511.42 34.5259C511.139 34.3853 510.779 34.315 510.34 34.315C509.739 34.315 509.238 34.4535 508.838 34.7305C508.441 35.0032 508.243 35.3505 508.243 35.7724C508.243 36.1474 508.38 36.4435 508.652 36.6609C508.925 36.8782 509.351 37.0593 509.931 37.2042L511.388 37.5621C512.266 37.7752 512.92 38.1012 513.35 38.5401C513.781 38.9748 513.996 39.5352 513.996 40.2212C513.996 40.7837 513.834 41.2866 513.51 41.7298C513.191 42.1729 512.743 42.5224 512.168 42.7781C511.593 43.0337 510.924 43.1616 510.161 43.1616C509.159 43.1616 508.331 42.9442 507.674 42.5096C507.018 42.0749 506.603 41.44 506.428 40.6048L507.86 40.2468C507.996 40.7752 508.254 41.1715 508.633 41.4357C509.017 41.6999 509.517 41.832 510.135 41.832C510.838 41.832 511.397 41.6829 511.81 41.3846C512.228 41.082 512.436 40.7198 512.436 40.2979C512.436 39.957 512.317 39.6715 512.078 39.4414C511.84 39.207 511.473 39.0323 510.979 38.9173L509.343 38.5337C508.443 38.3207 507.783 37.9904 507.361 37.543C506.943 37.0913 506.735 36.5266 506.735 35.8491C506.735 35.2951 506.89 34.805 507.201 34.3789C507.517 33.9528 507.945 33.6183 508.486 33.3754C509.032 33.1325 509.649 33.011 510.34 33.011C511.311 33.011 512.074 33.2241 512.628 33.6502C513.186 34.0763 513.583 34.6388 513.817 35.3377ZM521.283 43.1616C520.337 43.1616 519.521 42.9528 518.835 42.5352C518.153 42.1133 517.627 41.5252 517.256 40.771C516.89 40.0124 516.707 39.1303 516.707 38.1246C516.707 37.119 516.89 36.2326 517.256 35.4656C517.627 34.6942 518.143 34.0934 518.803 33.663C519.468 33.2283 520.244 33.011 521.13 33.011C521.641 33.011 522.146 33.0962 522.645 33.2667C523.143 33.4371 523.597 33.7141 524.006 34.0977C524.415 34.4769 524.741 34.9798 524.984 35.6062C525.227 36.2326 525.349 37.0039 525.349 37.9201V38.5593H517.78V37.2553H523.815C523.815 36.7013 523.704 36.207 523.482 35.7724C523.265 35.3377 522.954 34.9947 522.549 34.7433C522.148 34.4918 521.675 34.3661 521.13 34.3661C520.529 34.3661 520.009 34.5153 519.57 34.8136C519.136 35.1076 518.801 35.4911 518.567 35.9641C518.332 36.4371 518.215 36.9442 518.215 37.4854V38.3548C518.215 39.0962 518.343 39.7248 518.599 40.2404C518.859 40.7518 519.219 41.1417 519.679 41.4102C520.139 41.6744 520.674 41.8065 521.283 41.8065C521.68 41.8065 522.038 41.7511 522.357 41.6403C522.681 41.5252 522.96 41.3548 523.195 41.1289C523.429 40.8988 523.61 40.6133 523.738 40.2724L525.195 40.6815C525.042 41.1758 524.784 41.6104 524.422 41.9854C524.06 42.3562 523.612 42.646 523.079 42.8548C522.547 43.0593 521.948 43.1616 521.283 43.1616ZM528.543 42.957V33.1388H530.001V34.6218H530.103C530.282 34.136 530.606 33.7418 531.075 33.4393C531.543 33.1367 532.072 32.9854 532.66 32.9854C532.771 32.9854 532.909 32.9876 533.075 32.9918C533.242 32.9961 533.367 33.0025 533.452 33.011V34.5451C533.401 34.5323 533.284 34.5131 533.101 34.4876C532.922 34.4577 532.732 34.4428 532.532 34.4428C532.055 34.4428 531.629 34.543 531.254 34.7433C530.883 34.9393 530.589 35.212 530.372 35.5614C530.158 35.9066 530.052 36.3008 530.052 36.744V42.957H528.543ZM486.122 61.957H484.537C484.443 61.5011 484.279 61.1005 484.045 60.7553C483.815 60.4102 483.533 60.1204 483.201 59.886C482.873 59.6474 482.509 59.4684 482.108 59.3491C481.707 59.2298 481.29 59.1701 480.855 59.1701C480.063 59.1701 479.345 59.3704 478.701 59.771C478.062 60.1715 477.553 60.7617 477.173 61.5415C476.798 62.3214 476.611 63.2781 476.611 64.4116C476.611 65.5451 476.798 66.5018 477.173 67.2816C477.553 68.0614 478.062 68.6516 478.701 69.0522C479.345 69.4528 480.063 69.6531 480.855 69.6531C481.29 69.6531 481.707 69.5934 482.108 69.4741C482.509 69.3548 482.873 69.1779 483.201 68.9435C483.533 68.7049 483.815 68.413 484.045 68.0678C484.279 67.7184 484.443 67.3178 484.537 66.8661H486.122C486.003 67.5352 485.786 68.1339 485.47 68.6623C485.155 69.1907 484.763 69.6403 484.294 70.011C483.825 70.3775 483.299 70.6566 482.715 70.8484C482.136 71.0401 481.516 71.136 480.855 71.136C479.739 71.136 478.746 70.8633 477.877 70.3178C477.007 69.7724 476.323 68.9968 475.825 67.9911C475.326 66.9854 475.077 65.7923 475.077 64.4116C475.077 63.0309 475.326 61.8377 475.825 60.832C476.323 59.8263 477.007 59.0508 477.877 58.5053C478.746 57.9599 479.739 57.6871 480.855 57.6871C481.516 57.6871 482.136 57.783 482.715 57.9748C483.299 58.1665 483.825 58.4478 484.294 58.8185C484.763 59.185 485.155 59.6325 485.47 60.1609C485.786 60.685 486.003 61.2837 486.122 61.957ZM489.584 70.957V57.8661H491.169V63.6957H498.149V57.8661H499.734V70.957H498.149V65.1019H491.169V70.957H489.584ZM503.808 70.957V57.8661H511.709V59.2724H505.393V63.6957H511.3V65.1019H505.393V69.5508H511.811V70.957H503.808ZM526 61.957H524.415C524.321 61.5011 524.157 61.1005 523.923 60.7553C523.692 60.4102 523.411 60.1204 523.079 59.886C522.751 59.6474 522.386 59.4684 521.986 59.3491C521.585 59.2298 521.168 59.1701 520.733 59.1701C519.94 59.1701 519.222 59.3704 518.579 59.771C517.94 60.1715 517.43 60.7617 517.051 61.5415C516.676 62.3214 516.489 63.2781 516.489 64.4116C516.489 65.5451 516.676 66.5018 517.051 67.2816C517.43 68.0614 517.94 68.6516 518.579 69.0522C519.222 69.4528 519.94 69.6531 520.733 69.6531C521.168 69.6531 521.585 69.5934 521.986 69.4741C522.386 69.3548 522.751 69.1779 523.079 68.9435C523.411 68.7049 523.692 68.413 523.923 68.0678C524.157 67.7184 524.321 67.3178 524.415 66.8661H526C525.881 67.5352 525.663 68.1339 525.348 68.6623C525.033 69.1907 524.641 69.6403 524.172 70.011C523.703 70.3775 523.177 70.6566 522.593 70.8484C522.013 71.0401 521.393 71.136 520.733 71.136C519.616 71.136 518.624 70.8633 517.754 70.3178C516.885 69.7724 516.201 68.9968 515.702 67.9911C515.204 66.9854 514.955 65.7923 514.955 64.4116C514.955 63.0309 515.204 61.8377 515.702 60.832C516.201 59.8263 516.885 59.0508 517.754 58.5053C518.624 57.9599 519.616 57.6871 520.733 57.6871C521.393 57.6871 522.013 57.783 522.593 57.9748C523.177 58.1665 523.703 58.4478 524.172 58.8185C524.641 59.185 525.033 59.6325 525.348 60.1609C525.663 60.685 525.881 61.2837 526 61.957ZM529.462 70.957V57.8661H531.047V64.3604H531.2L537.081 57.8661H539.152L533.655 63.7724L539.152 70.957H537.234L532.683 64.8718L531.047 66.7127V70.957H529.462ZM549.263 61.1388C549.186 60.4911 548.875 59.9883 548.33 59.6303C547.784 59.2724 547.115 59.0934 546.323 59.0934C545.743 59.0934 545.236 59.1871 544.801 59.3746C544.371 59.5621 544.034 59.82 543.791 60.1481C543.553 60.4762 543.433 60.8491 543.433 61.2667C543.433 61.6161 543.516 61.9165 543.683 62.168C543.853 62.4151 544.07 62.6218 544.335 62.788C544.599 62.9499 544.876 63.0842 545.166 63.1907C545.455 63.293 545.722 63.3761 545.965 63.44L547.294 63.7979C547.635 63.8874 548.014 64.011 548.432 64.1687C548.854 64.3263 549.256 64.5415 549.64 64.8143C550.028 65.0827 550.347 65.4279 550.599 65.8498C550.85 66.2717 550.976 66.7894 550.976 67.4031C550.976 68.1104 550.791 68.7496 550.42 69.3207C550.053 69.8917 549.516 70.3455 548.809 70.6822C548.106 71.0188 547.252 71.1871 546.246 71.1871C545.308 71.1871 544.497 71.0359 543.81 70.7333C543.129 70.4308 542.592 70.0089 542.2 69.4677C541.812 68.9265 541.592 68.2979 541.541 67.582H543.178C543.22 68.0763 543.386 68.4854 543.676 68.8093C543.97 69.1289 544.341 69.3675 544.788 69.5252C545.24 69.6786 545.726 69.7553 546.246 69.7553C546.851 69.7553 547.394 69.6573 547.876 69.4613C548.357 69.261 548.739 68.984 549.02 68.6303C549.301 68.2724 549.442 67.8548 549.442 67.3775C549.442 66.9428 549.32 66.5891 549.078 66.3164C548.835 66.0437 548.515 65.8221 548.119 65.6516C547.722 65.4812 547.294 65.332 546.834 65.2042L545.223 64.744C544.2 64.4499 543.391 64.0302 542.794 63.4847C542.198 62.9393 541.899 62.2255 541.899 61.3434C541.899 60.6104 542.097 59.9712 542.494 59.4258C542.894 58.8761 543.431 58.4499 544.104 58.1474C544.782 57.8406 545.538 57.6871 546.374 57.6871C547.217 57.6871 547.967 57.8384 548.624 58.141C549.28 58.4393 549.8 58.8484 550.183 59.3683C550.571 59.8881 550.776 60.4783 550.797 61.1388H549.263ZM479.079 89.1388C479.002 88.4911 478.691 87.9883 478.145 87.6303C477.6 87.2724 476.931 87.0934 476.138 87.0934C475.559 87.0934 475.052 87.1871 474.617 87.3746C474.187 87.5621 473.85 87.82 473.607 88.1481C473.368 88.4762 473.249 88.8491 473.249 89.2667C473.249 89.6161 473.332 89.9165 473.498 90.168C473.669 90.4151 473.886 90.6218 474.15 90.788C474.415 90.9499 474.692 91.0842 474.981 91.1907C475.271 91.293 475.537 91.3761 475.78 91.44L477.11 91.7979C477.451 91.8874 477.83 92.011 478.248 92.1687C478.67 92.3263 479.072 92.5415 479.456 92.8143C479.844 93.0827 480.163 93.4279 480.415 93.8498C480.666 94.2717 480.792 94.7894 480.792 95.4031C480.792 96.1104 480.606 96.7496 480.236 97.3207C479.869 97.8917 479.332 98.3455 478.625 98.6822C477.922 99.0188 477.067 99.1871 476.062 99.1871C475.124 99.1871 474.312 99.0359 473.626 98.7333C472.944 98.4308 472.408 98.0089 472.015 97.4677C471.628 96.9265 471.408 96.2979 471.357 95.582H472.993C473.036 96.0763 473.202 96.4854 473.492 96.8093C473.786 97.1289 474.157 97.3675 474.604 97.5252C475.056 97.6786 475.542 97.7553 476.062 97.7553C476.667 97.7553 477.21 97.6573 477.692 97.4613C478.173 97.261 478.555 96.984 478.836 96.6303C479.117 96.2724 479.258 95.8548 479.258 95.3775C479.258 94.9428 479.136 94.5891 478.893 94.3164C478.65 94.0437 478.331 93.8221 477.935 93.6516C477.538 93.4812 477.11 93.332 476.65 93.2042L475.039 92.744C474.016 92.4499 473.207 92.0302 472.61 91.4847C472.013 90.9393 471.715 90.2255 471.715 89.3434C471.715 88.6104 471.913 87.9712 472.31 87.4258C472.71 86.8761 473.247 86.4499 473.92 86.1474C474.598 85.8406 475.354 85.6871 476.189 85.6871C477.033 85.6871 477.783 85.8384 478.439 86.141C479.096 86.4393 479.616 86.8484 479.999 87.3683C480.387 87.8881 480.591 88.4783 480.613 89.1388H479.079ZM488.082 99.1616C487.162 99.1616 486.369 98.9442 485.704 98.5096C485.04 98.0749 484.528 97.4762 484.17 96.7134C483.812 95.9506 483.633 95.0792 483.633 94.0991C483.633 93.1019 483.817 92.2219 484.183 91.4592C484.554 90.6921 485.069 90.0934 485.73 89.663C486.395 89.2283 487.17 89.011 488.057 89.011C488.747 89.011 489.369 89.1388 489.923 89.3945C490.477 89.6502 490.931 90.0082 491.285 90.4684C491.638 90.9286 491.858 91.4656 491.943 92.0792H490.434C490.319 91.6317 490.064 91.2354 489.667 90.8903C489.275 90.5408 488.747 90.3661 488.082 90.3661C487.494 90.3661 486.979 90.5195 486.535 90.8263C486.096 91.1289 485.753 91.5572 485.506 92.1112C485.263 92.6609 485.142 93.3065 485.142 94.0479C485.142 94.8065 485.261 95.467 485.5 96.0295C485.743 96.592 486.084 97.0288 486.523 97.3398C486.966 97.6509 487.486 97.8065 488.082 97.8065C488.474 97.8065 488.83 97.7383 489.15 97.6019C489.469 97.4656 489.74 97.2695 489.961 97.0138C490.183 96.7582 490.341 96.4513 490.434 96.0934H491.943C491.858 96.6729 491.647 97.195 491.31 97.6594C490.978 98.1197 490.537 98.4862 489.987 98.7589C489.442 99.0273 488.807 99.1616 488.082 99.1616ZM496.557 93.0508V98.957H495.048V85.8661H496.557V90.6729H496.685C496.915 90.1658 497.26 89.7631 497.72 89.4648C498.185 89.1623 498.803 89.011 499.574 89.011C500.243 89.011 500.829 89.1452 501.332 89.4137C501.834 89.6779 502.224 90.0849 502.501 90.6346C502.783 91.18 502.923 91.8746 502.923 92.7184V98.957H501.415V92.8207C501.415 92.0408 501.212 91.4379 500.807 91.0117C500.407 90.5813 499.851 90.3661 499.139 90.3661C498.645 90.3661 498.202 90.4705 497.81 90.6793C497.422 90.8881 497.115 91.1928 496.889 91.5934C496.668 91.994 496.557 92.4798 496.557 93.0508ZM510.7 99.1616C509.753 99.1616 508.937 98.9528 508.251 98.5352C507.57 98.1133 507.043 97.5252 506.673 96.771C506.306 96.0124 506.123 95.1303 506.123 94.1246C506.123 93.119 506.306 92.2326 506.673 91.4656C507.043 90.6942 507.559 90.0934 508.219 89.663C508.884 89.2283 509.66 89.011 510.546 89.011C511.057 89.011 511.562 89.0962 512.061 89.2667C512.56 89.4371 513.013 89.7141 513.423 90.0977C513.832 90.4769 514.158 90.9798 514.4 91.6062C514.643 92.2326 514.765 93.0039 514.765 93.9201V94.5593H507.197V93.2553H513.231C513.231 92.7013 513.12 92.207 512.898 91.7724C512.681 91.3377 512.37 90.9947 511.965 90.7433C511.565 90.4918 511.092 90.3661 510.546 90.3661C509.945 90.3661 509.425 90.5153 508.986 90.8136C508.552 91.1076 508.217 91.4911 507.983 91.9641C507.749 92.4371 507.631 92.9442 507.631 93.4854V94.3548C507.631 95.0962 507.759 95.7248 508.015 96.2404C508.275 96.7518 508.635 97.1417 509.095 97.4102C509.555 97.6744 510.09 97.8065 510.7 97.8065C511.096 97.8065 511.454 97.7511 511.773 97.6403C512.097 97.5252 512.376 97.3548 512.611 97.1289C512.845 96.8988 513.026 96.6133 513.154 96.2724L514.611 96.6815C514.458 97.1758 514.2 97.6104 513.838 97.9854C513.476 98.3562 513.028 98.646 512.496 98.8548C511.963 99.0593 511.364 99.1616 510.7 99.1616ZM521.667 99.1616C520.849 99.1616 520.126 98.9549 519.5 98.5415C518.874 98.1239 518.384 97.5359 518.03 96.7773C517.676 96.0146 517.499 95.1133 517.499 94.0735C517.499 93.0423 517.676 92.1474 518.03 91.3888C518.384 90.6303 518.876 90.0444 519.506 89.631C520.137 89.2177 520.866 89.011 521.693 89.011C522.332 89.011 522.837 89.1175 523.207 89.3306C523.582 89.5394 523.868 89.7781 524.064 90.0465C524.264 90.3107 524.42 90.5281 524.531 90.6985H524.658V85.8661H526.167V98.957H524.71V97.4485H524.531C524.42 97.6275 524.262 97.8533 524.058 98.1261C523.853 98.3945 523.561 98.6353 523.182 98.8484C522.803 99.0572 522.298 99.1616 521.667 99.1616ZM521.872 97.8065C522.477 97.8065 522.988 97.6488 523.406 97.3335C523.823 97.0138 524.141 96.5728 524.358 96.0103C524.575 95.4435 524.684 94.7894 524.684 94.0479C524.684 93.315 524.577 92.6737 524.364 92.1239C524.151 91.57 523.836 91.1396 523.418 90.8327C523.001 90.5217 522.485 90.3661 521.872 90.3661C521.232 90.3661 520.7 90.5302 520.274 90.8583C519.852 91.1822 519.534 91.6232 519.321 92.1815C519.112 92.7354 519.008 93.3576 519.008 94.0479C519.008 94.7468 519.114 95.3817 519.327 95.9528C519.545 96.5195 519.864 96.9712 520.286 97.3079C520.712 97.6403 521.241 97.8065 521.872 97.8065ZM536.227 94.9428V89.1388H537.735V98.957H536.227V97.2951H536.125C535.894 97.7937 535.536 98.2177 535.051 98.5671C534.565 98.9123 533.951 99.0849 533.21 99.0849C532.596 99.0849 532.051 98.9506 531.573 98.6822C531.096 98.4094 530.721 98.0004 530.448 97.4549C530.176 96.9052 530.039 96.2127 530.039 95.3775V89.1388H531.548V95.2752C531.548 95.9911 531.748 96.5621 532.149 96.9883C532.553 97.4144 533.069 97.6275 533.696 97.6275C534.071 97.6275 534.452 97.5316 534.84 97.3398C535.232 97.1481 535.56 96.854 535.824 96.4577C536.093 96.0614 536.227 95.5565 536.227 94.9428ZM542.907 85.8661V98.957H541.398V85.8661H542.907ZM550.686 99.1616C549.74 99.1616 548.924 98.9528 548.238 98.5352C547.556 98.1133 547.03 97.5252 546.659 96.771C546.293 96.0124 546.11 95.1303 546.11 94.1246C546.11 93.119 546.293 92.2326 546.659 91.4656C547.03 90.6942 547.546 90.0934 548.206 89.663C548.871 89.2283 549.646 89.011 550.533 89.011C551.044 89.011 551.549 89.0962 552.048 89.2667C552.546 89.4371 553 89.7141 553.409 90.0977C553.818 90.4769 554.144 90.9798 554.387 91.6062C554.63 92.2326 554.752 93.0039 554.752 93.9201V94.5593H547.183V93.2553H553.217C553.217 92.7013 553.107 92.207 552.885 91.7724C552.668 91.3377 552.357 90.9947 551.952 90.7433C551.551 90.4918 551.078 90.3661 550.533 90.3661C549.932 90.3661 549.412 90.5153 548.973 90.8136C548.538 91.1076 548.204 91.4911 547.97 91.9641C547.735 92.4371 547.618 92.9442 547.618 93.4854V94.3548C547.618 95.0962 547.746 95.7248 548.002 96.2404C548.262 96.7518 548.622 97.1417 549.082 97.4102C549.542 97.6744 550.077 97.8065 550.686 97.8065C551.083 97.8065 551.44 97.7511 551.76 97.6403C552.084 97.5252 552.363 97.3548 552.597 97.1289C552.832 96.8988 553.013 96.6133 553.141 96.2724L554.598 96.6815C554.445 97.1758 554.187 97.6104 553.825 97.9854C553.463 98.3562 553.015 98.646 552.482 98.8548C551.95 99.0593 551.351 99.1616 550.686 99.1616Z" fill="#FAF5F6"/>
<rect x="450.5" y="0.5" width="126" height="134" stroke="#FAF5F6"/>
<path fill-rule="evenodd" clip-rule="evenodd" d="M592 67.8622C592 67.3099 592.448 66.8622 593 66.8622H624.478C625.03 66.8622 625.478 67.3099 625.478 67.8622C625.478 68.4145 625.03 68.8622 624.478 68.8622H593C592.448 68.8622 592 68.4145 592 67.8622Z" fill="#FAF5F6"/>
<path fill-rule="evenodd" clip-rule="evenodd" d="M623.217 61.5585C622.826 61.168 622.193 61.168 621.802 61.5585C621.412 61.949 621.412 62.5822 621.802 62.9727L625.725 66.8959C625.643 66.874 625.557 66.8623 625.467 66.8623H623.509C622.957 66.8623 622.509 67.31 622.509 67.8623C622.509 68.4145 622.957 68.8623 623.509 68.8623H625.053L621.802 72.1131C621.412 72.5037 621.412 73.1368 621.802 73.5274C622.193 73.9179 622.826 73.9179 623.217 73.5274L628.14 68.6036C628.726 68.0178 628.726 67.0681 628.14 66.4823L623.217 61.5585Z" fill="#FAF5F6"/>
<g clip-path="url(#clip1_26_343)">
<g filter="url(#filter1_d_26_343)">
<rect x="644" width="190" height="135" fill="#FF4F2A"/>
</g>
<path d="M692.957 33.9091H694.542V42.5767C694.542 43.4716 694.332 44.2706 693.91 44.9737C693.492 45.6726 692.902 46.2244 692.139 46.6293C691.376 47.0298 690.481 47.2301 689.454 47.2301C688.427 47.2301 687.533 47.0298 686.77 46.6293C686.007 46.2244 685.415 45.6726 684.993 44.9737C684.575 44.2706 684.366 43.4716 684.366 42.5767V33.9091H685.952V42.4489C685.952 43.0881 686.092 43.657 686.373 44.1555C686.655 44.6499 687.055 45.0398 687.575 45.3253C688.099 45.6065 688.726 45.7472 689.454 45.7472C690.183 45.7472 690.81 45.6065 691.334 45.3253C691.858 45.0398 692.258 44.6499 692.535 44.1555C692.817 43.657 692.957 43.0881 692.957 42.4489V33.9091ZM705.358 39.3807L704.003 39.7642C703.918 39.5384 703.792 39.3189 703.626 39.1058C703.464 38.8885 703.242 38.7095 702.961 38.5689C702.68 38.4283 702.32 38.358 701.881 38.358C701.28 38.358 700.779 38.4964 700.379 38.7734C699.982 39.0462 699.784 39.3935 699.784 39.8153C699.784 40.1903 699.921 40.4865 700.193 40.7038C700.466 40.9212 700.892 41.1023 701.472 41.2472L702.929 41.6051C703.807 41.8182 704.461 42.1442 704.891 42.5831C705.322 43.0178 705.537 43.5781 705.537 44.2642C705.537 44.8267 705.375 45.3295 705.051 45.7727C704.732 46.2159 704.284 46.5653 703.709 46.821C703.134 47.0767 702.465 47.2045 701.702 47.2045C700.7 47.2045 699.872 46.9872 699.215 46.5526C698.559 46.1179 698.144 45.483 697.969 44.6477L699.401 44.2898C699.537 44.8182 699.795 45.2145 700.174 45.4787C700.558 45.7429 701.058 45.875 701.676 45.875C702.379 45.875 702.938 45.7259 703.351 45.4276C703.769 45.125 703.977 44.7628 703.977 44.3409C703.977 44 703.858 43.7145 703.619 43.4844C703.381 43.25 703.014 43.0753 702.52 42.9602L700.884 42.5767C699.985 42.3636 699.324 42.0334 698.902 41.5859C698.485 41.1342 698.276 40.5696 698.276 39.892C698.276 39.3381 698.431 38.848 698.742 38.4219C699.058 37.9957 699.486 37.6612 700.027 37.4183C700.573 37.1754 701.191 37.054 701.881 37.054C702.852 37.054 703.615 37.267 704.169 37.6932C704.727 38.1193 705.124 38.6818 705.358 39.3807ZM712.824 47.2045C711.878 47.2045 711.062 46.9957 710.376 46.5781C709.694 46.1562 709.168 45.5682 708.797 44.8139C708.431 44.0554 708.248 43.1733 708.248 42.1676C708.248 41.1619 708.431 40.2756 708.797 39.5085C709.168 38.7372 709.684 38.1364 710.344 37.706C711.009 37.2713 711.785 37.054 712.671 37.054C713.182 37.054 713.687 37.1392 714.186 37.3097C714.684 37.4801 715.138 37.7571 715.547 38.1406C715.956 38.5199 716.282 39.0227 716.525 39.6491C716.768 40.2756 716.89 41.0469 716.89 41.9631V42.6023H709.322V41.2983H715.356C715.356 40.7443 715.245 40.25 715.023 39.8153C714.806 39.3807 714.495 39.0376 714.09 38.7862C713.689 38.5348 713.216 38.4091 712.671 38.4091C712.07 38.4091 711.55 38.5582 711.111 38.8565C710.677 39.1506 710.342 39.5341 710.108 40.0071C709.873 40.4801 709.756 40.9872 709.756 41.5284V42.3977C709.756 43.1392 709.884 43.7678 710.14 44.2834C710.4 44.7947 710.76 45.1847 711.22 45.4531C711.68 45.7173 712.215 45.8494 712.824 45.8494C713.221 45.8494 713.579 45.794 713.898 45.6832C714.222 45.5682 714.501 45.3977 714.736 45.1719C714.97 44.9418 715.151 44.6562 715.279 44.3153L716.736 44.7244C716.583 45.2188 716.325 45.6534 715.963 46.0284C715.601 46.3991 715.153 46.6889 714.621 46.8977C714.088 47.1023 713.489 47.2045 712.824 47.2045ZM720.084 47V37.1818H721.542V38.6648H721.644C721.823 38.179 722.147 37.7848 722.616 37.4822C723.084 37.1797 723.613 37.0284 724.201 37.0284C724.312 37.0284 724.45 37.0305 724.616 37.0348C724.783 37.0391 724.908 37.0455 724.994 37.054V38.5881C724.942 38.5753 724.825 38.5561 724.642 38.5305C724.463 38.5007 724.273 38.4858 724.073 38.4858C723.596 38.4858 723.17 38.5859 722.795 38.7862C722.424 38.9822 722.13 39.255 721.913 39.6044C721.699 39.9496 721.593 40.3437 721.593 40.7869V47H720.084ZM742.798 38C742.657 37.5696 742.472 37.1839 742.242 36.843C742.016 36.4979 741.745 36.2038 741.43 35.9609C741.119 35.718 740.765 35.5327 740.369 35.4048C739.972 35.277 739.538 35.2131 739.065 35.2131C738.289 35.2131 737.584 35.4134 736.949 35.8139C736.314 36.2145 735.809 36.8047 735.434 37.5845C735.059 38.3643 734.871 39.321 734.871 40.4545C734.871 41.5881 735.061 42.5447 735.44 43.3246C735.82 44.1044 736.333 44.6946 736.981 45.0952C737.629 45.4957 738.357 45.696 739.167 45.696C739.917 45.696 740.577 45.5362 741.148 45.2166C741.724 44.8928 742.171 44.4368 742.491 43.8487C742.815 43.2564 742.977 42.5597 742.977 41.7585L743.462 41.8608H739.525V40.4545H744.511V41.8608C744.511 42.9389 744.281 43.8764 743.82 44.6733C743.364 45.4702 742.734 46.0881 741.928 46.527C741.127 46.9616 740.207 47.179 739.167 47.179C738.008 47.179 736.989 46.9062 736.112 46.3608C735.238 45.8153 734.556 45.0398 734.066 44.0341C733.58 43.0284 733.337 41.8352 733.337 40.4545C733.337 39.419 733.476 38.4879 733.753 37.6612C734.034 36.8303 734.43 36.1229 734.942 35.5391C735.453 34.9553 736.058 34.5078 736.757 34.1967C737.456 33.8857 738.225 33.7301 739.065 33.7301C739.755 33.7301 740.398 33.8345 740.995 34.0433C741.596 34.2479 742.131 34.5398 742.599 34.919C743.072 35.294 743.467 35.7436 743.782 36.2678C744.097 36.7876 744.315 37.3651 744.434 38H742.798ZM748.126 47V33.9091H756.026V35.3153H749.711V39.7386H755.617V41.1449H749.711V45.5938H756.129V47H748.126ZM759.068 35.3153V33.9091H768.886V35.3153H764.769V47H763.184V35.3153H759.068ZM779.391 37.1818C779.315 36.5341 779.004 36.0312 778.458 35.6733C777.913 35.3153 777.244 35.1364 776.451 35.1364C775.872 35.1364 775.364 35.2301 774.93 35.4176C774.499 35.6051 774.163 35.8629 773.92 36.1911C773.681 36.5192 773.562 36.892 773.562 37.3097C773.562 37.6591 773.645 37.9595 773.811 38.2109C773.982 38.4581 774.199 38.6648 774.463 38.831C774.727 38.9929 775.004 39.1271 775.294 39.2337C775.584 39.3359 775.85 39.419 776.093 39.483L777.423 39.8409C777.764 39.9304 778.143 40.054 778.56 40.2116C778.982 40.3693 779.385 40.5845 779.769 40.8572C780.156 41.1257 780.476 41.4709 780.727 41.8928C780.979 42.3146 781.104 42.8324 781.104 43.446C781.104 44.1534 780.919 44.7926 780.548 45.3636C780.182 45.9347 779.645 46.3885 778.938 46.7251C778.234 47.0618 777.38 47.2301 776.374 47.2301C775.437 47.2301 774.625 47.0788 773.939 46.7763C773.257 46.4737 772.72 46.0518 772.328 45.5107C771.94 44.9695 771.721 44.3409 771.67 43.625H773.306C773.349 44.1193 773.515 44.5284 773.805 44.8523C774.099 45.1719 774.47 45.4105 774.917 45.5682C775.369 45.7216 775.854 45.7983 776.374 45.7983C776.979 45.7983 777.523 45.7003 778.004 45.5043C778.486 45.304 778.867 45.027 779.149 44.6733C779.43 44.3153 779.57 43.8977 779.57 43.4205C779.57 42.9858 779.449 42.6321 779.206 42.3594C778.963 42.0866 778.644 41.8651 778.247 41.6946C777.851 41.5241 777.423 41.375 776.962 41.2472L775.352 40.7869C774.329 40.4929 773.519 40.0732 772.923 39.5277C772.326 38.9822 772.028 38.2685 772.028 37.3864C772.028 36.6534 772.226 36.0142 772.622 35.4688C773.023 34.919 773.56 34.4929 774.233 34.1903C774.911 33.8835 775.667 33.7301 776.502 33.7301C777.346 33.7301 778.096 33.8814 778.752 34.1839C779.408 34.4822 779.928 34.8913 780.312 35.4112C780.7 35.9311 780.904 36.5213 780.926 37.1818H779.391ZM668.959 61.9091V75H667.374V61.9091H668.959ZM683.418 61.9091V75H681.884L674.75 64.7216H674.622V75H673.037V61.9091H674.571L681.73 72.2131H681.858V61.9091H683.418ZM687.49 75V61.9091H695.339V63.3153H689.075V67.7386H694.751V69.1449H689.075V75H687.49ZM710 68.4545C710 69.8352 709.751 71.0284 709.252 72.0341C708.753 73.0398 708.069 73.8153 707.2 74.3608C706.331 74.9062 705.338 75.179 704.221 75.179C703.105 75.179 702.112 74.9062 701.243 74.3608C700.373 73.8153 699.689 73.0398 699.191 72.0341C698.692 71.0284 698.443 69.8352 698.443 68.4545C698.443 67.0739 698.692 65.8807 699.191 64.875C699.689 63.8693 700.373 63.0938 701.243 62.5483C702.112 62.0028 703.105 61.7301 704.221 61.7301C705.338 61.7301 706.331 62.0028 707.2 62.5483C708.069 63.0938 708.753 63.8693 709.252 64.875C709.751 65.8807 710 67.0739 710 68.4545ZM708.466 68.4545C708.466 67.321 708.276 66.3643 707.897 65.5845C707.522 64.8047 707.013 64.2145 706.369 63.8139C705.73 63.4134 705.014 63.2131 704.221 63.2131C703.429 63.2131 702.711 63.4134 702.067 63.8139C701.428 64.2145 700.919 64.8047 700.54 65.5845C700.165 66.3643 699.977 67.321 699.977 68.4545C699.977 69.5881 700.165 70.5447 700.54 71.3246C700.919 72.1044 701.428 72.6946 702.067 73.0952C702.711 73.4957 703.429 73.696 704.221 73.696C705.014 73.696 705.73 73.4957 706.369 73.0952C707.013 72.6946 707.522 72.1044 707.897 71.3246C708.276 70.5447 708.466 69.5881 708.466 68.4545ZM713.565 75V61.9091H717.989C719.011 61.9091 719.851 62.0838 720.507 62.4332C721.163 62.7784 721.649 63.2536 721.964 63.8587C722.28 64.4638 722.438 65.152 722.438 65.9233C722.438 66.6946 722.28 67.3786 721.964 67.9751C721.649 68.5717 721.165 69.0405 720.513 69.3814C719.862 69.718 719.028 69.8864 718.014 69.8864H714.435V68.4545H717.963C718.662 68.4545 719.224 68.3523 719.651 68.1477C720.081 67.9432 720.392 67.6534 720.584 67.2784C720.78 66.8991 720.878 66.4474 720.878 65.9233C720.878 65.3991 720.78 64.9411 720.584 64.549C720.388 64.157 720.075 63.8544 719.644 63.6413C719.214 63.424 718.645 63.3153 717.938 63.3153H715.151V75H713.565ZM719.727 69.1193L722.949 75H721.108L717.938 69.1193H719.727ZM725.979 61.9091H727.871L732.32 72.7756H732.473L736.922 61.9091H738.814V75H737.331V65.054H737.203L733.113 75H731.681L727.59 65.054H727.462V75H725.979V61.9091ZM743.43 75H741.768L746.575 61.9091H748.211L753.018 75H751.356L747.444 63.9801H747.342L743.43 75ZM744.043 69.8864H750.742V71.2926H744.043V69.8864ZM753.712 63.3153V61.9091H763.53V63.3153H759.413V75H757.828V63.3153H753.712ZM768.462 61.9091V75H766.876V61.9091H768.462ZM783.585 68.4545C783.585 69.8352 783.336 71.0284 782.838 72.0341C782.339 73.0398 781.655 73.8153 780.786 74.3608C779.916 74.9062 778.923 75.179 777.807 75.179C776.691 75.179 775.698 74.9062 774.828 74.3608C773.959 73.8153 773.275 73.0398 772.776 72.0341C772.278 71.0284 772.029 69.8352 772.029 68.4545C772.029 67.0739 772.278 65.8807 772.776 64.875C773.275 63.8693 773.959 63.0938 774.828 62.5483C775.698 62.0028 776.691 61.7301 777.807 61.7301C778.923 61.7301 779.916 62.0028 780.786 62.5483C781.655 63.0938 782.339 63.8693 782.838 64.875C783.336 65.8807 783.585 67.0739 783.585 68.4545ZM782.051 68.4545C782.051 67.321 781.862 66.3643 781.482 65.5845C781.107 64.8047 780.598 64.2145 779.955 63.8139C779.316 63.4134 778.6 63.2131 777.807 63.2131C777.014 63.2131 776.296 63.4134 775.653 63.8139C775.014 64.2145 774.504 64.8047 774.125 65.5845C773.75 66.3643 773.563 67.321 773.563 68.4545C773.563 69.5881 773.75 70.5447 774.125 71.3246C774.504 72.1044 775.014 72.6946 775.653 73.0952C776.296 73.4957 777.014 73.696 777.807 73.696C778.6 73.696 779.316 73.4957 779.955 73.0952C780.598 72.6946 781.107 72.1044 781.482 71.3246C781.862 70.5447 782.051 69.5881 782.051 68.4545ZM797.532 61.9091V75H795.997L788.864 64.7216H788.736V75H787.151V61.9091H788.685L795.844 72.2131H795.972V61.9091H797.532ZM674.875 103.23C674.252 103.23 673.688 103.113 673.181 102.879C672.674 102.64 672.271 102.297 671.973 101.849C671.674 101.398 671.525 100.852 671.525 100.213C671.525 99.6506 671.636 99.1946 671.858 98.8452C672.079 98.4915 672.375 98.2145 672.746 98.0142C673.117 97.8139 673.526 97.6648 673.973 97.5668C674.425 97.4645 674.879 97.3835 675.335 97.3239C675.931 97.2472 676.415 97.1896 676.786 97.1513C677.161 97.1087 677.434 97.0384 677.604 96.9403C677.779 96.8423 677.866 96.6719 677.866 96.429V96.3778C677.866 95.7472 677.694 95.2571 677.348 94.9077C677.007 94.5582 676.49 94.3835 675.795 94.3835C675.075 94.3835 674.51 94.5412 674.101 94.8565C673.692 95.1719 673.404 95.5085 673.238 95.8665L671.806 95.3551C672.062 94.7585 672.403 94.294 672.829 93.9616C673.26 93.625 673.728 93.3906 674.235 93.2585C674.747 93.1222 675.25 93.054 675.744 93.054C676.059 93.054 676.421 93.0923 676.831 93.169C677.244 93.2415 677.642 93.3928 678.026 93.6229C678.414 93.853 678.735 94.2003 678.991 94.6648C679.247 95.1293 679.375 95.7514 679.375 96.5312V103H677.866V101.67H677.789C677.687 101.884 677.517 102.112 677.278 102.354C677.039 102.597 676.722 102.804 676.326 102.974C675.929 103.145 675.446 103.23 674.875 103.23ZM675.105 101.875C675.701 101.875 676.204 101.758 676.613 101.523C677.027 101.289 677.338 100.987 677.546 100.616C677.76 100.245 677.866 99.8551 677.866 99.446V98.0653C677.802 98.142 677.662 98.2124 677.444 98.2763C677.231 98.3359 676.984 98.3892 676.703 98.4361C676.426 98.4787 676.155 98.517 675.891 98.5511C675.631 98.581 675.42 98.6065 675.258 98.6278C674.866 98.679 674.5 98.7621 674.159 98.8771C673.822 98.9879 673.549 99.1562 673.341 99.3821C673.136 99.6037 673.034 99.9062 673.034 100.29C673.034 100.814 673.228 101.21 673.615 101.479C674.007 101.743 674.504 101.875 675.105 101.875ZM683.233 103V89.9091H684.741V94.7415H684.869C684.98 94.571 685.133 94.3537 685.329 94.0895C685.529 93.821 685.815 93.5824 686.186 93.3736C686.561 93.1605 687.068 93.054 687.707 93.054C688.534 93.054 689.262 93.2607 689.893 93.674C690.524 94.0874 691.016 94.6733 691.37 95.4318C691.723 96.1903 691.9 97.0852 691.9 98.1165C691.9 99.1562 691.723 100.058 691.37 100.82C691.016 101.579 690.526 102.167 689.899 102.585C689.273 102.998 688.551 103.205 687.733 103.205C687.102 103.205 686.597 103.1 686.218 102.891C685.838 102.678 685.546 102.437 685.342 102.169C685.137 101.896 684.98 101.67 684.869 101.491H684.69V103H683.233ZM684.715 98.0909C684.715 98.8324 684.824 99.4865 685.041 100.053C685.259 100.616 685.576 101.057 685.994 101.376C686.412 101.692 686.923 101.849 687.528 101.849C688.159 101.849 688.685 101.683 689.107 101.351C689.533 101.014 689.853 100.562 690.066 99.9957C690.283 99.4247 690.392 98.7898 690.392 98.0909C690.392 97.4006 690.285 96.7784 690.072 96.2244C689.863 95.6662 689.546 95.2251 689.12 94.9013C688.698 94.5732 688.167 94.4091 687.528 94.4091C686.914 94.4091 686.399 94.5646 685.981 94.8757C685.563 95.1825 685.248 95.6129 685.035 96.1669C684.822 96.7166 684.715 97.358 684.715 98.0909ZM699.096 103.205C698.21 103.205 697.432 102.994 696.763 102.572C696.098 102.15 695.579 101.56 695.204 100.801C694.833 100.043 694.647 99.1562 694.647 98.142C694.647 97.1193 694.833 96.2266 695.204 95.4638C695.579 94.701 696.098 94.1087 696.763 93.6868C697.432 93.2649 698.21 93.054 699.096 93.054C699.983 93.054 700.758 93.2649 701.423 93.6868C702.092 94.1087 702.612 94.701 702.983 95.4638C703.358 96.2266 703.545 97.1193 703.545 98.142C703.545 99.1562 703.358 100.043 702.983 100.801C702.612 101.56 702.092 102.15 701.423 102.572C700.758 102.994 699.983 103.205 699.096 103.205ZM699.096 101.849C699.77 101.849 700.324 101.677 700.758 101.332C701.193 100.987 701.515 100.533 701.723 99.9702C701.932 99.4077 702.037 98.7983 702.037 98.142C702.037 97.4858 701.932 96.8743 701.723 96.3075C701.515 95.7408 701.193 95.2827 700.758 94.9332C700.324 94.5838 699.77 94.4091 699.096 94.4091C698.423 94.4091 697.869 94.5838 697.434 94.9332C697 95.2827 696.678 95.7408 696.469 96.3075C696.26 96.8743 696.156 97.4858 696.156 98.142C696.156 98.7983 696.26 99.4077 696.469 99.9702C696.678 100.533 697 100.987 697.434 101.332C697.869 101.677 698.423 101.849 699.096 101.849ZM712.935 98.9858V93.1818H714.444V103H712.935V101.338H712.833C712.603 101.837 712.245 102.261 711.759 102.61C711.273 102.955 710.66 103.128 709.918 103.128C709.305 103.128 708.759 102.994 708.282 102.725C707.805 102.452 707.43 102.043 707.157 101.498C706.884 100.948 706.748 100.256 706.748 99.4205V93.1818H708.256V99.3182C708.256 100.034 708.457 100.605 708.857 101.031C709.262 101.457 709.778 101.67 710.404 101.67C710.779 101.67 711.161 101.575 711.548 101.383C711.94 101.191 712.269 100.897 712.533 100.501C712.801 100.104 712.935 99.5994 712.935 98.9858ZM722.377 93.1818V94.4602H717.289V93.1818H722.377ZM718.772 90.8295H720.28V100.188C720.28 100.614 720.342 100.933 720.466 101.146C720.593 101.355 720.755 101.496 720.951 101.568C721.152 101.636 721.363 101.67 721.584 101.67C721.75 101.67 721.887 101.662 721.993 101.645C722.1 101.624 722.185 101.607 722.249 101.594L722.556 102.949C722.453 102.987 722.311 103.026 722.127 103.064C721.944 103.107 721.712 103.128 721.431 103.128C721.005 103.128 720.587 103.036 720.178 102.853C719.773 102.67 719.436 102.391 719.168 102.016C718.904 101.641 718.772 101.168 718.772 100.597V90.8295ZM735.778 93.1818V94.4602H730.69V93.1818H735.778ZM732.173 90.8295H733.682V100.188C733.682 100.614 733.744 100.933 733.867 101.146C733.995 101.355 734.157 101.496 734.353 101.568C734.553 101.636 734.764 101.67 734.986 101.67C735.152 101.67 735.288 101.662 735.395 101.645C735.501 101.624 735.587 101.607 735.651 101.594L735.957 102.949C735.855 102.987 735.712 103.026 735.529 103.064C735.346 103.107 735.114 103.128 734.832 103.128C734.406 103.128 733.989 103.036 733.579 102.853C733.175 102.67 732.838 102.391 732.57 102.016C732.305 101.641 732.173 101.168 732.173 100.597V90.8295ZM740.667 97.0938V103H739.158V89.9091H740.667V94.7159H740.795C741.025 94.2088 741.37 93.8061 741.83 93.5078C742.295 93.2053 742.913 93.054 743.684 93.054C744.353 93.054 744.939 93.1882 745.442 93.4567C745.945 93.7209 746.335 94.1278 746.612 94.6776C746.893 95.223 747.033 95.9176 747.033 96.7614V103H745.525V96.8636C745.525 96.0838 745.323 95.4808 744.918 95.0547C744.517 94.6243 743.961 94.4091 743.249 94.4091C742.755 94.4091 742.312 94.5135 741.92 94.7223C741.532 94.9311 741.225 95.2358 740.999 95.6364C740.778 96.0369 740.667 96.5227 740.667 97.0938ZM754.81 103.205C753.864 103.205 753.048 102.996 752.362 102.578C751.68 102.156 751.153 101.568 750.783 100.814C750.416 100.055 750.233 99.1733 750.233 98.1676C750.233 97.1619 750.416 96.2756 750.783 95.5085C751.153 94.7372 751.669 94.1364 752.33 93.706C752.994 93.2713 753.77 93.054 754.656 93.054C755.168 93.054 755.673 93.1392 756.171 93.3097C756.67 93.4801 757.124 93.7571 757.533 94.1406C757.942 94.5199 758.268 95.0227 758.511 95.6491C758.754 96.2756 758.875 97.0469 758.875 97.9631V98.6023H751.307V97.2983H757.341C757.341 96.7443 757.23 96.25 757.009 95.8153C756.791 95.3807 756.48 95.0376 756.075 94.7862C755.675 94.5348 755.202 94.4091 754.656 94.4091C754.055 94.4091 753.536 94.5582 753.097 94.8565C752.662 95.1506 752.327 95.5341 752.093 96.0071C751.859 96.4801 751.742 96.9872 751.742 97.5284V98.3977C751.742 99.1392 751.869 99.7678 752.125 100.283C752.385 100.795 752.745 101.185 753.205 101.453C753.666 101.717 754.2 101.849 754.81 101.849C755.206 101.849 755.564 101.794 755.884 101.683C756.207 101.568 756.487 101.398 756.721 101.172C756.955 100.942 757.136 100.656 757.264 100.315L758.722 100.724C758.568 101.219 758.31 101.653 757.948 102.028C757.586 102.399 757.139 102.689 756.606 102.898C756.073 103.102 755.474 103.205 754.81 103.205ZM768.237 103V89.9091H776.086V91.3153H769.822V95.7386H775.498V97.1449H769.822V103H768.237ZM782.079 103L778.5 89.9091H780.11L782.846 100.571H782.974L785.761 89.9091H787.551L790.338 100.571H790.465L793.201 89.9091H794.812L791.233 103H789.596L786.707 92.5682H786.605L783.715 103H782.079Z" fill="#0E0F25"/>
</g>
<defs>
<filter id="filter0_d_26_343" x="0" y="0" width="198" height="143" filterUnits="userSpaceOnUse" color-interpolation-filters="sRGB">
<feFlood flood-opacity="0" result="BackgroundImageFix"/>
<feColorMatrix in="SourceAlpha" type="matrix" values="0 0 0 0 0 0 0 0 0 0 0 0 0 0 0 0 0 0 127 0" result="hardAlpha"/>
<feOffset dx="4" dy="4"/>
<feGaussianBlur stdDeviation="2"/>
<feComposite in2="hardAlpha" operator="out"/>
<feColorMatrix type="matrix" values="0 0 0 0 0.0485636 0 0 0 0 0.00401041 0 0 0 0 0.320833 0 0 0 0.1 0"/>
<feBlend mode="normal" in2="BackgroundImageFix" result="effect1_dropShadow_26_343"/>
<feBlend mode="normal" in="SourceGraphic" in2="effect1_dropShadow_26_343" result="shape"/>
</filter>
<filter id="filter1_d_26_343" x="644" y="0" width="198" height="143" filterUnits="userSpaceOnUse" color-interpolation-filters="sRGB">
<feFlood flood-opacity="0" result="BackgroundImageFix"/>
<feColorMatrix in="SourceAlpha" type="matrix" values="0 0 0 0 0 0 0 0 0 0 0 0 0 0 0 0 0 0 127 0" result="hardAlpha"/>
<feOffset dx="4" dy="4"/>
<feGaussianBlur stdDeviation="2"/>
<feComposite in2="hardAlpha" operator="out"/>
<feColorMatrix type="matrix" values="0 0 0 0 0.0485636 0 0 0 0 0.00401041 0 0 0 0 0.320833 0 0 0 0.1 0"/>
<feBlend mode="normal" in2="BackgroundImageFix" result="effect1_dropShadow_26_343"/>
<feBlend mode="normal" in="SourceGraphic" in2="effect1_dropShadow_26_343" result="shape"/>
</filter>
<clipPath id="clip0_26_343">
<rect width="138" height="135" fill="white"/>
</clipPath>
<clipPath id="clip1_26_343">
<rect width="178" height="135" fill="white" transform="translate(644)"/>
</clipPath>
</defs>
</svg>
