<svg width="320" height="40" viewBox="0 0 320 40" fill="none" xmlns="http://www.w3.org/2000/svg">
<g clip-path="url(#clip0_147_400)">
<rect width="320" height="40" fill="#FF4F2A"/>
<path d="M-59 22.7889H-53.2497C-53.2497 23.5444 -52.542 24.0556 -48.8928 24.0556C-45.4868 24.0556 -44.9781 23.8333 -44.9781 23.2556C-44.9781 22.5889 -45.4868 22.5 -49.1139 22.3889C-56.1027 22.1667 -58.7788 21.0111 -58.7788 17.3889C-58.7788 13.9667 -55.4392 12.5 -49.3351 12.5C-43.2973 12.5 -39.8913 13.9667 -39.8913 17.9444H-45.6416C-45.6416 17.1222 -46.9686 16.9444 -49.7774 16.9444C-52.4756 16.9444 -53.0285 17.0778 -53.0285 17.6778C-53.0285 18.2778 -52.4756 18.2556 -49.1139 18.3889C-43.0098 18.6333 -39.2278 19.0556 -39.2278 23.1222C-39.2278 27.4111 -42.7665 28.5 -49.1139 28.5C-55.4614 28.5 -59 27.4111 -59 22.7889Z" fill="#0E0E0E"/>
<path d="M-18.8689 12.7222V17.6111H-25.5039V28.2778H-31.2542V17.6111H-37.8891V12.7222H-18.8689Z" fill="#0E0E0E"/>
<path d="M2.58151 20.4778C2.58151 25.8778 -0.359984 28.5 -7.14975 28.5C-13.9616 28.5 -16.881 25.9 -16.881 20.4778V12.7222H-11.1307V20.4778C-11.1307 22.1444 -10.5336 23.6111 -7.14975 23.6111C-3.76593 23.6111 -3.16878 22.1222 -3.16878 20.4778V12.7222H2.58151V20.4778Z" fill="#0E0E0E"/>
<path d="M16.292 12.7222C20.0297 12.7222 23.5462 15.2111 23.5462 20.5C23.5462 25.7889 20.0297 28.2778 16.292 28.2778H4.79143V12.7222H16.292ZM14.5227 23.3889C15.7612 23.3889 17.7959 23.3889 17.7959 20.5C17.7959 17.6111 15.7612 17.6111 14.5227 17.6111H10.5417V23.3889H14.5227Z" fill="#0E0E0E"/>
<path d="M30.9845 23.1667L23.111 12.7222H29.7459L33.8596 18.5L37.9733 12.7222H44.6082L36.7347 23.1667V28.2778H30.9845V23.1667Z" fill="#0E0E0E"/>
<path d="M56.5639 20.4778C56.5639 15.0778 59.4833 12.5 66.2952 12.5C72.4878 12.5 75.7168 14.6778 75.9601 19.5889H70.0771C69.856 18.1222 68.728 17.3889 66.2952 17.3889C62.8893 17.3889 62.3142 18.8333 62.3142 20.4778C62.3142 22.1444 62.9114 23.6111 66.2952 23.6111C68.728 23.6111 69.856 22.8556 70.0771 21.3667H75.9601C75.7168 26.3 72.5099 28.5 66.2952 28.5C59.4833 28.5 56.5639 25.9 56.5639 20.4778Z" fill="#0E0E0E"/>
<path d="M90.7918 28.2778L89.7302 25.4778H83.1395L82.0779 28.2778H75.7526L82.1664 12.7222H90.7034L97.1171 28.2778H90.7918ZM84.6434 21.4778H88.2263L86.4349 16.7222L84.6434 21.4778Z" fill="#0E0E0E"/>
<path d="M97.3386 22.7889H103.089C103.089 23.5444 103.797 24.0556 107.446 24.0556C110.852 24.0556 111.361 23.8333 111.361 23.2556C111.361 22.5889 110.852 22.5 107.225 22.3889C100.236 22.1667 97.5598 21.0111 97.5598 17.3889C97.5598 13.9667 100.899 12.5 107.004 12.5C113.041 12.5 116.447 13.9667 116.447 17.9444H110.697C110.697 17.1222 109.37 16.9444 106.561 16.9444C103.863 16.9444 103.31 17.0778 103.31 17.6778C103.31 18.2778 103.863 18.2556 107.225 18.3889C113.329 18.6333 117.111 19.0556 117.111 23.1222C117.111 27.4111 113.572 28.5 107.225 28.5C100.877 28.5 97.3386 27.4111 97.3386 22.7889Z" fill="#0E0E0E"/>
<path d="M135.469 17.1667H124.853V18.6111H135.469V22.3889H124.853V23.8333H135.469V28.2778H119.103V12.7222H135.469V17.1667Z" fill="#0E0E0E"/>
<path d="M137.228 22.7889H142.978C142.978 23.5444 143.686 24.0556 147.335 24.0556C150.741 24.0556 151.25 23.8333 151.25 23.2556C151.25 22.5889 150.741 22.5 147.114 22.3889C140.125 22.1667 137.449 21.0111 137.449 17.3889C137.449 13.9667 140.789 12.5 146.893 12.5C152.931 12.5 156.337 13.9667 156.337 17.9444H150.586C150.586 17.1222 149.259 16.9444 146.45 16.9444C143.752 16.9444 143.199 17.0778 143.199 17.6778C143.199 18.2778 143.752 18.2556 147.114 18.3889C153.218 18.6333 157 19.0556 157 23.1222C157 27.4111 153.461 28.5 147.114 28.5C140.766 28.5 137.228 27.4111 137.228 22.7889Z" fill="#0E0E0E"/>
<rect x="174" y="18" width="6" height="5" fill="#0E0E0E"/>
<path d="M197 22.7889H202.75C202.75 23.5444 203.458 24.0556 207.107 24.0556C210.513 24.0556 211.022 23.8333 211.022 23.2556C211.022 22.5889 210.513 22.5 206.886 22.3889C199.897 22.1667 197.221 21.0111 197.221 17.3889C197.221 13.9667 200.561 12.5 206.665 12.5C212.703 12.5 216.109 13.9667 216.109 17.9444H210.358C210.358 17.1222 209.031 16.9444 206.223 16.9444C203.524 16.9444 202.971 17.0778 202.971 17.6778C202.971 18.2778 203.524 18.2556 206.886 18.3889C212.99 18.6333 216.772 19.0556 216.772 23.1222C216.772 27.4111 213.234 28.5 206.886 28.5C200.539 28.5 197 27.4111 197 22.7889Z" fill="#0E0E0E"/>
<path d="M237.131 12.7222V17.6111H230.496V28.2778H224.746V17.6111H218.111V12.7222H237.131Z" fill="#0E0E0E"/>
<path d="M258.582 20.4778C258.582 25.8778 255.64 28.5 248.85 28.5C242.038 28.5 239.119 25.9 239.119 20.4778V12.7222H244.869V20.4778C244.869 22.1444 245.466 23.6111 248.85 23.6111C252.234 23.6111 252.831 22.1222 252.831 20.4778V12.7222H258.582V20.4778Z" fill="#0E0E0E"/>
<path d="M272.292 12.7222C276.03 12.7222 279.546 15.2111 279.546 20.5C279.546 25.7889 276.03 28.2778 272.292 28.2778H260.791V12.7222H272.292ZM270.523 23.3889C271.761 23.3889 273.796 23.3889 273.796 20.5C273.796 17.6111 271.761 17.6111 270.523 17.6111H266.542V23.3889H270.523Z" fill="#0E0E0E"/>
<path d="M286.984 23.1667L279.111 12.7222H285.746L289.86 18.5L293.973 12.7222H300.608L292.735 23.1667V28.2778H286.984V23.1667Z" fill="#0E0E0E"/>
<path d="M312.564 20.4778C312.564 15.0778 315.483 12.5 322.295 12.5C328.488 12.5 331.717 14.6778 331.96 19.5889H326.077C325.856 18.1222 324.728 17.3889 322.295 17.3889C318.889 17.3889 318.314 18.8333 318.314 20.4778C318.314 22.1444 318.911 23.6111 322.295 23.6111C324.728 23.6111 325.856 22.8556 326.077 21.3667H331.96C331.717 26.3 328.51 28.5 322.295 28.5C315.483 28.5 312.564 25.9 312.564 20.4778Z" fill="#0E0E0E"/>
<path d="M346.792 28.2778L345.73 25.4778H339.14L338.078 28.2778H331.753L338.166 12.7222H346.703L353.117 28.2778H346.792ZM340.643 21.4778H344.226L342.435 16.7222L340.643 21.4778Z" fill="#0E0E0E"/>
<path d="M353.339 22.7889H359.089C359.089 23.5444 359.797 24.0556 363.446 24.0556C366.852 24.0556 367.361 23.8333 367.361 23.2556C367.361 22.5889 366.852 22.5 363.225 22.3889C356.236 22.1667 353.56 21.0111 353.56 17.3889C353.56 13.9667 356.899 12.5 363.004 12.5C369.041 12.5 372.447 13.9667 372.447 17.9444H366.697C366.697 17.1222 365.37 16.9444 362.561 16.9444C359.863 16.9444 359.31 17.0778 359.31 17.6778C359.31 18.2778 359.863 18.2556 363.225 18.3889C369.329 18.6333 373.111 19.0556 373.111 23.1222C373.111 27.4111 369.572 28.5 363.225 28.5C356.877 28.5 353.339 27.4111 353.339 22.7889Z" fill="#0E0E0E"/>
<path d="M391.469 17.1667H380.853V18.6111H391.469V22.3889H380.853V23.8333H391.469V28.2778H375.103V12.7222H391.469V17.1667Z" fill="#0E0E0E"/>
<path d="M393.228 22.7889H398.978C398.978 23.5444 399.686 24.0556 403.335 24.0556C406.741 24.0556 407.25 23.8333 407.25 23.2556C407.25 22.5889 406.741 22.5 403.114 22.3889C396.125 22.1667 393.449 21.0111 393.449 17.3889C393.449 13.9667 396.789 12.5 402.893 12.5C408.931 12.5 412.337 13.9667 412.337 17.9444H406.586C406.586 17.1222 405.259 16.9444 402.45 16.9444C399.752 16.9444 399.199 17.0778 399.199 17.6778C399.199 18.2778 399.752 18.2556 403.114 18.3889C409.218 18.6333 413 19.0556 413 23.1222C413 27.4111 409.461 28.5 403.114 28.5C396.766 28.5 393.228 27.4111 393.228 22.7889Z" fill="#0E0E0E"/>
</g>
<defs>
<clipPath id="clip0_147_400">
<rect width="320" height="40" fill="white"/>
</clipPath>
</defs>
</svg>
