<svg width="1920" height="50" viewBox="0 0 1920 50" fill="none" xmlns="http://www.w3.org/2000/svg">
<g clip-path="url(#clip0_145_230)">
<rect width="1920" height="50" fill="#CFF80A"/>
<path d="M-36.8 19.9H-51.2V22.15H-38.6V28.75H-51.2V34.3H-59V13.3H-36.8V19.9Z" fill="#0E0E0E"/>
<path d="M-17.3246 34.3L-18.7646 30.52H-27.7046L-29.1446 34.3H-37.7246L-29.0246 13.3H-17.4446L-8.74461 34.3H-17.3246ZM-25.6646 25.12H-20.8046L-23.2346 18.7L-25.6646 25.12Z" fill="#0E0E0E"/>
<path d="M20.7599 32.26L15.2399 37.78L11.0999 33.64C9.23992 34.27 6.92992 34.6 4.16992 34.6C-5.07008 34.6 -9.03008 31.09 -9.03008 23.77C-9.03008 16.48 -5.07008 13 4.16992 13C13.3799 13 17.3699 16.51 17.3699 23.77C17.3699 25.45 17.1599 26.92 16.7099 28.21L20.7599 32.26ZM4.16992 28C8.75992 28 9.56992 25.99 9.56992 23.77C9.56992 21.58 8.78992 19.6 4.16992 19.6C-0.450078 19.6 -1.23008 21.55 -1.23008 23.77C-1.23008 26.02 -0.420078 28 4.16992 28Z" fill="#0E0E0E"/>
<rect x="70.7599" y="21.39" width="8" height="8" fill="#0E0E0E"/>
<path d="M150.96 19.9H136.56V22.15H149.16V28.75H136.56V34.3H128.76V13.3H150.96V19.9Z" fill="#0E0E0E"/>
<path d="M170.435 34.3L168.995 30.52H160.055L158.615 34.3H150.035L158.735 13.3H170.315L179.015 34.3H170.435ZM162.095 25.12H166.955L164.525 18.7L162.095 25.12Z" fill="#0E0E0E"/>
<path d="M208.52 32.26L203 37.78L198.86 33.64C197 34.27 194.69 34.6 191.93 34.6C182.69 34.6 178.73 31.09 178.73 23.77C178.73 16.48 182.69 13 191.93 13C201.14 13 205.13 16.51 205.13 23.77C205.13 25.45 204.92 26.92 204.47 28.21L208.52 32.26ZM191.93 28C196.52 28 197.33 25.99 197.33 23.77C197.33 21.58 196.55 19.6 191.93 19.6C187.31 19.6 186.53 21.55 186.53 23.77C186.53 26.02 187.34 28 191.93 28Z" fill="#0E0E0E"/>
<rect x="258.52" y="21.39" width="8" height="8" fill="#0E0E0E"/>
<path d="M338.72 19.9H324.32V22.15H336.92V28.75H324.32V34.3H316.52V13.3H338.72V19.9Z" fill="#0E0E0E"/>
<path d="M358.195 34.3L356.755 30.52H347.815L346.375 34.3H337.795L346.495 13.3H358.075L366.775 34.3H358.195ZM349.855 25.12H354.715L352.285 18.7L349.855 25.12Z" fill="#0E0E0E"/>
<path d="M396.28 32.26L390.76 37.78L386.62 33.64C384.76 34.27 382.45 34.6 379.69 34.6C370.45 34.6 366.49 31.09 366.49 23.77C366.49 16.48 370.45 13 379.69 13C388.9 13 392.89 16.51 392.89 23.77C392.89 25.45 392.68 26.92 392.23 28.21L396.28 32.26ZM379.69 28C384.28 28 385.09 25.99 385.09 23.77C385.09 21.58 384.31 19.6 379.69 19.6C375.07 19.6 374.29 21.55 374.29 23.77C374.29 26.02 375.1 28 379.69 28Z" fill="#0E0E0E"/>
<rect x="446.28" y="21.39" width="8" height="8" fill="#0E0E0E"/>
<path d="M526.48 19.9H512.08V22.15H524.68V28.75H512.08V34.3H504.28V13.3H526.48V19.9Z" fill="#0E0E0E"/>
<path d="M545.955 34.3L544.515 30.52H535.575L534.135 34.3H525.555L534.255 13.3H545.835L554.535 34.3H545.955ZM537.615 25.12H542.475L540.045 18.7L537.615 25.12Z" fill="#0E0E0E"/>
<path d="M584.04 32.26L578.52 37.78L574.38 33.64C572.52 34.27 570.21 34.6 567.45 34.6C558.21 34.6 554.25 31.09 554.25 23.77C554.25 16.48 558.21 13 567.45 13C576.66 13 580.65 16.51 580.65 23.77C580.65 25.45 580.44 26.92 579.99 28.21L584.04 32.26ZM567.45 28C572.04 28 572.85 25.99 572.85 23.77C572.85 21.58 572.07 19.6 567.45 19.6C562.83 19.6 562.05 21.55 562.05 23.77C562.05 26.02 562.86 28 567.45 28Z" fill="#0E0E0E"/>
<rect x="634.04" y="21.39" width="8" height="8" fill="#0E0E0E"/>
<path d="M714.24 19.9H699.84V22.15H712.44V28.75H699.84V34.3H692.04V13.3H714.24V19.9Z" fill="#0E0E0E"/>
<path d="M733.715 34.3L732.275 30.52H723.335L721.895 34.3H713.315L722.015 13.3H733.595L742.295 34.3H733.715ZM725.375 25.12H730.235L727.805 18.7L725.375 25.12Z" fill="#0E0E0E"/>
<path d="M771.8 32.26L766.28 37.78L762.14 33.64C760.28 34.27 757.97 34.6 755.21 34.6C745.97 34.6 742.01 31.09 742.01 23.77C742.01 16.48 745.97 13 755.21 13C764.42 13 768.41 16.51 768.41 23.77C768.41 25.45 768.2 26.92 767.75 28.21L771.8 32.26ZM755.21 28C759.8 28 760.61 25.99 760.61 23.77C760.61 21.58 759.83 19.6 755.21 19.6C750.59 19.6 749.81 21.55 749.81 23.77C749.81 26.02 750.62 28 755.21 28Z" fill="#0E0E0E"/>
<rect x="821.8" y="21.39" width="8" height="8" fill="#0E0E0E"/>
<path d="M902 19.9H887.6V22.15H900.2V28.75H887.6V34.3H879.8V13.3H902V19.9Z" fill="#0E0E0E"/>
<path d="M921.475 34.3L920.035 30.52H911.095L909.655 34.3H901.075L909.775 13.3H921.355L930.055 34.3H921.475ZM913.135 25.12H917.995L915.565 18.7L913.135 25.12Z" fill="#0E0E0E"/>
<path d="M959.559 32.26L954.039 37.78L949.899 33.64C948.039 34.27 945.729 34.6 942.969 34.6C933.729 34.6 929.769 31.09 929.769 23.77C929.769 16.48 933.729 13 942.969 13C952.179 13 956.169 16.51 956.169 23.77C956.169 25.45 955.959 26.92 955.509 28.21L959.559 32.26ZM942.969 28C947.559 28 948.369 25.99 948.369 23.77C948.369 21.58 947.589 19.6 942.969 19.6C938.349 19.6 937.569 21.55 937.569 23.77C937.569 26.02 938.379 28 942.969 28Z" fill="#0E0E0E"/>
<rect x="1009.56" y="21.39" width="8" height="8" fill="#0E0E0E"/>
<path d="M1089.76 19.9H1075.36V22.15H1087.96V28.75H1075.36V34.3H1067.56V13.3H1089.76V19.9Z" fill="#0E0E0E"/>
<path d="M1109.23 34.3L1107.79 30.52H1098.85L1097.41 34.3H1088.83L1097.53 13.3H1109.11L1117.81 34.3H1109.23ZM1100.89 25.12H1105.75L1103.32 18.7L1100.89 25.12Z" fill="#0E0E0E"/>
<path d="M1147.32 32.26L1141.8 37.78L1137.66 33.64C1135.8 34.27 1133.49 34.6 1130.73 34.6C1121.49 34.6 1117.53 31.09 1117.53 23.77C1117.53 16.48 1121.49 13 1130.73 13C1139.94 13 1143.93 16.51 1143.93 23.77C1143.93 25.45 1143.72 26.92 1143.27 28.21L1147.32 32.26ZM1130.73 28C1135.32 28 1136.13 25.99 1136.13 23.77C1136.13 21.58 1135.35 19.6 1130.73 19.6C1126.11 19.6 1125.33 21.55 1125.33 23.77C1125.33 26.02 1126.14 28 1130.73 28Z" fill="#0E0E0E"/>
<rect x="1197.32" y="21.39" width="8" height="8" fill="#0E0E0E"/>
<path d="M1277.52 19.9H1263.12V22.15H1275.72V28.75H1263.12V34.3H1255.32V13.3H1277.52V19.9Z" fill="#0E0E0E"/>
<path d="M1296.99 34.3L1295.55 30.52H1286.61L1285.17 34.3H1276.59L1285.29 13.3H1296.87L1305.57 34.3H1296.99ZM1288.65 25.12H1293.51L1291.08 18.7L1288.65 25.12Z" fill="#0E0E0E"/>
<path d="M1335.08 32.26L1329.56 37.78L1325.42 33.64C1323.56 34.27 1321.25 34.6 1318.49 34.6C1309.25 34.6 1305.29 31.09 1305.29 23.77C1305.29 16.48 1309.25 13 1318.49 13C1327.7 13 1331.69 16.51 1331.69 23.77C1331.69 25.45 1331.48 26.92 1331.03 28.21L1335.08 32.26ZM1318.49 28C1323.08 28 1323.89 25.99 1323.89 23.77C1323.89 21.58 1323.11 19.6 1318.49 19.6C1313.87 19.6 1313.09 21.55 1313.09 23.77C1313.09 26.02 1313.9 28 1318.49 28Z" fill="#0E0E0E"/>
<rect x="1385.08" y="21.39" width="8" height="8" fill="#0E0E0E"/>
<path d="M1465.28 19.9H1450.88V22.15H1463.48V28.75H1450.88V34.3H1443.08V13.3H1465.28V19.9Z" fill="#0E0E0E"/>
<path d="M1484.75 34.3L1483.31 30.52H1474.37L1472.93 34.3H1464.35L1473.05 13.3H1484.63L1493.33 34.3H1484.75ZM1476.41 25.12H1481.27L1478.84 18.7L1476.41 25.12Z" fill="#0E0E0E"/>
<path d="M1522.84 32.26L1517.32 37.78L1513.18 33.64C1511.32 34.27 1509.01 34.6 1506.25 34.6C1497.01 34.6 1493.05 31.09 1493.05 23.77C1493.05 16.48 1497.01 13 1506.25 13C1515.46 13 1519.45 16.51 1519.45 23.77C1519.45 25.45 1519.24 26.92 1518.79 28.21L1522.84 32.26ZM1506.25 28C1510.84 28 1511.65 25.99 1511.65 23.77C1511.65 21.58 1510.87 19.6 1506.25 19.6C1501.63 19.6 1500.85 21.55 1500.85 23.77C1500.85 26.02 1501.66 28 1506.25 28Z" fill="#0E0E0E"/>
<rect x="1572.84" y="21.39" width="8" height="8" fill="#0E0E0E"/>
<path d="M1653.04 19.9H1638.64V22.15H1651.24V28.75H1638.64V34.3H1630.84V13.3H1653.04V19.9Z" fill="#0E0E0E"/>
<path d="M1672.51 34.3L1671.07 30.52H1662.13L1660.69 34.3H1652.11L1660.81 13.3H1672.39L1681.09 34.3H1672.51ZM1664.17 25.12H1669.03L1666.6 18.7L1664.17 25.12Z" fill="#0E0E0E"/>
<path d="M1710.6 32.26L1705.08 37.78L1700.94 33.64C1699.08 34.27 1696.77 34.6 1694.01 34.6C1684.77 34.6 1680.81 31.09 1680.81 23.77C1680.81 16.48 1684.77 13 1694.01 13C1703.22 13 1707.21 16.51 1707.21 23.77C1707.21 25.45 1707 26.92 1706.55 28.21L1710.6 32.26ZM1694.01 28C1698.6 28 1699.41 25.99 1699.41 23.77C1699.41 21.58 1698.63 19.6 1694.01 19.6C1689.39 19.6 1688.61 21.55 1688.61 23.77C1688.61 26.02 1689.42 28 1694.01 28Z" fill="#0E0E0E"/>
<rect x="1760.6" y="21.39" width="8" height="8" fill="#0E0E0E"/>
<path d="M1840.8 19.9H1826.4V22.15H1839V28.75H1826.4V34.3H1818.6V13.3H1840.8V19.9Z" fill="#0E0E0E"/>
<path d="M1860.27 34.3L1858.83 30.52H1849.89L1848.45 34.3H1839.87L1848.57 13.3H1860.15L1868.85 34.3H1860.27ZM1851.93 25.12H1856.79L1854.36 18.7L1851.93 25.12Z" fill="#0E0E0E"/>
<path d="M1898.36 32.26L1892.84 37.78L1888.7 33.64C1886.84 34.27 1884.53 34.6 1881.77 34.6C1872.53 34.6 1868.57 31.09 1868.57 23.77C1868.57 16.48 1872.53 13 1881.77 13C1890.98 13 1894.97 16.51 1894.97 23.77C1894.97 25.45 1894.76 26.92 1894.31 28.21L1898.36 32.26ZM1881.77 28C1886.36 28 1887.17 25.99 1887.17 23.77C1887.17 21.58 1886.39 19.6 1881.77 19.6C1877.15 19.6 1876.37 21.55 1876.37 23.77C1876.37 26.02 1877.18 28 1881.77 28Z" fill="#0E0E0E"/>
</g>
<defs>
<clipPath id="clip0_145_230">
<rect width="1920" height="50" fill="white"/>
</clipPath>
</defs>
</svg>
