<svg width="990" height="50" viewBox="0 0 990 50" fill="none" xmlns="http://www.w3.org/2000/svg">
<g clip-path="url(#clip0_147_463)">
<rect width="1920" height="50" fill="#CFF80A"/>
<path d="M61.4798 19.9H47.0798V22.15H59.6798V28.75H47.0798V34.3H39.2798V13.3H61.4798V19.9Z" fill="#0E0E0E"/>
<path d="M80.9552 34.3L79.5152 30.52H70.5752L69.1352 34.3H60.5552L69.2552 13.3H80.8352L89.5352 34.3H80.9552ZM72.6152 25.12H77.4752L75.0452 18.7L72.6152 25.12Z" fill="#0E0E0E"/>
<path d="M119.04 32.26L113.52 37.78L109.38 33.64C107.52 34.27 105.21 34.6 102.45 34.6C93.2097 34.6 89.2497 31.09 89.2497 23.77C89.2497 16.48 93.2097 13 102.45 13C111.66 13 115.65 16.51 115.65 23.77C115.65 25.45 115.44 26.92 114.99 28.21L119.04 32.26ZM102.45 28C107.04 28 107.85 25.99 107.85 23.77C107.85 21.58 107.07 19.6 102.45 19.6C97.8297 19.6 97.0497 21.55 97.0497 23.77C97.0497 26.02 97.8597 28 102.45 28Z" fill="#0E0E0E"/>
<rect x="169.04" y="21.39" width="8" height="8" fill="#0E0E0E"/>
<path d="M249.24 19.9H234.84V22.15H247.44V28.75H234.84V34.3H227.04V13.3H249.24V19.9Z" fill="#0E0E0E"/>
<path d="M268.715 34.3L267.275 30.52H258.335L256.895 34.3H248.315L257.015 13.3H268.595L277.295 34.3H268.715ZM260.375 25.12H265.235L262.805 18.7L260.375 25.12Z" fill="#0E0E0E"/>
<path d="M306.8 32.26L301.28 37.78L297.14 33.64C295.28 34.27 292.97 34.6 290.21 34.6C280.97 34.6 277.01 31.09 277.01 23.77C277.01 16.48 280.97 13 290.21 13C299.42 13 303.41 16.51 303.41 23.77C303.41 25.45 303.2 26.92 302.75 28.21L306.8 32.26ZM290.21 28C294.8 28 295.61 25.99 295.61 23.77C295.61 21.58 294.83 19.6 290.21 19.6C285.59 19.6 284.81 21.55 284.81 23.77C284.81 26.02 285.62 28 290.21 28Z" fill="#0E0E0E"/>
<rect x="356.8" y="21.39" width="8" height="8" fill="#0E0E0E"/>
<path d="M437 19.9H422.6V22.15H435.2V28.75H422.6V34.3H414.8V13.3H437V19.9Z" fill="#0E0E0E"/>
<path d="M456.475 34.3L455.035 30.52H446.095L444.655 34.3H436.075L444.775 13.3H456.355L465.055 34.3H456.475ZM448.135 25.12H452.995L450.565 18.7L448.135 25.12Z" fill="#0E0E0E"/>
<path d="M494.559 32.26L489.039 37.78L484.899 33.64C483.039 34.27 480.729 34.6 477.969 34.6C468.729 34.6 464.769 31.09 464.769 23.77C464.769 16.48 468.729 13 477.969 13C487.179 13 491.169 16.51 491.169 23.77C491.169 25.45 490.959 26.92 490.509 28.21L494.559 32.26ZM477.969 28C482.559 28 483.369 25.99 483.369 23.77C483.369 21.58 482.589 19.6 477.969 19.6C473.349 19.6 472.569 21.55 472.569 23.77C472.569 26.02 473.379 28 477.969 28Z" fill="#0E0E0E"/>
<rect x="544.559" y="21.39" width="8" height="8" fill="#0E0E0E"/>
<path d="M624.759 19.9H610.359V22.15H622.959V28.75H610.359V34.3H602.559V13.3H624.759V19.9Z" fill="#0E0E0E"/>
<path d="M644.235 34.3L642.795 30.52H633.855L632.415 34.3H623.835L632.535 13.3H644.115L652.815 34.3H644.235ZM635.895 25.12H640.755L638.325 18.7L635.895 25.12Z" fill="#0E0E0E"/>
<path d="M682.319 32.26L676.799 37.78L672.659 33.64C670.799 34.27 668.489 34.6 665.729 34.6C656.489 34.6 652.529 31.09 652.529 23.77C652.529 16.48 656.489 13 665.729 13C674.939 13 678.929 16.51 678.929 23.77C678.929 25.45 678.719 26.92 678.269 28.21L682.319 32.26ZM665.729 28C670.319 28 671.129 25.99 671.129 23.77C671.129 21.58 670.349 19.6 665.729 19.6C661.109 19.6 660.329 21.55 660.329 23.77C660.329 26.02 661.139 28 665.729 28Z" fill="#0E0E0E"/>
<rect x="732.319" y="21.39" width="8" height="8" fill="#0E0E0E"/>
<path d="M812.519 19.9H798.119V22.15H810.719V28.75H798.119V34.3H790.319V13.3H812.519V19.9Z" fill="#0E0E0E"/>
<path d="M831.995 34.3L830.555 30.52H821.615L820.175 34.3H811.595L820.295 13.3H831.875L840.575 34.3H831.995ZM823.655 25.12H828.515L826.085 18.7L823.655 25.12Z" fill="#0E0E0E"/>
<path d="M870.079 32.26L864.559 37.78L860.419 33.64C858.559 34.27 856.249 34.6 853.489 34.6C844.249 34.6 840.289 31.09 840.289 23.77C840.289 16.48 844.249 13 853.489 13C862.699 13 866.689 16.51 866.689 23.77C866.689 25.45 866.479 26.92 866.029 28.21L870.079 32.26ZM853.489 28C858.079 28 858.889 25.99 858.889 23.77C858.889 21.58 858.109 19.6 853.489 19.6C848.869 19.6 848.089 21.55 848.089 23.77C848.089 26.02 848.899 28 853.489 28Z" fill="#0E0E0E"/>
<rect x="920.079" y="21.39" width="8" height="8" fill="#0E0E0E"/>
<path d="M1000.28 19.9H985.879V22.15H998.479V28.75H985.879V34.3H978.079V13.3H1000.28V19.9Z" fill="#0E0E0E"/>
<path d="M1019.75 34.3L1018.31 30.52H1009.37L1007.93 34.3H999.355L1008.05 13.3H1019.63L1028.33 34.3H1019.75ZM1011.41 25.12H1016.27L1013.84 18.7L1011.41 25.12Z" fill="#0E0E0E"/>
<path d="M1057.84 32.26L1052.32 37.78L1048.18 33.64C1046.32 34.27 1044.01 34.6 1041.25 34.6C1032.01 34.6 1028.05 31.09 1028.05 23.77C1028.05 16.48 1032.01 13 1041.25 13C1050.46 13 1054.45 16.51 1054.45 23.77C1054.45 25.45 1054.24 26.92 1053.79 28.21L1057.84 32.26ZM1041.25 28C1045.84 28 1046.65 25.99 1046.65 23.77C1046.65 21.58 1045.87 19.6 1041.25 19.6C1036.63 19.6 1035.85 21.55 1035.85 23.77C1035.85 26.02 1036.66 28 1041.25 28Z" fill="#0E0E0E"/>
</g>
<defs>
<clipPath id="clip0_147_463">
<rect width="990" height="50" fill="white"/>
</clipPath>
</defs>
</svg>
