<svg width="990" height="50" viewBox="0 0 990 50" fill="none" xmlns="http://www.w3.org/2000/svg">
<g clip-path="url(#clip0_147_509)">
<rect width="1920" height="50" fill="#CFF80A"/>
<path d="M-38.6 35.3L-40.04 31.52H-48.98L-50.42 35.3H-59L-50.3 14.3H-38.72L-30.02 35.3H-38.6ZM-46.94 26.12H-42.08L-44.51 19.7L-46.94 26.12Z" fill="#0E0E0E"/>
<path d="M-4.71312 23.57C-2.88312 24.89 -1.56312 26.81 -1.56312 29.09C-1.56312 32.54 -3.63312 35.3 -8.40313 35.3H-27.6031V14.3H-9.30312C-4.53312 14.3 -3.06312 16.46 -3.06312 19.64C-3.06312 20.99 -3.69312 22.37 -4.71312 23.57ZM-19.8031 19.4V21.68H-12.6031C-11.8231 21.68 -10.8631 21.68 -10.8631 20.54C-10.8631 19.4 -11.8231 19.4 -12.6031 19.4H-19.8031ZM-11.1031 29.6C-10.3231 29.6 -9.36312 29.6 -9.36312 28.49C-9.36312 27.38 -10.3231 27.38 -11.1031 27.38H-19.8031V29.6H-11.1031Z" fill="#0E0E0E"/>
<path d="M13.4641 35.6C4.22406 35.6 0.264061 32.09 0.264061 24.77C0.264061 17.48 4.22406 14 13.4641 14C22.6741 14 26.6641 17.51 26.6641 24.77C26.6641 32.06 22.6741 35.6 13.4641 35.6ZM13.4641 29C18.0541 29 18.8641 26.99 18.8641 24.77C18.8641 22.58 18.0841 20.6 13.4641 20.6C8.84406 20.6 8.06406 22.55 8.06406 24.77C8.06406 27.02 8.87406 29 13.4641 29Z" fill="#0E0E0E"/>
<path d="M55.7758 24.77C55.7758 32.06 51.7858 35.6 42.5758 35.6C33.3358 35.6 29.3758 32.09 29.3758 24.77V14.3H37.1758V24.77C37.1758 27.02 37.9858 29 42.5758 29C47.1658 29 47.9758 26.99 47.9758 24.77V14.3H55.7758V24.77Z" fill="#0E0E0E"/>
<path d="M84.2734 14.3V20.9H75.2734V35.3H67.4734V20.9H58.4734V14.3H84.2734Z" fill="#0E0E0E"/>
<path d="M132.942 14.3V35.3H125.142V25.31L119.412 35.3H114.312L108.582 25.31V35.3H100.782V14.3H110.382L116.862 26.3L123.342 14.3H132.942Z" fill="#0E0E0E"/>
<path d="M158.151 20.3H143.751V22.25H158.151V27.35H143.751V29.3H158.151V35.3H135.951V14.3H158.151V20.3Z" fill="#0E0E0E"/>
<rect x="198.151" y="20.8" width="8" height="8" fill="#0E0E0E"/>
<path d="M266.551 35.3L265.111 31.52H256.171L254.731 35.3H246.151L254.851 14.3H266.431L275.131 35.3H266.551ZM258.211 26.12H263.071L260.641 19.7L258.211 26.12Z" fill="#0E0E0E"/>
<path d="M300.438 23.57C302.268 24.89 303.588 26.81 303.588 29.09C303.588 32.54 301.518 35.3 296.748 35.3H277.548V14.3H295.848C300.618 14.3 302.088 16.46 302.088 19.64C302.088 20.99 301.458 22.37 300.438 23.57ZM285.348 19.4V21.68H292.548C293.328 21.68 294.288 21.68 294.288 20.54C294.288 19.4 293.328 19.4 292.548 19.4H285.348ZM294.048 29.6C294.828 29.6 295.788 29.6 295.788 28.49C295.788 27.38 294.828 27.38 294.048 27.38H285.348V29.6H294.048Z" fill="#0E0E0E"/>
<path d="M318.615 35.6C309.375 35.6 305.415 32.09 305.415 24.77C305.415 17.48 309.375 14 318.615 14C327.825 14 331.815 17.51 331.815 24.77C331.815 32.06 327.825 35.6 318.615 35.6ZM318.615 29C323.205 29 324.015 26.99 324.015 24.77C324.015 22.58 323.235 20.6 318.615 20.6C313.995 20.6 313.215 22.55 313.215 24.77C313.215 27.02 314.025 29 318.615 29Z" fill="#0E0E0E"/>
<path d="M360.927 24.77C360.927 32.06 356.937 35.6 347.727 35.6C338.487 35.6 334.527 32.09 334.527 24.77V14.3H342.327V24.77C342.327 27.02 343.137 29 347.727 29C352.317 29 353.127 26.99 353.127 24.77V14.3H360.927V24.77Z" fill="#0E0E0E"/>
<path d="M389.424 14.3V20.9H380.424V35.3H372.624V20.9H363.624V14.3H389.424Z" fill="#0E0E0E"/>
<path d="M438.092 14.3V35.3H430.292V25.31L424.562 35.3H419.462L413.732 25.31V35.3H405.932V14.3H415.532L422.012 26.3L428.492 14.3H438.092Z" fill="#0E0E0E"/>
<path d="M463.302 20.3H448.902V22.25H463.302V27.35H448.902V29.3H463.302V35.3H441.102V14.3H463.302V20.3Z" fill="#0E0E0E"/>
<rect x="503.302" y="20.8" width="8" height="8" fill="#0E0E0E"/>
<path d="M571.702 35.3L570.262 31.52H561.322L559.882 35.3H551.302L560.002 14.3H571.582L580.282 35.3H571.702ZM563.362 26.12H568.222L565.792 19.7L563.362 26.12Z" fill="#0E0E0E"/>
<path d="M605.588 23.57C607.418 24.89 608.738 26.81 608.738 29.09C608.738 32.54 606.668 35.3 601.898 35.3H582.698V14.3H600.998C605.768 14.3 607.238 16.46 607.238 19.64C607.238 20.99 606.608 22.37 605.588 23.57ZM590.498 19.4V21.68H597.698C598.478 21.68 599.438 21.68 599.438 20.54C599.438 19.4 598.478 19.4 597.698 19.4H590.498ZM599.198 29.6C599.978 29.6 600.938 29.6 600.938 28.49C600.938 27.38 599.978 27.38 599.198 27.38H590.498V29.6H599.198Z" fill="#0E0E0E"/>
<path d="M623.766 35.6C614.526 35.6 610.566 32.09 610.566 24.77C610.566 17.48 614.526 14 623.766 14C632.976 14 636.966 17.51 636.966 24.77C636.966 32.06 632.976 35.6 623.766 35.6ZM623.766 29C628.356 29 629.166 26.99 629.166 24.77C629.166 22.58 628.386 20.6 623.766 20.6C619.146 20.6 618.366 22.55 618.366 24.77C618.366 27.02 619.176 29 623.766 29Z" fill="#0E0E0E"/>
<path d="M666.077 24.77C666.077 32.06 662.087 35.6 652.877 35.6C643.637 35.6 639.677 32.09 639.677 24.77V14.3H647.477V24.77C647.477 27.02 648.287 29 652.877 29C657.467 29 658.277 26.99 658.277 24.77V14.3H666.077V24.77Z" fill="#0E0E0E"/>
<path d="M694.575 14.3V20.9H685.575V35.3H677.775V20.9H668.775V14.3H694.575Z" fill="#0E0E0E"/>
<path d="M743.243 14.3V35.3H735.443V25.31L729.713 35.3H724.613L718.883 25.31V35.3H711.083V14.3H720.683L727.163 26.3L733.643 14.3H743.243Z" fill="#0E0E0E"/>
<path d="M768.452 20.3H754.052V22.25H768.452V27.35H754.052V29.3H768.452V35.3H746.252V14.3H768.452V20.3Z" fill="#0E0E0E"/>
<rect x="808.452" y="20.8" width="8" height="8" fill="#0E0E0E"/>
<path d="M876.852 35.3L875.412 31.52H866.472L865.032 35.3H856.452L865.152 14.3H876.732L885.432 35.3H876.852ZM868.512 26.12H873.372L870.942 19.7L868.512 26.12Z" fill="#0E0E0E"/>
<path d="M910.739 23.57C912.569 24.89 913.889 26.81 913.889 29.09C913.889 32.54 911.819 35.3 907.049 35.3H887.849V14.3H906.149C910.919 14.3 912.389 16.46 912.389 19.64C912.389 20.99 911.759 22.37 910.739 23.57ZM895.649 19.4V21.68H902.849C903.629 21.68 904.589 21.68 904.589 20.54C904.589 19.4 903.629 19.4 902.849 19.4H895.649ZM904.349 29.6C905.129 29.6 906.089 29.6 906.089 28.49C906.089 27.38 905.129 27.38 904.349 27.38H895.649V29.6H904.349Z" fill="#0E0E0E"/>
<path d="M928.916 35.6C919.676 35.6 915.716 32.09 915.716 24.77C915.716 17.48 919.676 14 928.916 14C938.126 14 942.116 17.51 942.116 24.77C942.116 32.06 938.126 35.6 928.916 35.6ZM928.916 29C933.506 29 934.316 26.99 934.316 24.77C934.316 22.58 933.536 20.6 928.916 20.6C924.296 20.6 923.516 22.55 923.516 24.77C923.516 27.02 924.326 29 928.916 29Z" fill="#0E0E0E"/>
<path d="M971.228 24.77C971.228 32.06 967.238 35.6 958.028 35.6C948.788 35.6 944.828 32.09 944.828 24.77V14.3H952.628V24.77C952.628 27.02 953.438 29 958.028 29C962.618 29 963.428 26.99 963.428 24.77V14.3H971.228V24.77Z" fill="#0E0E0E"/>
<path d="M999.726 14.3V20.9H990.726V35.3H982.926V20.9H973.926V14.3H999.726Z" fill="#0E0E0E"/>
<path d="M1048.39 14.3V35.3H1040.59V25.31L1034.86 35.3H1029.76L1024.03 25.31V35.3H1016.23V14.3H1025.83L1032.31 26.3L1038.79 14.3H1048.39Z" fill="#0E0E0E"/>
<path d="M1073.6 20.3H1059.2V22.25H1073.6V27.35H1059.2V29.3H1073.6V35.3H1051.4V14.3H1073.6V20.3Z" fill="#0E0E0E"/>
</g>
<defs>
<clipPath id="clip0_147_509">
<rect width="990" height="50" fill="white"/>
</clipPath>
</defs>
</svg>
