<svg width="990" height="50" viewBox="0 0 990 50" fill="none" xmlns="http://www.w3.org/2000/svg">
<g clip-path="url(#clip0_147_443)">
<rect width="1920" height="50" fill="#FF4F2A"/>
<path d="M-46.31 28.07V23.87H-32.69V35.3H-37.19L-37.76 32.27C-39.53 34.34 -42.29 35.6 -46.7 35.6C-54.44 35.6 -59 32.09 -59 24.77C-59 17.48 -54.44 14 -45.8 14C-37.4 14 -33.02 16.94 -32.69 22.67H-40.67C-40.97 21.59 -42.5 20.6 -45.8 20.6C-50.42 20.6 -51.2 22.55 -51.2 25.07C-51.2 27.62 -50.39 29.9 -45.8 29.9C-42.8 29.9 -40.97 29.48 -40.67 28.07H-46.31Z" fill="#0E0E0E"/>
<path d="M-7.77617 20.3H-22.1762V22.25H-7.77617V27.35H-22.1762V29.3H-7.77617V35.3H-29.9762V14.3H-7.77617V20.3Z" fill="#0E0E0E"/>
<path d="M20.4098 14.3V20.9H11.4098V35.3H3.60976V20.9H-5.39024V14.3H20.4098Z" fill="#0E0E0E"/>
<path d="M44.718 14.3V35.3H36.918V14.3H44.718Z" fill="#0E0E0E"/>
<path d="M66.9721 14.3H74.7721V35.3H64.5721L55.5121 22.91V35.3H47.7121V14.3H57.9121L66.9721 26.69V14.3Z" fill="#0E0E0E"/>
<path d="M117.095 14.3V20.9H108.095V35.3H100.295V20.9H91.2953V14.3H117.095Z" fill="#0E0E0E"/>
<path d="M132.399 35.6C123.159 35.6 119.199 32.09 119.199 24.77C119.199 17.48 123.159 14 132.399 14C141.609 14 145.599 17.51 145.599 24.77C145.599 32.06 141.609 35.6 132.399 35.6ZM132.399 29C136.989 29 137.799 26.99 137.799 24.77C137.799 22.58 137.019 20.6 132.399 20.6C127.779 20.6 126.999 22.55 126.999 24.77C126.999 27.02 127.809 29 132.399 29Z" fill="#0E0E0E"/>
<path d="M174.711 24.77C174.711 32.06 170.721 35.6 161.511 35.6C152.271 35.6 148.311 32.09 148.311 24.77V14.3H156.111V24.77C156.111 27.02 156.921 29 161.511 29C166.101 29 166.911 26.99 166.911 24.77V14.3H174.711V24.77Z" fill="#0E0E0E"/>
<path d="M177.408 24.77C177.408 17.48 181.368 14 190.608 14C199.008 14 203.388 16.94 203.718 23.57H195.738C195.438 21.59 193.908 20.6 190.608 20.6C185.988 20.6 185.208 22.55 185.208 24.77C185.208 27.02 186.018 29 190.608 29C193.908 29 195.438 27.98 195.738 25.97H203.718C203.388 32.63 199.038 35.6 190.608 35.6C181.368 35.6 177.408 32.09 177.408 24.77Z" fill="#0E0E0E"/>
<path d="M226.532 14.3H234.332V35.3H226.532V28.1H214.232V35.3H206.432V14.3H214.232V21.5H226.532V14.3Z" fill="#0E0E0E"/>
<rect x="274.332" y="20.8" width="8" height="8" fill="#0E0E0E"/>
<path d="M335.022 28.07V23.87H348.642V35.3H344.142L343.572 32.27C341.802 34.34 339.042 35.6 334.632 35.6C326.892 35.6 322.332 32.09 322.332 24.77C322.332 17.48 326.892 14 335.532 14C343.932 14 348.312 16.94 348.642 22.67H340.662C340.362 21.59 338.832 20.6 335.532 20.6C330.912 20.6 330.132 22.55 330.132 25.07C330.132 27.62 330.942 29.9 335.532 29.9C338.532 29.9 340.362 29.48 340.662 28.07H335.022Z" fill="#0E0E0E"/>
<path d="M373.556 20.3H359.156V22.25H373.556V27.35H359.156V29.3H373.556V35.3H351.356V14.3H373.556V20.3Z" fill="#0E0E0E"/>
<path d="M401.742 14.3V20.9H392.742V35.3H384.942V20.9H375.942V14.3H401.742Z" fill="#0E0E0E"/>
<path d="M426.05 14.3V35.3H418.25V14.3H426.05Z" fill="#0E0E0E"/>
<path d="M448.304 14.3H456.104V35.3H445.904L436.844 22.91V35.3H429.044V14.3H439.244L448.304 26.69V14.3Z" fill="#0E0E0E"/>
<path d="M498.427 14.3V20.9H489.427V35.3H481.627V20.9H472.627V14.3H498.427Z" fill="#0E0E0E"/>
<path d="M513.731 35.6C504.491 35.6 500.531 32.09 500.531 24.77C500.531 17.48 504.491 14 513.731 14C522.941 14 526.931 17.51 526.931 24.77C526.931 32.06 522.941 35.6 513.731 35.6ZM513.731 29C518.321 29 519.131 26.99 519.131 24.77C519.131 22.58 518.351 20.6 513.731 20.6C509.111 20.6 508.331 22.55 508.331 24.77C508.331 27.02 509.141 29 513.731 29Z" fill="#0E0E0E"/>
<path d="M556.043 24.77C556.043 32.06 552.053 35.6 542.843 35.6C533.603 35.6 529.643 32.09 529.643 24.77V14.3H537.443V24.77C537.443 27.02 538.253 29 542.843 29C547.433 29 548.243 26.99 548.243 24.77V14.3H556.043V24.77Z" fill="#0E0E0E"/>
<path d="M558.74 24.77C558.74 17.48 562.7 14 571.94 14C580.34 14 584.72 16.94 585.05 23.57H577.07C576.77 21.59 575.24 20.6 571.94 20.6C567.32 20.6 566.54 22.55 566.54 24.77C566.54 27.02 567.35 29 571.94 29C575.24 29 576.77 27.98 577.07 25.97H585.05C584.72 32.63 580.37 35.6 571.94 35.6C562.7 35.6 558.74 32.09 558.74 24.77Z" fill="#0E0E0E"/>
<path d="M607.864 14.3H615.664V35.3H607.864V28.1H595.564V35.3H587.764V14.3H595.564V21.5H607.864V14.3Z" fill="#0E0E0E"/>
<rect x="655.664" y="20.8" width="8" height="8" fill="#0E0E0E"/>
<path d="M716.354 28.07V23.87H729.974V35.3H725.474L724.904 32.27C723.134 34.34 720.374 35.6 715.964 35.6C708.224 35.6 703.664 32.09 703.664 24.77C703.664 17.48 708.224 14 716.864 14C725.264 14 729.644 16.94 729.974 22.67H721.994C721.694 21.59 720.164 20.6 716.864 20.6C712.244 20.6 711.464 22.55 711.464 25.07C711.464 27.62 712.274 29.9 716.864 29.9C719.864 29.9 721.694 29.48 721.994 28.07H716.354Z" fill="#0E0E0E"/>
<path d="M754.888 20.3H740.488V22.25H754.888V27.35H740.488V29.3H754.888V35.3H732.688V14.3H754.888V20.3Z" fill="#0E0E0E"/>
<path d="M783.074 14.3V20.9H774.074V35.3H766.274V20.9H757.274V14.3H783.074Z" fill="#0E0E0E"/>
<path d="M807.382 14.3V35.3H799.582V14.3H807.382Z" fill="#0E0E0E"/>
<path d="M829.636 14.3H837.436V35.3H827.236L818.176 22.91V35.3H810.376V14.3H820.576L829.636 26.69V14.3Z" fill="#0E0E0E"/>
<path d="M879.759 14.3V20.9H870.759V35.3H862.959V20.9H853.959V14.3H879.759Z" fill="#0E0E0E"/>
<path d="M895.063 35.6C885.823 35.6 881.863 32.09 881.863 24.77C881.863 17.48 885.823 14 895.063 14C904.273 14 908.263 17.51 908.263 24.77C908.263 32.06 904.273 35.6 895.063 35.6ZM895.063 29C899.653 29 900.463 26.99 900.463 24.77C900.463 22.58 899.683 20.6 895.063 20.6C890.443 20.6 889.663 22.55 889.663 24.77C889.663 27.02 890.473 29 895.063 29Z" fill="#0E0E0E"/>
<path d="M937.375 24.77C937.375 32.06 933.385 35.6 924.175 35.6C914.935 35.6 910.975 32.09 910.975 24.77V14.3H918.775V24.77C918.775 27.02 919.585 29 924.175 29C928.765 29 929.575 26.99 929.575 24.77V14.3H937.375V24.77Z" fill="#0E0E0E"/>
<path d="M940.072 24.77C940.072 17.48 944.032 14 953.272 14C961.672 14 966.052 16.94 966.382 23.57H958.402C958.102 21.59 956.572 20.6 953.272 20.6C948.652 20.6 947.872 22.55 947.872 24.77C947.872 27.02 948.682 29 953.272 29C956.572 29 958.102 27.98 958.402 25.97H966.382C966.052 32.63 961.702 35.6 953.272 35.6C944.032 35.6 940.072 32.09 940.072 24.77Z" fill="#0E0E0E"/>
<path d="M989.196 14.3H996.996V35.3H989.196V28.1H976.896V35.3H969.096V14.3H976.896V21.5H989.196V14.3Z" fill="#0E0E0E"/>
</g>
<defs>
<clipPath id="clip0_147_443">
<rect width="990" height="50" fill="white"/>
</clipPath>
</defs>
</svg>
