<svg width="320" height="40" viewBox="0 0 320 40" fill="none" xmlns="http://www.w3.org/2000/svg">
<g clip-path="url(#clip0_147_374)">
<rect width="320" height="40" fill="#FF4F2A"/>
<path d="M-49.4392 22.9222V19.8111H-39.1777V28.2778H-42.5681L-42.9975 26.0333C-44.3311 27.5667 -46.4105 28.5 -49.733 28.5C-55.5644 28.5 -59 25.9 -59 20.4778C-59 15.0778 -55.5644 12.5 -49.055 12.5C-42.7263 12.5 -39.4263 14.6778 -39.1777 18.9222H-45.1899C-45.416 18.1222 -46.5687 17.3889 -49.055 17.3889C-52.5357 17.3889 -53.1234 18.8333 -53.1234 20.7C-53.1234 22.5889 -52.5131 24.2778 -49.055 24.2778C-46.7947 24.2778 -45.416 23.9667 -45.1899 22.9222H-49.4392Z" fill="#0E0E0E"/>
<path d="M-20.4073 17.1667H-31.2565V18.6111H-20.4073V22.3889H-31.2565V23.8333H-20.4073V28.2778H-37.1331V12.7222H-20.4073V17.1667Z" fill="#0E0E0E"/>
<path d="M0.8283 12.7222V17.6111H-5.95241V28.2778H-11.829V17.6111H-18.6097V12.7222H0.8283Z" fill="#0E0E0E"/>
<path d="M19.1424 12.7222V28.2778H13.2658V12.7222H19.1424Z" fill="#0E0E0E"/>
<path d="M35.909 12.7222H41.7856V28.2778H34.1008L27.2748 19.1V28.2778H21.3982V12.7222H29.083L35.909 21.9V12.7222Z" fill="#0E0E0E"/>
<path d="M73.6724 12.7222V17.6111H66.8917V28.2778H61.0151V17.6111H54.2344V12.7222H73.6724Z" fill="#0E0E0E"/>
<path d="M85.2022 28.5C78.2407 28.5 75.2572 25.9 75.2572 20.4778C75.2572 15.0778 78.2407 12.5 85.2022 12.5C92.1412 12.5 95.1473 15.1 95.1473 20.4778C95.1473 25.8778 92.1412 28.5 85.2022 28.5ZM85.2022 23.6111C88.6604 23.6111 89.2707 22.1222 89.2707 20.4778C89.2707 18.8556 88.683 17.3889 85.2022 17.3889C81.7215 17.3889 81.1338 18.8333 81.1338 20.4778C81.1338 22.1444 81.7441 23.6111 85.2022 23.6111Z" fill="#0E0E0E"/>
<path d="M117.08 20.4778C117.08 25.8778 114.074 28.5 107.135 28.5C100.174 28.5 97.1903 25.9 97.1903 20.4778V12.7222H103.067V20.4778C103.067 22.1444 103.677 23.6111 107.135 23.6111C110.594 23.6111 111.204 22.1222 111.204 20.4778V12.7222H117.08V20.4778Z" fill="#0E0E0E"/>
<path d="M119.113 20.4778C119.113 15.0778 122.096 12.5 129.058 12.5C135.387 12.5 138.687 14.6778 138.935 19.5889H132.923C132.697 18.1222 131.544 17.3889 129.058 17.3889C125.577 17.3889 124.989 18.8333 124.989 20.4778C124.989 22.1444 125.6 23.6111 129.058 23.6111C131.544 23.6111 132.697 22.8556 132.923 21.3667H138.935C138.687 26.3 135.409 28.5 129.058 28.5C122.096 28.5 119.113 25.9 119.113 20.4778Z" fill="#0E0E0E"/>
<path d="M156.123 12.7222H162V28.2778H156.123V22.9444H146.856V28.2778H140.98V12.7222H146.856V18.0556H156.123V12.7222Z" fill="#0E0E0E"/>
<rect x="173" y="18" width="6" height="5" fill="#0E0E0E"/>
<path d="M199.518 22.9222V19.8111H209.733V28.2778H206.358L205.93 26.0333C204.603 27.5667 202.533 28.5 199.225 28.5C193.42 28.5 190 25.9 190 20.4778C190 15.0778 193.42 12.5 199.9 12.5C206.2 12.5 209.485 14.6778 209.733 18.9222H203.748C203.523 18.1222 202.375 17.3889 199.9 17.3889C196.435 17.3889 195.85 18.8333 195.85 20.7C195.85 22.5889 196.458 24.2778 199.9 24.2778C202.15 24.2778 203.523 23.9667 203.748 22.9222H199.518Z" fill="#0E0E0E"/>
<path d="M228.418 17.1667H217.618V18.6111H228.418V22.3889H217.618V23.8333H228.418V28.2778H211.768V12.7222H228.418V17.1667Z" fill="#0E0E0E"/>
<path d="M249.558 12.7222V17.6111H242.808V28.2778H236.958V17.6111H230.208V12.7222H249.558Z" fill="#0E0E0E"/>
<path d="M267.789 12.7222V28.2778H261.939V12.7222H267.789Z" fill="#0E0E0E"/>
<path d="M284.48 12.7222H290.33V28.2778H282.679L275.884 19.1V28.2778H270.034V12.7222H277.684L284.48 21.9V12.7222Z" fill="#0E0E0E"/>
<path d="M322.072 12.7222V17.6111H315.322V28.2778H309.472V17.6111H302.722V12.7222H322.072Z" fill="#0E0E0E"/>
<path d="M333.55 28.5C326.62 28.5 323.65 25.9 323.65 20.4778C323.65 15.0778 326.62 12.5 333.55 12.5C340.457 12.5 343.45 15.1 343.45 20.4778C343.45 25.8778 340.457 28.5 333.55 28.5ZM333.55 23.6111C336.992 23.6111 337.6 22.1222 337.6 20.4778C337.6 18.8556 337.015 17.3889 333.55 17.3889C330.085 17.3889 329.5 18.8333 329.5 20.4778C329.5 22.1444 330.107 23.6111 333.55 23.6111Z" fill="#0E0E0E"/>
<path d="M365.284 20.4778C365.284 25.8778 362.291 28.5 355.384 28.5C348.454 28.5 345.484 25.9 345.484 20.4778V12.7222H351.334V20.4778C351.334 22.1444 351.941 23.6111 355.384 23.6111C358.826 23.6111 359.434 22.1222 359.434 20.4778V12.7222H365.284V20.4778Z" fill="#0E0E0E"/>
<path d="M367.307 20.4778C367.307 15.0778 370.277 12.5 377.207 12.5C383.507 12.5 386.792 14.6778 387.04 19.5889H381.055C380.83 18.1222 379.682 17.3889 377.207 17.3889C373.742 17.3889 373.157 18.8333 373.157 20.4778C373.157 22.1444 373.764 23.6111 377.207 23.6111C379.682 23.6111 380.83 22.8556 381.055 21.3667H387.04C386.792 26.3 383.53 28.5 377.207 28.5C370.277 28.5 367.307 25.9 367.307 20.4778Z" fill="#0E0E0E"/>
<path d="M404.15 12.7222H410V28.2778H404.15V22.9444H394.925V28.2778H389.075V12.7222H394.925V18.0556H404.15V12.7222Z" fill="#0E0E0E"/>
</g>
<defs>
<clipPath id="clip0_147_374">
<rect width="320" height="40" fill="white"/>
</clipPath>
</defs>
</svg>
