<svg width="320" height="40" viewBox="0 0 320 40" fill="none" xmlns="http://www.w3.org/2000/svg">
<g clip-path="url(#clip0_147_424)">
<rect width="320" height="40" fill="#CFF80A"/>
<path d="M-42.6871 27.7778L-43.768 24.9778H-50.4787L-51.5596 27.7778H-58L-51.4695 12.2222H-42.7772L-36.2467 27.7778H-42.6871ZM-48.9474 20.9778H-45.2993L-47.1234 16.2222L-48.9474 20.9778Z" fill="#0E0E0E"/>
<path d="M-17.2506 19.0889C-15.877 20.0667 -14.8861 21.4889 -14.8861 23.1778C-14.8861 25.7333 -16.4399 27.7778 -20.0204 27.7778H-34.4325V12.2222H-20.696C-17.1155 12.2222 -16.0121 13.8222 -16.0121 16.1778C-16.0121 17.1778 -16.485 18.2 -17.2506 19.0889ZM-28.5776 16V17.6889H-23.1731C-22.5876 17.6889 -21.867 17.6889 -21.867 16.8444C-21.867 16 -22.5876 16 -23.1731 16H-28.5776ZM-22.0471 23.5556C-21.4617 23.5556 -20.741 23.5556 -20.741 22.7333C-20.741 21.9111 -21.4617 21.9111 -22.0471 21.9111H-28.5776V23.5556H-22.0471Z" fill="#0E0E0E"/>
<path d="M-3.60627 28C-10.5421 28 -13.5146 25.4 -13.5146 19.9778C-13.5146 14.5778 -10.5421 12 -3.60627 12C3.30704 12 6.30206 14.6 6.30206 19.9778C6.30206 25.3778 3.30704 28 -3.60627 28ZM-3.60627 23.1111C-0.160874 23.1111 0.447138 21.6222 0.447138 19.9778C0.447138 18.3556 -0.138355 16.8889 -3.60627 16.8889C-7.07418 16.8889 -7.65967 18.3333 -7.65967 19.9778C-7.65967 21.6444 -7.05166 23.1111 -3.60627 23.1111Z" fill="#0E0E0E"/>
<path d="M28.1542 19.9778C28.1542 25.3778 25.1592 28 18.2459 28C11.3101 28 8.33755 25.4 8.33755 19.9778V12.2222H14.1925V19.9778C14.1925 21.6444 14.8005 23.1111 18.2459 23.1111C21.6913 23.1111 22.2993 21.6222 22.2993 19.9778V12.2222H28.1542V19.9778Z" fill="#0E0E0E"/>
<path d="M49.5454 12.2222V17.1111H42.7897V27.7778H36.9348V17.1111H30.1791V12.2222H49.5454Z" fill="#0E0E0E"/>
<path d="M86.0772 12.2222V27.7778H80.2223V20.3778L75.9212 27.7778H72.093L67.7919 20.3778V27.7778H61.937V12.2222H69.143L74.0071 21.1111L78.8712 12.2222H86.0772Z" fill="#0E0E0E"/>
<path d="M105 16.6667H94.1909V18.1111H105V21.8889H94.1909V23.3333H105V27.7778H88.336V12.2222H105V16.6667Z" fill="#0E0E0E"/>
<rect x="116" y="17" width="6" height="6" fill="#0E0E0E"/>
<path d="M148.313 27.7778L147.232 24.9778H140.521L139.44 27.7778H133L139.53 12.2222H148.223L154.753 27.7778H148.313ZM142.053 20.9778H145.701L143.877 16.2222L142.053 20.9778Z" fill="#0E0E0E"/>
<path d="M173.749 19.0889C175.123 20.0667 176.114 21.4889 176.114 23.1778C176.114 25.7333 174.56 27.7778 170.98 27.7778H156.567V12.2222H170.304C173.884 12.2222 174.988 13.8222 174.988 16.1778C174.988 17.1778 174.515 18.2 173.749 19.0889ZM162.422 16V17.6889H167.827C168.412 17.6889 169.133 17.6889 169.133 16.8444C169.133 16 168.412 16 167.827 16H162.422ZM168.953 23.5556C169.538 23.5556 170.259 23.5556 170.259 22.7333C170.259 21.9111 169.538 21.9111 168.953 21.9111H162.422V23.5556H168.953Z" fill="#0E0E0E"/>
<path d="M187.394 28C180.458 28 177.485 25.4 177.485 19.9778C177.485 14.5778 180.458 12 187.394 12C194.307 12 197.302 14.6 197.302 19.9778C197.302 25.3778 194.307 28 187.394 28ZM187.394 23.1111C190.839 23.1111 191.447 21.6222 191.447 19.9778C191.447 18.3556 190.862 16.8889 187.394 16.8889C183.926 16.8889 183.34 18.3333 183.34 19.9778C183.34 21.6444 183.948 23.1111 187.394 23.1111Z" fill="#0E0E0E"/>
<path d="M219.154 19.9778C219.154 25.3778 216.159 28 209.246 28C202.31 28 199.338 25.4 199.338 19.9778V12.2222H205.192V19.9778C205.192 21.6444 205.8 23.1111 209.246 23.1111C212.691 23.1111 213.299 21.6222 213.299 19.9778V12.2222H219.154V19.9778Z" fill="#0E0E0E"/>
<path d="M240.545 12.2222V17.1111H233.79V27.7778H227.935V17.1111H221.179V12.2222H240.545Z" fill="#0E0E0E"/>
<path d="M277.077 12.2222V27.7778H271.222V20.3778L266.921 27.7778H263.093L258.792 20.3778V27.7778H252.937V12.2222H260.143L265.007 21.1111L269.871 12.2222H277.077Z" fill="#0E0E0E"/>
<path d="M296 16.6667H285.191V18.1111H296V21.8889H285.191V23.3333H296V27.7778H279.336V12.2222H296V16.6667Z" fill="#0E0E0E"/>
<rect x="307" y="17" width="5" height="6" fill="#0E0E0E"/>
</g>
<defs>
<clipPath id="clip0_147_424">
<rect width="320" height="40" fill="white"/>
</clipPath>
</defs>
</svg>
