<svg width="320" height="40" viewBox="0 0 320 40" fill="none" xmlns="http://www.w3.org/2000/svg">
<g clip-path="url(#clip0_147_394)">
<rect width="320" height="40" fill="#CFF80A"/>
<rect x="8" y="17.5" width="7" height="5" fill="#0E0E0E"/>
<path d="M41.5868 16.0121H31.4764V17.6465H40.323V22.4407H31.4764V26.4722H26V11.2179H41.5868V16.0121Z" fill="#0E0E0E"/>
<path d="M55.2606 26.4722L54.2496 23.7264H47.9727L46.9617 26.4722H40.9376L47.0459 11.2179H55.1763L61.2847 26.4722H55.2606ZM49.405 19.8039H52.8173L51.1111 15.1404L49.405 19.8039Z" fill="#0E0E0E"/>
<path d="M82 24.9903L78.1244 29L75.2176 25.9927C73.9117 26.4504 72.2899 26.6901 70.352 26.6901C63.8646 26.6901 61.0842 24.1404 61.0842 18.8232C61.0842 13.5278 63.8646 11 70.352 11C76.8185 11 79.6199 13.5496 79.6199 18.8232C79.6199 20.0436 79.4724 21.1114 79.1565 22.0484L82 24.9903ZM70.352 21.8959C73.5747 21.8959 74.1434 20.4358 74.1434 18.8232C74.1434 17.2324 73.5958 15.7942 70.352 15.7942C67.1083 15.7942 66.5607 17.2107 66.5607 18.8232C66.5607 20.4576 67.1294 21.8959 70.352 21.8959Z" fill="#0E0E0E"/>
<rect x="93" y="17.5" width="8" height="5" fill="#0E0E0E"/>
<path d="M127.587 16.0121H117.476V17.6465H126.323V22.4407H117.476V26.4722H112V11.2179H127.587V16.0121Z" fill="#0E0E0E"/>
<path d="M141.261 26.4722L140.25 23.7264H133.973L132.962 26.4722H126.938L133.046 11.2179H141.176L147.285 26.4722H141.261ZM135.405 19.8039H138.817L137.111 15.1404L135.405 19.8039Z" fill="#0E0E0E"/>
<path d="M168 24.9903L164.124 29L161.218 25.9927C159.912 26.4504 158.29 26.6901 156.352 26.6901C149.865 26.6901 147.084 24.1404 147.084 18.8232C147.084 13.5278 149.865 11 156.352 11C162.818 11 165.62 13.5496 165.62 18.8232C165.62 20.0436 165.472 21.1114 165.156 22.0484L168 24.9903ZM156.352 21.8959C159.575 21.8959 160.143 20.4358 160.143 18.8232C160.143 17.2324 159.596 15.7942 156.352 15.7942C153.108 15.7942 152.561 17.2107 152.561 18.8232C152.561 20.4576 153.129 21.8959 156.352 21.8959Z" fill="#0E0E0E"/>
<rect x="179" y="17.5" width="5" height="5" fill="#0E0E0E"/>
<path d="M210.865 16.0121H200.574V17.6465H209.579V22.4407H200.574V26.4722H195V11.2179H210.865V16.0121Z" fill="#0E0E0E"/>
<path d="M224.783 26.4722L223.754 23.7264H217.365L216.336 26.4722H210.204L216.422 11.2179H224.697L230.915 26.4722H224.783ZM218.823 19.8039H222.296L220.56 15.1404L218.823 19.8039Z" fill="#0E0E0E"/>
<path d="M252 24.9903L248.055 29L245.097 25.9927C243.767 26.4504 242.116 26.6901 240.144 26.6901C233.541 26.6901 230.711 24.1404 230.711 18.8232C230.711 13.5278 233.541 11 240.144 11C246.726 11 249.577 13.5496 249.577 18.8232C249.577 20.0436 249.427 21.1114 249.106 22.0484L252 24.9903ZM240.144 21.8959C243.424 21.8959 244.003 20.4358 244.003 18.8232C244.003 17.2324 243.446 15.7942 240.144 15.7942C236.842 15.7942 236.285 17.2107 236.285 18.8232C236.285 20.4576 236.864 21.8959 240.144 21.8959Z" fill="#0E0E0E"/>
<rect x="263" y="17.5" width="5" height="5" fill="#0E0E0E"/>
<path d="M294.587 16.0121H284.476V17.6465H293.323V22.4407H284.476V26.4722H279V11.2179H294.587V16.0121Z" fill="#0E0E0E"/>
<path d="M308.261 26.4722L307.25 23.7264H300.973L299.962 26.4722H293.938L300.046 11.2179H308.176L314.285 26.4722H308.261ZM302.405 19.8039H305.817L304.111 15.1404L302.405 19.8039Z" fill="#0E0E0E"/>
<path d="M335 24.9903L331.124 29L328.218 25.9927C326.912 26.4504 325.29 26.6901 323.352 26.6901C316.865 26.6901 314.084 24.1404 314.084 18.8232C314.084 13.5278 316.865 11 323.352 11C329.818 11 332.62 13.5496 332.62 18.8232C332.62 20.0436 332.472 21.1114 332.156 22.0484L335 24.9903ZM323.352 21.8959C326.575 21.8959 327.143 20.4358 327.143 18.8232C327.143 17.2324 326.596 15.7942 323.352 15.7942C320.108 15.7942 319.561 17.2107 319.561 18.8232C319.561 20.4576 320.129 21.8959 323.352 21.8959Z" fill="#0E0E0E"/>
</g>
<defs>
<clipPath id="clip0_147_394">
<rect width="320" height="40" fill="white"/>
</clipPath>
</defs>
</svg>
