<svg width="1920" height="50" viewBox="0 0 1920 50" fill="none" xmlns="http://www.w3.org/2000/svg">
<g clip-path="url(#clip0_132_204)">
<rect width="1920" height="50" fill="#FF4F2A"/>
<path d="M-59 29.59H-51.2C-51.2 30.61 -50.24 31.3 -45.29 31.3C-40.67 31.3 -39.98 31 -39.98 30.22C-39.98 29.32 -40.67 29.2 -45.59 29.05C-55.07 28.75 -58.7 27.19 -58.7 22.3C-58.7 17.68 -54.17 15.7 -45.89 15.7C-37.7 15.7 -33.08 17.68 -33.08 23.05H-40.88C-40.88 21.94 -42.68 21.7 -46.49 21.7C-50.15 21.7 -50.9 21.88 -50.9 22.69C-50.9 23.5 -50.15 23.47 -45.59 23.65C-37.31 23.98 -32.18 24.55 -32.18 30.04C-32.18 35.83 -36.98 37.3 -45.59 37.3C-54.2 37.3 -59 35.83 -59 29.59Z" fill="#0E0E0E"/>
<path d="M-4.56406 16V22.6H-13.5641V37H-21.3641V22.6H-30.3641V16H-4.56406Z" fill="#0E0E0E"/>
<path d="M24.5324 26.47C24.5324 33.76 20.5424 37.3 11.3324 37.3C2.09242 37.3 -1.86758 33.79 -1.86758 26.47V16H5.93242V26.47C5.93242 28.72 6.74242 30.7 11.3324 30.7C15.9224 30.7 16.7324 28.69 16.7324 26.47V16H24.5324V26.47Z" fill="#0E0E0E"/>
<path d="M43.1301 16C48.2001 16 52.9701 19.36 52.9701 26.5C52.9701 33.64 48.2001 37 43.1301 37H27.5301V16H43.1301ZM40.7301 30.4C42.4101 30.4 45.1701 30.4 45.1701 26.5C45.1701 22.6 42.4101 22.6 40.7301 22.6H35.3301V30.4H40.7301Z" fill="#0E0E0E"/>
<path d="M63.0597 30.1L52.3797 16H61.3797L66.9597 23.8L72.5397 16H81.5397L70.8597 30.1V37H63.0597V30.1Z" fill="#0E0E0E"/>
<path d="M97.757 26.47C97.757 19.18 101.717 15.7 110.957 15.7C119.357 15.7 123.737 18.64 124.067 25.27H116.087C115.787 23.29 114.257 22.3 110.957 22.3C106.337 22.3 105.557 24.25 105.557 26.47C105.557 28.72 106.367 30.7 110.957 30.7C114.257 30.7 115.787 29.68 116.087 27.67H124.067C123.737 34.33 119.387 37.3 110.957 37.3C101.717 37.3 97.757 33.79 97.757 26.47Z" fill="#0E0E0E"/>
<path d="M144.186 37L142.746 33.22H133.806L132.366 37H123.786L132.486 16H144.066L152.766 37H144.186ZM135.846 27.82H140.706L138.276 21.4L135.846 27.82Z" fill="#0E0E0E"/>
<path d="M153.066 29.59H160.866C160.866 30.61 161.826 31.3 166.776 31.3C171.396 31.3 172.086 31 172.086 30.22C172.086 29.32 171.396 29.2 166.476 29.05C156.996 28.75 153.366 27.19 153.366 22.3C153.366 17.68 157.896 15.7 166.176 15.7C174.366 15.7 178.986 17.68 178.986 23.05H171.186C171.186 21.94 169.386 21.7 165.576 21.7C161.916 21.7 161.166 21.88 161.166 22.69C161.166 23.5 161.916 23.47 166.476 23.65C174.756 23.98 179.886 24.55 179.886 30.04C179.886 35.83 175.086 37.3 166.476 37.3C157.866 37.3 153.066 35.83 153.066 29.59Z" fill="#0E0E0E"/>
<path d="M204.788 22H190.388V23.95H204.788V29.05H190.388V31H204.788V37H182.588V16H204.788V22Z" fill="#0E0E0E"/>
<path d="M207.174 29.59H214.974C214.974 30.61 215.934 31.3 220.884 31.3C225.504 31.3 226.194 31 226.194 30.22C226.194 29.32 225.504 29.2 220.584 29.05C211.104 28.75 207.474 27.19 207.474 22.3C207.474 17.68 212.004 15.7 220.284 15.7C228.474 15.7 233.094 17.68 233.094 23.05H225.294C225.294 21.94 223.494 21.7 219.684 21.7C216.024 21.7 215.274 21.88 215.274 22.69C215.274 23.5 216.024 23.47 220.584 23.65C228.864 23.98 233.994 24.55 233.994 30.04C233.994 35.83 229.194 37.3 220.584 37.3C211.974 37.3 207.174 35.83 207.174 29.59Z" fill="#0E0E0E"/>
<rect x="252.994" y="22.5" width="8" height="8" fill="#0E0E0E"/>
<path d="M279.994 29.59H287.794C287.794 30.61 288.754 31.3 293.704 31.3C298.324 31.3 299.014 31 299.014 30.22C299.014 29.32 298.324 29.2 293.404 29.05C283.924 28.75 280.294 27.19 280.294 22.3C280.294 17.68 284.824 15.7 293.104 15.7C301.294 15.7 305.914 17.68 305.914 23.05H298.114C298.114 21.94 296.314 21.7 292.504 21.7C288.844 21.7 288.094 21.88 288.094 22.69C288.094 23.5 288.844 23.47 293.404 23.65C301.684 23.98 306.814 24.55 306.814 30.04C306.814 35.83 302.014 37.3 293.404 37.3C284.794 37.3 279.994 35.83 279.994 29.59Z" fill="#0E0E0E"/>
<path d="M334.43 16V22.6H325.43V37H317.63V22.6H308.63V16H334.43Z" fill="#0E0E0E"/>
<path d="M363.526 26.47C363.526 33.76 359.536 37.3 350.326 37.3C341.086 37.3 337.126 33.79 337.126 26.47V16H344.926V26.47C344.926 28.72 345.736 30.7 350.326 30.7C354.916 30.7 355.726 28.69 355.726 26.47V16H363.526V26.47Z" fill="#0E0E0E"/>
<path d="M382.124 16C387.194 16 391.964 19.36 391.964 26.5C391.964 33.64 387.194 37 382.124 37H366.524V16H382.124ZM379.724 30.4C381.404 30.4 384.164 30.4 384.164 26.5C384.164 22.6 381.404 22.6 379.724 22.6H374.324V30.4H379.724Z" fill="#0E0E0E"/>
<path d="M402.054 30.1L391.374 16H400.374L405.954 23.8L411.534 16H420.534L409.854 30.1V37H402.054V30.1Z" fill="#0E0E0E"/>
<path d="M436.751 26.47C436.751 19.18 440.711 15.7 449.951 15.7C458.351 15.7 462.731 18.64 463.061 25.27H455.081C454.781 23.29 453.251 22.3 449.951 22.3C445.331 22.3 444.551 24.25 444.551 26.47C444.551 28.72 445.361 30.7 449.951 30.7C453.251 30.7 454.781 29.68 455.081 27.67H463.061C462.731 34.33 458.381 37.3 449.951 37.3C440.711 37.3 436.751 33.79 436.751 26.47Z" fill="#0E0E0E"/>
<path d="M483.179 37L481.739 33.22H472.799L471.359 37H462.779L471.479 16H483.059L491.759 37H483.179ZM474.839 27.82H479.699L477.269 21.4L474.839 27.82Z" fill="#0E0E0E"/>
<path d="M492.06 29.59H499.86C499.86 30.61 500.82 31.3 505.77 31.3C510.39 31.3 511.08 31 511.08 30.22C511.08 29.32 510.39 29.2 505.47 29.05C495.99 28.75 492.36 27.19 492.36 22.3C492.36 17.68 496.89 15.7 505.17 15.7C513.36 15.7 517.98 17.68 517.98 23.05H510.18C510.18 21.94 508.38 21.7 504.57 21.7C500.91 21.7 500.16 21.88 500.16 22.69C500.16 23.5 500.91 23.47 505.47 23.65C513.75 23.98 518.88 24.55 518.88 30.04C518.88 35.83 514.08 37.3 505.47 37.3C496.86 37.3 492.06 35.83 492.06 29.59Z" fill="#0E0E0E"/>
<path d="M543.782 22H529.382V23.95H543.782V29.05H529.382V31H543.782V37H521.582V16H543.782V22Z" fill="#0E0E0E"/>
<path d="M546.168 29.59H553.968C553.968 30.61 554.928 31.3 559.878 31.3C564.498 31.3 565.188 31 565.188 30.22C565.188 29.32 564.498 29.2 559.578 29.05C550.098 28.75 546.468 27.19 546.468 22.3C546.468 17.68 550.998 15.7 559.278 15.7C567.468 15.7 572.088 17.68 572.088 23.05H564.288C564.288 21.94 562.488 21.7 558.678 21.7C555.018 21.7 554.268 21.88 554.268 22.69C554.268 23.5 555.018 23.47 559.578 23.65C567.858 23.98 572.988 24.55 572.988 30.04C572.988 35.83 568.188 37.3 559.578 37.3C550.968 37.3 546.168 35.83 546.168 29.59Z" fill="#0E0E0E"/>
<rect x="591.988" y="22.5" width="8" height="8" fill="#0E0E0E"/>
<path d="M618.988 29.59H626.788C626.788 30.61 627.748 31.3 632.698 31.3C637.318 31.3 638.008 31 638.008 30.22C638.008 29.32 637.318 29.2 632.398 29.05C622.918 28.75 619.288 27.19 619.288 22.3C619.288 17.68 623.818 15.7 632.098 15.7C640.288 15.7 644.908 17.68 644.908 23.05H637.108C637.108 21.94 635.308 21.7 631.498 21.7C627.838 21.7 627.088 21.88 627.088 22.69C627.088 23.5 627.838 23.47 632.398 23.65C640.678 23.98 645.808 24.55 645.808 30.04C645.808 35.83 641.008 37.3 632.398 37.3C623.788 37.3 618.988 35.83 618.988 29.59Z" fill="#0E0E0E"/>
<path d="M673.424 16V22.6H664.424V37H656.624V22.6H647.624V16H673.424Z" fill="#0E0E0E"/>
<path d="M702.52 26.47C702.52 33.76 698.53 37.3 689.32 37.3C680.08 37.3 676.12 33.79 676.12 26.47V16H683.92V26.47C683.92 28.72 684.73 30.7 689.32 30.7C693.91 30.7 694.72 28.69 694.72 26.47V16H702.52V26.47Z" fill="#0E0E0E"/>
<path d="M721.118 16C726.188 16 730.958 19.36 730.958 26.5C730.958 33.64 726.188 37 721.118 37H705.518V16H721.118ZM718.718 30.4C720.398 30.4 723.158 30.4 723.158 26.5C723.158 22.6 720.398 22.6 718.718 22.6H713.318V30.4H718.718Z" fill="#0E0E0E"/>
<path d="M741.047 30.1L730.367 16H739.367L744.947 23.8L750.527 16H759.527L748.847 30.1V37H741.047V30.1Z" fill="#0E0E0E"/>
<path d="M775.745 26.47C775.745 19.18 779.705 15.7 788.945 15.7C797.345 15.7 801.725 18.64 802.055 25.27H794.075C793.775 23.29 792.245 22.3 788.945 22.3C784.325 22.3 783.545 24.25 783.545 26.47C783.545 28.72 784.355 30.7 788.945 30.7C792.245 30.7 793.775 29.68 794.075 27.67H802.055C801.725 34.33 797.375 37.3 788.945 37.3C779.705 37.3 775.745 33.79 775.745 26.47Z" fill="#0E0E0E"/>
<path d="M822.173 37L820.733 33.22H811.793L810.353 37H801.773L810.473 16H822.053L830.753 37H822.173ZM813.833 27.82H818.693L816.263 21.4L813.833 27.82Z" fill="#0E0E0E"/>
<path d="M831.054 29.59H838.854C838.854 30.61 839.814 31.3 844.764 31.3C849.384 31.3 850.074 31 850.074 30.22C850.074 29.32 849.384 29.2 844.464 29.05C834.984 28.75 831.354 27.19 831.354 22.3C831.354 17.68 835.884 15.7 844.164 15.7C852.354 15.7 856.974 17.68 856.974 23.05H849.174C849.174 21.94 847.374 21.7 843.564 21.7C839.904 21.7 839.154 21.88 839.154 22.69C839.154 23.5 839.904 23.47 844.464 23.65C852.744 23.98 857.874 24.55 857.874 30.04C857.874 35.83 853.074 37.3 844.464 37.3C835.854 37.3 831.054 35.83 831.054 29.59Z" fill="#0E0E0E"/>
<path d="M882.776 22H868.376V23.95H882.776V29.05H868.376V31H882.776V37H860.576V16H882.776V22Z" fill="#0E0E0E"/>
<path d="M885.161 29.59H892.962C892.962 30.61 893.922 31.3 898.872 31.3C903.492 31.3 904.182 31 904.182 30.22C904.182 29.32 903.492 29.2 898.572 29.05C889.092 28.75 885.462 27.19 885.462 22.3C885.462 17.68 889.992 15.7 898.272 15.7C906.462 15.7 911.082 17.68 911.082 23.05H903.282C903.282 21.94 901.482 21.7 897.672 21.7C894.012 21.7 893.262 21.88 893.262 22.69C893.262 23.5 894.012 23.47 898.572 23.65C906.852 23.98 911.982 24.55 911.982 30.04C911.982 35.83 907.182 37.3 898.572 37.3C889.962 37.3 885.161 35.83 885.161 29.59Z" fill="#0E0E0E"/>
<rect x="930.982" y="22.5" width="8" height="8" fill="#0E0E0E"/>
<path d="M957.982 29.59H965.782C965.782 30.61 966.742 31.3 971.692 31.3C976.312 31.3 977.002 31 977.002 30.22C977.002 29.32 976.312 29.2 971.392 29.05C961.912 28.75 958.282 27.19 958.282 22.3C958.282 17.68 962.812 15.7 971.092 15.7C979.282 15.7 983.902 17.68 983.902 23.05H976.102C976.102 21.94 974.302 21.7 970.492 21.7C966.832 21.7 966.082 21.88 966.082 22.69C966.082 23.5 966.832 23.47 971.392 23.65C979.672 23.98 984.802 24.55 984.802 30.04C984.802 35.83 980.002 37.3 971.392 37.3C962.782 37.3 957.982 35.83 957.982 29.59Z" fill="#0E0E0E"/>
<path d="M1012.42 16V22.6H1003.42V37H995.617V22.6H986.617V16H1012.42Z" fill="#0E0E0E"/>
<path d="M1041.51 26.47C1041.51 33.76 1037.52 37.3 1028.31 37.3C1019.07 37.3 1015.11 33.79 1015.11 26.47V16H1022.91V26.47C1022.91 28.72 1023.72 30.7 1028.31 30.7C1032.9 30.7 1033.71 28.69 1033.71 26.47V16H1041.51V26.47Z" fill="#0E0E0E"/>
<path d="M1060.11 16C1065.18 16 1069.95 19.36 1069.95 26.5C1069.95 33.64 1065.18 37 1060.11 37H1044.51V16H1060.11ZM1057.71 30.4C1059.39 30.4 1062.15 30.4 1062.15 26.5C1062.15 22.6 1059.39 22.6 1057.71 22.6H1052.31V30.4H1057.71Z" fill="#0E0E0E"/>
<path d="M1080.04 30.1L1069.36 16H1078.36L1083.94 23.8L1089.52 16H1098.52L1087.84 30.1V37H1080.04V30.1Z" fill="#0E0E0E"/>
<path d="M1114.74 26.47C1114.74 19.18 1118.7 15.7 1127.94 15.7C1136.34 15.7 1140.72 18.64 1141.05 25.27H1133.07C1132.77 23.29 1131.24 22.3 1127.94 22.3C1123.32 22.3 1122.54 24.25 1122.54 26.47C1122.54 28.72 1123.35 30.7 1127.94 30.7C1131.24 30.7 1132.77 29.68 1133.07 27.67H1141.05C1140.72 34.33 1136.37 37.3 1127.94 37.3C1118.7 37.3 1114.74 33.79 1114.74 26.47Z" fill="#0E0E0E"/>
<path d="M1161.17 37L1159.73 33.22H1150.79L1149.35 37H1140.77L1149.47 16H1161.05L1169.75 37H1161.17ZM1152.83 27.82H1157.69L1155.26 21.4L1152.83 27.82Z" fill="#0E0E0E"/>
<path d="M1170.05 29.59H1177.85C1177.85 30.61 1178.81 31.3 1183.76 31.3C1188.38 31.3 1189.07 31 1189.07 30.22C1189.07 29.32 1188.38 29.2 1183.46 29.05C1173.98 28.75 1170.35 27.19 1170.35 22.3C1170.35 17.68 1174.88 15.7 1183.16 15.7C1191.35 15.7 1195.97 17.68 1195.97 23.05H1188.17C1188.17 21.94 1186.37 21.7 1182.56 21.7C1178.9 21.7 1178.15 21.88 1178.15 22.69C1178.15 23.5 1178.9 23.47 1183.46 23.65C1191.74 23.98 1196.87 24.55 1196.87 30.04C1196.87 35.83 1192.07 37.3 1183.46 37.3C1174.85 37.3 1170.05 35.83 1170.05 29.59Z" fill="#0E0E0E"/>
<path d="M1221.77 22H1207.37V23.95H1221.77V29.05H1207.37V31H1221.77V37H1199.57V16H1221.77V22Z" fill="#0E0E0E"/>
<path d="M1224.16 29.59H1231.96C1231.96 30.61 1232.92 31.3 1237.87 31.3C1242.49 31.3 1243.18 31 1243.18 30.22C1243.18 29.32 1242.49 29.2 1237.57 29.05C1228.09 28.75 1224.46 27.19 1224.46 22.3C1224.46 17.68 1228.99 15.7 1237.27 15.7C1245.46 15.7 1250.08 17.68 1250.08 23.05H1242.28C1242.28 21.94 1240.48 21.7 1236.67 21.7C1233.01 21.7 1232.26 21.88 1232.26 22.69C1232.26 23.5 1233.01 23.47 1237.57 23.65C1245.85 23.98 1250.98 24.55 1250.98 30.04C1250.98 35.83 1246.18 37.3 1237.57 37.3C1228.96 37.3 1224.16 35.83 1224.16 29.59Z" fill="#0E0E0E"/>
<rect x="1269.98" y="22.5" width="8" height="8" fill="#0E0E0E"/>
<path d="M1296.98 29.59H1304.78C1304.78 30.61 1305.74 31.3 1310.69 31.3C1315.31 31.3 1316 31 1316 30.22C1316 29.32 1315.31 29.2 1310.39 29.05C1300.91 28.75 1297.28 27.19 1297.28 22.3C1297.28 17.68 1301.81 15.7 1310.09 15.7C1318.28 15.7 1322.9 17.68 1322.9 23.05H1315.1C1315.1 21.94 1313.3 21.7 1309.49 21.7C1305.83 21.7 1305.08 21.88 1305.08 22.69C1305.08 23.5 1305.83 23.47 1310.39 23.65C1318.67 23.98 1323.8 24.55 1323.8 30.04C1323.8 35.83 1319 37.3 1310.39 37.3C1301.78 37.3 1296.98 35.83 1296.98 29.59Z" fill="#0E0E0E"/>
<path d="M1351.41 16V22.6H1342.41V37H1334.61V22.6H1325.61V16H1351.41Z" fill="#0E0E0E"/>
<path d="M1380.51 26.47C1380.51 33.76 1376.52 37.3 1367.31 37.3C1358.07 37.3 1354.11 33.79 1354.11 26.47V16H1361.91V26.47C1361.91 28.72 1362.72 30.7 1367.31 30.7C1371.9 30.7 1372.71 28.69 1372.71 26.47V16H1380.51V26.47Z" fill="#0E0E0E"/>
<path d="M1399.11 16C1404.18 16 1408.95 19.36 1408.95 26.5C1408.95 33.64 1404.18 37 1399.11 37H1383.51V16H1399.11ZM1396.71 30.4C1398.39 30.4 1401.15 30.4 1401.15 26.5C1401.15 22.6 1398.39 22.6 1396.71 22.6H1391.31V30.4H1396.71Z" fill="#0E0E0E"/>
<path d="M1419.04 30.1L1408.36 16H1417.36L1422.94 23.8L1428.52 16H1437.52L1426.84 30.1V37H1419.04V30.1Z" fill="#0E0E0E"/>
<path d="M1453.73 26.47C1453.73 19.18 1457.69 15.7 1466.93 15.7C1475.33 15.7 1479.71 18.64 1480.04 25.27H1472.06C1471.76 23.29 1470.23 22.3 1466.93 22.3C1462.31 22.3 1461.53 24.25 1461.53 26.47C1461.53 28.72 1462.34 30.7 1466.93 30.7C1470.23 30.7 1471.76 29.68 1472.06 27.67H1480.04C1479.71 34.33 1475.36 37.3 1466.93 37.3C1457.69 37.3 1453.73 33.79 1453.73 26.47Z" fill="#0E0E0E"/>
<path d="M1500.16 37L1498.72 33.22H1489.78L1488.34 37H1479.76L1488.46 16H1500.04L1508.74 37H1500.16ZM1491.82 27.82H1496.68L1494.25 21.4L1491.82 27.82Z" fill="#0E0E0E"/>
<path d="M1509.04 29.59H1516.84C1516.84 30.61 1517.8 31.3 1522.75 31.3C1527.37 31.3 1528.06 31 1528.06 30.22C1528.06 29.32 1527.37 29.2 1522.45 29.05C1512.97 28.75 1509.34 27.19 1509.34 22.3C1509.34 17.68 1513.87 15.7 1522.15 15.7C1530.34 15.7 1534.96 17.68 1534.96 23.05H1527.16C1527.16 21.94 1525.36 21.7 1521.55 21.7C1517.89 21.7 1517.14 21.88 1517.14 22.69C1517.14 23.5 1517.89 23.47 1522.45 23.65C1530.73 23.98 1535.86 24.55 1535.86 30.04C1535.86 35.83 1531.06 37.3 1522.45 37.3C1513.84 37.3 1509.04 35.83 1509.04 29.59Z" fill="#0E0E0E"/>
<path d="M1560.76 22H1546.36V23.95H1560.76V29.05H1546.36V31H1560.76V37H1538.56V16H1560.76V22Z" fill="#0E0E0E"/>
<path d="M1563.15 29.59H1570.95C1570.95 30.61 1571.91 31.3 1576.86 31.3C1581.48 31.3 1582.17 31 1582.17 30.22C1582.17 29.32 1581.48 29.2 1576.56 29.05C1567.08 28.75 1563.45 27.19 1563.45 22.3C1563.45 17.68 1567.98 15.7 1576.26 15.7C1584.45 15.7 1589.07 17.68 1589.07 23.05H1581.27C1581.27 21.94 1579.47 21.7 1575.66 21.7C1572 21.7 1571.25 21.88 1571.25 22.69C1571.25 23.5 1572 23.47 1576.56 23.65C1584.84 23.98 1589.97 24.55 1589.97 30.04C1589.97 35.83 1585.17 37.3 1576.56 37.3C1567.95 37.3 1563.15 35.83 1563.15 29.59Z" fill="#0E0E0E"/>
<rect x="1608.97" y="22.5" width="8" height="8" fill="#0E0E0E"/>
<path d="M1635.97 29.59H1643.77C1643.77 30.61 1644.73 31.3 1649.68 31.3C1654.3 31.3 1654.99 31 1654.99 30.22C1654.99 29.32 1654.3 29.2 1649.38 29.05C1639.9 28.75 1636.27 27.19 1636.27 22.3C1636.27 17.68 1640.8 15.7 1649.08 15.7C1657.27 15.7 1661.89 17.68 1661.89 23.05H1654.09C1654.09 21.94 1652.29 21.7 1648.48 21.7C1644.82 21.7 1644.07 21.88 1644.07 22.69C1644.07 23.5 1644.82 23.47 1649.38 23.65C1657.66 23.98 1662.79 24.55 1662.79 30.04C1662.79 35.83 1657.99 37.3 1649.38 37.3C1640.77 37.3 1635.97 35.83 1635.97 29.59Z" fill="#0E0E0E"/>
<path d="M1690.41 16V22.6H1681.41V37H1673.61V22.6H1664.61V16H1690.41Z" fill="#0E0E0E"/>
<path d="M1719.5 26.47C1719.5 33.76 1715.51 37.3 1706.3 37.3C1697.06 37.3 1693.1 33.79 1693.1 26.47V16H1700.9V26.47C1700.9 28.72 1701.71 30.7 1706.3 30.7C1710.89 30.7 1711.7 28.69 1711.7 26.47V16H1719.5V26.47Z" fill="#0E0E0E"/>
<path d="M1738.1 16C1743.17 16 1747.94 19.36 1747.94 26.5C1747.94 33.64 1743.17 37 1738.1 37H1722.5V16H1738.1ZM1735.7 30.4C1737.38 30.4 1740.14 30.4 1740.14 26.5C1740.14 22.6 1737.38 22.6 1735.7 22.6H1730.3V30.4H1735.7Z" fill="#0E0E0E"/>
<path d="M1758.03 30.1L1747.35 16H1756.35L1761.93 23.8L1767.51 16H1776.51L1765.83 30.1V37H1758.03V30.1Z" fill="#0E0E0E"/>
<path d="M1792.73 26.47C1792.73 19.18 1796.69 15.7 1805.93 15.7C1814.33 15.7 1818.71 18.64 1819.04 25.27H1811.06C1810.76 23.29 1809.23 22.3 1805.93 22.3C1801.31 22.3 1800.53 24.25 1800.53 26.47C1800.53 28.72 1801.34 30.7 1805.93 30.7C1809.23 30.7 1810.76 29.68 1811.06 27.67H1819.04C1818.71 34.33 1814.36 37.3 1805.93 37.3C1796.69 37.3 1792.73 33.79 1792.73 26.47Z" fill="#0E0E0E"/>
<path d="M1839.15 37L1837.71 33.22H1828.77L1827.33 37H1818.75L1827.45 16H1839.03L1847.73 37H1839.15ZM1830.81 27.82H1835.67L1833.24 21.4L1830.81 27.82Z" fill="#0E0E0E"/>
<path d="M1848.04 29.59H1855.84C1855.84 30.61 1856.8 31.3 1861.75 31.3C1866.37 31.3 1867.06 31 1867.06 30.22C1867.06 29.32 1866.37 29.2 1861.45 29.05C1851.97 28.75 1848.34 27.19 1848.34 22.3C1848.34 17.68 1852.87 15.7 1861.15 15.7C1869.34 15.7 1873.96 17.68 1873.96 23.05H1866.16C1866.16 21.94 1864.36 21.7 1860.55 21.7C1856.89 21.7 1856.14 21.88 1856.14 22.69C1856.14 23.5 1856.89 23.47 1861.45 23.65C1869.73 23.98 1874.86 24.55 1874.86 30.04C1874.86 35.83 1870.06 37.3 1861.45 37.3C1852.84 37.3 1848.04 35.83 1848.04 29.59Z" fill="#0E0E0E"/>
<path d="M1899.76 22H1885.36V23.95H1899.76V29.05H1885.36V31H1899.76V37H1877.56V16H1899.76V22Z" fill="#0E0E0E"/>
<path d="M1902.14 29.59H1909.94C1909.94 30.61 1910.9 31.3 1915.85 31.3C1920.47 31.3 1921.16 31 1921.16 30.22C1921.16 29.32 1920.47 29.2 1915.55 29.05C1906.07 28.75 1902.44 27.19 1902.44 22.3C1902.44 17.68 1906.97 15.7 1915.25 15.7C1923.44 15.7 1928.06 17.68 1928.06 23.05H1920.26C1920.26 21.94 1918.46 21.7 1914.65 21.7C1910.99 21.7 1910.24 21.88 1910.24 22.69C1910.24 23.5 1910.99 23.47 1915.55 23.65C1923.83 23.98 1928.96 24.55 1928.96 30.04C1928.96 35.83 1924.16 37.3 1915.55 37.3C1906.94 37.3 1902.14 35.83 1902.14 29.59Z" fill="#0E0E0E"/>
</g>
<defs>
<clipPath id="clip0_132_204">
<rect width="1920" height="50" fill="white"/>
</clipPath>
</defs>
</svg>
